<?xml version="1.0" encoding="UTF-8"?>
<!DOCTYPE svg PUBLIC "-//W3C//DTD SVG 1.1//EN"
    "http://www.w3.org/Graphics/SVG/1.1/DTD/svg11.dtd"><svg font-size="1" viewBox="0.0 0.0 1000.0 1000.0" stroke="rgb(0,0,0)" xmlns="http://www.w3.org/2000/svg" width="1000.0000" stroke-opacity="1" height="1000.0000" version="1.1" xmlns:xlink="http://www.w3.org/1999/xlink"><defs></defs><g stroke-linejoin="miter" fill-opacity="0.0" fill="rgb(0,0,0)" stroke="rgb(34,69,57)" stroke-linecap="butt" stroke-miterlimit="10.0" stroke-opacity="1.0" stroke-width="0.8618916073713346"><path d="M 271.4286,642.8571 v 285.7143 "/></g><g stroke-linejoin="miter" fill-opacity="0.0" fill="rgb(0,0,0)" stroke="rgb(34,69,57)" stroke-linecap="butt" stroke-miterlimit="10.0" stroke-opacity="1.0" stroke-width="0.8618916073713346"><path d="M 271.4286,357.1429 h 571.4286 v 428.5714 h -571.4286 v 142.8571 "/></g><g stroke-linejoin="miter" fill-opacity="0.0" fill="rgb(0,0,0)" stroke="rgb(34,69,57)" stroke-linecap="butt" stroke-miterlimit="10.0" stroke-opacity="1.0" stroke-width="0.8618916073713346"><path d="M 271.4286,357.1429 v 285.7143 "/></g><g stroke-linejoin="miter" fill-opacity="0.0" fill="rgb(0,0,0)" stroke="rgb(34,69,57)" stroke-linecap="butt" stroke-miterlimit="10.0" stroke-opacity="1.0" stroke-width="0.8618916073713346"><path d="M 271.4286,71.4286 v 285.7143 "/></g><g stroke-linejoin="miter" fill-opacity="1.0" fill="rgb(69,173,127)" stroke="rgb(34,69,57)" stroke-linecap="butt" stroke-miterlimit="10.0" stroke-opacity="1.0" stroke-width="0.8618916073713346"><path d="M 871.4286,642.8571 c 0.0000,-15.7796 -12.7919,-28.5714 -28.5714 -28.5714c -15.7796,-0.0000 -28.5714,12.7919 -28.5714 28.5714c -0.0000,15.7796 12.7919,28.5714 28.5714 28.5714c 15.7796,0.0000 28.5714,-12.7919 28.5714 -28.5714Z"/></g><g stroke-linejoin="miter" fill-opacity="1.0" font-size="21.428571428571427px" fill="rgb(34,69,57)" stroke="rgb(0,0,0)" font-weight="300" font-family="helvetica" stroke-linecap="butt" stroke-miterlimit="10.0" stroke-opacity="1.0" stroke-width="3.4475664294853385"><text transform="matrix(1.0000,0.0000,0.0000,1.0000,842.8571,642.8571)" stroke="none" dominant-baseline="middle" text-anchor="middle">:new:</text></g><g stroke-linejoin="miter" fill-opacity="1.0" fill="rgb(69,173,127)" stroke="rgb(34,69,57)" stroke-linecap="butt" stroke-miterlimit="10.0" stroke-opacity="1.0" stroke-width="0.8618916073713346"><path d="M 414.2857,928.5714 h 0.0000 c 0.0000,-39.4489 -31.9797,-71.4286 -71.4286 -71.4286h -142.8571 c -39.4489,-0.0000 -71.4286,31.9797 -71.4286 71.4286h 0.0000 c -0.0000,39.4489 31.9797,71.4286 71.4286 71.4286h 142.8571 c 39.4489,0.0000 71.4286,-31.9797 71.4286 -71.4286Z"/></g><g stroke-linejoin="miter" fill-opacity="1.0" font-size="21.428571428571427px" fill="rgb(34,69,57)" stroke="rgb(0,0,0)" font-weight="300" font-family="helvetica" stroke-linecap="butt" stroke-miterlimit="10.0" stroke-opacity="1.0" stroke-width="3.4475664294853385"><text transform="matrix(1.0000,0.0000,0.0000,1.0000,271.4286,928.5714)" stroke="none" dominant-baseline="middle" text-anchor="middle">end</text></g><g stroke-linejoin="miter" fill-opacity="1.0" fill="rgb(69,173,127)" stroke="rgb(34,69,57)" stroke-linecap="butt" stroke-miterlimit="10.0" stroke-opacity="1.0" stroke-width="0.8618916073713346"><path d="M 414.2857,714.2857 l -0.0000,-142.8571 h -285.7143 l -0.0000,142.8571 Z"/></g><g stroke-linejoin="miter" fill-opacity="1.0" font-size="21.428571428571427px" fill="rgb(34,69,57)" stroke="rgb(0,0,0)" font-weight="300" font-family="helvetica" stroke-linecap="butt" stroke-miterlimit="10.0" stroke-opacity="1.0" stroke-width="3.4475664294853385"><text transform="matrix(1.0000,0.0000,0.0000,1.0000,271.4286,642.8571)" stroke="none" dominant-baseline="middle" text-anchor="middle">choice 1</text></g><g stroke-linejoin="miter" fill-opacity="1.0" fill="rgb(69,173,127)" stroke="rgb(34,69,57)" stroke-linecap="butt" stroke-miterlimit="10.0" stroke-opacity="1.0" stroke-width="0.8618916073713346"><path d="M 157.1429,428.5714 l -28.5714,-71.4286 l 28.5714,-71.4286 h 228.5714 l 28.5714,71.4286 l -28.5714,71.4286 h -228.5714 Z"/></g><g stroke-linejoin="miter" fill-opacity="1.0" font-size="21.428571428571427px" fill="rgb(34,69,57)" stroke="rgb(0,0,0)" font-weight="300" font-family="helvetica" stroke-linecap="butt" stroke-miterlimit="10.0" stroke-opacity="1.0" stroke-width="3.4475664294853385"><text transform="matrix(1.0000,0.0000,0.0000,1.0000,428.5714,335.7143)" stroke="none" dominant-baseline="middle" text-anchor="middle">no</text></g><g stroke-linejoin="miter" fill-opacity="1.0" font-size="21.428571428571427px" fill="rgb(34,69,57)" stroke="rgb(0,0,0)" font-weight="300" font-family="helvetica" stroke-linecap="butt" stroke-miterlimit="10.0" stroke-opacity="1.0" stroke-width="3.4475664294853385"><text transform="matrix(1.0000,0.0000,0.0000,1.0000,242.8571,457.1429)" stroke="none" dominant-baseline="middle" text-anchor="middle">yes</text></g><g stroke-linejoin="miter" fill-opacity="1.0" font-size="21.428571428571427px" fill="rgb(34,69,57)" stroke="rgb(0,0,0)" font-weight="300" font-family="helvetica" stroke-linecap="butt" stroke-miterlimit="10.0" stroke-opacity="1.0" stroke-width="3.4475664294853385"><text transform="matrix(1.0000,0.0000,0.0000,1.0000,271.4286,357.1429)" stroke="none" dominant-baseline="middle" text-anchor="middle">question</text></g><g stroke-linejoin="miter" fill-opacity="1.0" fill="rgb(69,173,127)" stroke="rgb(34,69,57)" stroke-linecap="butt" stroke-miterlimit="10.0" stroke-opacity="1.0" stroke-width="0.8618916073713346"><path d="M 414.2857,71.4286 h 0.0000 c 0.0000,-39.4489 -31.9797,-71.4286 -71.4286 -71.4286h -142.8571 c -39.4489,-0.0000 -71.4286,31.9797 -71.4286 71.4286h 0.0000 c -0.0000,39.4489 31.9797,71.4286 71.4286 71.4286h 142.8571 c 39.4489,0.0000 71.4286,-31.9797 71.4286 -71.4286Z"/></g><g stroke-linejoin="miter" fill-opacity="1.0" font-size="21.428571428571427px" fill="rgb(34,69,57)" stroke="rgb(0,0,0)" font-weight="300" font-family="helvetica" stroke-linecap="butt" stroke-miterlimit="10.0" stroke-opacity="1.0" stroke-width="3.4475664294853385"><text transform="matrix(1.0000,0.0000,0.0000,1.0000,271.4286,71.4286)" stroke="none" dominant-baseline="middle" text-anchor="middle">title</text></g></svg>