<?xml version="1.0" encoding="UTF-8"?>
<!DOCTYPE svg PUBLIC "-//W3C//DTD SVG 1.1//EN"
    "http://www.w3.org/Graphics/SVG/1.1/DTD/svg11.dtd"><svg xmlns="http://www.w3.org/2000/svg" viewBox="0.0 0.0 1000.0 710.5263157894736" height="710.5263" font-size="1" stroke-opacity="1" width="1000.0000" xmlns:xlink="http://www.w3.org/1999/xlink" stroke="rgb(0,0,0)" version="1.1"><defs></defs><g stroke-linecap="butt" fill="rgb(230,232,216)" stroke-miterlimit="10.0" stroke-width="0.0" fill-opacity="1.0" stroke-opacity="1.0" stroke-linejoin="miter" stroke="rgb(0,0,0)"><path d="M 1000.0000,710.5263 l -0.0000,-710.5263 h -1000.0000 l -0.0000,710.5263 Z"/></g><g stroke-linecap="butt" fill="rgb(0,0,0)" stroke-miterlimit="10.0" stroke-width="0.5" fill-opacity="0.0" stroke-opacity="1.0" stroke-linejoin="miter" stroke="rgb(34,69,57)"><path d="M 894.7368,289.4737 h -157.8947 "/></g><g stroke-linecap="butt" fill="rgb(0,0,0)" stroke-miterlimit="10.0" stroke-width="0.5" fill-opacity="0.0" stroke-opacity="1.0" stroke-linejoin="miter" stroke="rgb(34,69,57)"><path d="M 894.7368,394.7368 v -105.2632 "/></g><g stroke-linecap="butt" fill="rgb(69,173,127)" stroke-miterlimit="10.0" stroke-width="0.5" fill-opacity="1.0" stroke-opacity="1.0" stroke-linejoin="miter" stroke="rgb(34,69,57)"><path d="M 1000.0000,421.0526 h 0.0000 c 0.0000,-14.5338 -11.7820,-26.3158 -26.3158 -26.3158h -157.8947 c -14.5338,-0.0000 -26.3158,11.7820 -26.3158 26.3158h 0.0000 c -0.0000,14.5338 11.7820,26.3158 26.3158 26.3158h 157.8947 c 14.5338,0.0000 26.3158,-11.7820 26.3158 -26.3158Z"/></g><g stroke-linecap="butt" fill="rgb(255,0,0)" stroke-miterlimit="10.0" stroke-width="0.0" fill-opacity="1.0" stroke-opacity="1.0" stroke-linejoin="miter" stroke="rgb(0,0,0)"><path d="M 898.9474,421.0526 c 0.0000,-2.3254 -1.8851,-4.2105 -4.2105 -4.2105c -2.3254,-0.0000 -4.2105,1.8851 -4.2105 4.2105c -0.0000,2.3254 1.8851,4.2105 4.2105 4.2105c 2.3254,0.0000 4.2105,-1.8851 4.2105 -4.2105Z"/></g><g stroke-linecap="butt" font-family="helvetica" fill="rgb(34,69,57)" font-size="13.157894736842104px" stroke-miterlimit="10.0" stroke-width="0.0" fill-opacity="1.0" stroke-opacity="1.0" stroke-linejoin="miter" stroke="rgb(0,0,0)" font-weight="300"><text transform="matrix(1.0000,0.0000,0.0000,1.0000,894.7368,434.2105)" dominant-baseline="middle" text-anchor="middle" stroke="none">max width: 6.0</text></g><g stroke-linecap="butt" font-family="helvetica" fill="rgb(34,69,57)" font-size="13.157894736842104px" stroke-miterlimit="10.0" stroke-width="0.0" fill-opacity="1.0" stroke-opacity="1.0" stroke-linejoin="miter" stroke="rgb(0,0,0)" font-weight="300"><text transform="matrix(1.0000,0.0000,0.0000,1.0000,894.7368,421.0526)" dominant-baseline="middle" text-anchor="middle" stroke="none">rendering order: 12</text></g><g stroke-linecap="butt" font-family="helvetica" fill="rgb(34,69,57)" font-size="13.157894736842104px" stroke-miterlimit="10.0" stroke-width="0.0" fill-opacity="1.0" stroke-opacity="1.0" stroke-linejoin="miter" stroke="rgb(0,0,0)" font-weight="300"><text transform="matrix(1.0000,0.0000,0.0000,1.0000,894.7368,407.8947)" dominant-baseline="middle" text-anchor="middle" stroke="none">end 4</text></g><g stroke-linecap="butt" fill="rgb(0,0,0)" stroke-miterlimit="10.0" stroke-width="0.5" fill-opacity="0.0" stroke-opacity="1.0" stroke-linejoin="miter" stroke="rgb(34,69,57)"><path d="M 631.5789,421.0526 h 0.0000 "/></g><g stroke-linecap="butt" fill="rgb(0,0,0)" stroke-miterlimit="10.0" stroke-width="0.5" fill-opacity="0.0" stroke-opacity="1.0" stroke-linejoin="miter" stroke="rgb(34,69,57)"><path d="M 631.5789,526.3158 v -78.9474 "/></g><g stroke-linecap="butt" fill="rgb(69,173,127)" stroke-miterlimit="10.0" stroke-width="0.5" fill-opacity="1.0" stroke-opacity="1.0" stroke-linejoin="miter" stroke="rgb(34,69,57)"><path d="M 736.8421,552.6316 h 0.0000 c 0.0000,-14.5338 -11.7820,-26.3158 -26.3158 -26.3158h -157.8947 c -14.5338,-0.0000 -26.3158,11.7820 -26.3158 26.3158h 0.0000 c -0.0000,14.5338 11.7820,26.3158 26.3158 26.3158h 157.8947 c 14.5338,0.0000 26.3158,-11.7820 26.3158 -26.3158Z"/></g><g stroke-linecap="butt" fill="rgb(255,0,0)" stroke-miterlimit="10.0" stroke-width="0.0" fill-opacity="1.0" stroke-opacity="1.0" stroke-linejoin="miter" stroke="rgb(0,0,0)"><path d="M 635.7895,552.6316 c 0.0000,-2.3254 -1.8851,-4.2105 -4.2105 -4.2105c -2.3254,-0.0000 -4.2105,1.8851 -4.2105 4.2105c -0.0000,2.3254 1.8851,4.2105 4.2105 4.2105c 2.3254,0.0000 4.2105,-1.8851 4.2105 -4.2105Z"/></g><g stroke-linecap="butt" font-family="helvetica" fill="rgb(34,69,57)" font-size="13.157894736842104px" stroke-miterlimit="10.0" stroke-width="0.0" fill-opacity="1.0" stroke-opacity="1.0" stroke-linejoin="miter" stroke="rgb(0,0,0)" font-weight="300"><text transform="matrix(1.0000,0.0000,0.0000,1.0000,631.5789,565.7895)" dominant-baseline="middle" text-anchor="middle" stroke="none">max width: 4.0</text></g><g stroke-linecap="butt" font-family="helvetica" fill="rgb(34,69,57)" font-size="13.157894736842104px" stroke-miterlimit="10.0" stroke-width="0.0" fill-opacity="1.0" stroke-opacity="1.0" stroke-linejoin="miter" stroke="rgb(0,0,0)" font-weight="300"><text transform="matrix(1.0000,0.0000,0.0000,1.0000,631.5789,552.6316)" dominant-baseline="middle" text-anchor="middle" stroke="none">rendering order: 11</text></g><g stroke-linecap="butt" font-family="helvetica" fill="rgb(34,69,57)" font-size="13.157894736842104px" stroke-miterlimit="10.0" stroke-width="0.0" fill-opacity="1.0" stroke-opacity="1.0" stroke-linejoin="miter" stroke="rgb(0,0,0)" font-weight="300"><text transform="matrix(1.0000,0.0000,0.0000,1.0000,631.5789,539.4737)" dominant-baseline="middle" text-anchor="middle" stroke="none">end 3</text></g><g stroke-linecap="butt" fill="rgb(0,0,0)" stroke-miterlimit="10.0" stroke-width="0.5" fill-opacity="0.0" stroke-opacity="1.0" stroke-linejoin="miter" stroke="rgb(34,69,57)"><path d="M 631.5789,289.4737 h 0.0000 "/></g><g stroke-linecap="butt" fill="rgb(0,0,0)" stroke-miterlimit="10.0" stroke-width="0.5" fill-opacity="0.0" stroke-opacity="1.0" stroke-linejoin="miter" stroke="rgb(34,69,57)"><path d="M 631.5789,394.7368 v -78.9474 "/></g><g stroke-linecap="butt" fill="rgb(69,173,127)" stroke-miterlimit="10.0" stroke-width="0.5" fill-opacity="1.0" stroke-opacity="1.0" stroke-linejoin="miter" stroke="rgb(34,69,57)"><path d="M 736.8421,447.3684 l -0.0000,-52.6316 h -210.5263 l -0.0000,52.6316 Z"/></g><g stroke-linecap="butt" fill="rgb(255,0,0)" stroke-miterlimit="10.0" stroke-width="0.0" fill-opacity="1.0" stroke-opacity="1.0" stroke-linejoin="miter" stroke="rgb(0,0,0)"><path d="M 635.7895,421.0526 c 0.0000,-2.3254 -1.8851,-4.2105 -4.2105 -4.2105c -2.3254,-0.0000 -4.2105,1.8851 -4.2105 4.2105c -0.0000,2.3254 1.8851,4.2105 4.2105 4.2105c 2.3254,0.0000 4.2105,-1.8851 4.2105 -4.2105Z"/></g><g stroke-linecap="butt" font-family="helvetica" fill="rgb(34,69,57)" font-size="13.157894736842104px" stroke-miterlimit="10.0" stroke-width="0.0" fill-opacity="1.0" stroke-opacity="1.0" stroke-linejoin="miter" stroke="rgb(0,0,0)" font-weight="300"><text transform="matrix(1.0000,0.0000,0.0000,1.0000,631.5789,434.2105)" dominant-baseline="middle" text-anchor="middle" stroke="none">max width: 4.0</text></g><g stroke-linecap="butt" font-family="helvetica" fill="rgb(34,69,57)" font-size="13.157894736842104px" stroke-miterlimit="10.0" stroke-width="0.0" fill-opacity="1.0" stroke-opacity="1.0" stroke-linejoin="miter" stroke="rgb(0,0,0)" font-weight="300"><text transform="matrix(1.0000,0.0000,0.0000,1.0000,631.5789,421.0526)" dominant-baseline="middle" text-anchor="middle" stroke="none">rendering order: 10</text></g><g stroke-linecap="butt" font-family="helvetica" fill="rgb(34,69,57)" font-size="13.157894736842104px" stroke-miterlimit="10.0" stroke-width="0.0" fill-opacity="1.0" stroke-opacity="1.0" stroke-linejoin="miter" stroke="rgb(0,0,0)" font-weight="300"><text transform="matrix(1.0000,0.0000,0.0000,1.0000,631.5789,407.8947)" dominant-baseline="middle" text-anchor="middle" stroke="none">action 4</text></g><g stroke-linecap="butt" fill="rgb(0,0,0)" stroke-miterlimit="10.0" stroke-width="0.5" fill-opacity="0.0" stroke-opacity="1.0" stroke-linejoin="miter" stroke="rgb(34,69,57)"><path d="M 631.5789,157.8947 h -421.0526 "/></g><g stroke-linecap="butt" fill="rgb(0,0,0)" stroke-miterlimit="10.0" stroke-width="0.5" fill-opacity="0.0" stroke-opacity="1.0" stroke-linejoin="miter" stroke="rgb(34,69,57)"><path d="M 631.5789,263.1579 v -105.2632 "/></g><g stroke-linecap="butt" fill="rgb(69,173,127)" stroke-miterlimit="10.0" stroke-width="0.5" fill-opacity="1.0" stroke-opacity="1.0" stroke-linejoin="miter" stroke="rgb(34,69,57)"><path d="M 539.4737,315.7895 l -13.1579,-26.3158 l 13.1579,-26.3158 h 184.2105 l 13.1579,26.3158 l -13.1579,26.3158 h -184.2105 Z"/></g><g stroke-linecap="butt" fill="rgb(255,0,0)" stroke-miterlimit="10.0" stroke-width="0.0" fill-opacity="1.0" stroke-opacity="1.0" stroke-linejoin="miter" stroke="rgb(0,0,0)"><path d="M 635.7895,289.4737 c 0.0000,-2.3254 -1.8851,-4.2105 -4.2105 -4.2105c -2.3254,-0.0000 -4.2105,1.8851 -4.2105 4.2105c -0.0000,2.3254 1.8851,4.2105 4.2105 4.2105c 2.3254,0.0000 4.2105,-1.8851 4.2105 -4.2105Z"/></g><g stroke-linecap="butt" font-family="helvetica" fill="rgb(34,69,57)" font-size="13.157894736842104px" stroke-miterlimit="10.0" stroke-width="0.0" fill-opacity="1.0" stroke-opacity="1.0" stroke-linejoin="miter" stroke="rgb(0,0,0)" font-weight="300"><text transform="matrix(1.0000,0.0000,0.0000,1.0000,747.3684,281.5789)" dominant-baseline="middle" text-anchor="middle" stroke="none">no</text></g><g stroke-linecap="butt" font-family="helvetica" fill="rgb(34,69,57)" font-size="13.157894736842104px" stroke-miterlimit="10.0" stroke-width="0.0" fill-opacity="1.0" stroke-opacity="1.0" stroke-linejoin="miter" stroke="rgb(0,0,0)" font-weight="300"><text transform="matrix(1.0000,0.0000,0.0000,1.0000,610.5263,326.3158)" dominant-baseline="middle" text-anchor="middle" stroke="none">yes</text></g><g stroke-linecap="butt" font-family="helvetica" fill="rgb(34,69,57)" font-size="13.157894736842104px" stroke-miterlimit="10.0" stroke-width="0.0" fill-opacity="1.0" stroke-opacity="1.0" stroke-linejoin="miter" stroke="rgb(0,0,0)" font-weight="300"><text transform="matrix(1.0000,0.0000,0.0000,1.0000,631.5789,302.6316)" dominant-baseline="middle" text-anchor="middle" stroke="none">max width: 4.0</text></g><g stroke-linecap="butt" font-family="helvetica" fill="rgb(34,69,57)" font-size="13.157894736842104px" stroke-miterlimit="10.0" stroke-width="0.0" fill-opacity="1.0" stroke-opacity="1.0" stroke-linejoin="miter" stroke="rgb(0,0,0)" font-weight="300"><text transform="matrix(1.0000,0.0000,0.0000,1.0000,631.5789,289.4737)" dominant-baseline="middle" text-anchor="middle" stroke="none">rendering order: 9</text></g><g stroke-linecap="butt" font-family="helvetica" fill="rgb(34,69,57)" font-size="13.157894736842104px" stroke-miterlimit="10.0" stroke-width="0.0" fill-opacity="1.0" stroke-opacity="1.0" stroke-linejoin="miter" stroke="rgb(0,0,0)" font-weight="300"><text transform="matrix(1.0000,0.0000,0.0000,1.0000,631.5789,276.3158)" dominant-baseline="middle" text-anchor="middle" stroke="none">question 3</text></g><g stroke-linecap="butt" fill="rgb(0,0,0)" stroke-miterlimit="10.0" stroke-width="0.5" fill-opacity="0.0" stroke-opacity="1.0" stroke-linejoin="miter" stroke="rgb(34,69,57)"><path d="M 368.4211,552.6316 h 0.0000 "/></g><g stroke-linecap="butt" fill="rgb(0,0,0)" stroke-miterlimit="10.0" stroke-width="0.5" fill-opacity="0.0" stroke-opacity="1.0" stroke-linejoin="miter" stroke="rgb(34,69,57)"><path d="M 368.4211,657.8947 v -78.9474 "/></g><g stroke-linecap="butt" fill="rgb(69,173,127)" stroke-miterlimit="10.0" stroke-width="0.5" fill-opacity="1.0" stroke-opacity="1.0" stroke-linejoin="miter" stroke="rgb(34,69,57)"><path d="M 473.6842,684.2105 h 0.0000 c 0.0000,-14.5338 -11.7820,-26.3158 -26.3158 -26.3158h -157.8947 c -14.5338,-0.0000 -26.3158,11.7820 -26.3158 26.3158h 0.0000 c -0.0000,14.5338 11.7820,26.3158 26.3158 26.3158h 157.8947 c 14.5338,0.0000 26.3158,-11.7820 26.3158 -26.3158Z"/></g><g stroke-linecap="butt" fill="rgb(255,0,0)" stroke-miterlimit="10.0" stroke-width="0.0" fill-opacity="1.0" stroke-opacity="1.0" stroke-linejoin="miter" stroke="rgb(0,0,0)"><path d="M 372.6316,684.2105 c 0.0000,-2.3254 -1.8851,-4.2105 -4.2105 -4.2105c -2.3254,-0.0000 -4.2105,1.8851 -4.2105 4.2105c -0.0000,2.3254 1.8851,4.2105 4.2105 4.2105c 2.3254,0.0000 4.2105,-1.8851 4.2105 -4.2105Z"/></g><g stroke-linecap="butt" font-family="helvetica" fill="rgb(34,69,57)" font-size="13.157894736842104px" stroke-miterlimit="10.0" stroke-width="0.0" fill-opacity="1.0" stroke-opacity="1.0" stroke-linejoin="miter" stroke="rgb(0,0,0)" font-weight="300"><text transform="matrix(1.0000,0.0000,0.0000,1.0000,368.4211,697.3684)" dominant-baseline="middle" text-anchor="middle" stroke="none">max width: 2.0</text></g><g stroke-linecap="butt" font-family="helvetica" fill="rgb(34,69,57)" font-size="13.157894736842104px" stroke-miterlimit="10.0" stroke-width="0.0" fill-opacity="1.0" stroke-opacity="1.0" stroke-linejoin="miter" stroke="rgb(0,0,0)" font-weight="300"><text transform="matrix(1.0000,0.0000,0.0000,1.0000,368.4211,684.2105)" dominant-baseline="middle" text-anchor="middle" stroke="none">rendering order: 8</text></g><g stroke-linecap="butt" font-family="helvetica" fill="rgb(34,69,57)" font-size="13.157894736842104px" stroke-miterlimit="10.0" stroke-width="0.0" fill-opacity="1.0" stroke-opacity="1.0" stroke-linejoin="miter" stroke="rgb(0,0,0)" font-weight="300"><text transform="matrix(1.0000,0.0000,0.0000,1.0000,368.4211,671.0526)" dominant-baseline="middle" text-anchor="middle" stroke="none">end 2</text></g><g stroke-linecap="butt" fill="rgb(0,0,0)" stroke-miterlimit="10.0" stroke-width="0.5" fill-opacity="0.0" stroke-opacity="1.0" stroke-linejoin="miter" stroke="rgb(34,69,57)"><path d="M 368.4211,421.0526 h -157.8947 "/></g><g stroke-linecap="butt" fill="rgb(0,0,0)" stroke-miterlimit="10.0" stroke-width="0.5" fill-opacity="0.0" stroke-opacity="1.0" stroke-linejoin="miter" stroke="rgb(34,69,57)"><path d="M 368.4211,526.3158 v -105.2632 "/></g><g stroke-linecap="butt" fill="rgb(69,173,127)" stroke-miterlimit="10.0" stroke-width="0.5" fill-opacity="1.0" stroke-opacity="1.0" stroke-linejoin="miter" stroke="rgb(34,69,57)"><path d="M 473.6842,578.9474 l -0.0000,-52.6316 h -210.5263 l -0.0000,52.6316 Z"/></g><g stroke-linecap="butt" fill="rgb(255,0,0)" stroke-miterlimit="10.0" stroke-width="0.0" fill-opacity="1.0" stroke-opacity="1.0" stroke-linejoin="miter" stroke="rgb(0,0,0)"><path d="M 372.6316,552.6316 c 0.0000,-2.3254 -1.8851,-4.2105 -4.2105 -4.2105c -2.3254,-0.0000 -4.2105,1.8851 -4.2105 4.2105c -0.0000,2.3254 1.8851,4.2105 4.2105 4.2105c 2.3254,0.0000 4.2105,-1.8851 4.2105 -4.2105Z"/></g><g stroke-linecap="butt" font-family="helvetica" fill="rgb(34,69,57)" font-size="13.157894736842104px" stroke-miterlimit="10.0" stroke-width="0.0" fill-opacity="1.0" stroke-opacity="1.0" stroke-linejoin="miter" stroke="rgb(0,0,0)" font-weight="300"><text transform="matrix(1.0000,0.0000,0.0000,1.0000,368.4211,565.7895)" dominant-baseline="middle" text-anchor="middle" stroke="none">max width: 2.0</text></g><g stroke-linecap="butt" font-family="helvetica" fill="rgb(34,69,57)" font-size="13.157894736842104px" stroke-miterlimit="10.0" stroke-width="0.0" fill-opacity="1.0" stroke-opacity="1.0" stroke-linejoin="miter" stroke="rgb(0,0,0)" font-weight="300"><text transform="matrix(1.0000,0.0000,0.0000,1.0000,368.4211,552.6316)" dominant-baseline="middle" text-anchor="middle" stroke="none">rendering order: 7</text></g><g stroke-linecap="butt" font-family="helvetica" fill="rgb(34,69,57)" font-size="13.157894736842104px" stroke-miterlimit="10.0" stroke-width="0.0" fill-opacity="1.0" stroke-opacity="1.0" stroke-linejoin="miter" stroke="rgb(0,0,0)" font-weight="300"><text transform="matrix(1.0000,0.0000,0.0000,1.0000,368.4211,539.4737)" dominant-baseline="middle" text-anchor="middle" stroke="none">action 3</text></g><g stroke-linecap="butt" fill="rgb(0,0,0)" stroke-miterlimit="10.0" stroke-width="0.5" fill-opacity="0.0" stroke-opacity="1.0" stroke-linejoin="miter" stroke="rgb(34,69,57)"><path d="M 105.2632,552.6316 h 0.0000 "/></g><g stroke-linecap="butt" fill="rgb(0,0,0)" stroke-miterlimit="10.0" stroke-width="0.5" fill-opacity="0.0" stroke-opacity="1.0" stroke-linejoin="miter" stroke="rgb(34,69,57)"><path d="M 105.2632,657.8947 v -78.9474 "/></g><g stroke-linecap="butt" fill="rgb(69,173,127)" stroke-miterlimit="10.0" stroke-width="0.5" fill-opacity="1.0" stroke-opacity="1.0" stroke-linejoin="miter" stroke="rgb(34,69,57)"><path d="M 210.5263,684.2105 h 0.0000 c 0.0000,-14.5338 -11.7820,-26.3158 -26.3158 -26.3158h -157.8947 c -14.5338,-0.0000 -26.3158,11.7820 -26.3158 26.3158h 0.0000 c -0.0000,14.5338 11.7820,26.3158 26.3158 26.3158h 157.8947 c 14.5338,0.0000 26.3158,-11.7820 26.3158 -26.3158Z"/></g><g stroke-linecap="butt" fill="rgb(255,0,0)" stroke-miterlimit="10.0" stroke-width="0.0" fill-opacity="1.0" stroke-opacity="1.0" stroke-linejoin="miter" stroke="rgb(0,0,0)"><path d="M 109.4737,684.2105 c 0.0000,-2.3254 -1.8851,-4.2105 -4.2105 -4.2105c -2.3254,-0.0000 -4.2105,1.8851 -4.2105 4.2105c -0.0000,2.3254 1.8851,4.2105 4.2105 4.2105c 2.3254,0.0000 4.2105,-1.8851 4.2105 -4.2105Z"/></g><g stroke-linecap="butt" font-family="helvetica" fill="rgb(34,69,57)" font-size="13.157894736842104px" stroke-miterlimit="10.0" stroke-width="0.0" fill-opacity="1.0" stroke-opacity="1.0" stroke-linejoin="miter" stroke="rgb(0,0,0)" font-weight="300"><text transform="matrix(1.0000,0.0000,0.0000,1.0000,105.2632,697.3684)" dominant-baseline="middle" text-anchor="middle" stroke="none">max width: 0.0</text></g><g stroke-linecap="butt" font-family="helvetica" fill="rgb(34,69,57)" font-size="13.157894736842104px" stroke-miterlimit="10.0" stroke-width="0.0" fill-opacity="1.0" stroke-opacity="1.0" stroke-linejoin="miter" stroke="rgb(0,0,0)" font-weight="300"><text transform="matrix(1.0000,0.0000,0.0000,1.0000,105.2632,684.2105)" dominant-baseline="middle" text-anchor="middle" stroke="none">rendering order: 6</text></g><g stroke-linecap="butt" font-family="helvetica" fill="rgb(34,69,57)" font-size="13.157894736842104px" stroke-miterlimit="10.0" stroke-width="0.0" fill-opacity="1.0" stroke-opacity="1.0" stroke-linejoin="miter" stroke="rgb(0,0,0)" font-weight="300"><text transform="matrix(1.0000,0.0000,0.0000,1.0000,105.2632,671.0526)" dominant-baseline="middle" text-anchor="middle" stroke="none">end 1</text></g><g stroke-linecap="butt" fill="rgb(0,0,0)" stroke-miterlimit="10.0" stroke-width="0.5" fill-opacity="0.0" stroke-opacity="1.0" stroke-linejoin="miter" stroke="rgb(34,69,57)"><path d="M 105.2632,421.0526 h 0.0000 "/></g><g stroke-linecap="butt" fill="rgb(0,0,0)" stroke-miterlimit="10.0" stroke-width="0.5" fill-opacity="0.0" stroke-opacity="1.0" stroke-linejoin="miter" stroke="rgb(34,69,57)"><path d="M 105.2632,526.3158 v -78.9474 "/></g><g stroke-linecap="butt" fill="rgb(69,173,127)" stroke-miterlimit="10.0" stroke-width="0.5" fill-opacity="1.0" stroke-opacity="1.0" stroke-linejoin="miter" stroke="rgb(34,69,57)"><path d="M 210.5263,578.9474 l -0.0000,-52.6316 h -210.5263 l -0.0000,52.6316 Z"/></g><g stroke-linecap="butt" fill="rgb(255,0,0)" stroke-miterlimit="10.0" stroke-width="0.0" fill-opacity="1.0" stroke-opacity="1.0" stroke-linejoin="miter" stroke="rgb(0,0,0)"><path d="M 109.4737,552.6316 c 0.0000,-2.3254 -1.8851,-4.2105 -4.2105 -4.2105c -2.3254,-0.0000 -4.2105,1.8851 -4.2105 4.2105c -0.0000,2.3254 1.8851,4.2105 4.2105 4.2105c 2.3254,0.0000 4.2105,-1.8851 4.2105 -4.2105Z"/></g><g stroke-linecap="butt" font-family="helvetica" fill="rgb(34,69,57)" font-size="13.157894736842104px" stroke-miterlimit="10.0" stroke-width="0.0" fill-opacity="1.0" stroke-opacity="1.0" stroke-linejoin="miter" stroke="rgb(0,0,0)" font-weight="300"><text transform="matrix(1.0000,0.0000,0.0000,1.0000,105.2632,565.7895)" dominant-baseline="middle" text-anchor="middle" stroke="none">max width: 0.0</text></g><g stroke-linecap="butt" font-family="helvetica" fill="rgb(34,69,57)" font-size="13.157894736842104px" stroke-miterlimit="10.0" stroke-width="0.0" fill-opacity="1.0" stroke-opacity="1.0" stroke-linejoin="miter" stroke="rgb(0,0,0)" font-weight="300"><text transform="matrix(1.0000,0.0000,0.0000,1.0000,105.2632,552.6316)" dominant-baseline="middle" text-anchor="middle" stroke="none">rendering order: 5</text></g><g stroke-linecap="butt" font-family="helvetica" fill="rgb(34,69,57)" font-size="13.157894736842104px" stroke-miterlimit="10.0" stroke-width="0.0" fill-opacity="1.0" stroke-opacity="1.0" stroke-linejoin="miter" stroke="rgb(0,0,0)" font-weight="300"><text transform="matrix(1.0000,0.0000,0.0000,1.0000,105.2632,539.4737)" dominant-baseline="middle" text-anchor="middle" stroke="none">action 2</text></g><g stroke-linecap="butt" fill="rgb(0,0,0)" stroke-miterlimit="10.0" stroke-width="0.5" fill-opacity="0.0" stroke-opacity="1.0" stroke-linejoin="miter" stroke="rgb(34,69,57)"><path d="M 105.2632,289.4737 h 0.0000 "/></g><g stroke-linecap="butt" fill="rgb(0,0,0)" stroke-miterlimit="10.0" stroke-width="0.5" fill-opacity="0.0" stroke-opacity="1.0" stroke-linejoin="miter" stroke="rgb(34,69,57)"><path d="M 105.2632,394.7368 v -78.9474 "/></g><g stroke-linecap="butt" fill="rgb(69,173,127)" stroke-miterlimit="10.0" stroke-width="0.5" fill-opacity="1.0" stroke-opacity="1.0" stroke-linejoin="miter" stroke="rgb(34,69,57)"><path d="M 13.1579,447.3684 l -13.1579,-26.3158 l 13.1579,-26.3158 h 184.2105 l 13.1579,26.3158 l -13.1579,26.3158 h -184.2105 Z"/></g><g stroke-linecap="butt" fill="rgb(255,0,0)" stroke-miterlimit="10.0" stroke-width="0.0" fill-opacity="1.0" stroke-opacity="1.0" stroke-linejoin="miter" stroke="rgb(0,0,0)"><path d="M 109.4737,421.0526 c 0.0000,-2.3254 -1.8851,-4.2105 -4.2105 -4.2105c -2.3254,-0.0000 -4.2105,1.8851 -4.2105 4.2105c -0.0000,2.3254 1.8851,4.2105 4.2105 4.2105c 2.3254,0.0000 4.2105,-1.8851 4.2105 -4.2105Z"/></g><g stroke-linecap="butt" font-family="helvetica" fill="rgb(34,69,57)" font-size="13.157894736842104px" stroke-miterlimit="10.0" stroke-width="0.0" fill-opacity="1.0" stroke-opacity="1.0" stroke-linejoin="miter" stroke="rgb(0,0,0)" font-weight="300"><text transform="matrix(1.0000,0.0000,0.0000,1.0000,221.0526,413.1579)" dominant-baseline="middle" text-anchor="middle" stroke="none">no</text></g><g stroke-linecap="butt" font-family="helvetica" fill="rgb(34,69,57)" font-size="13.157894736842104px" stroke-miterlimit="10.0" stroke-width="0.0" fill-opacity="1.0" stroke-opacity="1.0" stroke-linejoin="miter" stroke="rgb(0,0,0)" font-weight="300"><text transform="matrix(1.0000,0.0000,0.0000,1.0000,84.2105,457.8947)" dominant-baseline="middle" text-anchor="middle" stroke="none">yes</text></g><g stroke-linecap="butt" font-family="helvetica" fill="rgb(34,69,57)" font-size="13.157894736842104px" stroke-miterlimit="10.0" stroke-width="0.0" fill-opacity="1.0" stroke-opacity="1.0" stroke-linejoin="miter" stroke="rgb(0,0,0)" font-weight="300"><text transform="matrix(1.0000,0.0000,0.0000,1.0000,105.2632,434.2105)" dominant-baseline="middle" text-anchor="middle" stroke="none">max width: 0.0</text></g><g stroke-linecap="butt" font-family="helvetica" fill="rgb(34,69,57)" font-size="13.157894736842104px" stroke-miterlimit="10.0" stroke-width="0.0" fill-opacity="1.0" stroke-opacity="1.0" stroke-linejoin="miter" stroke="rgb(0,0,0)" font-weight="300"><text transform="matrix(1.0000,0.0000,0.0000,1.0000,105.2632,421.0526)" dominant-baseline="middle" text-anchor="middle" stroke="none">rendering order: 4</text></g><g stroke-linecap="butt" font-family="helvetica" fill="rgb(34,69,57)" font-size="13.157894736842104px" stroke-miterlimit="10.0" stroke-width="0.0" fill-opacity="1.0" stroke-opacity="1.0" stroke-linejoin="miter" stroke="rgb(0,0,0)" font-weight="300"><text transform="matrix(1.0000,0.0000,0.0000,1.0000,105.2632,407.8947)" dominant-baseline="middle" text-anchor="middle" stroke="none">question 2</text></g><g stroke-linecap="butt" fill="rgb(0,0,0)" stroke-miterlimit="10.0" stroke-width="0.5" fill-opacity="0.0" stroke-opacity="1.0" stroke-linejoin="miter" stroke="rgb(34,69,57)"><path d="M 105.2632,157.8947 h 0.0000 "/></g><g stroke-linecap="butt" fill="rgb(0,0,0)" stroke-miterlimit="10.0" stroke-width="0.5" fill-opacity="0.0" stroke-opacity="1.0" stroke-linejoin="miter" stroke="rgb(34,69,57)"><path d="M 105.2632,263.1579 v -78.9474 "/></g><g stroke-linecap="butt" fill="rgb(69,173,127)" stroke-miterlimit="10.0" stroke-width="0.5" fill-opacity="1.0" stroke-opacity="1.0" stroke-linejoin="miter" stroke="rgb(34,69,57)"><path d="M 210.5263,315.7895 l -0.0000,-52.6316 h -210.5263 l -0.0000,52.6316 Z"/></g><g stroke-linecap="butt" fill="rgb(255,0,0)" stroke-miterlimit="10.0" stroke-width="0.0" fill-opacity="1.0" stroke-opacity="1.0" stroke-linejoin="miter" stroke="rgb(0,0,0)"><path d="M 109.4737,289.4737 c 0.0000,-2.3254 -1.8851,-4.2105 -4.2105 -4.2105c -2.3254,-0.0000 -4.2105,1.8851 -4.2105 4.2105c -0.0000,2.3254 1.8851,4.2105 4.2105 4.2105c 2.3254,0.0000 4.2105,-1.8851 4.2105 -4.2105Z"/></g><g stroke-linecap="butt" font-family="helvetica" fill="rgb(34,69,57)" font-size="13.157894736842104px" stroke-miterlimit="10.0" stroke-width="0.0" fill-opacity="1.0" stroke-opacity="1.0" stroke-linejoin="miter" stroke="rgb(0,0,0)" font-weight="300"><text transform="matrix(1.0000,0.0000,0.0000,1.0000,105.2632,302.6316)" dominant-baseline="middle" text-anchor="middle" stroke="none">max width: 0.0</text></g><g stroke-linecap="butt" font-family="helvetica" fill="rgb(34,69,57)" font-size="13.157894736842104px" stroke-miterlimit="10.0" stroke-width="0.0" fill-opacity="1.0" stroke-opacity="1.0" stroke-linejoin="miter" stroke="rgb(0,0,0)" font-weight="300"><text transform="matrix(1.0000,0.0000,0.0000,1.0000,105.2632,289.4737)" dominant-baseline="middle" text-anchor="middle" stroke="none">rendering order: 3</text></g><g stroke-linecap="butt" font-family="helvetica" fill="rgb(34,69,57)" font-size="13.157894736842104px" stroke-miterlimit="10.0" stroke-width="0.0" fill-opacity="1.0" stroke-opacity="1.0" stroke-linejoin="miter" stroke="rgb(0,0,0)" font-weight="300"><text transform="matrix(1.0000,0.0000,0.0000,1.0000,105.2632,276.3158)" dominant-baseline="middle" text-anchor="middle" stroke="none">action 1</text></g><g stroke-linecap="butt" fill="rgb(0,0,0)" stroke-miterlimit="10.0" stroke-width="0.5" fill-opacity="0.0" stroke-opacity="1.0" stroke-linejoin="miter" stroke="rgb(34,69,57)"><path d="M 105.2632,26.3158 h 0.0000 "/></g><g stroke-linecap="butt" fill="rgb(0,0,0)" stroke-miterlimit="10.0" stroke-width="0.5" fill-opacity="0.0" stroke-opacity="1.0" stroke-linejoin="miter" stroke="rgb(34,69,57)"><path d="M 105.2632,131.5789 v -78.9474 "/></g><g stroke-linecap="butt" fill="rgb(69,173,127)" stroke-miterlimit="10.0" stroke-width="0.5" fill-opacity="1.0" stroke-opacity="1.0" stroke-linejoin="miter" stroke="rgb(34,69,57)"><path d="M 13.1579,184.2105 l -13.1579,-26.3158 l 13.1579,-26.3158 h 184.2105 l 13.1579,26.3158 l -13.1579,26.3158 h -184.2105 Z"/></g><g stroke-linecap="butt" fill="rgb(255,0,0)" stroke-miterlimit="10.0" stroke-width="0.0" fill-opacity="1.0" stroke-opacity="1.0" stroke-linejoin="miter" stroke="rgb(0,0,0)"><path d="M 109.4737,157.8947 c 0.0000,-2.3254 -1.8851,-4.2105 -4.2105 -4.2105c -2.3254,-0.0000 -4.2105,1.8851 -4.2105 4.2105c -0.0000,2.3254 1.8851,4.2105 4.2105 4.2105c 2.3254,0.0000 4.2105,-1.8851 4.2105 -4.2105Z"/></g><g stroke-linecap="butt" font-family="helvetica" fill="rgb(34,69,57)" font-size="13.157894736842104px" stroke-miterlimit="10.0" stroke-width="0.0" fill-opacity="1.0" stroke-opacity="1.0" stroke-linejoin="miter" stroke="rgb(0,0,0)" font-weight="300"><text transform="matrix(1.0000,0.0000,0.0000,1.0000,221.0526,150.0000)" dominant-baseline="middle" text-anchor="middle" stroke="none">no</text></g><g stroke-linecap="butt" font-family="helvetica" fill="rgb(34,69,57)" font-size="13.157894736842104px" stroke-miterlimit="10.0" stroke-width="0.0" fill-opacity="1.0" stroke-opacity="1.0" stroke-linejoin="miter" stroke="rgb(0,0,0)" font-weight="300"><text transform="matrix(1.0000,0.0000,0.0000,1.0000,84.2105,194.7368)" dominant-baseline="middle" text-anchor="middle" stroke="none">yes</text></g><g stroke-linecap="butt" font-family="helvetica" fill="rgb(34,69,57)" font-size="13.157894736842104px" stroke-miterlimit="10.0" stroke-width="0.0" fill-opacity="1.0" stroke-opacity="1.0" stroke-linejoin="miter" stroke="rgb(0,0,0)" font-weight="300"><text transform="matrix(1.0000,0.0000,0.0000,1.0000,105.2632,171.0526)" dominant-baseline="middle" text-anchor="middle" stroke="none">max width: 0.0</text></g><g stroke-linecap="butt" font-family="helvetica" fill="rgb(34,69,57)" font-size="13.157894736842104px" stroke-miterlimit="10.0" stroke-width="0.0" fill-opacity="1.0" stroke-opacity="1.0" stroke-linejoin="miter" stroke="rgb(0,0,0)" font-weight="300"><text transform="matrix(1.0000,0.0000,0.0000,1.0000,105.2632,157.8947)" dominant-baseline="middle" text-anchor="middle" stroke="none">rendering order: 2</text></g><g stroke-linecap="butt" font-family="helvetica" fill="rgb(34,69,57)" font-size="13.157894736842104px" stroke-miterlimit="10.0" stroke-width="0.0" fill-opacity="1.0" stroke-opacity="1.0" stroke-linejoin="miter" stroke="rgb(0,0,0)" font-weight="300"><text transform="matrix(1.0000,0.0000,0.0000,1.0000,105.2632,144.7368)" dominant-baseline="middle" text-anchor="middle" stroke="none">question 1</text></g><g stroke-linecap="butt" fill="rgb(69,173,127)" stroke-miterlimit="10.0" stroke-width="0.5" fill-opacity="1.0" stroke-opacity="1.0" stroke-linejoin="miter" stroke="rgb(34,69,57)"><path d="M 210.5263,26.3158 h 0.0000 c 0.0000,-14.5338 -11.7820,-26.3158 -26.3158 -26.3158h -157.8947 c -14.5338,-0.0000 -26.3158,11.7820 -26.3158 26.3158h 0.0000 c -0.0000,14.5338 11.7820,26.3158 26.3158 26.3158h 157.8947 c 14.5338,0.0000 26.3158,-11.7820 26.3158 -26.3158Z"/></g><g stroke-linecap="butt" fill="rgb(255,0,0)" stroke-miterlimit="10.0" stroke-width="0.0" fill-opacity="1.0" stroke-opacity="1.0" stroke-linejoin="miter" stroke="rgb(0,0,0)"><path d="M 109.4737,26.3158 c 0.0000,-2.3254 -1.8851,-4.2105 -4.2105 -4.2105c -2.3254,-0.0000 -4.2105,1.8851 -4.2105 4.2105c -0.0000,2.3254 1.8851,4.2105 4.2105 4.2105c 2.3254,0.0000 4.2105,-1.8851 4.2105 -4.2105Z"/></g><g stroke-linecap="butt" font-family="helvetica" fill="rgb(34,69,57)" font-size="13.157894736842104px" stroke-miterlimit="10.0" stroke-width="0.0" fill-opacity="1.0" stroke-opacity="1.0" stroke-linejoin="miter" stroke="rgb(0,0,0)" font-weight="300"><text transform="matrix(1.0000,0.0000,0.0000,1.0000,105.2632,39.4737)" dominant-baseline="middle" text-anchor="middle" stroke="none">max width: 0.0</text></g><g stroke-linecap="butt" font-family="helvetica" fill="rgb(34,69,57)" font-size="13.157894736842104px" stroke-miterlimit="10.0" stroke-width="0.0" fill-opacity="1.0" stroke-opacity="1.0" stroke-linejoin="miter" stroke="rgb(0,0,0)" font-weight="300"><text transform="matrix(1.0000,0.0000,0.0000,1.0000,105.2632,26.3158)" dominant-baseline="middle" text-anchor="middle" stroke="none">rendering order: 1</text></g><g stroke-linecap="butt" font-family="helvetica" fill="rgb(34,69,57)" font-size="13.157894736842104px" stroke-miterlimit="10.0" stroke-width="0.0" fill-opacity="1.0" stroke-opacity="1.0" stroke-linejoin="miter" stroke="rgb(0,0,0)" font-weight="300"><text transform="matrix(1.0000,0.0000,0.0000,1.0000,105.2632,13.1579)" dominant-baseline="middle" text-anchor="middle" stroke="none">start</text></g></svg>