<?xml version="1.0" encoding="UTF-8"?>
<!DOCTYPE svg PUBLIC "-//W3C//DTD SVG 1.1//EN"
    "http://www.w3.org/Graphics/SVG/1.1/DTD/svg11.dtd"><svg font-size="1" viewBox="0.0 0.0 1000.0 250.0" stroke="rgb(0,0,0)" xmlns="http://www.w3.org/2000/svg" width="1000.0000" stroke-opacity="1" height="250.0000" version="1.1" xmlns:xlink="http://www.w3.org/1999/xlink"><defs></defs><g stroke-linejoin="miter" fill-opacity="1.0" fill="rgb(230,232,216)" stroke="rgb(0,0,0)" stroke-linecap="butt" stroke-miterlimit="10.0" stroke-opacity="1.0" stroke-width="0.0"><path d="M 1000.0000,250.0000 l -0.0000,-250.0000 h -1000.0000 l -0.0000,250.0000 Z"/></g><g stroke-linejoin="miter" fill-opacity="1.0" fill="rgb(69,173,127)" stroke="rgb(34,69,57)" stroke-linecap="butt" stroke-miterlimit="10.0" stroke-opacity="1.0" stroke-width="0.5"><path d="M 1000.0000,125.0000 h 0.0000 c 0.0000,-69.0356 -55.9644,-125.0000 -125.0000 -125.0000h -750.0000 c -69.0356,-0.0000 -125.0000,55.9644 -125.0000 125.0000h 0.0000 c -0.0000,69.0356 55.9644,125.0000 125.0000 125.0000h 750.0000 c 69.0356,0.0000 125.0000,-55.9644 125.0000 -125.0000Z"/></g><g stroke-linejoin="miter" fill-opacity="1.0" fill="rgb(255,0,0)" stroke="rgb(0,0,0)" stroke-linecap="butt" stroke-miterlimit="10.0" stroke-opacity="1.0" stroke-width="0.0"><path d="M 520.0000,125.0000 c 0.0000,-11.0457 -8.9543,-20.0000 -20.0000 -20.0000c -11.0457,-0.0000 -20.0000,8.9543 -20.0000 20.0000c -0.0000,11.0457 8.9543,20.0000 20.0000 20.0000c 11.0457,0.0000 20.0000,-8.9543 20.0000 -20.0000Z"/></g><g stroke-linejoin="miter" fill-opacity="1.0" font-size="46.875px" fill="rgb(34,69,57)" stroke="rgb(0,0,0)" font-weight="300" font-family="helvetica" stroke-linecap="butt" stroke-miterlimit="10.0" stroke-opacity="1.0" stroke-width="0.0"><text transform="matrix(1.0000,0.0000,0.0000,1.0000,500.0000,171.8750)" stroke="none" dominant-baseline="middle" text-anchor="middle">origin coordinates: P (V2 0.0 0.0)</text></g><g stroke-linejoin="miter" fill-opacity="1.0" font-size="46.875px" fill="rgb(34,69,57)" stroke="rgb(0,0,0)" font-weight="300" font-family="helvetica" stroke-linecap="butt" stroke-miterlimit="10.0" stroke-opacity="1.0" stroke-width="0.0"><text transform="matrix(1.0000,0.0000,0.0000,1.0000,500.0000,125.0000)" stroke="none" dominant-baseline="middle" text-anchor="middle">rendering order: 1</text></g><g stroke-linejoin="miter" fill-opacity="1.0" font-size="46.875px" fill="rgb(34,69,57)" stroke="rgb(0,0,0)" font-weight="300" font-family="helvetica" stroke-linecap="butt" stroke-miterlimit="10.0" stroke-opacity="1.0" stroke-width="0.0"><text transform="matrix(1.0000,0.0000,0.0000,1.0000,500.0000,78.1250)" stroke="none" dominant-baseline="middle" text-anchor="middle">end</text></g></svg>