<?xml version="1.0" encoding="UTF-8"?>
<!DOCTYPE svg PUBLIC "-//W3C//DTD SVG 1.1//EN"
    "http://www.w3.org/Graphics/SVG/1.1/DTD/svg11.dtd"><svg xmlns="http://www.w3.org/2000/svg" viewBox="0.0 0.0 400.0 1866.666666666666" height="1866.6667" font-size="1" stroke-opacity="1" width="400.0000" xmlns:xlink="http://www.w3.org/1999/xlink" stroke="rgb(0,0,0)" version="1.1"><defs></defs><g stroke-linecap="butt" fill="rgb(0,0,0)" stroke-miterlimit="10.0" stroke-width="0.8640987597877146" fill-opacity="0.0" stroke-opacity="1.0" stroke-linejoin="miter" stroke="rgb(0,0,0)"><path d="M 400.0000,1866.6667 l -0.0000,-266.6667 h -400.0000 l -0.0000,266.6667 Z"/></g><g stroke-linecap="butt" fill="rgb(255,0,0)" stroke-miterlimit="10.0" stroke-width="0.0" fill-opacity="1.0" stroke-opacity="1.0" stroke-linejoin="miter" stroke="rgb(0,0,0)"><path d="M 208.0000,1733.3333 c 0.0000,-4.4183 -3.5817,-8.0000 -8.0000 -8.0000c -4.4183,-0.0000 -8.0000,3.5817 -8.0000 8.0000c -0.0000,4.4183 3.5817,8.0000 8.0000 8.0000c 4.4183,0.0000 8.0000,-3.5817 8.0000 -8.0000Z"/></g><g stroke-linecap="butt" fill="rgb(0,0,0)" stroke-miterlimit="10.0" stroke-width="0.8640987597877146" fill-opacity="0.0" stroke-opacity="1.0" stroke-linejoin="miter" stroke="rgb(0,0,0)"><path d="M 400.0000,1333.3333 l -0.0000,-266.6667 h -400.0000 l -0.0000,266.6667 Z"/></g><g stroke-linecap="butt" fill="rgb(255,0,0)" stroke-miterlimit="10.0" stroke-width="0.0" fill-opacity="1.0" stroke-opacity="1.0" stroke-linejoin="miter" stroke="rgb(0,0,0)"><path d="M 208.0000,1200.0000 c 0.0000,-4.4183 -3.5817,-8.0000 -8.0000 -8.0000c -4.4183,-0.0000 -8.0000,3.5817 -8.0000 8.0000c -0.0000,4.4183 3.5817,8.0000 8.0000 8.0000c 4.4183,0.0000 8.0000,-3.5817 8.0000 -8.0000Z"/></g><g stroke-linecap="butt" fill="rgb(0,0,0)" stroke-miterlimit="10.0" stroke-width="0.8640987597877146" fill-opacity="0.0" stroke-opacity="1.0" stroke-linejoin="miter" stroke="rgb(0,0,0)"><path d="M 400.0000,800.0000 l -0.0000,-266.6667 h -400.0000 l -0.0000,266.6667 Z"/></g><g stroke-linecap="butt" fill="rgb(255,0,0)" stroke-miterlimit="10.0" stroke-width="0.0" fill-opacity="1.0" stroke-opacity="1.0" stroke-linejoin="miter" stroke="rgb(0,0,0)"><path d="M 208.0000,666.6667 c 0.0000,-4.4183 -3.5817,-8.0000 -8.0000 -8.0000c -4.4183,-0.0000 -8.0000,3.5817 -8.0000 8.0000c -0.0000,4.4183 3.5817,8.0000 8.0000 8.0000c 4.4183,0.0000 8.0000,-3.5817 8.0000 -8.0000Z"/></g><g stroke-linecap="butt" fill="rgb(0,0,0)" stroke-miterlimit="10.0" stroke-width="0.8640987597877146" fill-opacity="0.0" stroke-opacity="1.0" stroke-linejoin="miter" stroke="rgb(0,0,0)"><path d="M 400.0000,266.6667 l -0.0000,-266.6667 h -400.0000 l -0.0000,266.6667 Z"/></g><g stroke-linecap="butt" fill="rgb(255,0,0)" stroke-miterlimit="10.0" stroke-width="0.0" fill-opacity="1.0" stroke-opacity="1.0" stroke-linejoin="miter" stroke="rgb(0,0,0)"><path d="M 208.0000,133.3333 c 0.0000,-4.4183 -3.5817,-8.0000 -8.0000 -8.0000c -4.4183,-0.0000 -8.0000,3.5817 -8.0000 8.0000c -0.0000,4.4183 3.5817,8.0000 8.0000 8.0000c 4.4183,0.0000 8.0000,-3.5817 8.0000 -8.0000Z"/></g><g stroke-linecap="butt" fill="rgb(0,0,0)" stroke-miterlimit="10.0" stroke-width="0.8640987597877146" fill-opacity="0.0" stroke-opacity="1.0" stroke-linejoin="miter" stroke="rgb(0,0,0)"><path d="M 200.0000,1333.3333 l 0.0000,236.4232 "/></g><g stroke-linecap="butt" fill="rgb(0,0,0)" stroke-miterlimit="10.0" stroke-width="0.0" fill-opacity="1.0" stroke-opacity="1.0" stroke-linejoin="miter" stroke="rgb(0,0,0)"></g><g stroke-linecap="butt" fill="rgb(0,0,0)" stroke-miterlimit="10.0" stroke-width="0.0" fill-opacity="1.0" stroke-opacity="1.0" stroke-linejoin="miter" stroke="rgb(0,0,0)"></g><g stroke-linecap="butt" fill="rgb(0,0,0)" stroke-miterlimit="10.0" stroke-width="0.0" fill-opacity="1.0" stroke-opacity="1.0" stroke-linejoin="miter" stroke="rgb(0,0,0)"><path d="M 200.0000,1600.0000 l 11.7621,-36.2000 l -11.7621,6.1837 l -11.7621,-6.1837 Z"/></g><g stroke-linecap="butt" fill="rgb(0,0,0)" stroke-miterlimit="10.0" stroke-width="0.0" fill-opacity="1.0" stroke-opacity="1.0" stroke-linejoin="miter" stroke="rgb(0,0,0)"><path d="M 200.0000,1569.9837 l -0.0000,-0.2271 l 0.4320,-0.0000 l -0.4320,0.2271 l -0.0000,-0.2271 l -0.4320,0.0000 Z"/></g><g stroke-linecap="butt" fill="rgb(0,0,0)" stroke-miterlimit="10.0" stroke-width="0.8640987597877146" fill-opacity="0.0" stroke-opacity="1.0" stroke-linejoin="miter" stroke="rgb(0,0,0)"><path d="M 200.0000,800.0000 l 0.0000,236.4232 "/></g><g stroke-linecap="butt" fill="rgb(0,0,0)" stroke-miterlimit="10.0" stroke-width="0.0" fill-opacity="1.0" stroke-opacity="1.0" stroke-linejoin="miter" stroke="rgb(0,0,0)"></g><g stroke-linecap="butt" fill="rgb(0,0,0)" stroke-miterlimit="10.0" stroke-width="0.0" fill-opacity="1.0" stroke-opacity="1.0" stroke-linejoin="miter" stroke="rgb(0,0,0)"></g><g stroke-linecap="butt" fill="rgb(0,0,0)" stroke-miterlimit="10.0" stroke-width="0.0" fill-opacity="1.0" stroke-opacity="1.0" stroke-linejoin="miter" stroke="rgb(0,0,0)"><path d="M 200.0000,1066.6667 l 11.7621,-36.2000 l -11.7621,6.1837 l -11.7621,-6.1837 Z"/></g><g stroke-linecap="butt" fill="rgb(0,0,0)" stroke-miterlimit="10.0" stroke-width="0.0" fill-opacity="1.0" stroke-opacity="1.0" stroke-linejoin="miter" stroke="rgb(0,0,0)"><path d="M 200.0000,1036.6504 l -0.0000,-0.2271 l 0.4320,-0.0000 l -0.4320,0.2271 l -0.0000,-0.2271 l -0.4320,0.0000 Z"/></g><g stroke-linecap="butt" fill="rgb(0,0,0)" stroke-miterlimit="10.0" stroke-width="0.8640987597877146" fill-opacity="0.0" stroke-opacity="1.0" stroke-linejoin="miter" stroke="rgb(0,0,0)"><path d="M 200.0000,266.6667 l 0.0000,236.4232 "/></g><g stroke-linecap="butt" fill="rgb(0,0,0)" stroke-miterlimit="10.0" stroke-width="0.0" fill-opacity="1.0" stroke-opacity="1.0" stroke-linejoin="miter" stroke="rgb(0,0,0)"></g><g stroke-linecap="butt" fill="rgb(0,0,0)" stroke-miterlimit="10.0" stroke-width="0.0" fill-opacity="1.0" stroke-opacity="1.0" stroke-linejoin="miter" stroke="rgb(0,0,0)"></g><g stroke-linecap="butt" fill="rgb(0,0,0)" stroke-miterlimit="10.0" stroke-width="0.0" fill-opacity="1.0" stroke-opacity="1.0" stroke-linejoin="miter" stroke="rgb(0,0,0)"><path d="M 200.0000,533.3333 l 11.7621,-36.2000 l -11.7621,6.1837 l -11.7621,-6.1837 Z"/></g><g stroke-linecap="butt" fill="rgb(0,0,0)" stroke-miterlimit="10.0" stroke-width="0.0" fill-opacity="1.0" stroke-opacity="1.0" stroke-linejoin="miter" stroke="rgb(0,0,0)"><path d="M 200.0000,503.3170 l -0.0000,-0.2271 l 0.4320,-0.0000 l -0.4320,0.2271 l -0.0000,-0.2271 l -0.4320,0.0000 Z"/></g></svg>