<?xml version="1.0" encoding="UTF-8"?>
<!DOCTYPE svg PUBLIC "-//W3C//DTD SVG 1.1//EN"
    "http://www.w3.org/Graphics/SVG/1.1/DTD/svg11.dtd"><svg xmlns="http://www.w3.org/2000/svg" viewBox="0.0 0.0 200.0 657.5163398692811" height="657.5163" font-size="1" stroke-opacity="1" width="200.0000" xmlns:xlink="http://www.w3.org/1999/xlink" stroke="rgb(0,0,0)" version="1.1"><defs></defs><g stroke-linecap="butt" fill="rgb(0,0,0)" stroke-miterlimit="10.0" stroke-width="0.5" fill-opacity="0.0" stroke-opacity="1.0" stroke-linejoin="miter" stroke="rgb(0,0,0)"><path d="M 3.9216,653.5948 h 0.0000 v -130.7190 h 196.0784 v 130.7190 h -196.0784 "/></g><g stroke-linecap="butt" fill="rgb(255,0,0)" stroke-miterlimit="10.0" stroke-width="0.0" fill-opacity="1.0" stroke-opacity="1.0" stroke-linejoin="miter" stroke="rgb(0,0,0)"><path d="M 7.8431,653.5948 c 0.0000,-2.1658 -1.7557,-3.9216 -3.9216 -3.9216c -2.1658,-0.0000 -3.9216,1.7557 -3.9216 3.9216c -0.0000,2.1658 1.7557,3.9216 3.9216 3.9216c 2.1658,0.0000 3.9216,-1.7557 3.9216 -3.9216Z"/></g><g stroke-linecap="butt" fill="rgb(0,0,0)" stroke-miterlimit="10.0" stroke-width="0.5" fill-opacity="0.0" stroke-opacity="1.0" stroke-linejoin="miter" stroke="rgb(0,0,0)"><path d="M 3.9216,392.1569 h 0.0000 v -130.7190 h 196.0784 v 130.7190 h -196.0784 "/></g><g stroke-linecap="butt" fill="rgb(255,0,0)" stroke-miterlimit="10.0" stroke-width="0.0" fill-opacity="1.0" stroke-opacity="1.0" stroke-linejoin="miter" stroke="rgb(0,0,0)"><path d="M 7.8431,392.1569 c 0.0000,-2.1658 -1.7557,-3.9216 -3.9216 -3.9216c -2.1658,-0.0000 -3.9216,1.7557 -3.9216 3.9216c -0.0000,2.1658 1.7557,3.9216 3.9216 3.9216c 2.1658,0.0000 3.9216,-1.7557 3.9216 -3.9216Z"/></g><g stroke-linecap="butt" fill="rgb(0,0,0)" stroke-miterlimit="10.0" stroke-width="0.5" fill-opacity="0.0" stroke-opacity="1.0" stroke-linejoin="miter" stroke="rgb(0,0,0)"><path d="M 3.9216,130.7190 h 0.0000 v -130.7190 h 196.0784 v 130.7190 h -196.0784 "/></g><g stroke-linecap="butt" fill="rgb(255,0,0)" stroke-miterlimit="10.0" stroke-width="0.0" fill-opacity="1.0" stroke-opacity="1.0" stroke-linejoin="miter" stroke="rgb(0,0,0)"><path d="M 7.8431,130.7190 c 0.0000,-2.1658 -1.7557,-3.9216 -3.9216 -3.9216c -2.1658,-0.0000 -3.9216,1.7557 -3.9216 3.9216c -0.0000,2.1658 1.7557,3.9216 3.9216 3.9216c 2.1658,0.0000 3.9216,-1.7557 3.9216 -3.9216Z"/></g><g stroke-linecap="butt" fill="rgb(0,0,0)" stroke-miterlimit="10.0" stroke-width="1.4505351728178462" fill-opacity="0.0" stroke-opacity="1.0" stroke-linejoin="miter" stroke="rgb(0,0,0)"><path d="M 3.9216,134.6405 l 0.0000,114.1052 "/></g><g stroke-linecap="butt" fill="rgb(0,0,0)" stroke-miterlimit="10.0" stroke-width="0.0" fill-opacity="1.0" stroke-opacity="1.0" stroke-linejoin="miter" stroke="rgb(0,0,0)"></g><g stroke-linecap="butt" fill="rgb(0,0,0)" stroke-miterlimit="10.0" stroke-width="0.0" fill-opacity="1.0" stroke-opacity="1.0" stroke-linejoin="miter" stroke="rgb(0,0,0)"></g><g stroke-linecap="butt" fill="rgb(0,0,0)" stroke-miterlimit="10.0" stroke-width="0.0" fill-opacity="1.0" stroke-opacity="1.0" stroke-linejoin="miter" stroke="rgb(0,0,0)"><path d="M 3.9216,261.4379 l 4.8241,-14.8471 l -4.8241,2.5362 l -4.8241,-2.5362 Z"/></g><g stroke-linecap="butt" fill="rgb(0,0,0)" stroke-miterlimit="10.0" stroke-width="0.0" fill-opacity="1.0" stroke-opacity="1.0" stroke-linejoin="miter" stroke="rgb(0,0,0)"><path d="M 3.9216,249.1270 l -0.0000,-0.3813 l 0.7253,-0.0000 l -0.7253,0.3813 l -0.0000,-0.3813 l -0.7253,0.0000 Z"/></g><g stroke-linecap="butt" fill="rgb(0,0,0)" stroke-miterlimit="10.0" stroke-width="1.4505351728178462" fill-opacity="0.0" stroke-opacity="1.0" stroke-linejoin="miter" stroke="rgb(0,0,0)"><path d="M 3.9216,396.0784 l 0.0000,114.1052 "/></g><g stroke-linecap="butt" fill="rgb(0,0,0)" stroke-miterlimit="10.0" stroke-width="0.0" fill-opacity="1.0" stroke-opacity="1.0" stroke-linejoin="miter" stroke="rgb(0,0,0)"></g><g stroke-linecap="butt" fill="rgb(0,0,0)" stroke-miterlimit="10.0" stroke-width="0.0" fill-opacity="1.0" stroke-opacity="1.0" stroke-linejoin="miter" stroke="rgb(0,0,0)"></g><g stroke-linecap="butt" fill="rgb(0,0,0)" stroke-miterlimit="10.0" stroke-width="0.0" fill-opacity="1.0" stroke-opacity="1.0" stroke-linejoin="miter" stroke="rgb(0,0,0)"><path d="M 3.9216,522.8758 l 4.8241,-14.8471 l -4.8241,2.5362 l -4.8241,-2.5362 Z"/></g><g stroke-linecap="butt" fill="rgb(0,0,0)" stroke-miterlimit="10.0" stroke-width="0.0" fill-opacity="1.0" stroke-opacity="1.0" stroke-linejoin="miter" stroke="rgb(0,0,0)"><path d="M 3.9216,510.5649 l -0.0000,-0.3813 l 0.7253,-0.0000 l -0.7253,0.3813 l -0.0000,-0.3813 l -0.7253,0.0000 Z"/></g></svg>