<?xml version="1.0" encoding="UTF-8"?>
<!DOCTYPE svg PUBLIC "-//W3C//DTD SVG 1.1//EN"
    "http://www.w3.org/Graphics/SVG/1.1/DTD/svg11.dtd"><svg xmlns="http://www.w3.org/2000/svg" viewBox="0.0 0.0 1500.0 1065.7894736842104" height="1065.7895" font-size="1" stroke-opacity="1" width="1500.0000" xmlns:xlink="http://www.w3.org/1999/xlink" stroke="rgb(0,0,0)" version="1.1"><defs></defs><g stroke-linecap="butt" fill="rgb(247,249,254)" stroke-miterlimit="10.0" stroke-width="0.0" fill-opacity="1.0" stroke-opacity="1.0" stroke-linejoin="miter" stroke="rgb(0,0,0)"><path d="M 1500.0000,1065.7895 l -0.0000,-1065.7895 h -1500.0000 l -0.0000,1065.7895 Z"/></g><g stroke-linecap="butt" fill="rgb(0,0,0)" stroke-miterlimit="10.0" stroke-width="1.2643908456352868" fill-opacity="0.0" stroke-opacity="1.0" stroke-linejoin="miter" stroke="rgb(0,0,0)"><path d="M 1342.1053,434.2105 h -236.8421 "/></g><g stroke-linecap="butt" fill="rgb(0,0,0)" stroke-miterlimit="10.0" stroke-width="1.2643908456352868" fill-opacity="0.0" stroke-opacity="1.0" stroke-linejoin="miter" stroke="rgb(0,0,0)"><path d="M 1342.1053,592.1053 v -157.8947 "/></g><g stroke-linecap="butt" fill="rgb(190,210,217)" stroke-miterlimit="10.0" stroke-width="1.2643908456352868" fill-opacity="1.0" stroke-opacity="1.0" stroke-linejoin="miter" stroke="rgb(0,0,0)"><path d="M 1500.0000,631.5789 h 0.0000 c 0.0000,-21.8007 -17.6730,-39.4737 -39.4737 -39.4737h -236.8421 c -21.8007,-0.0000 -39.4737,17.6730 -39.4737 39.4737h 0.0000 c -0.0000,21.8007 17.6730,39.4737 39.4737 39.4737h 236.8421 c 21.8007,0.0000 39.4737,-17.6730 39.4737 -39.4737Z"/></g><g stroke-linecap="butt" fill="rgb(255,0,0)" stroke-miterlimit="10.0" stroke-width="0.0" fill-opacity="1.0" stroke-opacity="1.0" stroke-linejoin="miter" stroke="rgb(0,0,0)"><path d="M 1348.4211,631.5789 c 0.0000,-3.4881 -2.8277,-6.3158 -6.3158 -6.3158c -3.4881,-0.0000 -6.3158,2.8277 -6.3158 6.3158c -0.0000,3.4881 2.8277,6.3158 6.3158 6.3158c 3.4881,0.0000 6.3158,-2.8277 6.3158 -6.3158Z"/></g><g stroke-linecap="butt" font-family="courier" fill="rgb(0,0,0)" font-size="9.868421052631579px" stroke-miterlimit="10.0" stroke-width="1.2643908456352868" fill-opacity="1.0" stroke-opacity="1.0" stroke-linejoin="miter" stroke="rgb(0,0,0)" font-weight="300"><text transform="matrix(1.0000,0.0000,0.0000,1.0000,1342.1053,631.5789)" dominant-baseline="middle" text-anchor="middle" stroke="none">end 4 | rendering order: 12 | max width: 6.0</text></g><g stroke-linecap="butt" fill="rgb(0,0,0)" stroke-miterlimit="10.0" stroke-width="1.2643908456352868" fill-opacity="0.0" stroke-opacity="1.0" stroke-linejoin="miter" stroke="rgb(0,0,0)"><path d="M 947.3684,631.5789 h 0.0000 "/></g><g stroke-linecap="butt" fill="rgb(0,0,0)" stroke-miterlimit="10.0" stroke-width="1.2643908456352868" fill-opacity="0.0" stroke-opacity="1.0" stroke-linejoin="miter" stroke="rgb(0,0,0)"><path d="M 947.3684,789.4737 v -118.4211 "/></g><g stroke-linecap="butt" fill="rgb(190,210,217)" stroke-miterlimit="10.0" stroke-width="1.2643908456352868" fill-opacity="1.0" stroke-opacity="1.0" stroke-linejoin="miter" stroke="rgb(0,0,0)"><path d="M 1105.2632,828.9474 h 0.0000 c 0.0000,-21.8007 -17.6730,-39.4737 -39.4737 -39.4737h -236.8421 c -21.8007,-0.0000 -39.4737,17.6730 -39.4737 39.4737h 0.0000 c -0.0000,21.8007 17.6730,39.4737 39.4737 39.4737h 236.8421 c 21.8007,0.0000 39.4737,-17.6730 39.4737 -39.4737Z"/></g><g stroke-linecap="butt" fill="rgb(255,0,0)" stroke-miterlimit="10.0" stroke-width="0.0" fill-opacity="1.0" stroke-opacity="1.0" stroke-linejoin="miter" stroke="rgb(0,0,0)"><path d="M 953.6842,828.9474 c 0.0000,-3.4881 -2.8277,-6.3158 -6.3158 -6.3158c -3.4881,-0.0000 -6.3158,2.8277 -6.3158 6.3158c -0.0000,3.4881 2.8277,6.3158 6.3158 6.3158c 3.4881,0.0000 6.3158,-2.8277 6.3158 -6.3158Z"/></g><g stroke-linecap="butt" font-family="courier" fill="rgb(0,0,0)" font-size="9.868421052631579px" stroke-miterlimit="10.0" stroke-width="1.2643908456352868" fill-opacity="1.0" stroke-opacity="1.0" stroke-linejoin="miter" stroke="rgb(0,0,0)" font-weight="300"><text transform="matrix(1.0000,0.0000,0.0000,1.0000,947.3684,828.9474)" dominant-baseline="middle" text-anchor="middle" stroke="none">end 3 | rendering order: 11 | max width: 4.0</text></g><g stroke-linecap="butt" fill="rgb(0,0,0)" stroke-miterlimit="10.0" stroke-width="1.2643908456352868" fill-opacity="0.0" stroke-opacity="1.0" stroke-linejoin="miter" stroke="rgb(0,0,0)"><path d="M 947.3684,434.2105 h 0.0000 "/></g><g stroke-linecap="butt" fill="rgb(0,0,0)" stroke-miterlimit="10.0" stroke-width="1.2643908456352868" fill-opacity="0.0" stroke-opacity="1.0" stroke-linejoin="miter" stroke="rgb(0,0,0)"><path d="M 947.3684,592.1053 v -118.4211 "/></g><g stroke-linecap="butt" fill="rgb(220,232,235)" stroke-miterlimit="10.0" stroke-width="1.2643908456352868" fill-opacity="1.0" stroke-opacity="1.0" stroke-linejoin="miter" stroke="rgb(0,0,0)"><path d="M 1105.2632,671.0526 l -0.0000,-78.9474 h -315.7895 l -0.0000,78.9474 Z"/></g><g stroke-linecap="butt" fill="rgb(255,0,0)" stroke-miterlimit="10.0" stroke-width="0.0" fill-opacity="1.0" stroke-opacity="1.0" stroke-linejoin="miter" stroke="rgb(0,0,0)"><path d="M 953.6842,631.5789 c 0.0000,-3.4881 -2.8277,-6.3158 -6.3158 -6.3158c -3.4881,-0.0000 -6.3158,2.8277 -6.3158 6.3158c -0.0000,3.4881 2.8277,6.3158 6.3158 6.3158c 3.4881,0.0000 6.3158,-2.8277 6.3158 -6.3158Z"/></g><g stroke-linecap="butt" font-family="courier" fill="rgb(0,0,0)" font-size="9.868421052631579px" stroke-miterlimit="10.0" stroke-width="1.2643908456352868" fill-opacity="1.0" stroke-opacity="1.0" stroke-linejoin="miter" stroke="rgb(0,0,0)" font-weight="300"><text transform="matrix(1.0000,0.0000,0.0000,1.0000,947.3684,631.5789)" dominant-baseline="middle" text-anchor="middle" stroke="none">action 4 | rendering order: 10 | max width: 4.0</text></g><g stroke-linecap="butt" fill="rgb(0,0,0)" stroke-miterlimit="10.0" stroke-width="1.2643908456352868" fill-opacity="0.0" stroke-opacity="1.0" stroke-linejoin="miter" stroke="rgb(0,0,0)"><path d="M 947.3684,236.8421 h -631.5789 "/></g><g stroke-linecap="butt" fill="rgb(0,0,0)" stroke-miterlimit="10.0" stroke-width="1.2643908456352868" fill-opacity="0.0" stroke-opacity="1.0" stroke-linejoin="miter" stroke="rgb(0,0,0)"><path d="M 947.3684,394.7368 v -157.8947 "/></g><g stroke-linecap="butt" fill="rgb(203,219,224)" stroke-miterlimit="10.0" stroke-width="1.2643908456352868" fill-opacity="1.0" stroke-opacity="1.0" stroke-linejoin="miter" stroke="rgb(0,0,0)"><path d="M 809.2105,473.6842 l -19.7368,-39.4737 l 19.7368,-39.4737 h 276.3158 l 19.7368,39.4737 l -19.7368,39.4737 h -276.3158 Z"/></g><g stroke-linecap="butt" fill="rgb(255,0,0)" stroke-miterlimit="10.0" stroke-width="0.0" fill-opacity="1.0" stroke-opacity="1.0" stroke-linejoin="miter" stroke="rgb(0,0,0)"><path d="M 953.6842,434.2105 c 0.0000,-3.4881 -2.8277,-6.3158 -6.3158 -6.3158c -3.4881,-0.0000 -6.3158,2.8277 -6.3158 6.3158c -0.0000,3.4881 2.8277,6.3158 6.3158 6.3158c 3.4881,0.0000 6.3158,-2.8277 6.3158 -6.3158Z"/></g><g stroke-linecap="butt" font-family="courier" fill="rgb(0,0,0)" font-size="9.868421052631579px" stroke-miterlimit="10.0" stroke-width="1.2643908456352868" fill-opacity="1.0" stroke-opacity="1.0" stroke-linejoin="miter" stroke="rgb(0,0,0)" font-weight="300"><text transform="matrix(1.0000,0.0000,0.0000,1.0000,1121.0526,422.3684)" dominant-baseline="middle" text-anchor="middle" stroke="none">no</text></g><g stroke-linecap="butt" font-family="courier" fill="rgb(0,0,0)" font-size="9.868421052631579px" stroke-miterlimit="10.0" stroke-width="1.2643908456352868" fill-opacity="1.0" stroke-opacity="1.0" stroke-linejoin="miter" stroke="rgb(0,0,0)" font-weight="300"><text transform="matrix(1.0000,0.0000,0.0000,1.0000,915.7895,489.4737)" dominant-baseline="middle" text-anchor="middle" stroke="none">yes</text></g><g stroke-linecap="butt" font-family="courier" fill="rgb(0,0,0)" font-size="9.868421052631579px" stroke-miterlimit="10.0" stroke-width="1.2643908456352868" fill-opacity="1.0" stroke-opacity="1.0" stroke-linejoin="miter" stroke="rgb(0,0,0)" font-weight="300"><text transform="matrix(1.0000,0.0000,0.0000,1.0000,947.3684,434.2105)" dominant-baseline="middle" text-anchor="middle" stroke="none">question 3 | rendering order: 9 | max width: 4.0</text></g><g stroke-linecap="butt" fill="rgb(0,0,0)" stroke-miterlimit="10.0" stroke-width="1.2643908456352868" fill-opacity="0.0" stroke-opacity="1.0" stroke-linejoin="miter" stroke="rgb(0,0,0)"><path d="M 552.6316,828.9474 h 0.0000 "/></g><g stroke-linecap="butt" fill="rgb(0,0,0)" stroke-miterlimit="10.0" stroke-width="1.2643908456352868" fill-opacity="0.0" stroke-opacity="1.0" stroke-linejoin="miter" stroke="rgb(0,0,0)"><path d="M 552.6316,986.8421 v -118.4211 "/></g><g stroke-linecap="butt" fill="rgb(190,210,217)" stroke-miterlimit="10.0" stroke-width="1.2643908456352868" fill-opacity="1.0" stroke-opacity="1.0" stroke-linejoin="miter" stroke="rgb(0,0,0)"><path d="M 710.5263,1026.3158 h 0.0000 c 0.0000,-21.8007 -17.6730,-39.4737 -39.4737 -39.4737h -236.8421 c -21.8007,-0.0000 -39.4737,17.6730 -39.4737 39.4737h 0.0000 c -0.0000,21.8007 17.6730,39.4737 39.4737 39.4737h 236.8421 c 21.8007,0.0000 39.4737,-17.6730 39.4737 -39.4737Z"/></g><g stroke-linecap="butt" fill="rgb(255,0,0)" stroke-miterlimit="10.0" stroke-width="0.0" fill-opacity="1.0" stroke-opacity="1.0" stroke-linejoin="miter" stroke="rgb(0,0,0)"><path d="M 558.9474,1026.3158 c 0.0000,-3.4881 -2.8277,-6.3158 -6.3158 -6.3158c -3.4881,-0.0000 -6.3158,2.8277 -6.3158 6.3158c -0.0000,3.4881 2.8277,6.3158 6.3158 6.3158c 3.4881,0.0000 6.3158,-2.8277 6.3158 -6.3158Z"/></g><g stroke-linecap="butt" font-family="courier" fill="rgb(0,0,0)" font-size="9.868421052631579px" stroke-miterlimit="10.0" stroke-width="1.2643908456352868" fill-opacity="1.0" stroke-opacity="1.0" stroke-linejoin="miter" stroke="rgb(0,0,0)" font-weight="300"><text transform="matrix(1.0000,0.0000,0.0000,1.0000,552.6316,1026.3158)" dominant-baseline="middle" text-anchor="middle" stroke="none">end 2 | rendering order: 8 | max width: 2.0</text></g><g stroke-linecap="butt" fill="rgb(0,0,0)" stroke-miterlimit="10.0" stroke-width="1.2643908456352868" fill-opacity="0.0" stroke-opacity="1.0" stroke-linejoin="miter" stroke="rgb(0,0,0)"><path d="M 552.6316,631.5789 h -236.8421 "/></g><g stroke-linecap="butt" fill="rgb(0,0,0)" stroke-miterlimit="10.0" stroke-width="1.2643908456352868" fill-opacity="0.0" stroke-opacity="1.0" stroke-linejoin="miter" stroke="rgb(0,0,0)"><path d="M 552.6316,789.4737 v -157.8947 "/></g><g stroke-linecap="butt" fill="rgb(220,232,235)" stroke-miterlimit="10.0" stroke-width="1.2643908456352868" fill-opacity="1.0" stroke-opacity="1.0" stroke-linejoin="miter" stroke="rgb(0,0,0)"><path d="M 710.5263,868.4211 l -0.0000,-78.9474 h -315.7895 l -0.0000,78.9474 Z"/></g><g stroke-linecap="butt" fill="rgb(255,0,0)" stroke-miterlimit="10.0" stroke-width="0.0" fill-opacity="1.0" stroke-opacity="1.0" stroke-linejoin="miter" stroke="rgb(0,0,0)"><path d="M 558.9474,828.9474 c 0.0000,-3.4881 -2.8277,-6.3158 -6.3158 -6.3158c -3.4881,-0.0000 -6.3158,2.8277 -6.3158 6.3158c -0.0000,3.4881 2.8277,6.3158 6.3158 6.3158c 3.4881,0.0000 6.3158,-2.8277 6.3158 -6.3158Z"/></g><g stroke-linecap="butt" font-family="courier" fill="rgb(0,0,0)" font-size="9.868421052631579px" stroke-miterlimit="10.0" stroke-width="1.2643908456352868" fill-opacity="1.0" stroke-opacity="1.0" stroke-linejoin="miter" stroke="rgb(0,0,0)" font-weight="300"><text transform="matrix(1.0000,0.0000,0.0000,1.0000,552.6316,828.9474)" dominant-baseline="middle" text-anchor="middle" stroke="none">action 3 | rendering order: 7 | max width: 2.0</text></g><g stroke-linecap="butt" fill="rgb(0,0,0)" stroke-miterlimit="10.0" stroke-width="1.2643908456352868" fill-opacity="0.0" stroke-opacity="1.0" stroke-linejoin="miter" stroke="rgb(0,0,0)"><path d="M 157.8947,828.9474 h 0.0000 "/></g><g stroke-linecap="butt" fill="rgb(0,0,0)" stroke-miterlimit="10.0" stroke-width="1.2643908456352868" fill-opacity="0.0" stroke-opacity="1.0" stroke-linejoin="miter" stroke="rgb(0,0,0)"><path d="M 157.8947,986.8421 v -118.4211 "/></g><g stroke-linecap="butt" fill="rgb(190,210,217)" stroke-miterlimit="10.0" stroke-width="1.2643908456352868" fill-opacity="1.0" stroke-opacity="1.0" stroke-linejoin="miter" stroke="rgb(0,0,0)"><path d="M 315.7895,1026.3158 h 0.0000 c 0.0000,-21.8007 -17.6730,-39.4737 -39.4737 -39.4737h -236.8421 c -21.8007,-0.0000 -39.4737,17.6730 -39.4737 39.4737h 0.0000 c -0.0000,21.8007 17.6730,39.4737 39.4737 39.4737h 236.8421 c 21.8007,0.0000 39.4737,-17.6730 39.4737 -39.4737Z"/></g><g stroke-linecap="butt" fill="rgb(255,0,0)" stroke-miterlimit="10.0" stroke-width="0.0" fill-opacity="1.0" stroke-opacity="1.0" stroke-linejoin="miter" stroke="rgb(0,0,0)"><path d="M 164.2105,1026.3158 c 0.0000,-3.4881 -2.8277,-6.3158 -6.3158 -6.3158c -3.4881,-0.0000 -6.3158,2.8277 -6.3158 6.3158c -0.0000,3.4881 2.8277,6.3158 6.3158 6.3158c 3.4881,0.0000 6.3158,-2.8277 6.3158 -6.3158Z"/></g><g stroke-linecap="butt" font-family="courier" fill="rgb(0,0,0)" font-size="9.868421052631579px" stroke-miterlimit="10.0" stroke-width="1.2643908456352868" fill-opacity="1.0" stroke-opacity="1.0" stroke-linejoin="miter" stroke="rgb(0,0,0)" font-weight="300"><text transform="matrix(1.0000,0.0000,0.0000,1.0000,157.8947,1026.3158)" dominant-baseline="middle" text-anchor="middle" stroke="none">end 1 | rendering order: 6 | max width: 0.0</text></g><g stroke-linecap="butt" fill="rgb(0,0,0)" stroke-miterlimit="10.0" stroke-width="1.2643908456352868" fill-opacity="0.0" stroke-opacity="1.0" stroke-linejoin="miter" stroke="rgb(0,0,0)"><path d="M 157.8947,631.5789 h 0.0000 "/></g><g stroke-linecap="butt" fill="rgb(0,0,0)" stroke-miterlimit="10.0" stroke-width="1.2643908456352868" fill-opacity="0.0" stroke-opacity="1.0" stroke-linejoin="miter" stroke="rgb(0,0,0)"><path d="M 157.8947,789.4737 v -118.4211 "/></g><g stroke-linecap="butt" fill="rgb(220,232,235)" stroke-miterlimit="10.0" stroke-width="1.2643908456352868" fill-opacity="1.0" stroke-opacity="1.0" stroke-linejoin="miter" stroke="rgb(0,0,0)"><path d="M 315.7895,868.4211 l -0.0000,-78.9474 h -315.7895 l -0.0000,78.9474 Z"/></g><g stroke-linecap="butt" fill="rgb(255,0,0)" stroke-miterlimit="10.0" stroke-width="0.0" fill-opacity="1.0" stroke-opacity="1.0" stroke-linejoin="miter" stroke="rgb(0,0,0)"><path d="M 164.2105,828.9474 c 0.0000,-3.4881 -2.8277,-6.3158 -6.3158 -6.3158c -3.4881,-0.0000 -6.3158,2.8277 -6.3158 6.3158c -0.0000,3.4881 2.8277,6.3158 6.3158 6.3158c 3.4881,0.0000 6.3158,-2.8277 6.3158 -6.3158Z"/></g><g stroke-linecap="butt" font-family="courier" fill="rgb(0,0,0)" font-size="9.868421052631579px" stroke-miterlimit="10.0" stroke-width="1.2643908456352868" fill-opacity="1.0" stroke-opacity="1.0" stroke-linejoin="miter" stroke="rgb(0,0,0)" font-weight="300"><text transform="matrix(1.0000,0.0000,0.0000,1.0000,157.8947,828.9474)" dominant-baseline="middle" text-anchor="middle" stroke="none">action 2 | rendering order: 5 | max width: 0.0</text></g><g stroke-linecap="butt" fill="rgb(0,0,0)" stroke-miterlimit="10.0" stroke-width="1.2643908456352868" fill-opacity="0.0" stroke-opacity="1.0" stroke-linejoin="miter" stroke="rgb(0,0,0)"><path d="M 157.8947,434.2105 h 0.0000 "/></g><g stroke-linecap="butt" fill="rgb(0,0,0)" stroke-miterlimit="10.0" stroke-width="1.2643908456352868" fill-opacity="0.0" stroke-opacity="1.0" stroke-linejoin="miter" stroke="rgb(0,0,0)"><path d="M 157.8947,592.1053 v -118.4211 "/></g><g stroke-linecap="butt" fill="rgb(203,219,224)" stroke-miterlimit="10.0" stroke-width="1.2643908456352868" fill-opacity="1.0" stroke-opacity="1.0" stroke-linejoin="miter" stroke="rgb(0,0,0)"><path d="M 19.7368,671.0526 l -19.7368,-39.4737 l 19.7368,-39.4737 h 276.3158 l 19.7368,39.4737 l -19.7368,39.4737 h -276.3158 Z"/></g><g stroke-linecap="butt" fill="rgb(255,0,0)" stroke-miterlimit="10.0" stroke-width="0.0" fill-opacity="1.0" stroke-opacity="1.0" stroke-linejoin="miter" stroke="rgb(0,0,0)"><path d="M 164.2105,631.5789 c 0.0000,-3.4881 -2.8277,-6.3158 -6.3158 -6.3158c -3.4881,-0.0000 -6.3158,2.8277 -6.3158 6.3158c -0.0000,3.4881 2.8277,6.3158 6.3158 6.3158c 3.4881,0.0000 6.3158,-2.8277 6.3158 -6.3158Z"/></g><g stroke-linecap="butt" font-family="courier" fill="rgb(0,0,0)" font-size="9.868421052631579px" stroke-miterlimit="10.0" stroke-width="1.2643908456352868" fill-opacity="1.0" stroke-opacity="1.0" stroke-linejoin="miter" stroke="rgb(0,0,0)" font-weight="300"><text transform="matrix(1.0000,0.0000,0.0000,1.0000,331.5789,619.7368)" dominant-baseline="middle" text-anchor="middle" stroke="none">no</text></g><g stroke-linecap="butt" font-family="courier" fill="rgb(0,0,0)" font-size="9.868421052631579px" stroke-miterlimit="10.0" stroke-width="1.2643908456352868" fill-opacity="1.0" stroke-opacity="1.0" stroke-linejoin="miter" stroke="rgb(0,0,0)" font-weight="300"><text transform="matrix(1.0000,0.0000,0.0000,1.0000,126.3158,686.8421)" dominant-baseline="middle" text-anchor="middle" stroke="none">yes</text></g><g stroke-linecap="butt" font-family="courier" fill="rgb(0,0,0)" font-size="9.868421052631579px" stroke-miterlimit="10.0" stroke-width="1.2643908456352868" fill-opacity="1.0" stroke-opacity="1.0" stroke-linejoin="miter" stroke="rgb(0,0,0)" font-weight="300"><text transform="matrix(1.0000,0.0000,0.0000,1.0000,157.8947,631.5789)" dominant-baseline="middle" text-anchor="middle" stroke="none">question 2 | rendering order: 4 | max width: 0.0</text></g><g stroke-linecap="butt" fill="rgb(0,0,0)" stroke-miterlimit="10.0" stroke-width="1.2643908456352868" fill-opacity="0.0" stroke-opacity="1.0" stroke-linejoin="miter" stroke="rgb(0,0,0)"><path d="M 157.8947,236.8421 h 0.0000 "/></g><g stroke-linecap="butt" fill="rgb(0,0,0)" stroke-miterlimit="10.0" stroke-width="1.2643908456352868" fill-opacity="0.0" stroke-opacity="1.0" stroke-linejoin="miter" stroke="rgb(0,0,0)"><path d="M 157.8947,394.7368 v -118.4211 "/></g><g stroke-linecap="butt" fill="rgb(220,232,235)" stroke-miterlimit="10.0" stroke-width="1.2643908456352868" fill-opacity="1.0" stroke-opacity="1.0" stroke-linejoin="miter" stroke="rgb(0,0,0)"><path d="M 315.7895,473.6842 l -0.0000,-78.9474 h -315.7895 l -0.0000,78.9474 Z"/></g><g stroke-linecap="butt" fill="rgb(255,0,0)" stroke-miterlimit="10.0" stroke-width="0.0" fill-opacity="1.0" stroke-opacity="1.0" stroke-linejoin="miter" stroke="rgb(0,0,0)"><path d="M 164.2105,434.2105 c 0.0000,-3.4881 -2.8277,-6.3158 -6.3158 -6.3158c -3.4881,-0.0000 -6.3158,2.8277 -6.3158 6.3158c -0.0000,3.4881 2.8277,6.3158 6.3158 6.3158c 3.4881,0.0000 6.3158,-2.8277 6.3158 -6.3158Z"/></g><g stroke-linecap="butt" font-family="courier" fill="rgb(0,0,0)" font-size="9.868421052631579px" stroke-miterlimit="10.0" stroke-width="1.2643908456352868" fill-opacity="1.0" stroke-opacity="1.0" stroke-linejoin="miter" stroke="rgb(0,0,0)" font-weight="300"><text transform="matrix(1.0000,0.0000,0.0000,1.0000,157.8947,434.2105)" dominant-baseline="middle" text-anchor="middle" stroke="none">action 1 | rendering order: 3 | max width: 0.0</text></g><g stroke-linecap="butt" fill="rgb(0,0,0)" stroke-miterlimit="10.0" stroke-width="1.2643908456352868" fill-opacity="0.0" stroke-opacity="1.0" stroke-linejoin="miter" stroke="rgb(0,0,0)"><path d="M 157.8947,39.4737 h 0.0000 "/></g><g stroke-linecap="butt" fill="rgb(0,0,0)" stroke-miterlimit="10.0" stroke-width="1.2643908456352868" fill-opacity="0.0" stroke-opacity="1.0" stroke-linejoin="miter" stroke="rgb(0,0,0)"><path d="M 157.8947,197.3684 v -118.4211 "/></g><g stroke-linecap="butt" fill="rgb(203,219,224)" stroke-miterlimit="10.0" stroke-width="1.2643908456352868" fill-opacity="1.0" stroke-opacity="1.0" stroke-linejoin="miter" stroke="rgb(0,0,0)"><path d="M 19.7368,276.3158 l -19.7368,-39.4737 l 19.7368,-39.4737 h 276.3158 l 19.7368,39.4737 l -19.7368,39.4737 h -276.3158 Z"/></g><g stroke-linecap="butt" fill="rgb(255,0,0)" stroke-miterlimit="10.0" stroke-width="0.0" fill-opacity="1.0" stroke-opacity="1.0" stroke-linejoin="miter" stroke="rgb(0,0,0)"><path d="M 164.2105,236.8421 c 0.0000,-3.4881 -2.8277,-6.3158 -6.3158 -6.3158c -3.4881,-0.0000 -6.3158,2.8277 -6.3158 6.3158c -0.0000,3.4881 2.8277,6.3158 6.3158 6.3158c 3.4881,0.0000 6.3158,-2.8277 6.3158 -6.3158Z"/></g><g stroke-linecap="butt" font-family="courier" fill="rgb(0,0,0)" font-size="9.868421052631579px" stroke-miterlimit="10.0" stroke-width="1.2643908456352868" fill-opacity="1.0" stroke-opacity="1.0" stroke-linejoin="miter" stroke="rgb(0,0,0)" font-weight="300"><text transform="matrix(1.0000,0.0000,0.0000,1.0000,331.5789,225.0000)" dominant-baseline="middle" text-anchor="middle" stroke="none">no</text></g><g stroke-linecap="butt" font-family="courier" fill="rgb(0,0,0)" font-size="9.868421052631579px" stroke-miterlimit="10.0" stroke-width="1.2643908456352868" fill-opacity="1.0" stroke-opacity="1.0" stroke-linejoin="miter" stroke="rgb(0,0,0)" font-weight="300"><text transform="matrix(1.0000,0.0000,0.0000,1.0000,126.3158,292.1053)" dominant-baseline="middle" text-anchor="middle" stroke="none">yes</text></g><g stroke-linecap="butt" font-family="courier" fill="rgb(0,0,0)" font-size="9.868421052631579px" stroke-miterlimit="10.0" stroke-width="1.2643908456352868" fill-opacity="1.0" stroke-opacity="1.0" stroke-linejoin="miter" stroke="rgb(0,0,0)" font-weight="300"><text transform="matrix(1.0000,0.0000,0.0000,1.0000,157.8947,236.8421)" dominant-baseline="middle" text-anchor="middle" stroke="none">question 1 | rendering order: 2 | max width: 0.0</text></g><g stroke-linecap="butt" fill="rgb(236,249,254)" stroke-miterlimit="10.0" stroke-width="1.2643908456352868" fill-opacity="1.0" stroke-opacity="1.0" stroke-linejoin="miter" stroke="rgb(0,0,0)"><path d="M 315.7895,39.4737 h 0.0000 c 0.0000,-21.8007 -17.6730,-39.4737 -39.4737 -39.4737h -236.8421 c -21.8007,-0.0000 -39.4737,17.6730 -39.4737 39.4737h 0.0000 c -0.0000,21.8007 17.6730,39.4737 39.4737 39.4737h 236.8421 c 21.8007,0.0000 39.4737,-17.6730 39.4737 -39.4737Z"/></g><g stroke-linecap="butt" fill="rgb(255,0,0)" stroke-miterlimit="10.0" stroke-width="0.0" fill-opacity="1.0" stroke-opacity="1.0" stroke-linejoin="miter" stroke="rgb(0,0,0)"><path d="M 164.2105,39.4737 c 0.0000,-3.4881 -2.8277,-6.3158 -6.3158 -6.3158c -3.4881,-0.0000 -6.3158,2.8277 -6.3158 6.3158c -0.0000,3.4881 2.8277,6.3158 6.3158 6.3158c 3.4881,0.0000 6.3158,-2.8277 6.3158 -6.3158Z"/></g><g stroke-linecap="butt" font-family="courier" fill="rgb(0,0,0)" font-size="9.868421052631579px" stroke-miterlimit="10.0" stroke-width="1.2643908456352868" fill-opacity="1.0" stroke-opacity="1.0" stroke-linejoin="miter" stroke="rgb(0,0,0)" font-weight="300"><text transform="matrix(1.0000,0.0000,0.0000,1.0000,157.8947,39.4737)" dominant-baseline="middle" text-anchor="middle" stroke="none">start | rendering order: 1 | max width: 0.0</text></g></svg>