<?xml version="1.0" encoding="UTF-8"?>
<!DOCTYPE svg PUBLIC "-//W3C//DTD SVG 1.1//EN"
    "http://www.w3.org/Graphics/SVG/1.1/DTD/svg11.dtd"><svg xmlns="http://www.w3.org/2000/svg" viewBox="0.0 0.0 200.0 66.66666666666667" height="66.6667" font-size="1" stroke-opacity="1" width="200.0000" xmlns:xlink="http://www.w3.org/1999/xlink" stroke="rgb(0,0,0)" version="1.1"><defs></defs><g stroke-linecap="butt" fill="rgb(0,0,0)" stroke-miterlimit="10.0" stroke-width="0.5" fill-opacity="0.0" stroke-opacity="1.0" stroke-linejoin="miter" stroke="rgb(0,0,0)"><path d="M 200.0000,50.0000 h 0.0000 c 0.0000,-9.2047 -7.4619,-16.6667 -16.6667 -16.6667h -33.3333 c -9.2047,-0.0000 -16.6667,7.4619 -16.6667 16.6667h 0.0000 c -0.0000,9.2047 7.4619,16.6667 16.6667 16.6667h 33.3333 c 9.2047,0.0000 16.6667,-7.4619 16.6667 -16.6667Z"/></g><g stroke-linecap="butt" font-family="courier" fill="rgb(0,0,0)" font-size="3.333333333333334px" stroke-miterlimit="10.0" stroke-width="0.5" fill-opacity="1.0" stroke-opacity="1.0" stroke-linejoin="miter" stroke="rgb(0,0,0)" font-weight="300"><text transform="matrix(1.0000,0.0000,0.0000,1.0000,166.6667,50.0000)" dominant-baseline="middle" text-anchor="middle" stroke="none">dupa</text></g><g stroke-linecap="butt" fill="rgb(255,0,0)" stroke-miterlimit="10.0" stroke-width="0.0" fill-opacity="1.0" stroke-opacity="1.0" stroke-linejoin="miter" stroke="rgb(0,0,0)"><path d="M 168.0000,50.0000 c 0.0000,-0.7364 -0.5970,-1.3333 -1.3333 -1.3333c -0.7364,-0.0000 -1.3333,0.5970 -1.3333 1.3333c -0.0000,0.7364 0.5970,1.3333 1.3333 1.3333c 0.7364,0.0000 1.3333,-0.5970 1.3333 -1.3333Z"/></g><g stroke-linecap="butt" fill="rgb(0,0,0)" stroke-miterlimit="10.0" stroke-width="0.5" fill-opacity="0.0" stroke-opacity="1.0" stroke-linejoin="miter" stroke="rgb(0,0,0)"><path d="M 133.3333,50.0000 h 0.0000 c 0.0000,-9.2047 -7.4619,-16.6667 -16.6667 -16.6667h -33.3333 c -9.2047,-0.0000 -16.6667,7.4619 -16.6667 16.6667h 0.0000 c -0.0000,9.2047 7.4619,16.6667 16.6667 16.6667h 33.3333 c 9.2047,0.0000 16.6667,-7.4619 16.6667 -16.6667Z"/></g><g stroke-linecap="butt" font-family="courier" fill="rgb(0,0,0)" font-size="3.333333333333334px" stroke-miterlimit="10.0" stroke-width="0.5" fill-opacity="1.0" stroke-opacity="1.0" stroke-linejoin="miter" stroke="rgb(0,0,0)" font-weight="300"><text transform="matrix(1.0000,0.0000,0.0000,1.0000,100.0000,50.0000)" dominant-baseline="middle" text-anchor="middle" stroke="none">dupa</text></g><g stroke-linecap="butt" fill="rgb(255,0,0)" stroke-miterlimit="10.0" stroke-width="0.0" fill-opacity="1.0" stroke-opacity="1.0" stroke-linejoin="miter" stroke="rgb(0,0,0)"><path d="M 101.3333,50.0000 c 0.0000,-0.7364 -0.5970,-1.3333 -1.3333 -1.3333c -0.7364,-0.0000 -1.3333,0.5970 -1.3333 1.3333c -0.0000,0.7364 0.5970,1.3333 1.3333 1.3333c 0.7364,0.0000 1.3333,-0.5970 1.3333 -1.3333Z"/></g><g stroke-linecap="butt" fill="rgb(0,0,0)" stroke-miterlimit="10.0" stroke-width="0.5" fill-opacity="0.0" stroke-opacity="1.0" stroke-linejoin="miter" stroke="rgb(0,0,0)"><path d="M 66.6667,50.0000 h 0.0000 c 0.0000,-9.2047 -7.4619,-16.6667 -16.6667 -16.6667h -33.3333 c -9.2047,-0.0000 -16.6667,7.4619 -16.6667 16.6667h 0.0000 c -0.0000,9.2047 7.4619,16.6667 16.6667 16.6667h 33.3333 c 9.2047,0.0000 16.6667,-7.4619 16.6667 -16.6667Z"/></g><g stroke-linecap="butt" font-family="courier" fill="rgb(0,0,0)" font-size="3.333333333333334px" stroke-miterlimit="10.0" stroke-width="0.5" fill-opacity="1.0" stroke-opacity="1.0" stroke-linejoin="miter" stroke="rgb(0,0,0)" font-weight="300"><text transform="matrix(1.0000,0.0000,0.0000,1.0000,33.3333,50.0000)" dominant-baseline="middle" text-anchor="middle" stroke="none">dupa</text></g><g stroke-linecap="butt" fill="rgb(255,0,0)" stroke-miterlimit="10.0" stroke-width="0.0" fill-opacity="1.0" stroke-opacity="1.0" stroke-linejoin="miter" stroke="rgb(0,0,0)"><path d="M 34.6667,50.0000 c 0.0000,-0.7364 -0.5970,-1.3333 -1.3333 -1.3333c -0.7364,-0.0000 -1.3333,0.5970 -1.3333 1.3333c -0.0000,0.7364 0.5970,1.3333 1.3333 1.3333c 0.7364,0.0000 1.3333,-0.5970 1.3333 -1.3333Z"/></g><g stroke-linecap="butt" fill="rgb(0,0,0)" stroke-miterlimit="10.0" stroke-width="0.5" fill-opacity="0.0" stroke-opacity="1.0" stroke-linejoin="miter" stroke="rgb(0,0,0)"><path d="M 66.6667,16.6667 h 0.0000 c 0.0000,-9.2047 -7.4619,-16.6667 -16.6667 -16.6667h -33.3333 c -9.2047,-0.0000 -16.6667,7.4619 -16.6667 16.6667h 0.0000 c -0.0000,9.2047 7.4619,16.6667 16.6667 16.6667h 33.3333 c 9.2047,0.0000 16.6667,-7.4619 16.6667 -16.6667Z"/></g><g stroke-linecap="butt" font-family="courier" fill="rgb(0,0,0)" font-size="3.333333333333334px" stroke-miterlimit="10.0" stroke-width="0.5" fill-opacity="1.0" stroke-opacity="1.0" stroke-linejoin="miter" stroke="rgb(0,0,0)" font-weight="300"><text transform="matrix(1.0000,0.0000,0.0000,1.0000,33.3333,16.6667)" dominant-baseline="middle" text-anchor="middle" stroke="none">title</text></g><g stroke-linecap="butt" fill="rgb(255,0,0)" stroke-miterlimit="10.0" stroke-width="0.0" fill-opacity="1.0" stroke-opacity="1.0" stroke-linejoin="miter" stroke="rgb(0,0,0)"><path d="M 34.6667,16.6667 c 0.0000,-0.7364 -0.5970,-1.3333 -1.3333 -1.3333c -0.7364,-0.0000 -1.3333,0.5970 -1.3333 1.3333c -0.0000,0.7364 0.5970,1.3333 1.3333 1.3333c 0.7364,0.0000 1.3333,-0.5970 1.3333 -1.3333Z"/></g></svg>