<?xml version="1.0" encoding="UTF-8"?>
<!DOCTYPE svg PUBLIC "-//W3C//DTD SVG 1.1//EN"
    "http://www.w3.org/Graphics/SVG/1.1/DTD/svg11.dtd"><svg xmlns="http://www.w3.org/2000/svg" viewBox="0.0 0.0 1000.0000000000001 388.8888888888889" height="388.8889" font-size="1" stroke-opacity="1" width="1000.0000" xmlns:xlink="http://www.w3.org/1999/xlink" stroke="rgb(0,0,0)" version="1.1"><defs></defs><g stroke-linecap="butt" fill="rgb(0,0,0)" stroke-miterlimit="10.0" stroke-width="2.4944382578492945" fill-opacity="0.0" stroke-opacity="1.0" stroke-linejoin="miter" stroke="rgb(0,0,0)"><path d="M 1000.0000,333.3333 h 0.0000 c 0.0000,-30.6825 -24.8731,-55.5556 -55.5556 -55.5556h -333.3333 c -30.6825,-0.0000 -55.5556,24.8731 -55.5556 55.5556h 0.0000 c -0.0000,30.6825 24.8731,55.5556 55.5556 55.5556h 333.3333 c 30.6825,0.0000 55.5556,-24.8731 55.5556 -55.5556Z"/></g><g stroke-linecap="butt" font-family="courier" fill="rgb(0,0,0)" font-size="20.833333333333336px" stroke-miterlimit="10.0" stroke-width="2.4944382578492945" fill-opacity="1.0" stroke-opacity="1.0" stroke-linejoin="miter" stroke="rgb(0,0,0)" font-weight="300"><text transform="matrix(1.0000,0.0000,0.0000,1.0000,777.7778,333.3333)" dominant-baseline="middle" text-anchor="middle" stroke="none">Do you have money?</text></g><g stroke-linecap="butt" fill="rgb(255,0,0)" stroke-miterlimit="10.0" stroke-width="0.0" fill-opacity="1.0" stroke-opacity="1.0" stroke-linejoin="miter" stroke="rgb(0,0,0)"><path d="M 786.6667,333.3333 c 0.0000,-4.9092 -3.9797,-8.8889 -8.8889 -8.8889c -4.9092,-0.0000 -8.8889,3.9797 -8.8889 8.8889c -0.0000,4.9092 3.9797,8.8889 8.8889 8.8889c 4.9092,0.0000 8.8889,-3.9797 8.8889 -8.8889Z"/></g><g stroke-linecap="butt" fill="rgb(0,0,0)" stroke-miterlimit="10.0" stroke-width="2.4944382578492945" fill-opacity="0.0" stroke-opacity="1.0" stroke-linejoin="miter" stroke="rgb(0,0,0)"><path d="M 444.4444,333.3333 h 0.0000 c 0.0000,-30.6825 -24.8731,-55.5556 -55.5556 -55.5556h -333.3333 c -30.6825,-0.0000 -55.5556,24.8731 -55.5556 55.5556h 0.0000 c -0.0000,30.6825 24.8731,55.5556 55.5556 55.5556h 333.3333 c 30.6825,0.0000 55.5556,-24.8731 55.5556 -55.5556Z"/></g><g stroke-linecap="butt" font-family="courier" fill="rgb(0,0,0)" font-size="20.833333333333336px" stroke-miterlimit="10.0" stroke-width="2.4944382578492945" fill-opacity="1.0" stroke-opacity="1.0" stroke-linejoin="miter" stroke="rgb(0,0,0)" font-weight="300"><text transform="matrix(1.0000,0.0000,0.0000,1.0000,222.2222,333.3333)" dominant-baseline="middle" text-anchor="middle" stroke="none">Are puppies on sale today?</text></g><g stroke-linecap="butt" fill="rgb(255,0,0)" stroke-miterlimit="10.0" stroke-width="0.0" fill-opacity="1.0" stroke-opacity="1.0" stroke-linejoin="miter" stroke="rgb(0,0,0)"><path d="M 231.1111,333.3333 c 0.0000,-4.9092 -3.9797,-8.8889 -8.8889 -8.8889c -4.9092,-0.0000 -8.8889,3.9797 -8.8889 8.8889c -0.0000,4.9092 3.9797,8.8889 8.8889 8.8889c 4.9092,0.0000 8.8889,-3.9797 8.8889 -8.8889Z"/></g><g stroke-linecap="butt" fill="rgb(0,0,0)" stroke-miterlimit="10.0" stroke-width="2.4944382578492945" fill-opacity="0.0" stroke-opacity="1.0" stroke-linejoin="miter" stroke="rgb(0,0,0)"><path d="M 444.4444,55.5556 h 0.0000 c 0.0000,-30.6825 -24.8731,-55.5556 -55.5556 -55.5556h -333.3333 c -30.6825,-0.0000 -55.5556,24.8731 -55.5556 55.5556h 0.0000 c -0.0000,30.6825 24.8731,55.5556 55.5556 55.5556h 333.3333 c 30.6825,0.0000 55.5556,-24.8731 55.5556 -55.5556Z"/></g><g stroke-linecap="butt" font-family="courier" fill="rgb(0,0,0)" font-size="20.833333333333336px" stroke-miterlimit="10.0" stroke-width="2.4944382578492945" fill-opacity="1.0" stroke-opacity="1.0" stroke-linejoin="miter" stroke="rgb(0,0,0)" font-weight="300"><text transform="matrix(1.0000,0.0000,0.0000,1.0000,222.2222,55.5556)" dominant-baseline="middle" text-anchor="middle" stroke="none">title</text></g><g stroke-linecap="butt" fill="rgb(255,0,0)" stroke-miterlimit="10.0" stroke-width="0.0" fill-opacity="1.0" stroke-opacity="1.0" stroke-linejoin="miter" stroke="rgb(0,0,0)"><path d="M 231.1111,55.5556 c 0.0000,-4.9092 -3.9797,-8.8889 -8.8889 -8.8889c -4.9092,-0.0000 -8.8889,3.9797 -8.8889 8.8889c -0.0000,4.9092 3.9797,8.8889 8.8889 8.8889c 4.9092,0.0000 8.8889,-3.9797 8.8889 -8.8889Z"/></g></svg>