<?xml version="1.0" encoding="UTF-8"?>
<!DOCTYPE svg PUBLIC "-//W3C//DTD SVG 1.1//EN"
    "http://www.w3.org/Graphics/SVG/1.1/DTD/svg11.dtd"><svg xmlns="http://www.w3.org/2000/svg" viewBox="0.0 0.0 200.0 926.315789473684" height="926.3158" font-size="1" stroke-opacity="1" width="200.0000" xmlns:xlink="http://www.w3.org/1999/xlink" stroke="rgb(0,0,0)" version="1.1"><defs></defs><g stroke-linecap="butt" fill="rgb(0,0,0)" stroke-miterlimit="10.0" stroke-width="0.5" fill-opacity="0.0" stroke-opacity="1.0" stroke-linejoin="miter" stroke="rgb(0,0,0)"><path d="M 200.0000,884.2105 h 0.0000 c 0.0000,-23.2541 -18.8512,-42.1053 -42.1053 -42.1053h -115.7895 c -23.2541,-0.0000 -42.1053,18.8512 -42.1053 42.1053h 0.0000 c -0.0000,23.2541 18.8512,42.1053 42.1053 42.1053h 115.7895 c 23.2541,0.0000 42.1053,-18.8512 42.1053 -42.1053Z"/></g><g stroke-linecap="butt" fill="rgb(255,0,0)" stroke-miterlimit="10.0" stroke-width="0.0" fill-opacity="1.0" stroke-opacity="1.0" stroke-linejoin="miter" stroke="rgb(0,0,0)"><path d="M 104.0000,884.2105 c 0.0000,-2.2091 -1.7909,-4.0000 -4.0000 -4.0000c -2.2091,-0.0000 -4.0000,1.7909 -4.0000 4.0000c -0.0000,2.2091 1.7909,4.0000 4.0000 4.0000c 2.2091,0.0000 4.0000,-1.7909 4.0000 -4.0000Z"/></g><g stroke-linecap="butt" fill="rgb(0,0,0)" stroke-miterlimit="10.0" stroke-width="0.5" fill-opacity="0.0" stroke-opacity="1.0" stroke-linejoin="miter" stroke="rgb(0,0,0)"><path d="M 200.0000,715.7895 l -0.0000,-84.2105 h -200.0000 l -0.0000,84.2105 Z"/></g><g stroke-linecap="butt" fill="rgb(255,0,0)" stroke-miterlimit="10.0" stroke-width="0.0" fill-opacity="1.0" stroke-opacity="1.0" stroke-linejoin="miter" stroke="rgb(0,0,0)"><path d="M 104.0000,673.6842 c 0.0000,-2.2091 -1.7909,-4.0000 -4.0000 -4.0000c -2.2091,-0.0000 -4.0000,1.7909 -4.0000 4.0000c -0.0000,2.2091 1.7909,4.0000 4.0000 4.0000c 2.2091,0.0000 4.0000,-1.7909 4.0000 -4.0000Z"/></g><g stroke-linecap="butt" fill="rgb(0,0,0)" stroke-miterlimit="10.0" stroke-width="0.5" fill-opacity="0.0" stroke-opacity="1.0" stroke-linejoin="miter" stroke="rgb(0,0,0)"><path d="M 200.0000,505.2632 l -0.0000,-84.2105 h -200.0000 l -0.0000,84.2105 Z"/></g><g stroke-linecap="butt" fill="rgb(255,0,0)" stroke-miterlimit="10.0" stroke-width="0.0" fill-opacity="1.0" stroke-opacity="1.0" stroke-linejoin="miter" stroke="rgb(0,0,0)"><path d="M 104.0000,463.1579 c 0.0000,-2.2091 -1.7909,-4.0000 -4.0000 -4.0000c -2.2091,-0.0000 -4.0000,1.7909 -4.0000 4.0000c -0.0000,2.2091 1.7909,4.0000 4.0000 4.0000c 2.2091,0.0000 4.0000,-1.7909 4.0000 -4.0000Z"/></g><g stroke-linecap="butt" fill="rgb(0,0,0)" stroke-miterlimit="10.0" stroke-width="0.5" fill-opacity="0.0" stroke-opacity="1.0" stroke-linejoin="miter" stroke="rgb(0,0,0)"><path d="M 200.0000,294.7368 l -0.0000,-84.2105 h -200.0000 l -0.0000,84.2105 Z"/></g><g stroke-linecap="butt" fill="rgb(255,0,0)" stroke-miterlimit="10.0" stroke-width="0.0" fill-opacity="1.0" stroke-opacity="1.0" stroke-linejoin="miter" stroke="rgb(0,0,0)"><path d="M 104.0000,252.6316 c 0.0000,-2.2091 -1.7909,-4.0000 -4.0000 -4.0000c -2.2091,-0.0000 -4.0000,1.7909 -4.0000 4.0000c -0.0000,2.2091 1.7909,4.0000 4.0000 4.0000c 2.2091,0.0000 4.0000,-1.7909 4.0000 -4.0000Z"/></g><g stroke-linecap="butt" fill="rgb(0,0,0)" stroke-miterlimit="10.0" stroke-width="0.5" fill-opacity="0.0" stroke-opacity="1.0" stroke-linejoin="miter" stroke="rgb(0,0,0)"><path d="M 200.0000,42.1053 h 0.0000 c 0.0000,-23.2541 -18.8512,-42.1053 -42.1053 -42.1053h -115.7895 c -23.2541,-0.0000 -42.1053,18.8512 -42.1053 42.1053h 0.0000 c -0.0000,23.2541 18.8512,42.1053 42.1053 42.1053h 115.7895 c 23.2541,0.0000 42.1053,-18.8512 42.1053 -42.1053Z"/></g><g stroke-linecap="butt" fill="rgb(255,0,0)" stroke-miterlimit="10.0" stroke-width="0.0" fill-opacity="1.0" stroke-opacity="1.0" stroke-linejoin="miter" stroke="rgb(0,0,0)"><path d="M 104.0000,42.1053 c 0.0000,-2.2091 -1.7909,-4.0000 -4.0000 -4.0000c -2.2091,-0.0000 -4.0000,1.7909 -4.0000 4.0000c -0.0000,2.2091 1.7909,4.0000 4.0000 4.0000c 2.2091,0.0000 4.0000,-1.7909 4.0000 -4.0000Z"/></g><g stroke-linecap="butt" fill="rgb(0,0,0)" stroke-miterlimit="10.0" stroke-width="0.5" fill-opacity="0.0" stroke-opacity="1.0" stroke-linejoin="miter" stroke="rgb(0,0,0)"><path d="M 100.0000,715.7895 l 0.0000,111.2510 "/></g><g stroke-linecap="butt" fill="rgb(0,0,0)" stroke-miterlimit="10.0" stroke-width="0.0" fill-opacity="1.0" stroke-opacity="1.0" stroke-linejoin="miter" stroke="rgb(0,0,0)"></g><g stroke-linecap="butt" fill="rgb(0,0,0)" stroke-miterlimit="10.0" stroke-width="0.0" fill-opacity="1.0" stroke-opacity="1.0" stroke-linejoin="miter" stroke="rgb(0,0,0)"></g><g stroke-linecap="butt" fill="rgb(0,0,0)" stroke-miterlimit="10.0" stroke-width="0.0" fill-opacity="1.0" stroke-opacity="1.0" stroke-linejoin="miter" stroke="rgb(0,0,0)"><path d="M 100.0000,842.1053 l 5.8517,-18.0098 l -5.8517,3.0764 l -5.8517,-3.0764 Z"/></g><g stroke-linecap="butt" fill="rgb(0,0,0)" stroke-miterlimit="10.0" stroke-width="0.0" fill-opacity="1.0" stroke-opacity="1.0" stroke-linejoin="miter" stroke="rgb(0,0,0)"><path d="M 100.0000,827.1719 l -0.0000,-0.1314 l 0.2500,-0.0000 l -0.2500,0.1314 l -0.0000,-0.1314 l -0.2500,0.0000 Z"/></g><g stroke-linecap="butt" fill="rgb(0,0,0)" stroke-miterlimit="10.0" stroke-width="0.5" fill-opacity="0.0" stroke-opacity="1.0" stroke-linejoin="miter" stroke="rgb(0,0,0)"><path d="M 100.0000,505.2632 l 0.0000,111.2510 "/></g><g stroke-linecap="butt" fill="rgb(0,0,0)" stroke-miterlimit="10.0" stroke-width="0.0" fill-opacity="1.0" stroke-opacity="1.0" stroke-linejoin="miter" stroke="rgb(0,0,0)"></g><g stroke-linecap="butt" fill="rgb(0,0,0)" stroke-miterlimit="10.0" stroke-width="0.0" fill-opacity="1.0" stroke-opacity="1.0" stroke-linejoin="miter" stroke="rgb(0,0,0)"></g><g stroke-linecap="butt" fill="rgb(0,0,0)" stroke-miterlimit="10.0" stroke-width="0.0" fill-opacity="1.0" stroke-opacity="1.0" stroke-linejoin="miter" stroke="rgb(0,0,0)"><path d="M 100.0000,631.5789 l 5.8517,-18.0098 l -5.8517,3.0764 l -5.8517,-3.0764 Z"/></g><g stroke-linecap="butt" fill="rgb(0,0,0)" stroke-miterlimit="10.0" stroke-width="0.0" fill-opacity="1.0" stroke-opacity="1.0" stroke-linejoin="miter" stroke="rgb(0,0,0)"><path d="M 100.0000,616.6456 l -0.0000,-0.1314 l 0.2500,-0.0000 l -0.2500,0.1314 l -0.0000,-0.1314 l -0.2500,0.0000 Z"/></g><g stroke-linecap="butt" fill="rgb(0,0,0)" stroke-miterlimit="10.0" stroke-width="0.5" fill-opacity="0.0" stroke-opacity="1.0" stroke-linejoin="miter" stroke="rgb(0,0,0)"><path d="M 100.0000,294.7368 l 0.0000,111.2510 "/></g><g stroke-linecap="butt" fill="rgb(0,0,0)" stroke-miterlimit="10.0" stroke-width="0.0" fill-opacity="1.0" stroke-opacity="1.0" stroke-linejoin="miter" stroke="rgb(0,0,0)"></g><g stroke-linecap="butt" fill="rgb(0,0,0)" stroke-miterlimit="10.0" stroke-width="0.0" fill-opacity="1.0" stroke-opacity="1.0" stroke-linejoin="miter" stroke="rgb(0,0,0)"></g><g stroke-linecap="butt" fill="rgb(0,0,0)" stroke-miterlimit="10.0" stroke-width="0.0" fill-opacity="1.0" stroke-opacity="1.0" stroke-linejoin="miter" stroke="rgb(0,0,0)"><path d="M 100.0000,421.0526 l 5.8517,-18.0098 l -5.8517,3.0764 l -5.8517,-3.0764 Z"/></g><g stroke-linecap="butt" fill="rgb(0,0,0)" stroke-miterlimit="10.0" stroke-width="0.0" fill-opacity="1.0" stroke-opacity="1.0" stroke-linejoin="miter" stroke="rgb(0,0,0)"><path d="M 100.0000,406.1193 l -0.0000,-0.1314 l 0.2500,-0.0000 l -0.2500,0.1314 l -0.0000,-0.1314 l -0.2500,0.0000 Z"/></g><g stroke-linecap="butt" fill="rgb(0,0,0)" stroke-miterlimit="10.0" stroke-width="0.5" fill-opacity="0.0" stroke-opacity="1.0" stroke-linejoin="miter" stroke="rgb(0,0,0)"><path d="M 100.0000,84.2105 l 0.0000,111.2510 "/></g><g stroke-linecap="butt" fill="rgb(0,0,0)" stroke-miterlimit="10.0" stroke-width="0.0" fill-opacity="1.0" stroke-opacity="1.0" stroke-linejoin="miter" stroke="rgb(0,0,0)"></g><g stroke-linecap="butt" fill="rgb(0,0,0)" stroke-miterlimit="10.0" stroke-width="0.0" fill-opacity="1.0" stroke-opacity="1.0" stroke-linejoin="miter" stroke="rgb(0,0,0)"></g><g stroke-linecap="butt" fill="rgb(0,0,0)" stroke-miterlimit="10.0" stroke-width="0.0" fill-opacity="1.0" stroke-opacity="1.0" stroke-linejoin="miter" stroke="rgb(0,0,0)"><path d="M 100.0000,210.5263 l 5.8517,-18.0098 l -5.8517,3.0764 l -5.8517,-3.0764 Z"/></g><g stroke-linecap="butt" fill="rgb(0,0,0)" stroke-miterlimit="10.0" stroke-width="0.0" fill-opacity="1.0" stroke-opacity="1.0" stroke-linejoin="miter" stroke="rgb(0,0,0)"><path d="M 100.0000,195.5930 l -0.0000,-0.1314 l 0.2500,-0.0000 l -0.2500,0.1314 l -0.0000,-0.1314 l -0.2500,0.0000 Z"/></g></svg>