<?xml version="1.0" encoding="UTF-8"?>
<!DOCTYPE svg PUBLIC "-//W3C//DTD SVG 1.1//EN"
    "http://www.w3.org/Graphics/SVG/1.1/DTD/svg11.dtd"><svg xmlns="http://www.w3.org/2000/svg" viewBox="0.0 0.0 400.0 480.00000000000006" height="480.0000" font-size="1" stroke-opacity="1" width="400.0000" xmlns:xlink="http://www.w3.org/1999/xlink" stroke="rgb(0,0,0)" version="1.1"><defs></defs><g stroke-linecap="butt" fill="rgb(0,0,0)" stroke-miterlimit="10.0" stroke-width="0.5" fill-opacity="0.0" stroke-opacity="1.0" stroke-linejoin="miter" stroke="rgb(0,0,0)"><path d="M 400.0000,440.0000 h 0.0000 c 0.0000,-22.0914 -17.9086,-40.0000 -40.0000 -40.0000h -120.0000 c -22.0914,-0.0000 -40.0000,17.9086 -40.0000 40.0000h 0.0000 c -0.0000,22.0914 17.9086,40.0000 40.0000 40.0000h 120.0000 c 22.0914,0.0000 40.0000,-17.9086 40.0000 -40.0000Z"/></g><g stroke-linecap="butt" fill="rgb(255,0,0)" stroke-miterlimit="10.0" stroke-width="0.0" fill-opacity="1.0" stroke-opacity="1.0" stroke-linejoin="miter" stroke="rgb(0,0,0)"><path d="M 304.0000,440.0000 c 0.0000,-2.2091 -1.7909,-4.0000 -4.0000 -4.0000c -2.2091,-0.0000 -4.0000,1.7909 -4.0000 4.0000c -0.0000,2.2091 1.7909,4.0000 4.0000 4.0000c 2.2091,0.0000 4.0000,-1.7909 4.0000 -4.0000Z"/></g><g stroke-linecap="butt" font-family="courier" fill="rgb(0,0,0)" font-size="20.0px" stroke-miterlimit="10.0" stroke-width="0.5" fill-opacity="1.0" stroke-opacity="1.0" stroke-linejoin="miter" stroke="rgb(0,0,0)" font-weight="100"><text transform="matrix(1.0000,0.0000,0.0000,1.0000,300.0000,440.0000)" dominant-baseline="middle" text-anchor="middle" stroke="none">&quot;x1.0y-2.0&quot;: end</text></g><g stroke-linecap="butt" fill="rgb(0,0,0)" stroke-miterlimit="10.0" stroke-width="0.5" fill-opacity="0.0" stroke-opacity="1.0" stroke-linejoin="miter" stroke="rgb(0,0,0)"><path d="M 20.0000,280.0000 l -20.0000,-40.0000 l 20.0000,-40.0000 h 160.0000 l 20.0000,40.0000 l -20.0000,40.0000 h -160.0000 "/></g><g stroke-linecap="butt" fill="rgb(255,0,0)" stroke-miterlimit="10.0" stroke-width="0.0" fill-opacity="1.0" stroke-opacity="1.0" stroke-linejoin="miter" stroke="rgb(0,0,0)"><path d="M 104.0000,240.0000 c 0.0000,-2.2091 -1.7909,-4.0000 -4.0000 -4.0000c -2.2091,-0.0000 -4.0000,1.7909 -4.0000 4.0000c -0.0000,2.2091 1.7909,4.0000 4.0000 4.0000c 2.2091,0.0000 4.0000,-1.7909 4.0000 -4.0000Z"/></g><g stroke-linecap="butt" font-family="courier" fill="rgb(0,0,0)" font-size="20.0px" stroke-miterlimit="10.0" stroke-width="0.5" fill-opacity="1.0" stroke-opacity="1.0" stroke-linejoin="miter" stroke="rgb(0,0,0)" font-weight="300"><text transform="matrix(1.0000,0.0000,0.0000,1.0000,100.0000,240.0000)" dominant-baseline="middle" text-anchor="middle" stroke="none">&quot;x0.0y-1.0&quot;</text></g><g stroke-linecap="butt" fill="rgb(0,0,0)" stroke-miterlimit="10.0" stroke-width="0.5" fill-opacity="0.0" stroke-opacity="1.0" stroke-linejoin="miter" stroke="rgb(0,0,0)"><path d="M 195.0000,480.0000 l -0.0000,-80.0000 h -190.0000 l -0.0000,80.0000 Z"/></g><g stroke-linecap="butt" fill="rgb(255,0,0)" stroke-miterlimit="10.0" stroke-width="0.0" fill-opacity="1.0" stroke-opacity="1.0" stroke-linejoin="miter" stroke="rgb(0,0,0)"><path d="M 103.8000,440.0000 c 0.0000,-2.0987 -1.7013,-3.8000 -3.8000 -3.8000c -2.0987,-0.0000 -3.8000,1.7013 -3.8000 3.8000c -0.0000,2.0987 1.7013,3.8000 3.8000 3.8000c 2.0987,0.0000 3.8000,-1.7013 3.8000 -3.8000Z"/></g><g stroke-linecap="butt" font-family="courier" fill="rgb(0,0,0)" font-size="20.0px" stroke-miterlimit="10.0" stroke-width="0.5" fill-opacity="1.0" stroke-opacity="1.0" stroke-linejoin="miter" stroke="rgb(0,0,0)" font-weight="300"><text transform="matrix(1.0000,0.0000,0.0000,1.0000,100.0000,440.0000)" dominant-baseline="middle" text-anchor="middle" stroke="none">&quot;x0.0y-2.0&quot;</text></g><g stroke-linecap="butt" fill="rgb(0,0,0)" stroke-miterlimit="10.0" stroke-width="0.5" fill-opacity="0.0" stroke-opacity="1.0" stroke-linejoin="miter" stroke="rgb(0,0,0)"><path d="M 200.0000,40.0000 h 0.0000 c 0.0000,-22.0914 -17.9086,-40.0000 -40.0000 -40.0000h -120.0000 c -22.0914,-0.0000 -40.0000,17.9086 -40.0000 40.0000h 0.0000 c -0.0000,22.0914 17.9086,40.0000 40.0000 40.0000h 120.0000 c 22.0914,0.0000 40.0000,-17.9086 40.0000 -40.0000Z"/></g><g stroke-linecap="butt" fill="rgb(255,0,0)" stroke-miterlimit="10.0" stroke-width="0.0" fill-opacity="1.0" stroke-opacity="1.0" stroke-linejoin="miter" stroke="rgb(0,0,0)"><path d="M 104.0000,40.0000 c 0.0000,-2.2091 -1.7909,-4.0000 -4.0000 -4.0000c -2.2091,-0.0000 -4.0000,1.7909 -4.0000 4.0000c -0.0000,2.2091 1.7909,4.0000 4.0000 4.0000c 2.2091,0.0000 4.0000,-1.7909 4.0000 -4.0000Z"/></g><g stroke-linecap="butt" font-family="courier" fill="rgb(0,0,0)" font-size="20.0px" stroke-miterlimit="10.0" stroke-width="0.5" fill-opacity="1.0" stroke-opacity="1.0" stroke-linejoin="miter" stroke="rgb(0,0,0)" font-weight="300"><text transform="matrix(1.0000,0.0000,0.0000,1.0000,100.0000,40.0000)" dominant-baseline="middle" text-anchor="middle" stroke="none">&quot;x0.0y0.0&quot;: start</text></g></svg>