<?xml version="1.0" encoding="UTF-8"?>
<!DOCTYPE svg PUBLIC "-//W3C//DTD SVG 1.1//EN"
    "http://www.w3.org/Graphics/SVG/1.1/DTD/svg11.dtd"><svg xmlns="http://www.w3.org/2000/svg" viewBox="0.0 0.0 300.0 1389.4736842105262" height="1389.4737" font-size="1" stroke-opacity="1" width="300.0000" xmlns:xlink="http://www.w3.org/1999/xlink" stroke="rgb(0,0,0)" version="1.1"><defs></defs><g stroke-linecap="butt" fill="rgb(0,0,0)" stroke-miterlimit="10.0" stroke-width="0.6456331042187644" fill-opacity="0.0" stroke-opacity="1.0" stroke-linejoin="miter" stroke="rgb(0,0,0)"><path d="M 300.0000,1326.3158 h 0.0000 c 0.0000,-34.8811 -28.2768,-63.1579 -63.1579 -63.1579h -173.6842 c -34.8811,-0.0000 -63.1579,28.2768 -63.1579 63.1579h 0.0000 c -0.0000,34.8811 28.2768,63.1579 63.1579 63.1579h 173.6842 c 34.8811,0.0000 63.1579,-28.2768 63.1579 -63.1579Z"/></g><g stroke-linecap="butt" fill="rgb(255,0,0)" stroke-miterlimit="10.0" stroke-width="0.0" fill-opacity="1.0" stroke-opacity="1.0" stroke-linejoin="miter" stroke="rgb(0,0,0)"><path d="M 156.0000,1326.3158 c 0.0000,-3.3137 -2.6863,-6.0000 -6.0000 -6.0000c -3.3137,-0.0000 -6.0000,2.6863 -6.0000 6.0000c -0.0000,3.3137 2.6863,6.0000 6.0000 6.0000c 3.3137,0.0000 6.0000,-2.6863 6.0000 -6.0000Z"/></g><g stroke-linecap="butt" fill="rgb(0,0,0)" font-size="315.78947368421046px" stroke-miterlimit="10.0" stroke-width="0.6456331042187644" fill-opacity="1.0" stroke-opacity="1.0" stroke-linejoin="miter" stroke="rgb(0,0,0)"><text transform="matrix(1.0000,0.0000,0.0000,1.0000,150.0000,1326.3158)" dominant-baseline="middle" text-anchor="middle" stroke="none">hello</text></g><g stroke-linecap="butt" fill="rgb(0,0,0)" stroke-miterlimit="10.0" stroke-width="0.6456331042187644" fill-opacity="0.0" stroke-opacity="1.0" stroke-linejoin="miter" stroke="rgb(0,0,0)"><path d="M 300.0000,1073.6842 l -0.0000,-126.3158 h -300.0000 l -0.0000,126.3158 Z"/></g><g stroke-linecap="butt" fill="rgb(255,0,0)" stroke-miterlimit="10.0" stroke-width="0.0" fill-opacity="1.0" stroke-opacity="1.0" stroke-linejoin="miter" stroke="rgb(0,0,0)"><path d="M 156.0000,1010.5263 c 0.0000,-3.3137 -2.6863,-6.0000 -6.0000 -6.0000c -3.3137,-0.0000 -6.0000,2.6863 -6.0000 6.0000c -0.0000,3.3137 2.6863,6.0000 6.0000 6.0000c 3.3137,0.0000 6.0000,-2.6863 6.0000 -6.0000Z"/></g><g stroke-linecap="butt" fill="rgb(0,0,0)" stroke-miterlimit="10.0" stroke-width="0.6456331042187644" fill-opacity="0.0" stroke-opacity="1.0" stroke-linejoin="miter" stroke="rgb(0,0,0)"><path d="M 300.0000,757.8947 l -0.0000,-126.3158 h -300.0000 l -0.0000,126.3158 Z"/></g><g stroke-linecap="butt" fill="rgb(255,0,0)" stroke-miterlimit="10.0" stroke-width="0.0" fill-opacity="1.0" stroke-opacity="1.0" stroke-linejoin="miter" stroke="rgb(0,0,0)"><path d="M 156.0000,694.7368 c 0.0000,-3.3137 -2.6863,-6.0000 -6.0000 -6.0000c -3.3137,-0.0000 -6.0000,2.6863 -6.0000 6.0000c -0.0000,3.3137 2.6863,6.0000 6.0000 6.0000c 3.3137,0.0000 6.0000,-2.6863 6.0000 -6.0000Z"/></g><g stroke-linecap="butt" fill="rgb(0,0,0)" stroke-miterlimit="10.0" stroke-width="0.6456331042187644" fill-opacity="0.0" stroke-opacity="1.0" stroke-linejoin="miter" stroke="rgb(0,0,0)"><path d="M 300.0000,442.1053 l -0.0000,-126.3158 h -300.0000 l -0.0000,126.3158 Z"/></g><g stroke-linecap="butt" fill="rgb(255,0,0)" stroke-miterlimit="10.0" stroke-width="0.0" fill-opacity="1.0" stroke-opacity="1.0" stroke-linejoin="miter" stroke="rgb(0,0,0)"><path d="M 156.0000,378.9474 c 0.0000,-3.3137 -2.6863,-6.0000 -6.0000 -6.0000c -3.3137,-0.0000 -6.0000,2.6863 -6.0000 6.0000c -0.0000,3.3137 2.6863,6.0000 6.0000 6.0000c 3.3137,0.0000 6.0000,-2.6863 6.0000 -6.0000Z"/></g><g stroke-linecap="butt" fill="rgb(0,0,0)" stroke-miterlimit="10.0" stroke-width="0.6456331042187644" fill-opacity="0.0" stroke-opacity="1.0" stroke-linejoin="miter" stroke="rgb(0,0,0)"><path d="M 300.0000,63.1579 h 0.0000 c 0.0000,-34.8811 -28.2768,-63.1579 -63.1579 -63.1579h -173.6842 c -34.8811,-0.0000 -63.1579,28.2768 -63.1579 63.1579h 0.0000 c -0.0000,34.8811 28.2768,63.1579 63.1579 63.1579h 173.6842 c 34.8811,0.0000 63.1579,-28.2768 63.1579 -63.1579Z"/></g><g stroke-linecap="butt" fill="rgb(255,0,0)" stroke-miterlimit="10.0" stroke-width="0.0" fill-opacity="1.0" stroke-opacity="1.0" stroke-linejoin="miter" stroke="rgb(0,0,0)"><path d="M 156.0000,63.1579 c 0.0000,-3.3137 -2.6863,-6.0000 -6.0000 -6.0000c -3.3137,-0.0000 -6.0000,2.6863 -6.0000 6.0000c -0.0000,3.3137 2.6863,6.0000 6.0000 6.0000c 3.3137,0.0000 6.0000,-2.6863 6.0000 -6.0000Z"/></g><g stroke-linecap="butt" fill="rgb(0,0,0)" font-size="315.78947368421046px" stroke-miterlimit="10.0" stroke-width="0.6456331042187644" fill-opacity="1.0" stroke-opacity="1.0" stroke-linejoin="miter" stroke="rgb(0,0,0)"><text transform="matrix(1.0000,0.0000,0.0000,1.0000,150.0000,63.1579)" dominant-baseline="middle" text-anchor="middle" stroke="none">hello</text></g><g stroke-linecap="butt" fill="rgb(0,0,0)" stroke-miterlimit="10.0" stroke-width="0.6456331042187644" fill-opacity="0.0" stroke-opacity="1.0" stroke-linejoin="miter" stroke="rgb(0,0,0)"><path d="M 150.0000,1073.6842 l 0.0000,166.8765 "/></g><g stroke-linecap="butt" fill="rgb(0,0,0)" stroke-miterlimit="10.0" stroke-width="0.0" fill-opacity="1.0" stroke-opacity="1.0" stroke-linejoin="miter" stroke="rgb(0,0,0)"></g><g stroke-linecap="butt" fill="rgb(0,0,0)" stroke-miterlimit="10.0" stroke-width="0.0" fill-opacity="1.0" stroke-opacity="1.0" stroke-linejoin="miter" stroke="rgb(0,0,0)"></g><g stroke-linecap="butt" fill="rgb(0,0,0)" stroke-miterlimit="10.0" stroke-width="0.0" fill-opacity="1.0" stroke-opacity="1.0" stroke-linejoin="miter" stroke="rgb(0,0,0)"><path d="M 150.0000,1263.1579 l 8.7883,-27.0478 l -8.7883,4.6203 l -8.7883,-4.6203 Z"/></g><g stroke-linecap="butt" fill="rgb(0,0,0)" stroke-miterlimit="10.0" stroke-width="0.0" fill-opacity="1.0" stroke-opacity="1.0" stroke-linejoin="miter" stroke="rgb(0,0,0)"><path d="M 150.0000,1240.7305 l -0.0000,-0.1697 l 0.3228,-0.0000 l -0.3228,0.1697 l -0.0000,-0.1697 l -0.3228,0.0000 Z"/></g><g stroke-linecap="butt" fill="rgb(0,0,0)" stroke-miterlimit="10.0" stroke-width="0.6456331042187644" fill-opacity="0.0" stroke-opacity="1.0" stroke-linejoin="miter" stroke="rgb(0,0,0)"><path d="M 150.0000,757.8947 l 0.0000,166.8765 "/></g><g stroke-linecap="butt" fill="rgb(0,0,0)" stroke-miterlimit="10.0" stroke-width="0.0" fill-opacity="1.0" stroke-opacity="1.0" stroke-linejoin="miter" stroke="rgb(0,0,0)"></g><g stroke-linecap="butt" fill="rgb(0,0,0)" stroke-miterlimit="10.0" stroke-width="0.0" fill-opacity="1.0" stroke-opacity="1.0" stroke-linejoin="miter" stroke="rgb(0,0,0)"></g><g stroke-linecap="butt" fill="rgb(0,0,0)" stroke-miterlimit="10.0" stroke-width="0.0" fill-opacity="1.0" stroke-opacity="1.0" stroke-linejoin="miter" stroke="rgb(0,0,0)"><path d="M 150.0000,947.3684 l 8.7883,-27.0478 l -8.7883,4.6203 l -8.7883,-4.6203 Z"/></g><g stroke-linecap="butt" fill="rgb(0,0,0)" stroke-miterlimit="10.0" stroke-width="0.0" fill-opacity="1.0" stroke-opacity="1.0" stroke-linejoin="miter" stroke="rgb(0,0,0)"><path d="M 150.0000,924.9410 l -0.0000,-0.1697 l 0.3228,-0.0000 l -0.3228,0.1697 l -0.0000,-0.1697 l -0.3228,0.0000 Z"/></g><g stroke-linecap="butt" fill="rgb(0,0,0)" stroke-miterlimit="10.0" stroke-width="0.6456331042187644" fill-opacity="0.0" stroke-opacity="1.0" stroke-linejoin="miter" stroke="rgb(0,0,0)"><path d="M 150.0000,442.1053 l 0.0000,166.8765 "/></g><g stroke-linecap="butt" fill="rgb(0,0,0)" stroke-miterlimit="10.0" stroke-width="0.0" fill-opacity="1.0" stroke-opacity="1.0" stroke-linejoin="miter" stroke="rgb(0,0,0)"></g><g stroke-linecap="butt" fill="rgb(0,0,0)" stroke-miterlimit="10.0" stroke-width="0.0" fill-opacity="1.0" stroke-opacity="1.0" stroke-linejoin="miter" stroke="rgb(0,0,0)"></g><g stroke-linecap="butt" fill="rgb(0,0,0)" stroke-miterlimit="10.0" stroke-width="0.0" fill-opacity="1.0" stroke-opacity="1.0" stroke-linejoin="miter" stroke="rgb(0,0,0)"><path d="M 150.0000,631.5789 l 8.7883,-27.0478 l -8.7883,4.6203 l -8.7883,-4.6203 Z"/></g><g stroke-linecap="butt" fill="rgb(0,0,0)" stroke-miterlimit="10.0" stroke-width="0.0" fill-opacity="1.0" stroke-opacity="1.0" stroke-linejoin="miter" stroke="rgb(0,0,0)"><path d="M 150.0000,609.1515 l -0.0000,-0.1697 l 0.3228,-0.0000 l -0.3228,0.1697 l -0.0000,-0.1697 l -0.3228,0.0000 Z"/></g><g stroke-linecap="butt" fill="rgb(0,0,0)" stroke-miterlimit="10.0" stroke-width="0.6456331042187644" fill-opacity="0.0" stroke-opacity="1.0" stroke-linejoin="miter" stroke="rgb(0,0,0)"><path d="M 150.0000,126.3158 l 0.0000,166.8765 "/></g><g stroke-linecap="butt" fill="rgb(0,0,0)" stroke-miterlimit="10.0" stroke-width="0.0" fill-opacity="1.0" stroke-opacity="1.0" stroke-linejoin="miter" stroke="rgb(0,0,0)"></g><g stroke-linecap="butt" fill="rgb(0,0,0)" stroke-miterlimit="10.0" stroke-width="0.0" fill-opacity="1.0" stroke-opacity="1.0" stroke-linejoin="miter" stroke="rgb(0,0,0)"></g><g stroke-linecap="butt" fill="rgb(0,0,0)" stroke-miterlimit="10.0" stroke-width="0.0" fill-opacity="1.0" stroke-opacity="1.0" stroke-linejoin="miter" stroke="rgb(0,0,0)"><path d="M 150.0000,315.7895 l 8.7883,-27.0478 l -8.7883,4.6203 l -8.7883,-4.6203 Z"/></g><g stroke-linecap="butt" fill="rgb(0,0,0)" stroke-miterlimit="10.0" stroke-width="0.0" fill-opacity="1.0" stroke-opacity="1.0" stroke-linejoin="miter" stroke="rgb(0,0,0)"><path d="M 150.0000,293.3620 l -0.0000,-0.1697 l 0.3228,-0.0000 l -0.3228,0.1697 l -0.0000,-0.1697 l -0.3228,0.0000 Z"/></g></svg>