<?xml version="1.0" encoding="UTF-8"?>
<!DOCTYPE svg PUBLIC "-//W3C//DTD SVG 1.1//EN"
    "http://www.w3.org/Graphics/SVG/1.1/DTD/svg11.dtd"><svg xmlns="http://www.w3.org/2000/svg" viewBox="0.0 0.0 1000.0000000000001 954.6279491833031" height="954.6279" font-size="1" stroke-opacity="1" width="1000.0000" xmlns:xlink="http://www.w3.org/1999/xlink" stroke="rgb(0,0,0)" version="1.1"><defs></defs><g stroke-linecap="butt" fill="rgb(0,0,0)" stroke-miterlimit="10.0" stroke-width="0.9770506379831618" fill-opacity="0.0" stroke-opacity="1.0" stroke-linejoin="miter" stroke="rgb(0,0,0)"><path d="M 909.2559,45.3721 h 0.0000 v -45.3721 h 90.7441 v 45.3721 h -90.7441 "/></g><g stroke-linecap="butt" fill="rgb(255,0,0)" stroke-miterlimit="10.0" stroke-width="0.0" fill-opacity="1.0" stroke-opacity="1.0" stroke-linejoin="miter" stroke="rgb(0,0,0)"><path d="M 911.0708,45.3721 c 0.0000,-1.0023 -0.8126,-1.8149 -1.8149 -1.8149c -1.0023,-0.0000 -1.8149,0.8126 -1.8149 1.8149c -0.0000,1.0023 0.8126,1.8149 1.8149 1.8149c 1.0023,0.0000 1.8149,-0.8126 1.8149 -1.8149Z"/></g><g stroke-linecap="butt" fill="rgb(0,0,0)" stroke-miterlimit="10.0" stroke-width="0.9770506379831618" fill-opacity="0.0" stroke-opacity="1.0" stroke-linejoin="miter" stroke="rgb(0,0,0)"><path d="M 909.2559,226.8603 h 0.0000 v -45.3721 h 90.7441 v 45.3721 h -90.7441 "/></g><g stroke-linecap="butt" fill="rgb(255,0,0)" stroke-miterlimit="10.0" stroke-width="0.0" fill-opacity="1.0" stroke-opacity="1.0" stroke-linejoin="miter" stroke="rgb(0,0,0)"><path d="M 911.0708,226.8603 c 0.0000,-1.0023 -0.8126,-1.8149 -1.8149 -1.8149c -1.0023,-0.0000 -1.8149,0.8126 -1.8149 1.8149c -0.0000,1.0023 0.8126,1.8149 1.8149 1.8149c 1.0023,0.0000 1.8149,-0.8126 1.8149 -1.8149Z"/></g><g stroke-linecap="butt" fill="rgb(0,0,0)" stroke-miterlimit="10.0" stroke-width="0.9770506379831618" fill-opacity="0.0" stroke-opacity="1.0" stroke-linejoin="miter" stroke="rgb(0,0,0)"><path d="M 909.2559,408.3485 h 0.0000 v -45.3721 h 90.7441 v 45.3721 h -90.7441 "/></g><g stroke-linecap="butt" fill="rgb(255,0,0)" stroke-miterlimit="10.0" stroke-width="0.0" fill-opacity="1.0" stroke-opacity="1.0" stroke-linejoin="miter" stroke="rgb(0,0,0)"><path d="M 911.0708,408.3485 c 0.0000,-1.0023 -0.8126,-1.8149 -1.8149 -1.8149c -1.0023,-0.0000 -1.8149,0.8126 -1.8149 1.8149c -0.0000,1.0023 0.8126,1.8149 1.8149 1.8149c 1.0023,0.0000 1.8149,-0.8126 1.8149 -1.8149Z"/></g><g stroke-linecap="butt" fill="rgb(0,0,0)" stroke-miterlimit="10.0" stroke-width="0.9770506379831618" fill-opacity="0.0" stroke-opacity="1.0" stroke-linejoin="miter" stroke="rgb(0,0,0)"><path d="M 909.2559,589.8367 h 0.0000 v -45.3721 h 90.7441 v 45.3721 h -90.7441 "/></g><g stroke-linecap="butt" fill="rgb(255,0,0)" stroke-miterlimit="10.0" stroke-width="0.0" fill-opacity="1.0" stroke-opacity="1.0" stroke-linejoin="miter" stroke="rgb(0,0,0)"><path d="M 911.0708,589.8367 c 0.0000,-1.0023 -0.8126,-1.8149 -1.8149 -1.8149c -1.0023,-0.0000 -1.8149,0.8126 -1.8149 1.8149c -0.0000,1.0023 0.8126,1.8149 1.8149 1.8149c 1.0023,0.0000 1.8149,-0.8126 1.8149 -1.8149Z"/></g><g stroke-linecap="butt" fill="rgb(0,0,0)" stroke-miterlimit="10.0" stroke-width="0.9770506379831618" fill-opacity="0.0" stroke-opacity="1.0" stroke-linejoin="miter" stroke="rgb(0,0,0)"><path d="M 909.2559,771.3249 h 0.0000 v -45.3721 h 90.7441 v 45.3721 h -90.7441 "/></g><g stroke-linecap="butt" fill="rgb(255,0,0)" stroke-miterlimit="10.0" stroke-width="0.0" fill-opacity="1.0" stroke-opacity="1.0" stroke-linejoin="miter" stroke="rgb(0,0,0)"><path d="M 911.0708,771.3249 c 0.0000,-1.0023 -0.8126,-1.8149 -1.8149 -1.8149c -1.0023,-0.0000 -1.8149,0.8126 -1.8149 1.8149c -0.0000,1.0023 0.8126,1.8149 1.8149 1.8149c 1.0023,0.0000 1.8149,-0.8126 1.8149 -1.8149Z"/></g><g stroke-linecap="butt" fill="rgb(0,0,0)" stroke-miterlimit="10.0" stroke-width="0.9770506379831618" fill-opacity="0.0" stroke-opacity="1.0" stroke-linejoin="miter" stroke="rgb(0,0,0)"><path d="M 909.2559,952.8131 h 0.0000 v -45.3721 h 90.7441 v 45.3721 h -90.7441 "/></g><g stroke-linecap="butt" fill="rgb(255,0,0)" stroke-miterlimit="10.0" stroke-width="0.0" fill-opacity="1.0" stroke-opacity="1.0" stroke-linejoin="miter" stroke="rgb(0,0,0)"><path d="M 911.0708,952.8131 c 0.0000,-1.0023 -0.8126,-1.8149 -1.8149 -1.8149c -1.0023,-0.0000 -1.8149,0.8126 -1.8149 1.8149c -0.0000,1.0023 0.8126,1.8149 1.8149 1.8149c 1.0023,0.0000 1.8149,-0.8126 1.8149 -1.8149Z"/></g><g stroke-linecap="butt" fill="rgb(0,0,0)" stroke-miterlimit="10.0" stroke-width="0.9770506379831618" fill-opacity="0.0" stroke-opacity="1.0" stroke-linejoin="miter" stroke="rgb(0,0,0)"><path d="M 727.7677,45.3721 h 0.0000 v -45.3721 h 90.7441 v 45.3721 h -90.7441 "/></g><g stroke-linecap="butt" fill="rgb(255,0,0)" stroke-miterlimit="10.0" stroke-width="0.0" fill-opacity="1.0" stroke-opacity="1.0" stroke-linejoin="miter" stroke="rgb(0,0,0)"><path d="M 729.5826,45.3721 c 0.0000,-1.0023 -0.8126,-1.8149 -1.8149 -1.8149c -1.0023,-0.0000 -1.8149,0.8126 -1.8149 1.8149c -0.0000,1.0023 0.8126,1.8149 1.8149 1.8149c 1.0023,0.0000 1.8149,-0.8126 1.8149 -1.8149Z"/></g><g stroke-linecap="butt" fill="rgb(0,0,0)" stroke-miterlimit="10.0" stroke-width="0.9770506379831618" fill-opacity="0.0" stroke-opacity="1.0" stroke-linejoin="miter" stroke="rgb(0,0,0)"><path d="M 727.7677,226.8603 h 0.0000 v -45.3721 h 90.7441 v 45.3721 h -90.7441 "/></g><g stroke-linecap="butt" fill="rgb(255,0,0)" stroke-miterlimit="10.0" stroke-width="0.0" fill-opacity="1.0" stroke-opacity="1.0" stroke-linejoin="miter" stroke="rgb(0,0,0)"><path d="M 729.5826,226.8603 c 0.0000,-1.0023 -0.8126,-1.8149 -1.8149 -1.8149c -1.0023,-0.0000 -1.8149,0.8126 -1.8149 1.8149c -0.0000,1.0023 0.8126,1.8149 1.8149 1.8149c 1.0023,0.0000 1.8149,-0.8126 1.8149 -1.8149Z"/></g><g stroke-linecap="butt" fill="rgb(0,0,0)" stroke-miterlimit="10.0" stroke-width="0.9770506379831618" fill-opacity="0.0" stroke-opacity="1.0" stroke-linejoin="miter" stroke="rgb(0,0,0)"><path d="M 727.7677,408.3485 h 0.0000 v -45.3721 h 90.7441 v 45.3721 h -90.7441 "/></g><g stroke-linecap="butt" fill="rgb(255,0,0)" stroke-miterlimit="10.0" stroke-width="0.0" fill-opacity="1.0" stroke-opacity="1.0" stroke-linejoin="miter" stroke="rgb(0,0,0)"><path d="M 729.5826,408.3485 c 0.0000,-1.0023 -0.8126,-1.8149 -1.8149 -1.8149c -1.0023,-0.0000 -1.8149,0.8126 -1.8149 1.8149c -0.0000,1.0023 0.8126,1.8149 1.8149 1.8149c 1.0023,0.0000 1.8149,-0.8126 1.8149 -1.8149Z"/></g><g stroke-linecap="butt" fill="rgb(0,0,0)" stroke-miterlimit="10.0" stroke-width="0.9770506379831618" fill-opacity="0.0" stroke-opacity="1.0" stroke-linejoin="miter" stroke="rgb(0,0,0)"><path d="M 727.7677,589.8367 h 0.0000 v -45.3721 h 90.7441 v 45.3721 h -90.7441 "/></g><g stroke-linecap="butt" fill="rgb(255,0,0)" stroke-miterlimit="10.0" stroke-width="0.0" fill-opacity="1.0" stroke-opacity="1.0" stroke-linejoin="miter" stroke="rgb(0,0,0)"><path d="M 729.5826,589.8367 c 0.0000,-1.0023 -0.8126,-1.8149 -1.8149 -1.8149c -1.0023,-0.0000 -1.8149,0.8126 -1.8149 1.8149c -0.0000,1.0023 0.8126,1.8149 1.8149 1.8149c 1.0023,0.0000 1.8149,-0.8126 1.8149 -1.8149Z"/></g><g stroke-linecap="butt" fill="rgb(0,0,0)" stroke-miterlimit="10.0" stroke-width="0.9770506379831618" fill-opacity="0.0" stroke-opacity="1.0" stroke-linejoin="miter" stroke="rgb(0,0,0)"><path d="M 727.7677,771.3249 h 0.0000 v -45.3721 h 90.7441 v 45.3721 h -90.7441 "/></g><g stroke-linecap="butt" fill="rgb(255,0,0)" stroke-miterlimit="10.0" stroke-width="0.0" fill-opacity="1.0" stroke-opacity="1.0" stroke-linejoin="miter" stroke="rgb(0,0,0)"><path d="M 729.5826,771.3249 c 0.0000,-1.0023 -0.8126,-1.8149 -1.8149 -1.8149c -1.0023,-0.0000 -1.8149,0.8126 -1.8149 1.8149c -0.0000,1.0023 0.8126,1.8149 1.8149 1.8149c 1.0023,0.0000 1.8149,-0.8126 1.8149 -1.8149Z"/></g><g stroke-linecap="butt" fill="rgb(0,0,0)" stroke-miterlimit="10.0" stroke-width="0.9770506379831618" fill-opacity="0.0" stroke-opacity="1.0" stroke-linejoin="miter" stroke="rgb(0,0,0)"><path d="M 727.7677,952.8131 h 0.0000 v -45.3721 h 90.7441 v 45.3721 h -90.7441 "/></g><g stroke-linecap="butt" fill="rgb(255,0,0)" stroke-miterlimit="10.0" stroke-width="0.0" fill-opacity="1.0" stroke-opacity="1.0" stroke-linejoin="miter" stroke="rgb(0,0,0)"><path d="M 729.5826,952.8131 c 0.0000,-1.0023 -0.8126,-1.8149 -1.8149 -1.8149c -1.0023,-0.0000 -1.8149,0.8126 -1.8149 1.8149c -0.0000,1.0023 0.8126,1.8149 1.8149 1.8149c 1.0023,0.0000 1.8149,-0.8126 1.8149 -1.8149Z"/></g><g stroke-linecap="butt" fill="rgb(0,0,0)" stroke-miterlimit="10.0" stroke-width="0.9770506379831618" fill-opacity="0.0" stroke-opacity="1.0" stroke-linejoin="miter" stroke="rgb(0,0,0)"><path d="M 546.2795,45.3721 h 0.0000 v -45.3721 h 90.7441 v 45.3721 h -90.7441 "/></g><g stroke-linecap="butt" fill="rgb(255,0,0)" stroke-miterlimit="10.0" stroke-width="0.0" fill-opacity="1.0" stroke-opacity="1.0" stroke-linejoin="miter" stroke="rgb(0,0,0)"><path d="M 548.0944,45.3721 c 0.0000,-1.0023 -0.8126,-1.8149 -1.8149 -1.8149c -1.0023,-0.0000 -1.8149,0.8126 -1.8149 1.8149c -0.0000,1.0023 0.8126,1.8149 1.8149 1.8149c 1.0023,0.0000 1.8149,-0.8126 1.8149 -1.8149Z"/></g><g stroke-linecap="butt" fill="rgb(0,0,0)" stroke-miterlimit="10.0" stroke-width="0.9770506379831618" fill-opacity="0.0" stroke-opacity="1.0" stroke-linejoin="miter" stroke="rgb(0,0,0)"><path d="M 546.2795,226.8603 h 0.0000 v -45.3721 h 90.7441 v 45.3721 h -90.7441 "/></g><g stroke-linecap="butt" fill="rgb(255,0,0)" stroke-miterlimit="10.0" stroke-width="0.0" fill-opacity="1.0" stroke-opacity="1.0" stroke-linejoin="miter" stroke="rgb(0,0,0)"><path d="M 548.0944,226.8603 c 0.0000,-1.0023 -0.8126,-1.8149 -1.8149 -1.8149c -1.0023,-0.0000 -1.8149,0.8126 -1.8149 1.8149c -0.0000,1.0023 0.8126,1.8149 1.8149 1.8149c 1.0023,0.0000 1.8149,-0.8126 1.8149 -1.8149Z"/></g><g stroke-linecap="butt" fill="rgb(0,0,0)" stroke-miterlimit="10.0" stroke-width="0.9770506379831618" fill-opacity="0.0" stroke-opacity="1.0" stroke-linejoin="miter" stroke="rgb(0,0,0)"><path d="M 546.2795,408.3485 h 0.0000 v -45.3721 h 90.7441 v 45.3721 h -90.7441 "/></g><g stroke-linecap="butt" fill="rgb(255,0,0)" stroke-miterlimit="10.0" stroke-width="0.0" fill-opacity="1.0" stroke-opacity="1.0" stroke-linejoin="miter" stroke="rgb(0,0,0)"><path d="M 548.0944,408.3485 c 0.0000,-1.0023 -0.8126,-1.8149 -1.8149 -1.8149c -1.0023,-0.0000 -1.8149,0.8126 -1.8149 1.8149c -0.0000,1.0023 0.8126,1.8149 1.8149 1.8149c 1.0023,0.0000 1.8149,-0.8126 1.8149 -1.8149Z"/></g><g stroke-linecap="butt" fill="rgb(0,0,0)" stroke-miterlimit="10.0" stroke-width="0.9770506379831618" fill-opacity="0.0" stroke-opacity="1.0" stroke-linejoin="miter" stroke="rgb(0,0,0)"><path d="M 546.2795,589.8367 h 0.0000 v -45.3721 h 90.7441 v 45.3721 h -90.7441 "/></g><g stroke-linecap="butt" fill="rgb(255,0,0)" stroke-miterlimit="10.0" stroke-width="0.0" fill-opacity="1.0" stroke-opacity="1.0" stroke-linejoin="miter" stroke="rgb(0,0,0)"><path d="M 548.0944,589.8367 c 0.0000,-1.0023 -0.8126,-1.8149 -1.8149 -1.8149c -1.0023,-0.0000 -1.8149,0.8126 -1.8149 1.8149c -0.0000,1.0023 0.8126,1.8149 1.8149 1.8149c 1.0023,0.0000 1.8149,-0.8126 1.8149 -1.8149Z"/></g><g stroke-linecap="butt" fill="rgb(0,0,0)" stroke-miterlimit="10.0" stroke-width="0.9770506379831618" fill-opacity="0.0" stroke-opacity="1.0" stroke-linejoin="miter" stroke="rgb(0,0,0)"><path d="M 546.2795,771.3249 h 0.0000 v -45.3721 h 90.7441 v 45.3721 h -90.7441 "/></g><g stroke-linecap="butt" fill="rgb(255,0,0)" stroke-miterlimit="10.0" stroke-width="0.0" fill-opacity="1.0" stroke-opacity="1.0" stroke-linejoin="miter" stroke="rgb(0,0,0)"><path d="M 548.0944,771.3249 c 0.0000,-1.0023 -0.8126,-1.8149 -1.8149 -1.8149c -1.0023,-0.0000 -1.8149,0.8126 -1.8149 1.8149c -0.0000,1.0023 0.8126,1.8149 1.8149 1.8149c 1.0023,0.0000 1.8149,-0.8126 1.8149 -1.8149Z"/></g><g stroke-linecap="butt" fill="rgb(0,0,0)" stroke-miterlimit="10.0" stroke-width="0.9770506379831618" fill-opacity="0.0" stroke-opacity="1.0" stroke-linejoin="miter" stroke="rgb(0,0,0)"><path d="M 546.2795,952.8131 h 0.0000 v -45.3721 h 90.7441 v 45.3721 h -90.7441 "/></g><g stroke-linecap="butt" fill="rgb(255,0,0)" stroke-miterlimit="10.0" stroke-width="0.0" fill-opacity="1.0" stroke-opacity="1.0" stroke-linejoin="miter" stroke="rgb(0,0,0)"><path d="M 548.0944,952.8131 c 0.0000,-1.0023 -0.8126,-1.8149 -1.8149 -1.8149c -1.0023,-0.0000 -1.8149,0.8126 -1.8149 1.8149c -0.0000,1.0023 0.8126,1.8149 1.8149 1.8149c 1.0023,0.0000 1.8149,-0.8126 1.8149 -1.8149Z"/></g><g stroke-linecap="butt" fill="rgb(0,0,0)" stroke-miterlimit="10.0" stroke-width="0.9770506379831618" fill-opacity="0.0" stroke-opacity="1.0" stroke-linejoin="miter" stroke="rgb(0,0,0)"><path d="M 364.7913,45.3721 h 0.0000 v -45.3721 h 90.7441 v 45.3721 h -90.7441 "/></g><g stroke-linecap="butt" fill="rgb(255,0,0)" stroke-miterlimit="10.0" stroke-width="0.0" fill-opacity="1.0" stroke-opacity="1.0" stroke-linejoin="miter" stroke="rgb(0,0,0)"><path d="M 366.6062,45.3721 c 0.0000,-1.0023 -0.8126,-1.8149 -1.8149 -1.8149c -1.0023,-0.0000 -1.8149,0.8126 -1.8149 1.8149c -0.0000,1.0023 0.8126,1.8149 1.8149 1.8149c 1.0023,0.0000 1.8149,-0.8126 1.8149 -1.8149Z"/></g><g stroke-linecap="butt" fill="rgb(0,0,0)" stroke-miterlimit="10.0" stroke-width="0.9770506379831618" fill-opacity="0.0" stroke-opacity="1.0" stroke-linejoin="miter" stroke="rgb(0,0,0)"><path d="M 364.7913,226.8603 h 0.0000 v -45.3721 h 90.7441 v 45.3721 h -90.7441 "/></g><g stroke-linecap="butt" fill="rgb(255,0,0)" stroke-miterlimit="10.0" stroke-width="0.0" fill-opacity="1.0" stroke-opacity="1.0" stroke-linejoin="miter" stroke="rgb(0,0,0)"><path d="M 366.6062,226.8603 c 0.0000,-1.0023 -0.8126,-1.8149 -1.8149 -1.8149c -1.0023,-0.0000 -1.8149,0.8126 -1.8149 1.8149c -0.0000,1.0023 0.8126,1.8149 1.8149 1.8149c 1.0023,0.0000 1.8149,-0.8126 1.8149 -1.8149Z"/></g><g stroke-linecap="butt" fill="rgb(0,0,0)" stroke-miterlimit="10.0" stroke-width="0.9770506379831618" fill-opacity="0.0" stroke-opacity="1.0" stroke-linejoin="miter" stroke="rgb(0,0,0)"><path d="M 364.7913,408.3485 h 0.0000 v -45.3721 h 90.7441 v 45.3721 h -90.7441 "/></g><g stroke-linecap="butt" fill="rgb(255,0,0)" stroke-miterlimit="10.0" stroke-width="0.0" fill-opacity="1.0" stroke-opacity="1.0" stroke-linejoin="miter" stroke="rgb(0,0,0)"><path d="M 366.6062,408.3485 c 0.0000,-1.0023 -0.8126,-1.8149 -1.8149 -1.8149c -1.0023,-0.0000 -1.8149,0.8126 -1.8149 1.8149c -0.0000,1.0023 0.8126,1.8149 1.8149 1.8149c 1.0023,0.0000 1.8149,-0.8126 1.8149 -1.8149Z"/></g><g stroke-linecap="butt" fill="rgb(0,0,0)" stroke-miterlimit="10.0" stroke-width="0.9770506379831618" fill-opacity="0.0" stroke-opacity="1.0" stroke-linejoin="miter" stroke="rgb(0,0,0)"><path d="M 364.7913,589.8367 h 0.0000 v -45.3721 h 90.7441 v 45.3721 h -90.7441 "/></g><g stroke-linecap="butt" fill="rgb(255,0,0)" stroke-miterlimit="10.0" stroke-width="0.0" fill-opacity="1.0" stroke-opacity="1.0" stroke-linejoin="miter" stroke="rgb(0,0,0)"><path d="M 366.6062,589.8367 c 0.0000,-1.0023 -0.8126,-1.8149 -1.8149 -1.8149c -1.0023,-0.0000 -1.8149,0.8126 -1.8149 1.8149c -0.0000,1.0023 0.8126,1.8149 1.8149 1.8149c 1.0023,0.0000 1.8149,-0.8126 1.8149 -1.8149Z"/></g><g stroke-linecap="butt" fill="rgb(0,0,0)" stroke-miterlimit="10.0" stroke-width="0.9770506379831618" fill-opacity="0.0" stroke-opacity="1.0" stroke-linejoin="miter" stroke="rgb(0,0,0)"><path d="M 364.7913,771.3249 h 0.0000 v -45.3721 h 90.7441 v 45.3721 h -90.7441 "/></g><g stroke-linecap="butt" fill="rgb(255,0,0)" stroke-miterlimit="10.0" stroke-width="0.0" fill-opacity="1.0" stroke-opacity="1.0" stroke-linejoin="miter" stroke="rgb(0,0,0)"><path d="M 366.6062,771.3249 c 0.0000,-1.0023 -0.8126,-1.8149 -1.8149 -1.8149c -1.0023,-0.0000 -1.8149,0.8126 -1.8149 1.8149c -0.0000,1.0023 0.8126,1.8149 1.8149 1.8149c 1.0023,0.0000 1.8149,-0.8126 1.8149 -1.8149Z"/></g><g stroke-linecap="butt" fill="rgb(0,0,0)" stroke-miterlimit="10.0" stroke-width="0.9770506379831618" fill-opacity="0.0" stroke-opacity="1.0" stroke-linejoin="miter" stroke="rgb(0,0,0)"><path d="M 364.7913,952.8131 h 0.0000 v -45.3721 h 90.7441 v 45.3721 h -90.7441 "/></g><g stroke-linecap="butt" fill="rgb(255,0,0)" stroke-miterlimit="10.0" stroke-width="0.0" fill-opacity="1.0" stroke-opacity="1.0" stroke-linejoin="miter" stroke="rgb(0,0,0)"><path d="M 366.6062,952.8131 c 0.0000,-1.0023 -0.8126,-1.8149 -1.8149 -1.8149c -1.0023,-0.0000 -1.8149,0.8126 -1.8149 1.8149c -0.0000,1.0023 0.8126,1.8149 1.8149 1.8149c 1.0023,0.0000 1.8149,-0.8126 1.8149 -1.8149Z"/></g><g stroke-linecap="butt" fill="rgb(0,0,0)" stroke-miterlimit="10.0" stroke-width="0.9770506379831618" fill-opacity="0.0" stroke-opacity="1.0" stroke-linejoin="miter" stroke="rgb(0,0,0)"><path d="M 183.3031,45.3721 h 0.0000 v -45.3721 h 90.7441 v 45.3721 h -90.7441 "/></g><g stroke-linecap="butt" fill="rgb(255,0,0)" stroke-miterlimit="10.0" stroke-width="0.0" fill-opacity="1.0" stroke-opacity="1.0" stroke-linejoin="miter" stroke="rgb(0,0,0)"><path d="M 185.1180,45.3721 c 0.0000,-1.0023 -0.8126,-1.8149 -1.8149 -1.8149c -1.0023,-0.0000 -1.8149,0.8126 -1.8149 1.8149c -0.0000,1.0023 0.8126,1.8149 1.8149 1.8149c 1.0023,0.0000 1.8149,-0.8126 1.8149 -1.8149Z"/></g><g stroke-linecap="butt" fill="rgb(0,0,0)" stroke-miterlimit="10.0" stroke-width="0.9770506379831618" fill-opacity="0.0" stroke-opacity="1.0" stroke-linejoin="miter" stroke="rgb(0,0,0)"><path d="M 183.3031,226.8603 h 0.0000 v -45.3721 h 90.7441 v 45.3721 h -90.7441 "/></g><g stroke-linecap="butt" fill="rgb(255,0,0)" stroke-miterlimit="10.0" stroke-width="0.0" fill-opacity="1.0" stroke-opacity="1.0" stroke-linejoin="miter" stroke="rgb(0,0,0)"><path d="M 185.1180,226.8603 c 0.0000,-1.0023 -0.8126,-1.8149 -1.8149 -1.8149c -1.0023,-0.0000 -1.8149,0.8126 -1.8149 1.8149c -0.0000,1.0023 0.8126,1.8149 1.8149 1.8149c 1.0023,0.0000 1.8149,-0.8126 1.8149 -1.8149Z"/></g><g stroke-linecap="butt" fill="rgb(0,0,0)" stroke-miterlimit="10.0" stroke-width="0.9770506379831618" fill-opacity="0.0" stroke-opacity="1.0" stroke-linejoin="miter" stroke="rgb(0,0,0)"><path d="M 183.3031,408.3485 h 0.0000 v -45.3721 h 90.7441 v 45.3721 h -90.7441 "/></g><g stroke-linecap="butt" fill="rgb(255,0,0)" stroke-miterlimit="10.0" stroke-width="0.0" fill-opacity="1.0" stroke-opacity="1.0" stroke-linejoin="miter" stroke="rgb(0,0,0)"><path d="M 185.1180,408.3485 c 0.0000,-1.0023 -0.8126,-1.8149 -1.8149 -1.8149c -1.0023,-0.0000 -1.8149,0.8126 -1.8149 1.8149c -0.0000,1.0023 0.8126,1.8149 1.8149 1.8149c 1.0023,0.0000 1.8149,-0.8126 1.8149 -1.8149Z"/></g><g stroke-linecap="butt" fill="rgb(0,0,0)" stroke-miterlimit="10.0" stroke-width="0.9770506379831618" fill-opacity="0.0" stroke-opacity="1.0" stroke-linejoin="miter" stroke="rgb(0,0,0)"><path d="M 183.3031,589.8367 h 0.0000 v -45.3721 h 90.7441 v 45.3721 h -90.7441 "/></g><g stroke-linecap="butt" fill="rgb(255,0,0)" stroke-miterlimit="10.0" stroke-width="0.0" fill-opacity="1.0" stroke-opacity="1.0" stroke-linejoin="miter" stroke="rgb(0,0,0)"><path d="M 185.1180,589.8367 c 0.0000,-1.0023 -0.8126,-1.8149 -1.8149 -1.8149c -1.0023,-0.0000 -1.8149,0.8126 -1.8149 1.8149c -0.0000,1.0023 0.8126,1.8149 1.8149 1.8149c 1.0023,0.0000 1.8149,-0.8126 1.8149 -1.8149Z"/></g><g stroke-linecap="butt" fill="rgb(0,0,0)" stroke-miterlimit="10.0" stroke-width="0.9770506379831618" fill-opacity="0.0" stroke-opacity="1.0" stroke-linejoin="miter" stroke="rgb(0,0,0)"><path d="M 183.3031,771.3249 h 0.0000 v -45.3721 h 90.7441 v 45.3721 h -90.7441 "/></g><g stroke-linecap="butt" fill="rgb(255,0,0)" stroke-miterlimit="10.0" stroke-width="0.0" fill-opacity="1.0" stroke-opacity="1.0" stroke-linejoin="miter" stroke="rgb(0,0,0)"><path d="M 185.1180,771.3249 c 0.0000,-1.0023 -0.8126,-1.8149 -1.8149 -1.8149c -1.0023,-0.0000 -1.8149,0.8126 -1.8149 1.8149c -0.0000,1.0023 0.8126,1.8149 1.8149 1.8149c 1.0023,0.0000 1.8149,-0.8126 1.8149 -1.8149Z"/></g><g stroke-linecap="butt" fill="rgb(0,0,0)" stroke-miterlimit="10.0" stroke-width="0.9770506379831618" fill-opacity="0.0" stroke-opacity="1.0" stroke-linejoin="miter" stroke="rgb(0,0,0)"><path d="M 183.3031,952.8131 h 0.0000 v -45.3721 h 90.7441 v 45.3721 h -90.7441 "/></g><g stroke-linecap="butt" fill="rgb(255,0,0)" stroke-miterlimit="10.0" stroke-width="0.0" fill-opacity="1.0" stroke-opacity="1.0" stroke-linejoin="miter" stroke="rgb(0,0,0)"><path d="M 185.1180,952.8131 c 0.0000,-1.0023 -0.8126,-1.8149 -1.8149 -1.8149c -1.0023,-0.0000 -1.8149,0.8126 -1.8149 1.8149c -0.0000,1.0023 0.8126,1.8149 1.8149 1.8149c 1.0023,0.0000 1.8149,-0.8126 1.8149 -1.8149Z"/></g><g stroke-linecap="butt" fill="rgb(0,0,0)" stroke-miterlimit="10.0" stroke-width="0.9770506379831618" fill-opacity="0.0" stroke-opacity="1.0" stroke-linejoin="miter" stroke="rgb(0,0,0)"><path d="M 1.8149,45.3721 h 0.0000 v -45.3721 h 90.7441 v 45.3721 h -90.7441 "/></g><g stroke-linecap="butt" fill="rgb(255,0,0)" stroke-miterlimit="10.0" stroke-width="0.0" fill-opacity="1.0" stroke-opacity="1.0" stroke-linejoin="miter" stroke="rgb(0,0,0)"><path d="M 3.6298,45.3721 c 0.0000,-1.0023 -0.8126,-1.8149 -1.8149 -1.8149c -1.0023,-0.0000 -1.8149,0.8126 -1.8149 1.8149c -0.0000,1.0023 0.8126,1.8149 1.8149 1.8149c 1.0023,0.0000 1.8149,-0.8126 1.8149 -1.8149Z"/></g><g stroke-linecap="butt" fill="rgb(0,0,0)" stroke-miterlimit="10.0" stroke-width="0.9770506379831618" fill-opacity="0.0" stroke-opacity="1.0" stroke-linejoin="miter" stroke="rgb(0,0,0)"><path d="M 1.8149,226.8603 h 0.0000 v -45.3721 h 90.7441 v 45.3721 h -90.7441 "/></g><g stroke-linecap="butt" fill="rgb(255,0,0)" stroke-miterlimit="10.0" stroke-width="0.0" fill-opacity="1.0" stroke-opacity="1.0" stroke-linejoin="miter" stroke="rgb(0,0,0)"><path d="M 3.6298,226.8603 c 0.0000,-1.0023 -0.8126,-1.8149 -1.8149 -1.8149c -1.0023,-0.0000 -1.8149,0.8126 -1.8149 1.8149c -0.0000,1.0023 0.8126,1.8149 1.8149 1.8149c 1.0023,0.0000 1.8149,-0.8126 1.8149 -1.8149Z"/></g><g stroke-linecap="butt" fill="rgb(0,0,0)" stroke-miterlimit="10.0" stroke-width="0.9770506379831618" fill-opacity="0.0" stroke-opacity="1.0" stroke-linejoin="miter" stroke="rgb(0,0,0)"><path d="M 1.8149,408.3485 h 0.0000 v -45.3721 h 90.7441 v 45.3721 h -90.7441 "/></g><g stroke-linecap="butt" fill="rgb(255,0,0)" stroke-miterlimit="10.0" stroke-width="0.0" fill-opacity="1.0" stroke-opacity="1.0" stroke-linejoin="miter" stroke="rgb(0,0,0)"><path d="M 3.6298,408.3485 c 0.0000,-1.0023 -0.8126,-1.8149 -1.8149 -1.8149c -1.0023,-0.0000 -1.8149,0.8126 -1.8149 1.8149c -0.0000,1.0023 0.8126,1.8149 1.8149 1.8149c 1.0023,0.0000 1.8149,-0.8126 1.8149 -1.8149Z"/></g><g stroke-linecap="butt" fill="rgb(0,0,0)" stroke-miterlimit="10.0" stroke-width="0.9770506379831618" fill-opacity="0.0" stroke-opacity="1.0" stroke-linejoin="miter" stroke="rgb(0,0,0)"><path d="M 1.8149,589.8367 h 0.0000 v -45.3721 h 90.7441 v 45.3721 h -90.7441 "/></g><g stroke-linecap="butt" fill="rgb(255,0,0)" stroke-miterlimit="10.0" stroke-width="0.0" fill-opacity="1.0" stroke-opacity="1.0" stroke-linejoin="miter" stroke="rgb(0,0,0)"><path d="M 3.6298,589.8367 c 0.0000,-1.0023 -0.8126,-1.8149 -1.8149 -1.8149c -1.0023,-0.0000 -1.8149,0.8126 -1.8149 1.8149c -0.0000,1.0023 0.8126,1.8149 1.8149 1.8149c 1.0023,0.0000 1.8149,-0.8126 1.8149 -1.8149Z"/></g><g stroke-linecap="butt" fill="rgb(0,0,0)" stroke-miterlimit="10.0" stroke-width="0.9770506379831618" fill-opacity="0.0" stroke-opacity="1.0" stroke-linejoin="miter" stroke="rgb(0,0,0)"><path d="M 1.8149,771.3249 h 0.0000 v -45.3721 h 90.7441 v 45.3721 h -90.7441 "/></g><g stroke-linecap="butt" fill="rgb(255,0,0)" stroke-miterlimit="10.0" stroke-width="0.0" fill-opacity="1.0" stroke-opacity="1.0" stroke-linejoin="miter" stroke="rgb(0,0,0)"><path d="M 3.6298,771.3249 c 0.0000,-1.0023 -0.8126,-1.8149 -1.8149 -1.8149c -1.0023,-0.0000 -1.8149,0.8126 -1.8149 1.8149c -0.0000,1.0023 0.8126,1.8149 1.8149 1.8149c 1.0023,0.0000 1.8149,-0.8126 1.8149 -1.8149Z"/></g><g stroke-linecap="butt" fill="rgb(0,0,0)" stroke-miterlimit="10.0" stroke-width="0.9770506379831618" fill-opacity="0.0" stroke-opacity="1.0" stroke-linejoin="miter" stroke="rgb(0,0,0)"><path d="M 1.8149,952.8131 h 0.0000 v -45.3721 h 90.7441 v 45.3721 h -90.7441 "/></g><g stroke-linecap="butt" fill="rgb(255,0,0)" stroke-miterlimit="10.0" stroke-width="0.0" fill-opacity="1.0" stroke-opacity="1.0" stroke-linejoin="miter" stroke="rgb(0,0,0)"><path d="M 3.6298,952.8131 c 0.0000,-1.0023 -0.8126,-1.8149 -1.8149 -1.8149c -1.0023,-0.0000 -1.8149,0.8126 -1.8149 1.8149c -0.0000,1.0023 0.8126,1.8149 1.8149 1.8149c 1.0023,0.0000 1.8149,-0.8126 1.8149 -1.8149Z"/></g></svg>