<?xml version="1.0" encoding="UTF-8"?>
<!DOCTYPE svg PUBLIC "-//W3C//DTD SVG 1.1//EN"
    "http://www.w3.org/Graphics/SVG/1.1/DTD/svg11.dtd"><svg xmlns="http://www.w3.org/2000/svg" viewBox="0.0 0.0 400.0 720.0000000000001" height="720.0000" font-size="1" stroke-opacity="1" width="400.0000" xmlns:xlink="http://www.w3.org/1999/xlink" stroke="rgb(0,0,0)" version="1.1"><defs></defs><g stroke-linecap="butt" fill="rgb(0,0,0)" stroke-miterlimit="10.0" stroke-width="0.5366563145999496" fill-opacity="0.0" stroke-opacity="1.0" stroke-linejoin="miter" stroke="rgb(0,0,0)"><path d="M 400.0000,426.6667 h 0.0000 c 0.0000,-14.7276 -11.9391,-26.6667 -26.6667 -26.6667h -80.0000 c -14.7276,-0.0000 -26.6667,11.9391 -26.6667 26.6667h 0.0000 c -0.0000,14.7276 11.9391,26.6667 26.6667 26.6667h 80.0000 c 14.7276,0.0000 26.6667,-11.9391 26.6667 -26.6667Z"/></g><g stroke-linecap="butt" fill="rgb(255,0,0)" stroke-miterlimit="10.0" stroke-width="0.0" fill-opacity="1.0" stroke-opacity="1.0" stroke-linejoin="miter" stroke="rgb(0,0,0)"><path d="M 336.0000,426.6667 c 0.0000,-1.4728 -1.1939,-2.6667 -2.6667 -2.6667c -1.4728,-0.0000 -2.6667,1.1939 -2.6667 2.6667c -0.0000,1.4728 1.1939,2.6667 2.6667 2.6667c 1.4728,0.0000 2.6667,-1.1939 2.6667 -2.6667Z"/></g><g stroke-linecap="butt" font-family="courier" fill="rgb(0,0,0)" font-size="13.333333333333336px" stroke-miterlimit="10.0" stroke-width="0.5366563145999496" fill-opacity="1.0" stroke-opacity="1.0" stroke-linejoin="miter" stroke="rgb(0,0,0)" font-weight="100"><text transform="matrix(1.0000,0.0000,0.0000,1.0000,333.3333,426.6667)" dominant-baseline="middle" text-anchor="middle" stroke="none">&quot;x2.0y-3.0&quot;: end</text></g><g stroke-linecap="butt" fill="rgb(0,0,0)" stroke-miterlimit="10.0" stroke-width="0.5366563145999496" fill-opacity="0.0" stroke-opacity="1.0" stroke-linejoin="miter" stroke="rgb(0,0,0)"><path d="M 146.6667,320.0000 l -13.3333,-26.6667 l 13.3333,-26.6667 h 106.6667 l 13.3333,26.6667 h 66.6667 v 106.6667 v -106.6667 h -66.6667 l -13.3333,26.6667 h -53.3333 v 80.0000 v -80.0000 h -53.3333 "/></g><g stroke-linecap="butt" fill="rgb(255,0,0)" stroke-miterlimit="10.0" stroke-width="0.0" fill-opacity="1.0" stroke-opacity="1.0" stroke-linejoin="miter" stroke="rgb(0,0,0)"><path d="M 204.0000,293.3333 c 0.0000,-2.2091 -1.7909,-4.0000 -4.0000 -4.0000c -2.2091,-0.0000 -4.0000,1.7909 -4.0000 4.0000c -0.0000,2.2091 1.7909,4.0000 4.0000 4.0000c 2.2091,0.0000 4.0000,-1.7909 4.0000 -4.0000Z"/></g><g stroke-linecap="butt" font-family="courier" fill="rgb(0,0,0)" font-size="13.333333333333336px" stroke-miterlimit="10.0" stroke-width="0.5366563145999496" fill-opacity="1.0" stroke-opacity="1.0" stroke-linejoin="miter" stroke="rgb(0,0,0)" font-weight="300"><text transform="matrix(1.0000,0.0000,0.0000,1.0000,200.0000,293.3333)" dominant-baseline="middle" text-anchor="middle" stroke="none">&quot;x1.0y-2.0&quot;</text></g><g stroke-linecap="butt" fill="rgb(0,0,0)" stroke-miterlimit="10.0" stroke-width="0.5366563145999496" fill-opacity="0.0" stroke-opacity="1.0" stroke-linejoin="miter" stroke="rgb(0,0,0)"><path d="M 266.6667,560.0000 h 0.0000 c 0.0000,-14.7276 -11.9391,-26.6667 -26.6667 -26.6667h -80.0000 c -14.7276,-0.0000 -26.6667,11.9391 -26.6667 26.6667h 0.0000 c -0.0000,14.7276 11.9391,26.6667 26.6667 26.6667h 80.0000 c 14.7276,0.0000 26.6667,-11.9391 26.6667 -26.6667Z"/></g><g stroke-linecap="butt" fill="rgb(255,0,0)" stroke-miterlimit="10.0" stroke-width="0.0" fill-opacity="1.0" stroke-opacity="1.0" stroke-linejoin="miter" stroke="rgb(0,0,0)"><path d="M 202.6667,560.0000 c 0.0000,-1.4728 -1.1939,-2.6667 -2.6667 -2.6667c -1.4728,-0.0000 -2.6667,1.1939 -2.6667 2.6667c -0.0000,1.4728 1.1939,2.6667 2.6667 2.6667c 1.4728,0.0000 2.6667,-1.1939 2.6667 -2.6667Z"/></g><g stroke-linecap="butt" font-family="courier" fill="rgb(0,0,0)" font-size="13.333333333333336px" stroke-miterlimit="10.0" stroke-width="0.5366563145999496" fill-opacity="1.0" stroke-opacity="1.0" stroke-linejoin="miter" stroke="rgb(0,0,0)" font-weight="100"><text transform="matrix(1.0000,0.0000,0.0000,1.0000,200.0000,560.0000)" dominant-baseline="middle" text-anchor="middle" stroke="none">&quot;x1.0y-4.0&quot;: end</text></g><g stroke-linecap="butt" fill="rgb(0,0,0)" stroke-miterlimit="10.0" stroke-width="0.5366563145999496" fill-opacity="0.0" stroke-opacity="1.0" stroke-linejoin="miter" stroke="rgb(0,0,0)"><path d="M 253.3333,453.3333 h -106.6667 v -53.3333 h 106.6667 v 53.3333 h -53.3333 v 80.0000 "/></g><g stroke-linecap="butt" fill="rgb(255,0,0)" stroke-miterlimit="10.0" stroke-width="0.0" fill-opacity="1.0" stroke-opacity="1.0" stroke-linejoin="miter" stroke="rgb(0,0,0)"><path d="M 202.6667,426.6667 c 0.0000,-1.4728 -1.1939,-2.6667 -2.6667 -2.6667c -1.4728,-0.0000 -2.6667,1.1939 -2.6667 2.6667c -0.0000,1.4728 1.1939,2.6667 2.6667 2.6667c 1.4728,0.0000 2.6667,-1.1939 2.6667 -2.6667Z"/></g><g stroke-linecap="butt" font-family="courier" fill="rgb(0,0,0)" font-size="13.333333333333336px" stroke-miterlimit="10.0" stroke-width="0.5366563145999496" fill-opacity="1.0" stroke-opacity="1.0" stroke-linejoin="miter" stroke="rgb(0,0,0)" font-weight="300"><text transform="matrix(1.0000,0.0000,0.0000,1.0000,200.0000,426.6667)" dominant-baseline="middle" text-anchor="middle" stroke="none">&quot;x1.0y-3.0&quot;</text></g><g stroke-linecap="butt" fill="rgb(0,0,0)" stroke-miterlimit="10.0" stroke-width="0.5366563145999496" fill-opacity="0.0" stroke-opacity="1.0" stroke-linejoin="miter" stroke="rgb(0,0,0)"><path d="M 13.3333,186.6667 l -13.3333,-26.6667 l 13.3333,-26.6667 h 106.6667 l 13.3333,26.6667 h 66.6667 v 106.6667 v -106.6667 h -66.6667 l -13.3333,26.6667 h -53.3333 v 80.0000 v -80.0000 h -53.3333 "/></g><g stroke-linecap="butt" fill="rgb(255,0,0)" stroke-miterlimit="10.0" stroke-width="0.0" fill-opacity="1.0" stroke-opacity="1.0" stroke-linejoin="miter" stroke="rgb(0,0,0)"><path d="M 70.6667,160.0000 c 0.0000,-2.2091 -1.7909,-4.0000 -4.0000 -4.0000c -2.2091,-0.0000 -4.0000,1.7909 -4.0000 4.0000c -0.0000,2.2091 1.7909,4.0000 4.0000 4.0000c 2.2091,0.0000 4.0000,-1.7909 4.0000 -4.0000Z"/></g><g stroke-linecap="butt" font-family="courier" fill="rgb(0,0,0)" font-size="13.333333333333336px" stroke-miterlimit="10.0" stroke-width="0.5366563145999496" fill-opacity="1.0" stroke-opacity="1.0" stroke-linejoin="miter" stroke="rgb(0,0,0)" font-weight="300"><text transform="matrix(1.0000,0.0000,0.0000,1.0000,66.6667,160.0000)" dominant-baseline="middle" text-anchor="middle" stroke="none">&quot;x0.0y-1.0&quot;</text></g><g stroke-linecap="butt" fill="rgb(0,0,0)" stroke-miterlimit="10.0" stroke-width="0.5366563145999496" fill-opacity="0.0" stroke-opacity="1.0" stroke-linejoin="miter" stroke="rgb(0,0,0)"><path d="M 133.3333,693.3333 h 0.0000 c 0.0000,-14.7276 -11.9391,-26.6667 -26.6667 -26.6667h -80.0000 c -14.7276,-0.0000 -26.6667,11.9391 -26.6667 26.6667h 0.0000 c -0.0000,14.7276 11.9391,26.6667 26.6667 26.6667h 80.0000 c 14.7276,0.0000 26.6667,-11.9391 26.6667 -26.6667Z"/></g><g stroke-linecap="butt" fill="rgb(255,0,0)" stroke-miterlimit="10.0" stroke-width="0.0" fill-opacity="1.0" stroke-opacity="1.0" stroke-linejoin="miter" stroke="rgb(0,0,0)"><path d="M 69.3333,693.3333 c 0.0000,-1.4728 -1.1939,-2.6667 -2.6667 -2.6667c -1.4728,-0.0000 -2.6667,1.1939 -2.6667 2.6667c -0.0000,1.4728 1.1939,2.6667 2.6667 2.6667c 1.4728,0.0000 2.6667,-1.1939 2.6667 -2.6667Z"/></g><g stroke-linecap="butt" font-family="courier" fill="rgb(0,0,0)" font-size="13.333333333333336px" stroke-miterlimit="10.0" stroke-width="0.5366563145999496" fill-opacity="1.0" stroke-opacity="1.0" stroke-linejoin="miter" stroke="rgb(0,0,0)" font-weight="100"><text transform="matrix(1.0000,0.0000,0.0000,1.0000,66.6667,693.3333)" dominant-baseline="middle" text-anchor="middle" stroke="none">&quot;x0.0y-5.0&quot;: end</text></g><g stroke-linecap="butt" fill="rgb(0,0,0)" stroke-miterlimit="10.0" stroke-width="0.5366563145999496" fill-opacity="0.0" stroke-opacity="1.0" stroke-linejoin="miter" stroke="rgb(0,0,0)"><path d="M 120.0000,586.6667 h -106.6667 v -53.3333 h 106.6667 v 53.3333 h -53.3333 v 80.0000 "/></g><g stroke-linecap="butt" fill="rgb(255,0,0)" stroke-miterlimit="10.0" stroke-width="0.0" fill-opacity="1.0" stroke-opacity="1.0" stroke-linejoin="miter" stroke="rgb(0,0,0)"><path d="M 69.3333,560.0000 c 0.0000,-1.4728 -1.1939,-2.6667 -2.6667 -2.6667c -1.4728,-0.0000 -2.6667,1.1939 -2.6667 2.6667c -0.0000,1.4728 1.1939,2.6667 2.6667 2.6667c 1.4728,0.0000 2.6667,-1.1939 2.6667 -2.6667Z"/></g><g stroke-linecap="butt" font-family="courier" fill="rgb(0,0,0)" font-size="13.333333333333336px" stroke-miterlimit="10.0" stroke-width="0.5366563145999496" fill-opacity="1.0" stroke-opacity="1.0" stroke-linejoin="miter" stroke="rgb(0,0,0)" font-weight="300"><text transform="matrix(1.0000,0.0000,0.0000,1.0000,66.6667,560.0000)" dominant-baseline="middle" text-anchor="middle" stroke="none">&quot;x0.0y-4.0&quot;</text></g><g stroke-linecap="butt" fill="rgb(0,0,0)" stroke-miterlimit="10.0" stroke-width="0.5366563145999496" fill-opacity="0.0" stroke-opacity="1.0" stroke-linejoin="miter" stroke="rgb(0,0,0)"><path d="M 120.0000,453.3333 h -106.6667 v -53.3333 h 106.6667 v 53.3333 h -53.3333 v 80.0000 "/></g><g stroke-linecap="butt" fill="rgb(255,0,0)" stroke-miterlimit="10.0" stroke-width="0.0" fill-opacity="1.0" stroke-opacity="1.0" stroke-linejoin="miter" stroke="rgb(0,0,0)"><path d="M 69.3333,426.6667 c 0.0000,-1.4728 -1.1939,-2.6667 -2.6667 -2.6667c -1.4728,-0.0000 -2.6667,1.1939 -2.6667 2.6667c -0.0000,1.4728 1.1939,2.6667 2.6667 2.6667c 1.4728,0.0000 2.6667,-1.1939 2.6667 -2.6667Z"/></g><g stroke-linecap="butt" font-family="courier" fill="rgb(0,0,0)" font-size="13.333333333333336px" stroke-miterlimit="10.0" stroke-width="0.5366563145999496" fill-opacity="1.0" stroke-opacity="1.0" stroke-linejoin="miter" stroke="rgb(0,0,0)" font-weight="300"><text transform="matrix(1.0000,0.0000,0.0000,1.0000,66.6667,426.6667)" dominant-baseline="middle" text-anchor="middle" stroke="none">&quot;x0.0y-3.0&quot;</text></g><g stroke-linecap="butt" fill="rgb(0,0,0)" stroke-miterlimit="10.0" stroke-width="0.5366563145999496" fill-opacity="0.0" stroke-opacity="1.0" stroke-linejoin="miter" stroke="rgb(0,0,0)"><path d="M 120.0000,320.0000 h -106.6667 v -53.3333 h 106.6667 v 53.3333 h -53.3333 v 80.0000 "/></g><g stroke-linecap="butt" fill="rgb(255,0,0)" stroke-miterlimit="10.0" stroke-width="0.0" fill-opacity="1.0" stroke-opacity="1.0" stroke-linejoin="miter" stroke="rgb(0,0,0)"><path d="M 69.3333,293.3333 c 0.0000,-1.4728 -1.1939,-2.6667 -2.6667 -2.6667c -1.4728,-0.0000 -2.6667,1.1939 -2.6667 2.6667c -0.0000,1.4728 1.1939,2.6667 2.6667 2.6667c 1.4728,0.0000 2.6667,-1.1939 2.6667 -2.6667Z"/></g><g stroke-linecap="butt" font-family="courier" fill="rgb(0,0,0)" font-size="13.333333333333336px" stroke-miterlimit="10.0" stroke-width="0.5366563145999496" fill-opacity="1.0" stroke-opacity="1.0" stroke-linejoin="miter" stroke="rgb(0,0,0)" font-weight="300"><text transform="matrix(1.0000,0.0000,0.0000,1.0000,66.6667,293.3333)" dominant-baseline="middle" text-anchor="middle" stroke="none">&quot;x0.0y-2.0&quot;</text></g><g stroke-linecap="butt" fill="rgb(0,0,0)" stroke-miterlimit="10.0" stroke-width="0.5366563145999496" fill-opacity="0.0" stroke-opacity="1.0" stroke-linejoin="miter" stroke="rgb(0,0,0)"><path d="M 133.3333,26.6667 h 0.0000 c 0.0000,-14.7276 -11.9391,-26.6667 -26.6667 -26.6667h -80.0000 c -14.7276,-0.0000 -26.6667,11.9391 -26.6667 26.6667h 0.0000 c -0.0000,14.7276 11.9391,26.6667 26.6667 26.6667h 80.0000 c 14.7276,0.0000 26.6667,-11.9391 26.6667 -26.6667Z"/></g><g stroke-linecap="butt" fill="rgb(255,0,0)" stroke-miterlimit="10.0" stroke-width="0.0" fill-opacity="1.0" stroke-opacity="1.0" stroke-linejoin="miter" stroke="rgb(0,0,0)"><path d="M 69.3333,26.6667 c 0.0000,-1.4728 -1.1939,-2.6667 -2.6667 -2.6667c -1.4728,-0.0000 -2.6667,1.1939 -2.6667 2.6667c -0.0000,1.4728 1.1939,2.6667 2.6667 2.6667c 1.4728,0.0000 2.6667,-1.1939 2.6667 -2.6667Z"/></g><g stroke-linecap="butt" font-family="courier" fill="rgb(0,0,0)" font-size="13.333333333333336px" stroke-miterlimit="10.0" stroke-width="0.5366563145999496" fill-opacity="1.0" stroke-opacity="1.0" stroke-linejoin="miter" stroke="rgb(0,0,0)" font-weight="300"><text transform="matrix(1.0000,0.0000,0.0000,1.0000,66.6667,26.6667)" dominant-baseline="middle" text-anchor="middle" stroke="none">&quot;x0.0y0.0&quot;: start</text></g></svg>