<?xml version="1.0" encoding="UTF-8"?>
<!DOCTYPE svg PUBLIC "-//W3C//DTD SVG 1.1//EN"
    "http://www.w3.org/Graphics/SVG/1.1/DTD/svg11.dtd"><svg xmlns="http://www.w3.org/2000/svg" viewBox="0.0 0.0 200.0 926.315789473684" height="926.3158" font-size="1" stroke-opacity="1" width="200.0000" xmlns:xlink="http://www.w3.org/1999/xlink" stroke="rgb(0,0,0)" version="1.1"><defs></defs><g stroke-linecap="butt" fill="rgb(0,0,0)" stroke-miterlimit="10.0" stroke-width="0.5" fill-opacity="0.0" stroke-opacity="1.0" stroke-linejoin="miter" stroke="rgb(0,0,0)"><path d="M 200.0000,884.2105 h 0.0000 c 0.0000,-23.2541 -18.8512,-42.1053 -42.1053 -42.1053h -115.7895 c -23.2541,-0.0000 -42.1053,18.8512 -42.1053 42.1053h 0.0000 c -0.0000,23.2541 18.8512,42.1053 42.1053 42.1053h 115.7895 c 23.2541,0.0000 42.1053,-18.8512 42.1053 -42.1053Z"/></g><g stroke-linecap="butt" fill="rgb(255,0,0)" stroke-miterlimit="10.0" stroke-width="0.0" fill-opacity="1.0" stroke-opacity="1.0" stroke-linejoin="miter" stroke="rgb(0,0,0)"><path d="M 104.0000,884.2105 c 0.0000,-2.2091 -1.7909,-4.0000 -4.0000 -4.0000c -2.2091,-0.0000 -4.0000,1.7909 -4.0000 4.0000c -0.0000,2.2091 1.7909,4.0000 4.0000 4.0000c 2.2091,0.0000 4.0000,-1.7909 4.0000 -4.0000Z"/></g><g stroke-linecap="butt" font-family="courier" fill="rgb(0,0,0)" font-size="21.052631578947366px" stroke-miterlimit="10.0" stroke-width="0.5" fill-opacity="1.0" stroke-opacity="1.0" stroke-linejoin="miter" stroke="rgb(0,0,0)" font-weight="100"><text transform="matrix(1.0000,0.0000,0.0000,1.0000,100.0000,884.2105)" dominant-baseline="middle" text-anchor="middle" stroke="none">end</text></g><g stroke-linecap="butt" fill="rgb(0,0,0)" stroke-miterlimit="10.0" stroke-width="0.5" fill-opacity="0.0" stroke-opacity="1.0" stroke-linejoin="miter" stroke="rgb(0,0,0)"><path d="M 200.0000,715.7895 l -0.0000,-84.2105 h -200.0000 l -0.0000,84.2105 Z"/></g><g stroke-linecap="butt" fill="rgb(255,0,0)" stroke-miterlimit="10.0" stroke-width="0.0" fill-opacity="1.0" stroke-opacity="1.0" stroke-linejoin="miter" stroke="rgb(0,0,0)"><path d="M 104.0000,673.6842 c 0.0000,-2.2091 -1.7909,-4.0000 -4.0000 -4.0000c -2.2091,-0.0000 -4.0000,1.7909 -4.0000 4.0000c -0.0000,2.2091 1.7909,4.0000 4.0000 4.0000c 2.2091,0.0000 4.0000,-1.7909 4.0000 -4.0000Z"/></g><g stroke-linecap="butt" fill="rgb(0,0,0)" stroke-miterlimit="10.0" stroke-width="0.5" fill-opacity="0.0" stroke-opacity="1.0" stroke-linejoin="miter" stroke="rgb(0,0,0)"><path d="M 200.0000,505.2632 l -0.0000,-84.2105 h -200.0000 l -0.0000,84.2105 Z"/></g><g stroke-linecap="butt" fill="rgb(255,0,0)" stroke-miterlimit="10.0" stroke-width="0.0" fill-opacity="1.0" stroke-opacity="1.0" stroke-linejoin="miter" stroke="rgb(0,0,0)"><path d="M 104.0000,463.1579 c 0.0000,-2.2091 -1.7909,-4.0000 -4.0000 -4.0000c -2.2091,-0.0000 -4.0000,1.7909 -4.0000 4.0000c -0.0000,2.2091 1.7909,4.0000 4.0000 4.0000c 2.2091,0.0000 4.0000,-1.7909 4.0000 -4.0000Z"/></g><g stroke-linecap="butt" fill="rgb(0,0,0)" stroke-miterlimit="10.0" stroke-width="0.5" fill-opacity="0.0" stroke-opacity="1.0" stroke-linejoin="miter" stroke="rgb(0,0,0)"><path d="M 200.0000,294.7368 l -0.0000,-84.2105 h -200.0000 l -0.0000,84.2105 Z"/></g><g stroke-linecap="butt" fill="rgb(255,0,0)" stroke-miterlimit="10.0" stroke-width="0.0" fill-opacity="1.0" stroke-opacity="1.0" stroke-linejoin="miter" stroke="rgb(0,0,0)"><path d="M 104.0000,252.6316 c 0.0000,-2.2091 -1.7909,-4.0000 -4.0000 -4.0000c -2.2091,-0.0000 -4.0000,1.7909 -4.0000 4.0000c -0.0000,2.2091 1.7909,4.0000 4.0000 4.0000c 2.2091,0.0000 4.0000,-1.7909 4.0000 -4.0000Z"/></g><g stroke-linecap="butt" fill="rgb(0,0,0)" stroke-miterlimit="10.0" stroke-width="0.5" fill-opacity="0.0" stroke-opacity="1.0" stroke-linejoin="miter" stroke="rgb(0,0,0)"><path d="M 200.0000,42.1053 h 0.0000 c 0.0000,-23.2541 -18.8512,-42.1053 -42.1053 -42.1053h -115.7895 c -23.2541,-0.0000 -42.1053,18.8512 -42.1053 42.1053h 0.0000 c -0.0000,23.2541 18.8512,42.1053 42.1053 42.1053h 115.7895 c 23.2541,0.0000 42.1053,-18.8512 42.1053 -42.1053Z"/></g><g stroke-linecap="butt" fill="rgb(255,0,0)" stroke-miterlimit="10.0" stroke-width="0.0" fill-opacity="1.0" stroke-opacity="1.0" stroke-linejoin="miter" stroke="rgb(0,0,0)"><path d="M 104.0000,42.1053 c 0.0000,-2.2091 -1.7909,-4.0000 -4.0000 -4.0000c -2.2091,-0.0000 -4.0000,1.7909 -4.0000 4.0000c -0.0000,2.2091 1.7909,4.0000 4.0000 4.0000c 2.2091,0.0000 4.0000,-1.7909 4.0000 -4.0000Z"/></g><g stroke-linecap="butt" font-family="courier" fill="rgb(0,0,0)" font-size="21.052631578947366px" stroke-miterlimit="10.0" stroke-width="0.5" fill-opacity="1.0" stroke-opacity="1.0" stroke-linejoin="miter" stroke="rgb(0,0,0)" font-weight="300"><text transform="matrix(1.0000,0.0000,0.0000,1.0000,100.0000,42.1053)" dominant-baseline="middle" text-anchor="middle" stroke="none">start</text></g><g stroke-linecap="butt" fill="rgb(0,0,0)" stroke-miterlimit="10.0" stroke-width="0.5" fill-opacity="0.0" stroke-opacity="1.0" stroke-linejoin="miter" stroke="rgb(0,0,0)"><path d="M 100.0000,715.7895 l 0.0000,126.3158 "/></g><g stroke-linecap="butt" fill="rgb(0,0,0)" stroke-miterlimit="10.0" stroke-width="0.0" fill-opacity="1.0" stroke-opacity="1.0" stroke-linejoin="miter" stroke="rgb(0,0,0)"></g><g stroke-linecap="butt" fill="rgb(0,0,0)" stroke-miterlimit="10.0" stroke-width="0.0" fill-opacity="1.0" stroke-opacity="1.0" stroke-linejoin="miter" stroke="rgb(0,0,0)"></g><g stroke-linecap="butt" fill="rgb(0,0,0)" stroke-miterlimit="10.0" stroke-width="0.0" fill-opacity="1.0" stroke-opacity="1.0" stroke-linejoin="miter" stroke="rgb(0,0,0)"></g><g stroke-linecap="butt" fill="rgb(0,0,0)" stroke-miterlimit="10.0" stroke-width="0.0" fill-opacity="1.0" stroke-opacity="1.0" stroke-linejoin="miter" stroke="rgb(0,0,0)"></g><g stroke-linecap="butt" fill="rgb(0,0,0)" stroke-miterlimit="10.0" stroke-width="0.5" fill-opacity="0.0" stroke-opacity="1.0" stroke-linejoin="miter" stroke="rgb(0,0,0)"><path d="M 100.0000,505.2632 l 0.0000,126.3158 "/></g><g stroke-linecap="butt" fill="rgb(0,0,0)" stroke-miterlimit="10.0" stroke-width="0.0" fill-opacity="1.0" stroke-opacity="1.0" stroke-linejoin="miter" stroke="rgb(0,0,0)"></g><g stroke-linecap="butt" fill="rgb(0,0,0)" stroke-miterlimit="10.0" stroke-width="0.0" fill-opacity="1.0" stroke-opacity="1.0" stroke-linejoin="miter" stroke="rgb(0,0,0)"></g><g stroke-linecap="butt" fill="rgb(0,0,0)" stroke-miterlimit="10.0" stroke-width="0.0" fill-opacity="1.0" stroke-opacity="1.0" stroke-linejoin="miter" stroke="rgb(0,0,0)"></g><g stroke-linecap="butt" fill="rgb(0,0,0)" stroke-miterlimit="10.0" stroke-width="0.0" fill-opacity="1.0" stroke-opacity="1.0" stroke-linejoin="miter" stroke="rgb(0,0,0)"></g><g stroke-linecap="butt" fill="rgb(0,0,0)" stroke-miterlimit="10.0" stroke-width="0.5" fill-opacity="0.0" stroke-opacity="1.0" stroke-linejoin="miter" stroke="rgb(0,0,0)"><path d="M 100.0000,294.7368 l 0.0000,126.3158 "/></g><g stroke-linecap="butt" fill="rgb(0,0,0)" stroke-miterlimit="10.0" stroke-width="0.0" fill-opacity="1.0" stroke-opacity="1.0" stroke-linejoin="miter" stroke="rgb(0,0,0)"></g><g stroke-linecap="butt" fill="rgb(0,0,0)" stroke-miterlimit="10.0" stroke-width="0.0" fill-opacity="1.0" stroke-opacity="1.0" stroke-linejoin="miter" stroke="rgb(0,0,0)"></g><g stroke-linecap="butt" fill="rgb(0,0,0)" stroke-miterlimit="10.0" stroke-width="0.0" fill-opacity="1.0" stroke-opacity="1.0" stroke-linejoin="miter" stroke="rgb(0,0,0)"></g><g stroke-linecap="butt" fill="rgb(0,0,0)" stroke-miterlimit="10.0" stroke-width="0.0" fill-opacity="1.0" stroke-opacity="1.0" stroke-linejoin="miter" stroke="rgb(0,0,0)"></g><g stroke-linecap="butt" fill="rgb(0,0,0)" stroke-miterlimit="10.0" stroke-width="0.5" fill-opacity="0.0" stroke-opacity="1.0" stroke-linejoin="miter" stroke="rgb(0,0,0)"><path d="M 100.0000,84.2105 l 0.0000,126.3158 "/></g><g stroke-linecap="butt" fill="rgb(0,0,0)" stroke-miterlimit="10.0" stroke-width="0.0" fill-opacity="1.0" stroke-opacity="1.0" stroke-linejoin="miter" stroke="rgb(0,0,0)"></g><g stroke-linecap="butt" fill="rgb(0,0,0)" stroke-miterlimit="10.0" stroke-width="0.0" fill-opacity="1.0" stroke-opacity="1.0" stroke-linejoin="miter" stroke="rgb(0,0,0)"></g><g stroke-linecap="butt" fill="rgb(0,0,0)" stroke-miterlimit="10.0" stroke-width="0.0" fill-opacity="1.0" stroke-opacity="1.0" stroke-linejoin="miter" stroke="rgb(0,0,0)"></g><g stroke-linecap="butt" fill="rgb(0,0,0)" stroke-miterlimit="10.0" stroke-width="0.0" fill-opacity="1.0" stroke-opacity="1.0" stroke-linejoin="miter" stroke="rgb(0,0,0)"></g></svg>