<?xml version="1.0" encoding="UTF-8"?>
<!DOCTYPE svg PUBLIC "-//W3C//DTD SVG 1.1//EN"
    "http://www.w3.org/Graphics/SVG/1.1/DTD/svg11.dtd"><svg xmlns="http://www.w3.org/2000/svg" viewBox="0.0 0.0 1000.0 1321.4285714285716" height="1321.4286" font-size="1" stroke-opacity="1" width="1000.0000" xmlns:xlink="http://www.w3.org/1999/xlink" stroke="rgb(0,0,0)" version="1.1"><defs></defs><g stroke-linecap="butt" fill="rgb(0,0,0)" stroke-miterlimit="10.0" stroke-width="1.1495340671022203" fill-opacity="0.0" stroke-opacity="1.0" stroke-linejoin="miter" stroke="rgb(0,0,0)"><path d="M 285.7143,1285.7143 h 0.0000 c 0.0000,-19.7245 -15.9898,-35.7143 -35.7143 -35.7143h -214.2857 c -19.7245,-0.0000 -35.7143,15.9898 -35.7143 35.7143h 0.0000 c -0.0000,19.7245 15.9898,35.7143 35.7143 35.7143h 214.2857 c 19.7245,0.0000 35.7143,-15.9898 35.7143 -35.7143Z"/></g><g stroke-linecap="butt" fill="rgb(255,0,0)" stroke-miterlimit="10.0" stroke-width="0.0" fill-opacity="1.0" stroke-opacity="1.0" stroke-linejoin="miter" stroke="rgb(0,0,0)"><path d="M 148.5714,1285.7143 c 0.0000,-3.1559 -2.5584,-5.7143 -5.7143 -5.7143c -3.1559,-0.0000 -5.7143,2.5584 -5.7143 5.7143c -0.0000,3.1559 2.5584,5.7143 5.7143 5.7143c 3.1559,0.0000 5.7143,-2.5584 5.7143 -5.7143Z"/></g><g stroke-linecap="butt" font-family="courier" fill="rgb(0,0,0)" font-size="17.857142857142858px" stroke-miterlimit="10.0" stroke-width="1.1495340671022203" fill-opacity="1.0" stroke-opacity="1.0" stroke-linejoin="miter" stroke="rgb(0,0,0)" font-weight="100"><text transform="matrix(1.0000,0.0000,0.0000,1.0000,142.8571,1285.7143)" dominant-baseline="middle" text-anchor="middle" stroke="none">&quot;x0.0y-7.0&quot;: end</text></g><g stroke-linecap="butt" fill="rgb(0,0,0)" stroke-miterlimit="10.0" stroke-width="1.1495340671022203" fill-opacity="0.0" stroke-opacity="1.0" stroke-linejoin="miter" stroke="rgb(0,0,0)"><path d="M 142.8571,1142.8571 v 107.1429 "/></g><g stroke-linecap="butt" fill="rgb(0,0,0)" stroke-miterlimit="10.0" stroke-width="1.1495340671022203" fill-opacity="0.0" stroke-opacity="1.0" stroke-linejoin="miter" stroke="rgb(0,0,0)"><path d="M 285.7143,1142.8571 l -0.0000,-71.4286 h -285.7143 l -0.0000,71.4286 Z"/></g><g stroke-linecap="butt" fill="rgb(255,0,0)" stroke-miterlimit="10.0" stroke-width="0.0" fill-opacity="1.0" stroke-opacity="1.0" stroke-linejoin="miter" stroke="rgb(0,0,0)"><path d="M 148.5714,1107.1429 c 0.0000,-3.1559 -2.5584,-5.7143 -5.7143 -5.7143c -3.1559,-0.0000 -5.7143,2.5584 -5.7143 5.7143c -0.0000,3.1559 2.5584,5.7143 5.7143 5.7143c 3.1559,0.0000 5.7143,-2.5584 5.7143 -5.7143Z"/></g><g stroke-linecap="butt" font-family="courier" fill="rgb(0,0,0)" font-size="17.857142857142858px" stroke-miterlimit="10.0" stroke-width="1.1495340671022203" fill-opacity="1.0" stroke-opacity="1.0" stroke-linejoin="miter" stroke="rgb(0,0,0)" font-weight="300"><text transform="matrix(1.0000,0.0000,0.0000,1.0000,142.8571,1107.1429)" dominant-baseline="middle" text-anchor="middle" stroke="none">&quot;x0.0y-6.0&quot;</text></g><g stroke-linecap="butt" fill="rgb(0,0,0)" stroke-miterlimit="10.0" stroke-width="1.1495340671022203" fill-opacity="0.0" stroke-opacity="1.0" stroke-linejoin="miter" stroke="rgb(0,0,0)"><path d="M 642.8571,1285.7143 h 0.0000 c 0.0000,-19.7245 -15.9898,-35.7143 -35.7143 -35.7143h -214.2857 c -19.7245,-0.0000 -35.7143,15.9898 -35.7143 35.7143h 0.0000 c -0.0000,19.7245 15.9898,35.7143 35.7143 35.7143h 214.2857 c 19.7245,0.0000 35.7143,-15.9898 35.7143 -35.7143Z"/></g><g stroke-linecap="butt" fill="rgb(255,0,0)" stroke-miterlimit="10.0" stroke-width="0.0" fill-opacity="1.0" stroke-opacity="1.0" stroke-linejoin="miter" stroke="rgb(0,0,0)"><path d="M 505.7143,1285.7143 c 0.0000,-3.1559 -2.5584,-5.7143 -5.7143 -5.7143c -3.1559,-0.0000 -5.7143,2.5584 -5.7143 5.7143c -0.0000,3.1559 2.5584,5.7143 5.7143 5.7143c 3.1559,0.0000 5.7143,-2.5584 5.7143 -5.7143Z"/></g><g stroke-linecap="butt" font-family="courier" fill="rgb(0,0,0)" font-size="17.857142857142858px" stroke-miterlimit="10.0" stroke-width="1.1495340671022203" fill-opacity="1.0" stroke-opacity="1.0" stroke-linejoin="miter" stroke="rgb(0,0,0)" font-weight="100"><text transform="matrix(1.0000,0.0000,0.0000,1.0000,500.0000,1285.7143)" dominant-baseline="middle" text-anchor="middle" stroke="none">&quot;x2.0y-7.0&quot;: end</text></g><g stroke-linecap="butt" fill="rgb(0,0,0)" stroke-miterlimit="10.0" stroke-width="1.1495340671022203" fill-opacity="0.0" stroke-opacity="1.0" stroke-linejoin="miter" stroke="rgb(0,0,0)"><path d="M 500.0000,1142.8571 v 107.1429 "/></g><g stroke-linecap="butt" fill="rgb(0,0,0)" stroke-miterlimit="10.0" stroke-width="1.1495340671022203" fill-opacity="0.0" stroke-opacity="1.0" stroke-linejoin="miter" stroke="rgb(0,0,0)"><path d="M 642.8571,1142.8571 l -0.0000,-71.4286 h -285.7143 l -0.0000,71.4286 Z"/></g><g stroke-linecap="butt" fill="rgb(255,0,0)" stroke-miterlimit="10.0" stroke-width="0.0" fill-opacity="1.0" stroke-opacity="1.0" stroke-linejoin="miter" stroke="rgb(0,0,0)"><path d="M 505.7143,1107.1429 c 0.0000,-3.1559 -2.5584,-5.7143 -5.7143 -5.7143c -3.1559,-0.0000 -5.7143,2.5584 -5.7143 5.7143c -0.0000,3.1559 2.5584,5.7143 5.7143 5.7143c 3.1559,0.0000 5.7143,-2.5584 5.7143 -5.7143Z"/></g><g stroke-linecap="butt" font-family="courier" fill="rgb(0,0,0)" font-size="17.857142857142858px" stroke-miterlimit="10.0" stroke-width="1.1495340671022203" fill-opacity="1.0" stroke-opacity="1.0" stroke-linejoin="miter" stroke="rgb(0,0,0)" font-weight="300"><text transform="matrix(1.0000,0.0000,0.0000,1.0000,500.0000,1107.1429)" dominant-baseline="middle" text-anchor="middle" stroke="none">&quot;x2.0y-6.0&quot;</text></g><g stroke-linecap="butt" fill="rgb(0,0,0)" stroke-miterlimit="10.0" stroke-width="1.1495340671022203" fill-opacity="0.0" stroke-opacity="1.0" stroke-linejoin="miter" stroke="rgb(0,0,0)"><path d="M 285.7143,928.5714 h 214.2857 v 142.8571 "/></g><g stroke-linecap="butt" fill="rgb(0,0,0)" stroke-miterlimit="10.0" stroke-width="1.1495340671022203" fill-opacity="0.0" stroke-opacity="1.0" stroke-linejoin="miter" stroke="rgb(0,0,0)"><path d="M 142.8571,964.2857 v 107.1429 "/></g><g stroke-linecap="butt" fill="rgb(0,0,0)" stroke-miterlimit="10.0" stroke-width="1.1495340671022203" fill-opacity="0.0" stroke-opacity="1.0" stroke-linejoin="miter" stroke="rgb(0,0,0)"><path d="M 17.8571,964.2857 l -17.8571,-35.7143 l 17.8571,-35.7143 h 250.0000 l 17.8571,35.7143 l -17.8571,35.7143 h -250.0000 "/></g><g stroke-linecap="butt" fill="rgb(255,0,0)" stroke-miterlimit="10.0" stroke-width="0.0" fill-opacity="1.0" stroke-opacity="1.0" stroke-linejoin="miter" stroke="rgb(0,0,0)"><path d="M 148.5714,928.5714 c 0.0000,-3.1559 -2.5584,-5.7143 -5.7143 -5.7143c -3.1559,-0.0000 -5.7143,2.5584 -5.7143 5.7143c -0.0000,3.1559 2.5584,5.7143 5.7143 5.7143c 3.1559,0.0000 5.7143,-2.5584 5.7143 -5.7143Z"/></g><g stroke-linecap="butt" font-family="courier" fill="rgb(0,0,0)" font-size="17.857142857142858px" stroke-miterlimit="10.0" stroke-width="1.1495340671022203" fill-opacity="1.0" stroke-opacity="1.0" stroke-linejoin="miter" stroke="rgb(0,0,0)" font-weight="300"><text transform="matrix(1.0000,0.0000,0.0000,1.0000,142.8571,928.5714)" dominant-baseline="middle" text-anchor="middle" stroke="none">&quot;x0.0y-5.0&quot;</text></g><g stroke-linecap="butt" fill="rgb(0,0,0)" stroke-miterlimit="10.0" stroke-width="1.1495340671022203" fill-opacity="0.0" stroke-opacity="1.0" stroke-linejoin="miter" stroke="rgb(0,0,0)"><path d="M 142.8571,428.5714 v 107.1429 "/></g><g stroke-linecap="butt" fill="rgb(0,0,0)" stroke-miterlimit="10.0" stroke-width="1.1495340671022203" fill-opacity="0.0" stroke-opacity="1.0" stroke-linejoin="miter" stroke="rgb(0,0,0)"><path d="M 285.7143,428.5714 l -0.0000,-71.4286 h -285.7143 l -0.0000,71.4286 Z"/></g><g stroke-linecap="butt" fill="rgb(255,0,0)" stroke-miterlimit="10.0" stroke-width="0.0" fill-opacity="1.0" stroke-opacity="1.0" stroke-linejoin="miter" stroke="rgb(0,0,0)"><path d="M 148.5714,392.8571 c 0.0000,-3.1559 -2.5584,-5.7143 -5.7143 -5.7143c -3.1559,-0.0000 -5.7143,2.5584 -5.7143 5.7143c -0.0000,3.1559 2.5584,5.7143 5.7143 5.7143c 3.1559,0.0000 5.7143,-2.5584 5.7143 -5.7143Z"/></g><g stroke-linecap="butt" font-family="courier" fill="rgb(0,0,0)" font-size="17.857142857142858px" stroke-miterlimit="10.0" stroke-width="1.1495340671022203" fill-opacity="1.0" stroke-opacity="1.0" stroke-linejoin="miter" stroke="rgb(0,0,0)" font-weight="300"><text transform="matrix(1.0000,0.0000,0.0000,1.0000,142.8571,392.8571)" dominant-baseline="middle" text-anchor="middle" stroke="none">&quot;x0.0y-2.0&quot;</text></g><g stroke-linecap="butt" fill="rgb(0,0,0)" stroke-miterlimit="10.0" stroke-width="1.1495340671022203" fill-opacity="0.0" stroke-opacity="1.0" stroke-linejoin="miter" stroke="rgb(0,0,0)"><path d="M 642.8571,750.0000 h 0.0000 c 0.0000,-19.7245 -15.9898,-35.7143 -35.7143 -35.7143h -214.2857 c -19.7245,-0.0000 -35.7143,15.9898 -35.7143 35.7143h 0.0000 c -0.0000,19.7245 15.9898,35.7143 35.7143 35.7143h 214.2857 c 19.7245,0.0000 35.7143,-15.9898 35.7143 -35.7143Z"/></g><g stroke-linecap="butt" fill="rgb(255,0,0)" stroke-miterlimit="10.0" stroke-width="0.0" fill-opacity="1.0" stroke-opacity="1.0" stroke-linejoin="miter" stroke="rgb(0,0,0)"><path d="M 505.7143,750.0000 c 0.0000,-3.1559 -2.5584,-5.7143 -5.7143 -5.7143c -3.1559,-0.0000 -5.7143,2.5584 -5.7143 5.7143c -0.0000,3.1559 2.5584,5.7143 5.7143 5.7143c 3.1559,0.0000 5.7143,-2.5584 5.7143 -5.7143Z"/></g><g stroke-linecap="butt" font-family="courier" fill="rgb(0,0,0)" font-size="17.857142857142858px" stroke-miterlimit="10.0" stroke-width="1.1495340671022203" fill-opacity="1.0" stroke-opacity="1.0" stroke-linejoin="miter" stroke="rgb(0,0,0)" font-weight="100"><text transform="matrix(1.0000,0.0000,0.0000,1.0000,500.0000,750.0000)" dominant-baseline="middle" text-anchor="middle" stroke="none">&quot;x2.0y-4.0&quot;: end</text></g><g stroke-linecap="butt" fill="rgb(0,0,0)" stroke-miterlimit="10.0" stroke-width="1.1495340671022203" fill-opacity="0.0" stroke-opacity="1.0" stroke-linejoin="miter" stroke="rgb(0,0,0)"><path d="M 500.0000,607.1429 v 107.1429 "/></g><g stroke-linecap="butt" fill="rgb(0,0,0)" stroke-miterlimit="10.0" stroke-width="1.1495340671022203" fill-opacity="0.0" stroke-opacity="1.0" stroke-linejoin="miter" stroke="rgb(0,0,0)"><path d="M 642.8571,607.1429 l -0.0000,-71.4286 h -285.7143 l -0.0000,71.4286 Z"/></g><g stroke-linecap="butt" fill="rgb(255,0,0)" stroke-miterlimit="10.0" stroke-width="0.0" fill-opacity="1.0" stroke-opacity="1.0" stroke-linejoin="miter" stroke="rgb(0,0,0)"><path d="M 505.7143,571.4286 c 0.0000,-3.1559 -2.5584,-5.7143 -5.7143 -5.7143c -3.1559,-0.0000 -5.7143,2.5584 -5.7143 5.7143c -0.0000,3.1559 2.5584,5.7143 5.7143 5.7143c 3.1559,0.0000 5.7143,-2.5584 5.7143 -5.7143Z"/></g><g stroke-linecap="butt" font-family="courier" fill="rgb(0,0,0)" font-size="17.857142857142858px" stroke-miterlimit="10.0" stroke-width="1.1495340671022203" fill-opacity="1.0" stroke-opacity="1.0" stroke-linejoin="miter" stroke="rgb(0,0,0)" font-weight="300"><text transform="matrix(1.0000,0.0000,0.0000,1.0000,500.0000,571.4286)" dominant-baseline="middle" text-anchor="middle" stroke="none">&quot;x2.0y-3.0&quot;</text></g><g stroke-linecap="butt" fill="rgb(0,0,0)" stroke-miterlimit="10.0" stroke-width="1.1495340671022203" fill-opacity="0.0" stroke-opacity="1.0" stroke-linejoin="miter" stroke="rgb(0,0,0)"><path d="M 1000.0000,571.4286 h 0.0000 c 0.0000,-19.7245 -15.9898,-35.7143 -35.7143 -35.7143h -214.2857 c -19.7245,-0.0000 -35.7143,15.9898 -35.7143 35.7143h 0.0000 c -0.0000,19.7245 15.9898,35.7143 35.7143 35.7143h 214.2857 c 19.7245,0.0000 35.7143,-15.9898 35.7143 -35.7143Z"/></g><g stroke-linecap="butt" fill="rgb(255,0,0)" stroke-miterlimit="10.0" stroke-width="0.0" fill-opacity="1.0" stroke-opacity="1.0" stroke-linejoin="miter" stroke="rgb(0,0,0)"><path d="M 862.8571,571.4286 c 0.0000,-3.1559 -2.5584,-5.7143 -5.7143 -5.7143c -3.1559,-0.0000 -5.7143,2.5584 -5.7143 5.7143c -0.0000,3.1559 2.5584,5.7143 5.7143 5.7143c 3.1559,0.0000 5.7143,-2.5584 5.7143 -5.7143Z"/></g><g stroke-linecap="butt" font-family="courier" fill="rgb(0,0,0)" font-size="17.857142857142858px" stroke-miterlimit="10.0" stroke-width="1.1495340671022203" fill-opacity="1.0" stroke-opacity="1.0" stroke-linejoin="miter" stroke="rgb(0,0,0)" font-weight="100"><text transform="matrix(1.0000,0.0000,0.0000,1.0000,857.1429,571.4286)" dominant-baseline="middle" text-anchor="middle" stroke="none">&quot;x4.0y-3.0&quot;: end</text></g><g stroke-linecap="butt" fill="rgb(0,0,0)" stroke-miterlimit="10.0" stroke-width="1.1495340671022203" fill-opacity="0.0" stroke-opacity="1.0" stroke-linejoin="miter" stroke="rgb(0,0,0)"><path d="M 642.8571,392.8571 h 214.2857 v 142.8571 "/></g><g stroke-linecap="butt" fill="rgb(0,0,0)" stroke-miterlimit="10.0" stroke-width="1.1495340671022203" fill-opacity="0.0" stroke-opacity="1.0" stroke-linejoin="miter" stroke="rgb(0,0,0)"><path d="M 500.0000,428.5714 v 107.1429 "/></g><g stroke-linecap="butt" fill="rgb(0,0,0)" stroke-miterlimit="10.0" stroke-width="1.1495340671022203" fill-opacity="0.0" stroke-opacity="1.0" stroke-linejoin="miter" stroke="rgb(0,0,0)"><path d="M 375.0000,428.5714 l -17.8571,-35.7143 l 17.8571,-35.7143 h 250.0000 l 17.8571,35.7143 l -17.8571,35.7143 h -250.0000 "/></g><g stroke-linecap="butt" fill="rgb(255,0,0)" stroke-miterlimit="10.0" stroke-width="0.0" fill-opacity="1.0" stroke-opacity="1.0" stroke-linejoin="miter" stroke="rgb(0,0,0)"><path d="M 505.7143,392.8571 c 0.0000,-3.1559 -2.5584,-5.7143 -5.7143 -5.7143c -3.1559,-0.0000 -5.7143,2.5584 -5.7143 5.7143c -0.0000,3.1559 2.5584,5.7143 5.7143 5.7143c 3.1559,0.0000 5.7143,-2.5584 5.7143 -5.7143Z"/></g><g stroke-linecap="butt" font-family="courier" fill="rgb(0,0,0)" font-size="17.857142857142858px" stroke-miterlimit="10.0" stroke-width="1.1495340671022203" fill-opacity="1.0" stroke-opacity="1.0" stroke-linejoin="miter" stroke="rgb(0,0,0)" font-weight="300"><text transform="matrix(1.0000,0.0000,0.0000,1.0000,500.0000,392.8571)" dominant-baseline="middle" text-anchor="middle" stroke="none">&quot;x2.0y-2.0&quot;</text></g><g stroke-linecap="butt" fill="rgb(0,0,0)" stroke-miterlimit="10.0" stroke-width="1.1495340671022203" fill-opacity="0.0" stroke-opacity="1.0" stroke-linejoin="miter" stroke="rgb(0,0,0)"><path d="M 285.7143,214.2857 h 214.2857 v 142.8571 "/></g><g stroke-linecap="butt" fill="rgb(0,0,0)" stroke-miterlimit="10.0" stroke-width="1.1495340671022203" fill-opacity="0.0" stroke-opacity="1.0" stroke-linejoin="miter" stroke="rgb(0,0,0)"><path d="M 142.8571,250.0000 v 107.1429 "/></g><g stroke-linecap="butt" fill="rgb(0,0,0)" stroke-miterlimit="10.0" stroke-width="1.1495340671022203" fill-opacity="0.0" stroke-opacity="1.0" stroke-linejoin="miter" stroke="rgb(0,0,0)"><path d="M 17.8571,250.0000 l -17.8571,-35.7143 l 17.8571,-35.7143 h 250.0000 l 17.8571,35.7143 l -17.8571,35.7143 h -250.0000 "/></g><g stroke-linecap="butt" fill="rgb(255,0,0)" stroke-miterlimit="10.0" stroke-width="0.0" fill-opacity="1.0" stroke-opacity="1.0" stroke-linejoin="miter" stroke="rgb(0,0,0)"><path d="M 148.5714,214.2857 c 0.0000,-3.1559 -2.5584,-5.7143 -5.7143 -5.7143c -3.1559,-0.0000 -5.7143,2.5584 -5.7143 5.7143c -0.0000,3.1559 2.5584,5.7143 5.7143 5.7143c 3.1559,0.0000 5.7143,-2.5584 5.7143 -5.7143Z"/></g><g stroke-linecap="butt" font-family="courier" fill="rgb(0,0,0)" font-size="17.857142857142858px" stroke-miterlimit="10.0" stroke-width="1.1495340671022203" fill-opacity="1.0" stroke-opacity="1.0" stroke-linejoin="miter" stroke="rgb(0,0,0)" font-weight="300"><text transform="matrix(1.0000,0.0000,0.0000,1.0000,142.8571,214.2857)" dominant-baseline="middle" text-anchor="middle" stroke="none">&quot;x0.0y-1.0&quot;</text></g><g stroke-linecap="butt" fill="rgb(0,0,0)" stroke-miterlimit="10.0" stroke-width="1.1495340671022203" fill-opacity="0.0" stroke-opacity="1.0" stroke-linejoin="miter" stroke="rgb(0,0,0)"><path d="M 142.8571,71.4286 v 107.1429 "/></g><g stroke-linecap="butt" fill="rgb(0,0,0)" stroke-miterlimit="10.0" stroke-width="1.1495340671022203" fill-opacity="0.0" stroke-opacity="1.0" stroke-linejoin="miter" stroke="rgb(0,0,0)"><path d="M 285.7143,35.7143 h 0.0000 c 0.0000,-19.7245 -15.9898,-35.7143 -35.7143 -35.7143h -214.2857 c -19.7245,-0.0000 -35.7143,15.9898 -35.7143 35.7143h 0.0000 c -0.0000,19.7245 15.9898,35.7143 35.7143 35.7143h 214.2857 c 19.7245,0.0000 35.7143,-15.9898 35.7143 -35.7143Z"/></g><g stroke-linecap="butt" fill="rgb(255,0,0)" stroke-miterlimit="10.0" stroke-width="0.0" fill-opacity="1.0" stroke-opacity="1.0" stroke-linejoin="miter" stroke="rgb(0,0,0)"><path d="M 148.5714,35.7143 c 0.0000,-3.1559 -2.5584,-5.7143 -5.7143 -5.7143c -3.1559,-0.0000 -5.7143,2.5584 -5.7143 5.7143c -0.0000,3.1559 2.5584,5.7143 5.7143 5.7143c 3.1559,0.0000 5.7143,-2.5584 5.7143 -5.7143Z"/></g><g stroke-linecap="butt" font-family="courier" fill="rgb(0,0,0)" font-size="17.857142857142858px" stroke-miterlimit="10.0" stroke-width="1.1495340671022203" fill-opacity="1.0" stroke-opacity="1.0" stroke-linejoin="miter" stroke="rgb(0,0,0)" font-weight="300"><text transform="matrix(1.0000,0.0000,0.0000,1.0000,142.8571,35.7143)" dominant-baseline="middle" text-anchor="middle" stroke="none">&quot;x0.0y0.0&quot;: start</text></g></svg>