<?xml version="1.0" encoding="UTF-8"?>
<!DOCTYPE svg PUBLIC "-//W3C//DTD SVG 1.1//EN"
    "http://www.w3.org/Graphics/SVG/1.1/DTD/svg11.dtd"><svg xmlns="http://www.w3.org/2000/svg" viewBox="0.0 0.0 1000.0 964.2857142857144" height="964.2857" font-size="1" stroke-opacity="1" width="1000.0000" xmlns:xlink="http://www.w3.org/1999/xlink" stroke="rgb(0,0,0)" version="1.1"><defs></defs><g stroke-linecap="butt" fill="rgb(0,0,0)" stroke-miterlimit="10.0" stroke-width="3.927922024247863" fill-opacity="0.0" stroke-opacity="1.0" stroke-linejoin="miter" stroke="rgb(0,0,0)"><path d="M 1000.0000,571.4286 h 0.0000 c 0.0000,-19.7245 -15.9898,-35.7143 -35.7143 -35.7143h -214.2857 c -19.7245,-0.0000 -35.7143,15.9898 -35.7143 35.7143h 0.0000 c -0.0000,19.7245 15.9898,35.7143 35.7143 35.7143h 214.2857 c 19.7245,0.0000 35.7143,-15.9898 35.7143 -35.7143Z"/></g><g stroke-linecap="butt" font-family="courier" fill="rgb(0,0,0)" font-size="13.392857142857144px" stroke-miterlimit="10.0" stroke-width="3.927922024247863" fill-opacity="1.0" stroke-opacity="1.0" stroke-linejoin="miter" stroke="rgb(0,0,0)" font-weight="300"><text transform="matrix(1.0000,0.0000,0.0000,1.0000,857.1429,571.4286)" dominant-baseline="middle" text-anchor="middle" stroke="none">end 4 | rendering order: 6</text></g><g stroke-linecap="butt" fill="rgb(255,0,0)" stroke-miterlimit="10.0" stroke-width="0.0" fill-opacity="1.0" stroke-opacity="1.0" stroke-linejoin="miter" stroke="rgb(0,0,0)"><path d="M 862.8571,571.4286 c 0.0000,-3.1559 -2.5584,-5.7143 -5.7143 -5.7143c -3.1559,-0.0000 -5.7143,2.5584 -5.7143 5.7143c -0.0000,3.1559 2.5584,5.7143 5.7143 5.7143c 3.1559,0.0000 5.7143,-2.5584 5.7143 -5.7143Z"/></g><g stroke-linecap="butt" fill="rgb(0,0,0)" stroke-miterlimit="10.0" stroke-width="3.927922024247863" fill-opacity="0.0" stroke-opacity="1.0" stroke-linejoin="miter" stroke="rgb(0,0,0)"><path d="M 642.8571,750.0000 h 0.0000 c 0.0000,-19.7245 -15.9898,-35.7143 -35.7143 -35.7143h -214.2857 c -19.7245,-0.0000 -35.7143,15.9898 -35.7143 35.7143h 0.0000 c -0.0000,19.7245 15.9898,35.7143 35.7143 35.7143h 214.2857 c 19.7245,0.0000 35.7143,-15.9898 35.7143 -35.7143Z"/></g><g stroke-linecap="butt" font-family="courier" fill="rgb(0,0,0)" font-size="13.392857142857144px" stroke-miterlimit="10.0" stroke-width="3.927922024247863" fill-opacity="1.0" stroke-opacity="1.0" stroke-linejoin="miter" stroke="rgb(0,0,0)" font-weight="300"><text transform="matrix(1.0000,0.0000,0.0000,1.0000,500.0000,750.0000)" dominant-baseline="middle" text-anchor="middle" stroke="none">end 3 | rendering order: 6</text></g><g stroke-linecap="butt" fill="rgb(255,0,0)" stroke-miterlimit="10.0" stroke-width="0.0" fill-opacity="1.0" stroke-opacity="1.0" stroke-linejoin="miter" stroke="rgb(0,0,0)"><path d="M 505.7143,750.0000 c 0.0000,-3.1559 -2.5584,-5.7143 -5.7143 -5.7143c -3.1559,-0.0000 -5.7143,2.5584 -5.7143 5.7143c -0.0000,3.1559 2.5584,5.7143 5.7143 5.7143c 3.1559,0.0000 5.7143,-2.5584 5.7143 -5.7143Z"/></g><g stroke-linecap="butt" fill="rgb(0,0,0)" stroke-miterlimit="10.0" stroke-width="3.927922024247863" fill-opacity="0.0" stroke-opacity="1.0" stroke-linejoin="miter" stroke="rgb(0,0,0)"><path d="M 642.8571,571.4286 h 0.0000 c 0.0000,-19.7245 -15.9898,-35.7143 -35.7143 -35.7143h -214.2857 c -19.7245,-0.0000 -35.7143,15.9898 -35.7143 35.7143h 0.0000 c -0.0000,19.7245 15.9898,35.7143 35.7143 35.7143h 214.2857 c 19.7245,0.0000 35.7143,-15.9898 35.7143 -35.7143Z"/></g><g stroke-linecap="butt" font-family="courier" fill="rgb(0,0,0)" font-size="13.392857142857144px" stroke-miterlimit="10.0" stroke-width="3.927922024247863" fill-opacity="1.0" stroke-opacity="1.0" stroke-linejoin="miter" stroke="rgb(0,0,0)" font-weight="300"><text transform="matrix(1.0000,0.0000,0.0000,1.0000,500.0000,571.4286)" dominant-baseline="middle" text-anchor="middle" stroke="none">action 4 | rendering order: 5</text></g><g stroke-linecap="butt" fill="rgb(255,0,0)" stroke-miterlimit="10.0" stroke-width="0.0" fill-opacity="1.0" stroke-opacity="1.0" stroke-linejoin="miter" stroke="rgb(0,0,0)"><path d="M 505.7143,571.4286 c 0.0000,-3.1559 -2.5584,-5.7143 -5.7143 -5.7143c -3.1559,-0.0000 -5.7143,2.5584 -5.7143 5.7143c -0.0000,3.1559 2.5584,5.7143 5.7143 5.7143c 3.1559,0.0000 5.7143,-2.5584 5.7143 -5.7143Z"/></g><g stroke-linecap="butt" fill="rgb(0,0,0)" stroke-miterlimit="10.0" stroke-width="3.927922024247863" fill-opacity="0.0" stroke-opacity="1.0" stroke-linejoin="miter" stroke="rgb(0,0,0)"><path d="M 642.8571,392.8571 h 0.0000 c 0.0000,-19.7245 -15.9898,-35.7143 -35.7143 -35.7143h -214.2857 c -19.7245,-0.0000 -35.7143,15.9898 -35.7143 35.7143h 0.0000 c -0.0000,19.7245 15.9898,35.7143 35.7143 35.7143h 214.2857 c 19.7245,0.0000 35.7143,-15.9898 35.7143 -35.7143Z"/></g><g stroke-linecap="butt" font-family="courier" fill="rgb(0,0,0)" font-size="13.392857142857144px" stroke-miterlimit="10.0" stroke-width="3.927922024247863" fill-opacity="1.0" stroke-opacity="1.0" stroke-linejoin="miter" stroke="rgb(0,0,0)" font-weight="300"><text transform="matrix(1.0000,0.0000,0.0000,1.0000,500.0000,392.8571)" dominant-baseline="middle" text-anchor="middle" stroke="none">decision 3 | rendering order: 4</text></g><g stroke-linecap="butt" fill="rgb(255,0,0)" stroke-miterlimit="10.0" stroke-width="0.0" fill-opacity="1.0" stroke-opacity="1.0" stroke-linejoin="miter" stroke="rgb(0,0,0)"><path d="M 505.7143,392.8571 c 0.0000,-3.1559 -2.5584,-5.7143 -5.7143 -5.7143c -3.1559,-0.0000 -5.7143,2.5584 -5.7143 5.7143c -0.0000,3.1559 2.5584,5.7143 5.7143 5.7143c 3.1559,0.0000 5.7143,-2.5584 5.7143 -5.7143Z"/></g><g stroke-linecap="butt" fill="rgb(0,0,0)" stroke-miterlimit="10.0" stroke-width="3.927922024247863" fill-opacity="0.0" stroke-opacity="1.0" stroke-linejoin="miter" stroke="rgb(0,0,0)"><path d="M 642.8571,928.5714 h 0.0000 c 0.0000,-19.7245 -15.9898,-35.7143 -35.7143 -35.7143h -214.2857 c -19.7245,-0.0000 -35.7143,15.9898 -35.7143 35.7143h 0.0000 c -0.0000,19.7245 15.9898,35.7143 35.7143 35.7143h 214.2857 c 19.7245,0.0000 35.7143,-15.9898 35.7143 -35.7143Z"/></g><g stroke-linecap="butt" font-family="courier" fill="rgb(0,0,0)" font-size="13.392857142857144px" stroke-miterlimit="10.0" stroke-width="3.927922024247863" fill-opacity="1.0" stroke-opacity="1.0" stroke-linejoin="miter" stroke="rgb(0,0,0)" font-weight="300"><text transform="matrix(1.0000,0.0000,0.0000,1.0000,500.0000,928.5714)" dominant-baseline="middle" text-anchor="middle" stroke="none">end 2 | rendering order: 7</text></g><g stroke-linecap="butt" fill="rgb(255,0,0)" stroke-miterlimit="10.0" stroke-width="0.0" fill-opacity="1.0" stroke-opacity="1.0" stroke-linejoin="miter" stroke="rgb(0,0,0)"><path d="M 505.7143,928.5714 c 0.0000,-3.1559 -2.5584,-5.7143 -5.7143 -5.7143c -3.1559,-0.0000 -5.7143,2.5584 -5.7143 5.7143c -0.0000,3.1559 2.5584,5.7143 5.7143 5.7143c 3.1559,0.0000 5.7143,-2.5584 5.7143 -5.7143Z"/></g><g stroke-linecap="butt" fill="rgb(0,0,0)" stroke-miterlimit="10.0" stroke-width="3.927922024247863" fill-opacity="0.0" stroke-opacity="1.0" stroke-linejoin="miter" stroke="rgb(0,0,0)"><path d="M 642.8571,750.0000 h 0.0000 c 0.0000,-19.7245 -15.9898,-35.7143 -35.7143 -35.7143h -214.2857 c -19.7245,-0.0000 -35.7143,15.9898 -35.7143 35.7143h 0.0000 c -0.0000,19.7245 15.9898,35.7143 35.7143 35.7143h 214.2857 c 19.7245,0.0000 35.7143,-15.9898 35.7143 -35.7143Z"/></g><g stroke-linecap="butt" font-family="courier" fill="rgb(0,0,0)" font-size="13.392857142857144px" stroke-miterlimit="10.0" stroke-width="3.927922024247863" fill-opacity="1.0" stroke-opacity="1.0" stroke-linejoin="miter" stroke="rgb(0,0,0)" font-weight="300"><text transform="matrix(1.0000,0.0000,0.0000,1.0000,500.0000,750.0000)" dominant-baseline="middle" text-anchor="middle" stroke="none">action 3 | rendering order: 6</text></g><g stroke-linecap="butt" fill="rgb(255,0,0)" stroke-miterlimit="10.0" stroke-width="0.0" fill-opacity="1.0" stroke-opacity="1.0" stroke-linejoin="miter" stroke="rgb(0,0,0)"><path d="M 505.7143,750.0000 c 0.0000,-3.1559 -2.5584,-5.7143 -5.7143 -5.7143c -3.1559,-0.0000 -5.7143,2.5584 -5.7143 5.7143c -0.0000,3.1559 2.5584,5.7143 5.7143 5.7143c 3.1559,0.0000 5.7143,-2.5584 5.7143 -5.7143Z"/></g><g stroke-linecap="butt" fill="rgb(0,0,0)" stroke-miterlimit="10.0" stroke-width="3.927922024247863" fill-opacity="0.0" stroke-opacity="1.0" stroke-linejoin="miter" stroke="rgb(0,0,0)"><path d="M 285.7143,928.5714 h 0.0000 c 0.0000,-19.7245 -15.9898,-35.7143 -35.7143 -35.7143h -214.2857 c -19.7245,-0.0000 -35.7143,15.9898 -35.7143 35.7143h 0.0000 c -0.0000,19.7245 15.9898,35.7143 35.7143 35.7143h 214.2857 c 19.7245,0.0000 35.7143,-15.9898 35.7143 -35.7143Z"/></g><g stroke-linecap="butt" font-family="courier" fill="rgb(0,0,0)" font-size="13.392857142857144px" stroke-miterlimit="10.0" stroke-width="3.927922024247863" fill-opacity="1.0" stroke-opacity="1.0" stroke-linejoin="miter" stroke="rgb(0,0,0)" font-weight="300"><text transform="matrix(1.0000,0.0000,0.0000,1.0000,142.8571,928.5714)" dominant-baseline="middle" text-anchor="middle" stroke="none">end 1 | rendering order: 6</text></g><g stroke-linecap="butt" fill="rgb(255,0,0)" stroke-miterlimit="10.0" stroke-width="0.0" fill-opacity="1.0" stroke-opacity="1.0" stroke-linejoin="miter" stroke="rgb(0,0,0)"><path d="M 148.5714,928.5714 c 0.0000,-3.1559 -2.5584,-5.7143 -5.7143 -5.7143c -3.1559,-0.0000 -5.7143,2.5584 -5.7143 5.7143c -0.0000,3.1559 2.5584,5.7143 5.7143 5.7143c 3.1559,0.0000 5.7143,-2.5584 5.7143 -5.7143Z"/></g><g stroke-linecap="butt" fill="rgb(0,0,0)" stroke-miterlimit="10.0" stroke-width="3.927922024247863" fill-opacity="0.0" stroke-opacity="1.0" stroke-linejoin="miter" stroke="rgb(0,0,0)"><path d="M 285.7143,750.0000 h 0.0000 c 0.0000,-19.7245 -15.9898,-35.7143 -35.7143 -35.7143h -214.2857 c -19.7245,-0.0000 -35.7143,15.9898 -35.7143 35.7143h 0.0000 c -0.0000,19.7245 15.9898,35.7143 35.7143 35.7143h 214.2857 c 19.7245,0.0000 35.7143,-15.9898 35.7143 -35.7143Z"/></g><g stroke-linecap="butt" font-family="courier" fill="rgb(0,0,0)" font-size="13.392857142857144px" stroke-miterlimit="10.0" stroke-width="3.927922024247863" fill-opacity="1.0" stroke-opacity="1.0" stroke-linejoin="miter" stroke="rgb(0,0,0)" font-weight="300"><text transform="matrix(1.0000,0.0000,0.0000,1.0000,142.8571,750.0000)" dominant-baseline="middle" text-anchor="middle" stroke="none">action 2 | rendering order: 5</text></g><g stroke-linecap="butt" fill="rgb(255,0,0)" stroke-miterlimit="10.0" stroke-width="0.0" fill-opacity="1.0" stroke-opacity="1.0" stroke-linejoin="miter" stroke="rgb(0,0,0)"><path d="M 148.5714,750.0000 c 0.0000,-3.1559 -2.5584,-5.7143 -5.7143 -5.7143c -3.1559,-0.0000 -5.7143,2.5584 -5.7143 5.7143c -0.0000,3.1559 2.5584,5.7143 5.7143 5.7143c 3.1559,0.0000 5.7143,-2.5584 5.7143 -5.7143Z"/></g><g stroke-linecap="butt" fill="rgb(0,0,0)" stroke-miterlimit="10.0" stroke-width="3.927922024247863" fill-opacity="0.0" stroke-opacity="1.0" stroke-linejoin="miter" stroke="rgb(0,0,0)"><path d="M 285.7143,571.4286 h 0.0000 c 0.0000,-19.7245 -15.9898,-35.7143 -35.7143 -35.7143h -214.2857 c -19.7245,-0.0000 -35.7143,15.9898 -35.7143 35.7143h 0.0000 c -0.0000,19.7245 15.9898,35.7143 35.7143 35.7143h 214.2857 c 19.7245,0.0000 35.7143,-15.9898 35.7143 -35.7143Z"/></g><g stroke-linecap="butt" font-family="courier" fill="rgb(0,0,0)" font-size="13.392857142857144px" stroke-miterlimit="10.0" stroke-width="3.927922024247863" fill-opacity="1.0" stroke-opacity="1.0" stroke-linejoin="miter" stroke="rgb(0,0,0)" font-weight="300"><text transform="matrix(1.0000,0.0000,0.0000,1.0000,142.8571,571.4286)" dominant-baseline="middle" text-anchor="middle" stroke="none">decision 2 | rendering order: 4</text></g><g stroke-linecap="butt" fill="rgb(255,0,0)" stroke-miterlimit="10.0" stroke-width="0.0" fill-opacity="1.0" stroke-opacity="1.0" stroke-linejoin="miter" stroke="rgb(0,0,0)"><path d="M 148.5714,571.4286 c 0.0000,-3.1559 -2.5584,-5.7143 -5.7143 -5.7143c -3.1559,-0.0000 -5.7143,2.5584 -5.7143 5.7143c -0.0000,3.1559 2.5584,5.7143 5.7143 5.7143c 3.1559,0.0000 5.7143,-2.5584 5.7143 -5.7143Z"/></g><g stroke-linecap="butt" fill="rgb(0,0,0)" stroke-miterlimit="10.0" stroke-width="3.927922024247863" fill-opacity="0.0" stroke-opacity="1.0" stroke-linejoin="miter" stroke="rgb(0,0,0)"><path d="M 285.7143,392.8571 h 0.0000 c 0.0000,-19.7245 -15.9898,-35.7143 -35.7143 -35.7143h -214.2857 c -19.7245,-0.0000 -35.7143,15.9898 -35.7143 35.7143h 0.0000 c -0.0000,19.7245 15.9898,35.7143 35.7143 35.7143h 214.2857 c 19.7245,0.0000 35.7143,-15.9898 35.7143 -35.7143Z"/></g><g stroke-linecap="butt" font-family="courier" fill="rgb(0,0,0)" font-size="13.392857142857144px" stroke-miterlimit="10.0" stroke-width="3.927922024247863" fill-opacity="1.0" stroke-opacity="1.0" stroke-linejoin="miter" stroke="rgb(0,0,0)" font-weight="300"><text transform="matrix(1.0000,0.0000,0.0000,1.0000,142.8571,392.8571)" dominant-baseline="middle" text-anchor="middle" stroke="none">action 1 | rendering order: 3</text></g><g stroke-linecap="butt" fill="rgb(255,0,0)" stroke-miterlimit="10.0" stroke-width="0.0" fill-opacity="1.0" stroke-opacity="1.0" stroke-linejoin="miter" stroke="rgb(0,0,0)"><path d="M 148.5714,392.8571 c 0.0000,-3.1559 -2.5584,-5.7143 -5.7143 -5.7143c -3.1559,-0.0000 -5.7143,2.5584 -5.7143 5.7143c -0.0000,3.1559 2.5584,5.7143 5.7143 5.7143c 3.1559,0.0000 5.7143,-2.5584 5.7143 -5.7143Z"/></g><g stroke-linecap="butt" fill="rgb(0,0,0)" stroke-miterlimit="10.0" stroke-width="3.927922024247863" fill-opacity="0.0" stroke-opacity="1.0" stroke-linejoin="miter" stroke="rgb(0,0,0)"><path d="M 285.7143,214.2857 h 0.0000 c 0.0000,-19.7245 -15.9898,-35.7143 -35.7143 -35.7143h -214.2857 c -19.7245,-0.0000 -35.7143,15.9898 -35.7143 35.7143h 0.0000 c -0.0000,19.7245 15.9898,35.7143 35.7143 35.7143h 214.2857 c 19.7245,0.0000 35.7143,-15.9898 35.7143 -35.7143Z"/></g><g stroke-linecap="butt" font-family="courier" fill="rgb(0,0,0)" font-size="13.392857142857144px" stroke-miterlimit="10.0" stroke-width="3.927922024247863" fill-opacity="1.0" stroke-opacity="1.0" stroke-linejoin="miter" stroke="rgb(0,0,0)" font-weight="300"><text transform="matrix(1.0000,0.0000,0.0000,1.0000,142.8571,214.2857)" dominant-baseline="middle" text-anchor="middle" stroke="none">decision 1 | rendering order: 2</text></g><g stroke-linecap="butt" fill="rgb(255,0,0)" stroke-miterlimit="10.0" stroke-width="0.0" fill-opacity="1.0" stroke-opacity="1.0" stroke-linejoin="miter" stroke="rgb(0,0,0)"><path d="M 148.5714,214.2857 c 0.0000,-3.1559 -2.5584,-5.7143 -5.7143 -5.7143c -3.1559,-0.0000 -5.7143,2.5584 -5.7143 5.7143c -0.0000,3.1559 2.5584,5.7143 5.7143 5.7143c 3.1559,0.0000 5.7143,-2.5584 5.7143 -5.7143Z"/></g><g stroke-linecap="butt" fill="rgb(0,0,0)" stroke-miterlimit="10.0" stroke-width="3.927922024247863" fill-opacity="0.0" stroke-opacity="1.0" stroke-linejoin="miter" stroke="rgb(0,0,0)"><path d="M 285.7143,35.7143 h 0.0000 c 0.0000,-19.7245 -15.9898,-35.7143 -35.7143 -35.7143h -214.2857 c -19.7245,-0.0000 -35.7143,15.9898 -35.7143 35.7143h 0.0000 c -0.0000,19.7245 15.9898,35.7143 35.7143 35.7143h 214.2857 c 19.7245,0.0000 35.7143,-15.9898 35.7143 -35.7143Z"/></g><g stroke-linecap="butt" font-family="courier" fill="rgb(0,0,0)" font-size="13.392857142857144px" stroke-miterlimit="10.0" stroke-width="3.927922024247863" fill-opacity="1.0" stroke-opacity="1.0" stroke-linejoin="miter" stroke="rgb(0,0,0)" font-weight="300"><text transform="matrix(1.0000,0.0000,0.0000,1.0000,142.8571,35.7143)" dominant-baseline="middle" text-anchor="middle" stroke="none">start | rendering order: 1</text></g><g stroke-linecap="butt" fill="rgb(255,0,0)" stroke-miterlimit="10.0" stroke-width="0.0" fill-opacity="1.0" stroke-opacity="1.0" stroke-linejoin="miter" stroke="rgb(0,0,0)"><path d="M 148.5714,35.7143 c 0.0000,-3.1559 -2.5584,-5.7143 -5.7143 -5.7143c -3.1559,-0.0000 -5.7143,2.5584 -5.7143 5.7143c -0.0000,3.1559 2.5584,5.7143 5.7143 5.7143c 3.1559,0.0000 5.7143,-2.5584 5.7143 -5.7143Z"/></g></svg>