<?xml version="1.0" encoding="UTF-8"?>
<!DOCTYPE svg PUBLIC "-//W3C//DTD SVG 1.1//EN"
    "http://www.w3.org/Graphics/SVG/1.1/DTD/svg11.dtd"><svg xmlns="http://www.w3.org/2000/svg" viewBox="0.0 0.0 500.0 660.7142857142858" height="660.7143" font-size="1" stroke-opacity="1" width="500.0000" xmlns:xlink="http://www.w3.org/1999/xlink" stroke="rgb(0,0,0)" version="1.1"><defs></defs><g stroke-linecap="butt" fill="rgb(0,0,0)" stroke-miterlimit="10.0" stroke-width="0.5747670335511101" fill-opacity="0.0" stroke-opacity="1.0" stroke-linejoin="miter" stroke="rgb(0,0,0)"><path d="M 71.4286,553.5714 h 0.0000 "/></g><g stroke-linecap="butt" fill="rgb(0,0,0)" stroke-miterlimit="10.0" stroke-width="0.5747670335511101" fill-opacity="0.0" stroke-opacity="1.0" stroke-linejoin="miter" stroke="rgb(0,0,0)"><path d="M 71.4286,642.8571 v -89.2857 "/></g><g stroke-linecap="butt" fill="rgb(0,0,0)" stroke-miterlimit="10.0" stroke-width="0.5747670335511101" fill-opacity="0.0" stroke-opacity="1.0" stroke-linejoin="miter" stroke="rgb(0,0,0)"><path d="M 142.8571,642.8571 h 0.0000 c 0.0000,-9.8622 -7.9949,-17.8571 -17.8571 -17.8571h -107.1429 c -9.8622,-0.0000 -17.8571,7.9949 -17.8571 17.8571h 0.0000 c -0.0000,9.8622 7.9949,17.8571 17.8571 17.8571h 107.1429 c 9.8622,0.0000 17.8571,-7.9949 17.8571 -17.8571Z"/></g><g stroke-linecap="butt" fill="rgb(255,0,0)" stroke-miterlimit="10.0" stroke-width="0.0" fill-opacity="1.0" stroke-opacity="1.0" stroke-linejoin="miter" stroke="rgb(0,0,0)"><path d="M 74.2857,642.8571 c 0.0000,-1.5780 -1.2792,-2.8571 -2.8571 -2.8571c -1.5780,-0.0000 -2.8571,1.2792 -2.8571 2.8571c -0.0000,1.5780 1.2792,2.8571 2.8571 2.8571c 1.5780,0.0000 2.8571,-1.2792 2.8571 -2.8571Z"/></g><g stroke-linecap="butt" font-family="courier" fill="rgb(0,0,0)" font-size="8.928571428571429px" stroke-miterlimit="10.0" stroke-width="0.5747670335511101" fill-opacity="1.0" stroke-opacity="1.0" stroke-linejoin="miter" stroke="rgb(0,0,0)" font-weight="100"><text transform="matrix(1.0000,0.0000,0.0000,1.0000,71.4286,642.8571)" dominant-baseline="middle" text-anchor="middle" stroke="none">x0.0y-7.0: end</text></g><g stroke-linecap="butt" fill="rgb(0,0,0)" stroke-miterlimit="10.0" stroke-width="0.5747670335511101" fill-opacity="0.0" stroke-opacity="1.0" stroke-linejoin="miter" stroke="rgb(0,0,0)"><path d="M 71.4286,464.2857 h 0.0000 "/></g><g stroke-linecap="butt" fill="rgb(0,0,0)" stroke-miterlimit="10.0" stroke-width="0.5747670335511101" fill-opacity="0.0" stroke-opacity="1.0" stroke-linejoin="miter" stroke="rgb(0,0,0)"><path d="M 71.4286,553.5714 v -89.2857 "/></g><g stroke-linecap="butt" fill="rgb(0,0,0)" stroke-miterlimit="10.0" stroke-width="0.5747670335511101" fill-opacity="0.0" stroke-opacity="1.0" stroke-linejoin="miter" stroke="rgb(0,0,0)"><path d="M 142.8571,571.4286 l -0.0000,-35.7143 h -142.8571 l -0.0000,35.7143 Z"/></g><g stroke-linecap="butt" fill="rgb(255,0,0)" stroke-miterlimit="10.0" stroke-width="0.0" fill-opacity="1.0" stroke-opacity="1.0" stroke-linejoin="miter" stroke="rgb(0,0,0)"><path d="M 74.2857,553.5714 c 0.0000,-1.5780 -1.2792,-2.8571 -2.8571 -2.8571c -1.5780,-0.0000 -2.8571,1.2792 -2.8571 2.8571c -0.0000,1.5780 1.2792,2.8571 2.8571 2.8571c 1.5780,0.0000 2.8571,-1.2792 2.8571 -2.8571Z"/></g><g stroke-linecap="butt" font-family="courier" fill="rgb(0,0,0)" font-size="8.928571428571429px" stroke-miterlimit="10.0" stroke-width="0.5747670335511101" fill-opacity="1.0" stroke-opacity="1.0" stroke-linejoin="miter" stroke="rgb(0,0,0)" font-weight="300"><text transform="matrix(1.0000,0.0000,0.0000,1.0000,71.4286,553.5714)" dominant-baseline="middle" text-anchor="middle" stroke="none">x0.0y-6.0</text></g><g stroke-linecap="butt" fill="rgb(0,0,0)" stroke-miterlimit="10.0" stroke-width="0.5747670335511101" fill-opacity="0.0" stroke-opacity="1.0" stroke-linejoin="miter" stroke="rgb(0,0,0)"><path d="M 250.0000,553.5714 h 0.0000 "/></g><g stroke-linecap="butt" fill="rgb(0,0,0)" stroke-miterlimit="10.0" stroke-width="0.5747670335511101" fill-opacity="0.0" stroke-opacity="1.0" stroke-linejoin="miter" stroke="rgb(0,0,0)"><path d="M 250.0000,642.8571 v -89.2857 "/></g><g stroke-linecap="butt" fill="rgb(0,0,0)" stroke-miterlimit="10.0" stroke-width="0.5747670335511101" fill-opacity="0.0" stroke-opacity="1.0" stroke-linejoin="miter" stroke="rgb(0,0,0)"><path d="M 321.4286,642.8571 h 0.0000 c 0.0000,-9.8622 -7.9949,-17.8571 -17.8571 -17.8571h -107.1429 c -9.8622,-0.0000 -17.8571,7.9949 -17.8571 17.8571h 0.0000 c -0.0000,9.8622 7.9949,17.8571 17.8571 17.8571h 107.1429 c 9.8622,0.0000 17.8571,-7.9949 17.8571 -17.8571Z"/></g><g stroke-linecap="butt" fill="rgb(255,0,0)" stroke-miterlimit="10.0" stroke-width="0.0" fill-opacity="1.0" stroke-opacity="1.0" stroke-linejoin="miter" stroke="rgb(0,0,0)"><path d="M 252.8571,642.8571 c 0.0000,-1.5780 -1.2792,-2.8571 -2.8571 -2.8571c -1.5780,-0.0000 -2.8571,1.2792 -2.8571 2.8571c -0.0000,1.5780 1.2792,2.8571 2.8571 2.8571c 1.5780,0.0000 2.8571,-1.2792 2.8571 -2.8571Z"/></g><g stroke-linecap="butt" font-family="courier" fill="rgb(0,0,0)" font-size="8.928571428571429px" stroke-miterlimit="10.0" stroke-width="0.5747670335511101" fill-opacity="1.0" stroke-opacity="1.0" stroke-linejoin="miter" stroke="rgb(0,0,0)" font-weight="100"><text transform="matrix(1.0000,0.0000,0.0000,1.0000,250.0000,642.8571)" dominant-baseline="middle" text-anchor="middle" stroke="none">x2.0y-7.0: end</text></g><g stroke-linecap="butt" fill="rgb(0,0,0)" stroke-miterlimit="10.0" stroke-width="0.5747670335511101" fill-opacity="0.0" stroke-opacity="1.0" stroke-linejoin="miter" stroke="rgb(0,0,0)"><path d="M 250.0000,464.2857 h -178.5714 "/></g><g stroke-linecap="butt" fill="rgb(0,0,0)" stroke-miterlimit="10.0" stroke-width="0.5747670335511101" fill-opacity="0.0" stroke-opacity="1.0" stroke-linejoin="miter" stroke="rgb(0,0,0)"><path d="M 250.0000,553.5714 v -89.2857 "/></g><g stroke-linecap="butt" fill="rgb(0,0,0)" stroke-miterlimit="10.0" stroke-width="0.5747670335511101" fill-opacity="0.0" stroke-opacity="1.0" stroke-linejoin="miter" stroke="rgb(0,0,0)"><path d="M 321.4286,571.4286 l -0.0000,-35.7143 h -142.8571 l -0.0000,35.7143 Z"/></g><g stroke-linecap="butt" fill="rgb(255,0,0)" stroke-miterlimit="10.0" stroke-width="0.0" fill-opacity="1.0" stroke-opacity="1.0" stroke-linejoin="miter" stroke="rgb(0,0,0)"><path d="M 252.8571,553.5714 c 0.0000,-1.5780 -1.2792,-2.8571 -2.8571 -2.8571c -1.5780,-0.0000 -2.8571,1.2792 -2.8571 2.8571c -0.0000,1.5780 1.2792,2.8571 2.8571 2.8571c 1.5780,0.0000 2.8571,-1.2792 2.8571 -2.8571Z"/></g><g stroke-linecap="butt" font-family="courier" fill="rgb(0,0,0)" font-size="8.928571428571429px" stroke-miterlimit="10.0" stroke-width="0.5747670335511101" fill-opacity="1.0" stroke-opacity="1.0" stroke-linejoin="miter" stroke="rgb(0,0,0)" font-weight="300"><text transform="matrix(1.0000,0.0000,0.0000,1.0000,250.0000,553.5714)" dominant-baseline="middle" text-anchor="middle" stroke="none">x2.0y-6.0</text></g><g stroke-linecap="butt" font-family="courier" fill="rgb(0,0,0)" font-size="8.928571428571429px" stroke-miterlimit="10.0" stroke-width="0.5747670335511101" fill-opacity="1.0" stroke-opacity="1.0" stroke-linejoin="miter" stroke="rgb(0,0,0)" font-weight="300"><text transform="matrix(1.0000,0.0000,0.0000,1.0000,157.1429,458.9286)" dominant-baseline="middle" text-anchor="middle" stroke="none">no</text></g><g stroke-linecap="butt" font-family="courier" fill="rgb(0,0,0)" font-size="8.928571428571429px" stroke-miterlimit="10.0" stroke-width="0.5747670335511101" fill-opacity="1.0" stroke-opacity="1.0" stroke-linejoin="miter" stroke="rgb(0,0,0)" font-weight="300"><text transform="matrix(1.0000,0.0000,0.0000,1.0000,57.1429,489.2857)" dominant-baseline="middle" text-anchor="middle" stroke="none">yes</text></g><g stroke-linecap="butt" fill="rgb(0,0,0)" stroke-miterlimit="10.0" stroke-width="0.5747670335511101" fill-opacity="0.0" stroke-opacity="1.0" stroke-linejoin="miter" stroke="rgb(0,0,0)"><path d="M 71.4286,196.4286 h 0.0000 "/></g><g stroke-linecap="butt" fill="rgb(0,0,0)" stroke-miterlimit="10.0" stroke-width="0.5747670335511101" fill-opacity="0.0" stroke-opacity="1.0" stroke-linejoin="miter" stroke="rgb(0,0,0)"><path d="M 71.4286,464.2857 v -267.8571 "/></g><g stroke-linecap="butt" fill="rgb(0,0,0)" stroke-miterlimit="10.0" stroke-width="0.5747670335511101" fill-opacity="0.0" stroke-opacity="1.0" stroke-linejoin="miter" stroke="rgb(0,0,0)"><path d="M 8.9286,482.1429 l -8.9286,-17.8571 l 8.9286,-17.8571 h 125.0000 l 8.9286,17.8571 l -8.9286,17.8571 h -125.0000 "/></g><g stroke-linecap="butt" fill="rgb(255,0,0)" stroke-miterlimit="10.0" stroke-width="0.0" fill-opacity="1.0" stroke-opacity="1.0" stroke-linejoin="miter" stroke="rgb(0,0,0)"><path d="M 74.2857,464.2857 c 0.0000,-1.5780 -1.2792,-2.8571 -2.8571 -2.8571c -1.5780,-0.0000 -2.8571,1.2792 -2.8571 2.8571c -0.0000,1.5780 1.2792,2.8571 2.8571 2.8571c 1.5780,0.0000 2.8571,-1.2792 2.8571 -2.8571Z"/></g><g stroke-linecap="butt" font-family="courier" fill="rgb(0,0,0)" font-size="8.928571428571429px" stroke-miterlimit="10.0" stroke-width="0.5747670335511101" fill-opacity="1.0" stroke-opacity="1.0" stroke-linejoin="miter" stroke="rgb(0,0,0)" font-weight="300"><text transform="matrix(1.0000,0.0000,0.0000,1.0000,71.4286,464.2857)" dominant-baseline="middle" text-anchor="middle" stroke="none">x0.0y-5.0</text></g><g stroke-linecap="butt" fill="rgb(0,0,0)" stroke-miterlimit="10.0" stroke-width="0.5747670335511101" fill-opacity="0.0" stroke-opacity="1.0" stroke-linejoin="miter" stroke="rgb(0,0,0)"><path d="M 71.4286,107.1429 h 0.0000 "/></g><g stroke-linecap="butt" fill="rgb(0,0,0)" stroke-miterlimit="10.0" stroke-width="0.5747670335511101" fill-opacity="0.0" stroke-opacity="1.0" stroke-linejoin="miter" stroke="rgb(0,0,0)"><path d="M 71.4286,196.4286 v -89.2857 "/></g><g stroke-linecap="butt" fill="rgb(0,0,0)" stroke-miterlimit="10.0" stroke-width="0.5747670335511101" fill-opacity="0.0" stroke-opacity="1.0" stroke-linejoin="miter" stroke="rgb(0,0,0)"><path d="M 142.8571,214.2857 l -0.0000,-35.7143 h -142.8571 l -0.0000,35.7143 Z"/></g><g stroke-linecap="butt" fill="rgb(255,0,0)" stroke-miterlimit="10.0" stroke-width="0.0" fill-opacity="1.0" stroke-opacity="1.0" stroke-linejoin="miter" stroke="rgb(0,0,0)"><path d="M 74.2857,196.4286 c 0.0000,-1.5780 -1.2792,-2.8571 -2.8571 -2.8571c -1.5780,-0.0000 -2.8571,1.2792 -2.8571 2.8571c -0.0000,1.5780 1.2792,2.8571 2.8571 2.8571c 1.5780,0.0000 2.8571,-1.2792 2.8571 -2.8571Z"/></g><g stroke-linecap="butt" font-family="courier" fill="rgb(0,0,0)" font-size="8.928571428571429px" stroke-miterlimit="10.0" stroke-width="0.5747670335511101" fill-opacity="1.0" stroke-opacity="1.0" stroke-linejoin="miter" stroke="rgb(0,0,0)" font-weight="300"><text transform="matrix(1.0000,0.0000,0.0000,1.0000,71.4286,196.4286)" dominant-baseline="middle" text-anchor="middle" stroke="none">x0.0y-2.0</text></g><g stroke-linecap="butt" fill="rgb(0,0,0)" stroke-miterlimit="10.0" stroke-width="0.5747670335511101" fill-opacity="0.0" stroke-opacity="1.0" stroke-linejoin="miter" stroke="rgb(0,0,0)"><path d="M 250.0000,285.7143 h 0.0000 "/></g><g stroke-linecap="butt" fill="rgb(0,0,0)" stroke-miterlimit="10.0" stroke-width="0.5747670335511101" fill-opacity="0.0" stroke-opacity="1.0" stroke-linejoin="miter" stroke="rgb(0,0,0)"><path d="M 250.0000,375.0000 v -89.2857 "/></g><g stroke-linecap="butt" fill="rgb(0,0,0)" stroke-miterlimit="10.0" stroke-width="0.5747670335511101" fill-opacity="0.0" stroke-opacity="1.0" stroke-linejoin="miter" stroke="rgb(0,0,0)"><path d="M 321.4286,375.0000 h 0.0000 c 0.0000,-9.8622 -7.9949,-17.8571 -17.8571 -17.8571h -107.1429 c -9.8622,-0.0000 -17.8571,7.9949 -17.8571 17.8571h 0.0000 c -0.0000,9.8622 7.9949,17.8571 17.8571 17.8571h 107.1429 c 9.8622,0.0000 17.8571,-7.9949 17.8571 -17.8571Z"/></g><g stroke-linecap="butt" fill="rgb(255,0,0)" stroke-miterlimit="10.0" stroke-width="0.0" fill-opacity="1.0" stroke-opacity="1.0" stroke-linejoin="miter" stroke="rgb(0,0,0)"><path d="M 252.8571,375.0000 c 0.0000,-1.5780 -1.2792,-2.8571 -2.8571 -2.8571c -1.5780,-0.0000 -2.8571,1.2792 -2.8571 2.8571c -0.0000,1.5780 1.2792,2.8571 2.8571 2.8571c 1.5780,0.0000 2.8571,-1.2792 2.8571 -2.8571Z"/></g><g stroke-linecap="butt" font-family="courier" fill="rgb(0,0,0)" font-size="8.928571428571429px" stroke-miterlimit="10.0" stroke-width="0.5747670335511101" fill-opacity="1.0" stroke-opacity="1.0" stroke-linejoin="miter" stroke="rgb(0,0,0)" font-weight="100"><text transform="matrix(1.0000,0.0000,0.0000,1.0000,250.0000,375.0000)" dominant-baseline="middle" text-anchor="middle" stroke="none">x2.0y-4.0: end</text></g><g stroke-linecap="butt" fill="rgb(0,0,0)" stroke-miterlimit="10.0" stroke-width="0.5747670335511101" fill-opacity="0.0" stroke-opacity="1.0" stroke-linejoin="miter" stroke="rgb(0,0,0)"><path d="M 250.0000,196.4286 h 0.0000 "/></g><g stroke-linecap="butt" fill="rgb(0,0,0)" stroke-miterlimit="10.0" stroke-width="0.5747670335511101" fill-opacity="0.0" stroke-opacity="1.0" stroke-linejoin="miter" stroke="rgb(0,0,0)"><path d="M 250.0000,285.7143 v -89.2857 "/></g><g stroke-linecap="butt" fill="rgb(0,0,0)" stroke-miterlimit="10.0" stroke-width="0.5747670335511101" fill-opacity="0.0" stroke-opacity="1.0" stroke-linejoin="miter" stroke="rgb(0,0,0)"><path d="M 321.4286,303.5714 l -0.0000,-35.7143 h -142.8571 l -0.0000,35.7143 Z"/></g><g stroke-linecap="butt" fill="rgb(255,0,0)" stroke-miterlimit="10.0" stroke-width="0.0" fill-opacity="1.0" stroke-opacity="1.0" stroke-linejoin="miter" stroke="rgb(0,0,0)"><path d="M 252.8571,285.7143 c 0.0000,-1.5780 -1.2792,-2.8571 -2.8571 -2.8571c -1.5780,-0.0000 -2.8571,1.2792 -2.8571 2.8571c -0.0000,1.5780 1.2792,2.8571 2.8571 2.8571c 1.5780,0.0000 2.8571,-1.2792 2.8571 -2.8571Z"/></g><g stroke-linecap="butt" font-family="courier" fill="rgb(0,0,0)" font-size="8.928571428571429px" stroke-miterlimit="10.0" stroke-width="0.5747670335511101" fill-opacity="1.0" stroke-opacity="1.0" stroke-linejoin="miter" stroke="rgb(0,0,0)" font-weight="300"><text transform="matrix(1.0000,0.0000,0.0000,1.0000,250.0000,285.7143)" dominant-baseline="middle" text-anchor="middle" stroke="none">x2.0y-3.0</text></g><g stroke-linecap="butt" fill="rgb(0,0,0)" stroke-miterlimit="10.0" stroke-width="0.5747670335511101" fill-opacity="0.0" stroke-opacity="1.0" stroke-linejoin="miter" stroke="rgb(0,0,0)"><path d="M 428.5714,196.4286 h -178.5714 "/></g><g stroke-linecap="butt" fill="rgb(0,0,0)" stroke-miterlimit="10.0" stroke-width="0.5747670335511101" fill-opacity="0.0" stroke-opacity="1.0" stroke-linejoin="miter" stroke="rgb(0,0,0)"><path d="M 428.5714,285.7143 v -89.2857 "/></g><g stroke-linecap="butt" fill="rgb(0,0,0)" stroke-miterlimit="10.0" stroke-width="0.5747670335511101" fill-opacity="0.0" stroke-opacity="1.0" stroke-linejoin="miter" stroke="rgb(0,0,0)"><path d="M 500.0000,285.7143 h 0.0000 c 0.0000,-9.8622 -7.9949,-17.8571 -17.8571 -17.8571h -107.1429 c -9.8622,-0.0000 -17.8571,7.9949 -17.8571 17.8571h 0.0000 c -0.0000,9.8622 7.9949,17.8571 17.8571 17.8571h 107.1429 c 9.8622,0.0000 17.8571,-7.9949 17.8571 -17.8571Z"/></g><g stroke-linecap="butt" fill="rgb(255,0,0)" stroke-miterlimit="10.0" stroke-width="0.0" fill-opacity="1.0" stroke-opacity="1.0" stroke-linejoin="miter" stroke="rgb(0,0,0)"><path d="M 431.4286,285.7143 c 0.0000,-1.5780 -1.2792,-2.8571 -2.8571 -2.8571c -1.5780,-0.0000 -2.8571,1.2792 -2.8571 2.8571c -0.0000,1.5780 1.2792,2.8571 2.8571 2.8571c 1.5780,0.0000 2.8571,-1.2792 2.8571 -2.8571Z"/></g><g stroke-linecap="butt" font-family="courier" fill="rgb(0,0,0)" font-size="8.928571428571429px" stroke-miterlimit="10.0" stroke-width="0.5747670335511101" fill-opacity="1.0" stroke-opacity="1.0" stroke-linejoin="miter" stroke="rgb(0,0,0)" font-weight="100"><text transform="matrix(1.0000,0.0000,0.0000,1.0000,428.5714,285.7143)" dominant-baseline="middle" text-anchor="middle" stroke="none">x4.0y-3.0: end</text></g><g stroke-linecap="butt" font-family="courier" fill="rgb(0,0,0)" font-size="8.928571428571429px" stroke-miterlimit="10.0" stroke-width="0.5747670335511101" fill-opacity="1.0" stroke-opacity="1.0" stroke-linejoin="miter" stroke="rgb(0,0,0)" font-weight="300"><text transform="matrix(1.0000,0.0000,0.0000,1.0000,335.7143,191.0714)" dominant-baseline="middle" text-anchor="middle" stroke="none">no</text></g><g stroke-linecap="butt" font-family="courier" fill="rgb(0,0,0)" font-size="8.928571428571429px" stroke-miterlimit="10.0" stroke-width="0.5747670335511101" fill-opacity="1.0" stroke-opacity="1.0" stroke-linejoin="miter" stroke="rgb(0,0,0)" font-weight="300"><text transform="matrix(1.0000,0.0000,0.0000,1.0000,235.7143,221.4286)" dominant-baseline="middle" text-anchor="middle" stroke="none">yes</text></g><g stroke-linecap="butt" fill="rgb(0,0,0)" stroke-miterlimit="10.0" stroke-width="0.5747670335511101" fill-opacity="0.0" stroke-opacity="1.0" stroke-linejoin="miter" stroke="rgb(0,0,0)"><path d="M 250.0000,107.1429 h -178.5714 "/></g><g stroke-linecap="butt" fill="rgb(0,0,0)" stroke-miterlimit="10.0" stroke-width="0.5747670335511101" fill-opacity="0.0" stroke-opacity="1.0" stroke-linejoin="miter" stroke="rgb(0,0,0)"><path d="M 250.0000,196.4286 v -89.2857 "/></g><g stroke-linecap="butt" fill="rgb(0,0,0)" stroke-miterlimit="10.0" stroke-width="0.5747670335511101" fill-opacity="0.0" stroke-opacity="1.0" stroke-linejoin="miter" stroke="rgb(0,0,0)"><path d="M 187.5000,214.2857 l -8.9286,-17.8571 l 8.9286,-17.8571 h 125.0000 l 8.9286,17.8571 l -8.9286,17.8571 h -125.0000 "/></g><g stroke-linecap="butt" fill="rgb(255,0,0)" stroke-miterlimit="10.0" stroke-width="0.0" fill-opacity="1.0" stroke-opacity="1.0" stroke-linejoin="miter" stroke="rgb(0,0,0)"><path d="M 252.8571,196.4286 c 0.0000,-1.5780 -1.2792,-2.8571 -2.8571 -2.8571c -1.5780,-0.0000 -2.8571,1.2792 -2.8571 2.8571c -0.0000,1.5780 1.2792,2.8571 2.8571 2.8571c 1.5780,0.0000 2.8571,-1.2792 2.8571 -2.8571Z"/></g><g stroke-linecap="butt" font-family="courier" fill="rgb(0,0,0)" font-size="8.928571428571429px" stroke-miterlimit="10.0" stroke-width="0.5747670335511101" fill-opacity="1.0" stroke-opacity="1.0" stroke-linejoin="miter" stroke="rgb(0,0,0)" font-weight="300"><text transform="matrix(1.0000,0.0000,0.0000,1.0000,250.0000,196.4286)" dominant-baseline="middle" text-anchor="middle" stroke="none">x2.0y-2.0</text></g><g stroke-linecap="butt" font-family="courier" fill="rgb(0,0,0)" font-size="8.928571428571429px" stroke-miterlimit="10.0" stroke-width="0.5747670335511101" fill-opacity="1.0" stroke-opacity="1.0" stroke-linejoin="miter" stroke="rgb(0,0,0)" font-weight="300"><text transform="matrix(1.0000,0.0000,0.0000,1.0000,157.1429,101.7857)" dominant-baseline="middle" text-anchor="middle" stroke="none">no</text></g><g stroke-linecap="butt" font-family="courier" fill="rgb(0,0,0)" font-size="8.928571428571429px" stroke-miterlimit="10.0" stroke-width="0.5747670335511101" fill-opacity="1.0" stroke-opacity="1.0" stroke-linejoin="miter" stroke="rgb(0,0,0)" font-weight="300"><text transform="matrix(1.0000,0.0000,0.0000,1.0000,57.1429,132.1429)" dominant-baseline="middle" text-anchor="middle" stroke="none">yes</text></g><g stroke-linecap="butt" fill="rgb(0,0,0)" stroke-miterlimit="10.0" stroke-width="0.5747670335511101" fill-opacity="0.0" stroke-opacity="1.0" stroke-linejoin="miter" stroke="rgb(0,0,0)"><path d="M 71.4286,17.8571 h 0.0000 "/></g><g stroke-linecap="butt" fill="rgb(0,0,0)" stroke-miterlimit="10.0" stroke-width="0.5747670335511101" fill-opacity="0.0" stroke-opacity="1.0" stroke-linejoin="miter" stroke="rgb(0,0,0)"><path d="M 71.4286,107.1429 v -89.2857 "/></g><g stroke-linecap="butt" fill="rgb(0,0,0)" stroke-miterlimit="10.0" stroke-width="0.5747670335511101" fill-opacity="0.0" stroke-opacity="1.0" stroke-linejoin="miter" stroke="rgb(0,0,0)"><path d="M 8.9286,125.0000 l -8.9286,-17.8571 l 8.9286,-17.8571 h 125.0000 l 8.9286,17.8571 l -8.9286,17.8571 h -125.0000 "/></g><g stroke-linecap="butt" fill="rgb(255,0,0)" stroke-miterlimit="10.0" stroke-width="0.0" fill-opacity="1.0" stroke-opacity="1.0" stroke-linejoin="miter" stroke="rgb(0,0,0)"><path d="M 74.2857,107.1429 c 0.0000,-1.5780 -1.2792,-2.8571 -2.8571 -2.8571c -1.5780,-0.0000 -2.8571,1.2792 -2.8571 2.8571c -0.0000,1.5780 1.2792,2.8571 2.8571 2.8571c 1.5780,0.0000 2.8571,-1.2792 2.8571 -2.8571Z"/></g><g stroke-linecap="butt" font-family="courier" fill="rgb(0,0,0)" font-size="8.928571428571429px" stroke-miterlimit="10.0" stroke-width="0.5747670335511101" fill-opacity="1.0" stroke-opacity="1.0" stroke-linejoin="miter" stroke="rgb(0,0,0)" font-weight="300"><text transform="matrix(1.0000,0.0000,0.0000,1.0000,71.4286,107.1429)" dominant-baseline="middle" text-anchor="middle" stroke="none">x0.0y-1.0</text></g><g stroke-linecap="butt" fill="rgb(0,0,0)" stroke-miterlimit="10.0" stroke-width="0.5747670335511101" fill-opacity="0.0" stroke-opacity="1.0" stroke-linejoin="miter" stroke="rgb(0,0,0)"><path d="M 142.8571,17.8571 h 0.0000 c 0.0000,-9.8622 -7.9949,-17.8571 -17.8571 -17.8571h -107.1429 c -9.8622,-0.0000 -17.8571,7.9949 -17.8571 17.8571h 0.0000 c -0.0000,9.8622 7.9949,17.8571 17.8571 17.8571h 107.1429 c 9.8622,0.0000 17.8571,-7.9949 17.8571 -17.8571Z"/></g><g stroke-linecap="butt" fill="rgb(255,0,0)" stroke-miterlimit="10.0" stroke-width="0.0" fill-opacity="1.0" stroke-opacity="1.0" stroke-linejoin="miter" stroke="rgb(0,0,0)"><path d="M 74.2857,17.8571 c 0.0000,-1.5780 -1.2792,-2.8571 -2.8571 -2.8571c -1.5780,-0.0000 -2.8571,1.2792 -2.8571 2.8571c -0.0000,1.5780 1.2792,2.8571 2.8571 2.8571c 1.5780,0.0000 2.8571,-1.2792 2.8571 -2.8571Z"/></g><g stroke-linecap="butt" font-family="courier" fill="rgb(0,0,0)" font-size="8.928571428571429px" stroke-miterlimit="10.0" stroke-width="0.5747670335511101" fill-opacity="1.0" stroke-opacity="1.0" stroke-linejoin="miter" stroke="rgb(0,0,0)" font-weight="300"><text transform="matrix(1.0000,0.0000,0.0000,1.0000,71.4286,17.8571)" dominant-baseline="middle" text-anchor="middle" stroke="none">x0.0y0.0: start</text></g></svg>