<?xml version="1.0" encoding="UTF-8"?>
<!DOCTYPE svg PUBLIC "-//W3C//DTD SVG 1.1//EN"
    "http://www.w3.org/Graphics/SVG/1.1/DTD/svg11.dtd"><svg xmlns="http://www.w3.org/2000/svg" viewBox="0.0 0.0 400.0 1852.631578947368" height="1852.6316" font-size="1" stroke-opacity="1" width="400.0000" xmlns:xlink="http://www.w3.org/1999/xlink" stroke="rgb(0,0,0)" version="1.1"><defs></defs><g stroke-linecap="butt" fill="rgb(0,0,0)" stroke-miterlimit="10.0" stroke-width="0.8608441389583524" fill-opacity="0.0" stroke-opacity="1.0" stroke-linejoin="miter" stroke="rgb(0,0,0)"><path d="M 400.0000,1768.4211 h 0.0000 c 0.0000,-46.5082 -37.7023,-84.2105 -84.2105 -84.2105h -231.5789 c -46.5082,-0.0000 -84.2105,37.7023 -84.2105 84.2105h 0.0000 c -0.0000,46.5082 37.7023,84.2105 84.2105 84.2105h 231.5789 c 46.5082,0.0000 84.2105,-37.7023 84.2105 -84.2105Z"/></g><g stroke-linecap="butt" fill="rgb(255,0,0)" stroke-miterlimit="10.0" stroke-width="0.0" fill-opacity="1.0" stroke-opacity="1.0" stroke-linejoin="miter" stroke="rgb(0,0,0)"><path d="M 208.0000,1768.4211 c 0.0000,-4.4183 -3.5817,-8.0000 -8.0000 -8.0000c -4.4183,-0.0000 -8.0000,3.5817 -8.0000 8.0000c -0.0000,4.4183 3.5817,8.0000 8.0000 8.0000c 4.4183,0.0000 8.0000,-3.5817 8.0000 -8.0000Z"/></g><g stroke-linecap="butt" font-family="courier" fill="rgb(0,0,0)" font-size="42.10526315789473px" stroke-miterlimit="10.0" stroke-width="0.8608441389583524" fill-opacity="1.0" stroke-opacity="1.0" stroke-linejoin="miter" stroke="rgb(0,0,0)" font-weight="100"><text transform="matrix(1.0000,0.0000,0.0000,1.0000,200.0000,1768.4211)" dominant-baseline="middle" text-anchor="middle" stroke="none">end</text></g><g stroke-linecap="butt" fill="rgb(0,0,0)" stroke-miterlimit="10.0" stroke-width="0.8608441389583524" fill-opacity="0.0" stroke-opacity="1.0" stroke-linejoin="miter" stroke="rgb(0,0,0)"><path d="M 400.0000,1431.5789 l -0.0000,-168.4211 h -400.0000 l -0.0000,168.4211 Z"/></g><g stroke-linecap="butt" fill="rgb(255,0,0)" stroke-miterlimit="10.0" stroke-width="0.0" fill-opacity="1.0" stroke-opacity="1.0" stroke-linejoin="miter" stroke="rgb(0,0,0)"><path d="M 208.0000,1347.3684 c 0.0000,-4.4183 -3.5817,-8.0000 -8.0000 -8.0000c -4.4183,-0.0000 -8.0000,3.5817 -8.0000 8.0000c -0.0000,4.4183 3.5817,8.0000 8.0000 8.0000c 4.4183,0.0000 8.0000,-3.5817 8.0000 -8.0000Z"/></g><g stroke-linecap="butt" fill="rgb(0,0,0)" stroke-miterlimit="10.0" stroke-width="0.8608441389583524" fill-opacity="0.0" stroke-opacity="1.0" stroke-linejoin="miter" stroke="rgb(0,0,0)"><path d="M 400.0000,1010.5263 l -0.0000,-168.4211 h -400.0000 l -0.0000,168.4211 Z"/></g><g stroke-linecap="butt" fill="rgb(255,0,0)" stroke-miterlimit="10.0" stroke-width="0.0" fill-opacity="1.0" stroke-opacity="1.0" stroke-linejoin="miter" stroke="rgb(0,0,0)"><path d="M 208.0000,926.3158 c 0.0000,-4.4183 -3.5817,-8.0000 -8.0000 -8.0000c -4.4183,-0.0000 -8.0000,3.5817 -8.0000 8.0000c -0.0000,4.4183 3.5817,8.0000 8.0000 8.0000c 4.4183,0.0000 8.0000,-3.5817 8.0000 -8.0000Z"/></g><g stroke-linecap="butt" fill="rgb(0,0,0)" stroke-miterlimit="10.0" stroke-width="0.8608441389583524" fill-opacity="0.0" stroke-opacity="1.0" stroke-linejoin="miter" stroke="rgb(0,0,0)"><path d="M 400.0000,589.4737 l -0.0000,-168.4211 h -400.0000 l -0.0000,168.4211 Z"/></g><g stroke-linecap="butt" fill="rgb(255,0,0)" stroke-miterlimit="10.0" stroke-width="0.0" fill-opacity="1.0" stroke-opacity="1.0" stroke-linejoin="miter" stroke="rgb(0,0,0)"><path d="M 208.0000,505.2632 c 0.0000,-4.4183 -3.5817,-8.0000 -8.0000 -8.0000c -4.4183,-0.0000 -8.0000,3.5817 -8.0000 8.0000c -0.0000,4.4183 3.5817,8.0000 8.0000 8.0000c 4.4183,0.0000 8.0000,-3.5817 8.0000 -8.0000Z"/></g><g stroke-linecap="butt" fill="rgb(0,0,0)" stroke-miterlimit="10.0" stroke-width="0.8608441389583524" fill-opacity="0.0" stroke-opacity="1.0" stroke-linejoin="miter" stroke="rgb(0,0,0)"><path d="M 400.0000,84.2105 h 0.0000 c 0.0000,-46.5082 -37.7023,-84.2105 -84.2105 -84.2105h -231.5789 c -46.5082,-0.0000 -84.2105,37.7023 -84.2105 84.2105h 0.0000 c -0.0000,46.5082 37.7023,84.2105 84.2105 84.2105h 231.5789 c 46.5082,0.0000 84.2105,-37.7023 84.2105 -84.2105Z"/></g><g stroke-linecap="butt" fill="rgb(255,0,0)" stroke-miterlimit="10.0" stroke-width="0.0" fill-opacity="1.0" stroke-opacity="1.0" stroke-linejoin="miter" stroke="rgb(0,0,0)"><path d="M 208.0000,84.2105 c 0.0000,-4.4183 -3.5817,-8.0000 -8.0000 -8.0000c -4.4183,-0.0000 -8.0000,3.5817 -8.0000 8.0000c -0.0000,4.4183 3.5817,8.0000 8.0000 8.0000c 4.4183,0.0000 8.0000,-3.5817 8.0000 -8.0000Z"/></g><g stroke-linecap="butt" font-family="courier" fill="rgb(0,0,0)" font-size="42.10526315789473px" stroke-miterlimit="10.0" stroke-width="0.8608441389583524" fill-opacity="1.0" stroke-opacity="1.0" stroke-linejoin="miter" stroke="rgb(0,0,0)" font-weight="300"><text transform="matrix(1.0000,0.0000,0.0000,1.0000,200.0000,84.2105)" dominant-baseline="middle" text-anchor="middle" stroke="none">start</text></g><g stroke-linecap="butt" fill="rgb(0,0,0)" stroke-miterlimit="10.0" stroke-width="0.8608441389583524" fill-opacity="0.0" stroke-opacity="1.0" stroke-linejoin="miter" stroke="rgb(0,0,0)"><path d="M 200.0000,1431.5789 l 0.0000,222.5020 "/></g><g stroke-linecap="butt" fill="rgb(0,0,0)" stroke-miterlimit="10.0" stroke-width="0.0" fill-opacity="1.0" stroke-opacity="1.0" stroke-linejoin="miter" stroke="rgb(0,0,0)"></g><g stroke-linecap="butt" fill="rgb(0,0,0)" stroke-miterlimit="10.0" stroke-width="0.0" fill-opacity="1.0" stroke-opacity="1.0" stroke-linejoin="miter" stroke="rgb(0,0,0)"></g><g stroke-linecap="butt" fill="rgb(0,0,0)" stroke-miterlimit="10.0" stroke-width="0.0" fill-opacity="1.0" stroke-opacity="1.0" stroke-linejoin="miter" stroke="rgb(0,0,0)"><path d="M 200.0000,1684.2105 l 11.7178,-36.0637 l -11.7178,6.1604 l -11.7178,-6.1604 Z"/></g><g stroke-linecap="butt" fill="rgb(0,0,0)" stroke-miterlimit="10.0" stroke-width="0.0" fill-opacity="1.0" stroke-opacity="1.0" stroke-linejoin="miter" stroke="rgb(0,0,0)"><path d="M 200.0000,1654.3073 l -0.0000,-0.2263 l 0.4304,-0.0000 l -0.4304,0.2263 l -0.0000,-0.2263 l -0.4304,0.0000 Z"/></g><g stroke-linecap="butt" fill="rgb(0,0,0)" stroke-miterlimit="10.0" stroke-width="0.8608441389583524" fill-opacity="0.0" stroke-opacity="1.0" stroke-linejoin="miter" stroke="rgb(0,0,0)"><path d="M 200.0000,1010.5263 l 0.0000,222.5020 "/></g><g stroke-linecap="butt" fill="rgb(0,0,0)" stroke-miterlimit="10.0" stroke-width="0.0" fill-opacity="1.0" stroke-opacity="1.0" stroke-linejoin="miter" stroke="rgb(0,0,0)"></g><g stroke-linecap="butt" fill="rgb(0,0,0)" stroke-miterlimit="10.0" stroke-width="0.0" fill-opacity="1.0" stroke-opacity="1.0" stroke-linejoin="miter" stroke="rgb(0,0,0)"></g><g stroke-linecap="butt" fill="rgb(0,0,0)" stroke-miterlimit="10.0" stroke-width="0.0" fill-opacity="1.0" stroke-opacity="1.0" stroke-linejoin="miter" stroke="rgb(0,0,0)"><path d="M 200.0000,1263.1579 l 11.7178,-36.0637 l -11.7178,6.1604 l -11.7178,-6.1604 Z"/></g><g stroke-linecap="butt" fill="rgb(0,0,0)" stroke-miterlimit="10.0" stroke-width="0.0" fill-opacity="1.0" stroke-opacity="1.0" stroke-linejoin="miter" stroke="rgb(0,0,0)"><path d="M 200.0000,1233.2546 l -0.0000,-0.2263 l 0.4304,-0.0000 l -0.4304,0.2263 l -0.0000,-0.2263 l -0.4304,0.0000 Z"/></g><g stroke-linecap="butt" fill="rgb(0,0,0)" stroke-miterlimit="10.0" stroke-width="0.8608441389583524" fill-opacity="0.0" stroke-opacity="1.0" stroke-linejoin="miter" stroke="rgb(0,0,0)"><path d="M 200.0000,589.4737 l 0.0000,222.5020 "/></g><g stroke-linecap="butt" fill="rgb(0,0,0)" stroke-miterlimit="10.0" stroke-width="0.0" fill-opacity="1.0" stroke-opacity="1.0" stroke-linejoin="miter" stroke="rgb(0,0,0)"></g><g stroke-linecap="butt" fill="rgb(0,0,0)" stroke-miterlimit="10.0" stroke-width="0.0" fill-opacity="1.0" stroke-opacity="1.0" stroke-linejoin="miter" stroke="rgb(0,0,0)"></g><g stroke-linecap="butt" fill="rgb(0,0,0)" stroke-miterlimit="10.0" stroke-width="0.0" fill-opacity="1.0" stroke-opacity="1.0" stroke-linejoin="miter" stroke="rgb(0,0,0)"><path d="M 200.0000,842.1053 l 11.7178,-36.0637 l -11.7178,6.1604 l -11.7178,-6.1604 Z"/></g><g stroke-linecap="butt" fill="rgb(0,0,0)" stroke-miterlimit="10.0" stroke-width="0.0" fill-opacity="1.0" stroke-opacity="1.0" stroke-linejoin="miter" stroke="rgb(0,0,0)"><path d="M 200.0000,812.2020 l -0.0000,-0.2263 l 0.4304,-0.0000 l -0.4304,0.2263 l -0.0000,-0.2263 l -0.4304,0.0000 Z"/></g><g stroke-linecap="butt" fill="rgb(0,0,0)" stroke-miterlimit="10.0" stroke-width="0.8608441389583524" fill-opacity="0.0" stroke-opacity="1.0" stroke-linejoin="miter" stroke="rgb(0,0,0)"><path d="M 200.0000,168.4211 l 0.0000,222.5020 "/></g><g stroke-linecap="butt" fill="rgb(0,0,0)" stroke-miterlimit="10.0" stroke-width="0.0" fill-opacity="1.0" stroke-opacity="1.0" stroke-linejoin="miter" stroke="rgb(0,0,0)"></g><g stroke-linecap="butt" fill="rgb(0,0,0)" stroke-miterlimit="10.0" stroke-width="0.0" fill-opacity="1.0" stroke-opacity="1.0" stroke-linejoin="miter" stroke="rgb(0,0,0)"></g><g stroke-linecap="butt" fill="rgb(0,0,0)" stroke-miterlimit="10.0" stroke-width="0.0" fill-opacity="1.0" stroke-opacity="1.0" stroke-linejoin="miter" stroke="rgb(0,0,0)"><path d="M 200.0000,421.0526 l 11.7178,-36.0637 l -11.7178,6.1604 l -11.7178,-6.1604 Z"/></g><g stroke-linecap="butt" fill="rgb(0,0,0)" stroke-miterlimit="10.0" stroke-width="0.0" fill-opacity="1.0" stroke-opacity="1.0" stroke-linejoin="miter" stroke="rgb(0,0,0)"><path d="M 200.0000,391.1494 l -0.0000,-0.2263 l 0.4304,-0.0000 l -0.4304,0.2263 l -0.0000,-0.2263 l -0.4304,0.0000 Z"/></g></svg>