<?xml version="1.0" encoding="UTF-8"?>
<!DOCTYPE svg PUBLIC "-//W3C//DTD SVG 1.1//EN"
    "http://www.w3.org/Graphics/SVG/1.1/DTD/svg11.dtd"><svg xmlns="http://www.w3.org/2000/svg" viewBox="0.0 0.0 1500.0 1065.7894736842106" height="1065.7895" font-size="1" stroke-opacity="1" width="1500.0000" xmlns:xlink="http://www.w3.org/1999/xlink" stroke="rgb(0,0,0)" version="1.1"><defs></defs><g stroke-linecap="butt" fill="rgb(0,0,0)" stroke-miterlimit="10.0" stroke-width="1.264390845635287" fill-opacity="0.0" stroke-opacity="1.0" stroke-linejoin="miter" stroke="rgb(0,0,0)"><path d="M 1500.0000,631.5789 h 0.0000 c 0.0000,-21.8007 -17.6730,-39.4737 -39.4737 -39.4737h -236.8421 c -21.8007,-0.0000 -39.4737,17.6730 -39.4737 39.4737h 0.0000 c -0.0000,21.8007 17.6730,39.4737 39.4737 39.4737h 236.8421 c 21.8007,0.0000 39.4737,-17.6730 39.4737 -39.4737Z"/></g><g stroke-linecap="butt" font-family="courier" fill="rgb(0,0,0)" font-size="9.86842105263158px" stroke-miterlimit="10.0" stroke-width="1.264390845635287" fill-opacity="1.0" stroke-opacity="1.0" stroke-linejoin="miter" stroke="rgb(0,0,0)" font-weight="300"><text transform="matrix(1.0000,0.0000,0.0000,1.0000,1342.1053,631.5789)" dominant-baseline="middle" text-anchor="middle" stroke="none">end 4 | rendering order: 12 | max width: 6.0</text></g><g stroke-linecap="butt" fill="rgb(255,0,0)" stroke-miterlimit="10.0" stroke-width="0.0" fill-opacity="1.0" stroke-opacity="1.0" stroke-linejoin="miter" stroke="rgb(0,0,0)"><path d="M 1348.4211,631.5789 c 0.0000,-3.4881 -2.8277,-6.3158 -6.3158 -6.3158c -3.4881,-0.0000 -6.3158,2.8277 -6.3158 6.3158c -0.0000,3.4881 2.8277,6.3158 6.3158 6.3158c 3.4881,0.0000 6.3158,-2.8277 6.3158 -6.3158Z"/></g><g stroke-linecap="butt" fill="rgb(0,0,0)" stroke-miterlimit="10.0" stroke-width="1.264390845635287" fill-opacity="0.0" stroke-opacity="1.0" stroke-linejoin="miter" stroke="rgb(0,0,0)"><path d="M 1105.2632,828.9474 h 0.0000 c 0.0000,-21.8007 -17.6730,-39.4737 -39.4737 -39.4737h -236.8421 c -21.8007,-0.0000 -39.4737,17.6730 -39.4737 39.4737h 0.0000 c -0.0000,21.8007 17.6730,39.4737 39.4737 39.4737h 236.8421 c 21.8007,0.0000 39.4737,-17.6730 39.4737 -39.4737Z"/></g><g stroke-linecap="butt" font-family="courier" fill="rgb(0,0,0)" font-size="9.86842105263158px" stroke-miterlimit="10.0" stroke-width="1.264390845635287" fill-opacity="1.0" stroke-opacity="1.0" stroke-linejoin="miter" stroke="rgb(0,0,0)" font-weight="300"><text transform="matrix(1.0000,0.0000,0.0000,1.0000,947.3684,828.9474)" dominant-baseline="middle" text-anchor="middle" stroke="none">end 3 | rendering order: 11 | max width: 4.0</text></g><g stroke-linecap="butt" fill="rgb(255,0,0)" stroke-miterlimit="10.0" stroke-width="0.0" fill-opacity="1.0" stroke-opacity="1.0" stroke-linejoin="miter" stroke="rgb(0,0,0)"><path d="M 953.6842,828.9474 c 0.0000,-3.4881 -2.8277,-6.3158 -6.3158 -6.3158c -3.4881,-0.0000 -6.3158,2.8277 -6.3158 6.3158c -0.0000,3.4881 2.8277,6.3158 6.3158 6.3158c 3.4881,0.0000 6.3158,-2.8277 6.3158 -6.3158Z"/></g><g stroke-linecap="butt" fill="rgb(0,0,0)" stroke-miterlimit="10.0" stroke-width="1.264390845635287" fill-opacity="0.0" stroke-opacity="1.0" stroke-linejoin="miter" stroke="rgb(0,0,0)"><path d="M 1105.2632,631.5789 h 0.0000 c 0.0000,-21.8007 -17.6730,-39.4737 -39.4737 -39.4737h -236.8421 c -21.8007,-0.0000 -39.4737,17.6730 -39.4737 39.4737h 0.0000 c -0.0000,21.8007 17.6730,39.4737 39.4737 39.4737h 236.8421 c 21.8007,0.0000 39.4737,-17.6730 39.4737 -39.4737Z"/></g><g stroke-linecap="butt" font-family="courier" fill="rgb(0,0,0)" font-size="9.86842105263158px" stroke-miterlimit="10.0" stroke-width="1.264390845635287" fill-opacity="1.0" stroke-opacity="1.0" stroke-linejoin="miter" stroke="rgb(0,0,0)" font-weight="300"><text transform="matrix(1.0000,0.0000,0.0000,1.0000,947.3684,631.5789)" dominant-baseline="middle" text-anchor="middle" stroke="none">action 4 | rendering order: 10 | max width: 4.0</text></g><g stroke-linecap="butt" fill="rgb(255,0,0)" stroke-miterlimit="10.0" stroke-width="0.0" fill-opacity="1.0" stroke-opacity="1.0" stroke-linejoin="miter" stroke="rgb(0,0,0)"><path d="M 953.6842,631.5789 c 0.0000,-3.4881 -2.8277,-6.3158 -6.3158 -6.3158c -3.4881,-0.0000 -6.3158,2.8277 -6.3158 6.3158c -0.0000,3.4881 2.8277,6.3158 6.3158 6.3158c 3.4881,0.0000 6.3158,-2.8277 6.3158 -6.3158Z"/></g><g stroke-linecap="butt" fill="rgb(0,0,0)" stroke-miterlimit="10.0" stroke-width="1.264390845635287" fill-opacity="0.0" stroke-opacity="1.0" stroke-linejoin="miter" stroke="rgb(0,0,0)"><path d="M 1105.2632,434.2105 h 0.0000 c 0.0000,-21.8007 -17.6730,-39.4737 -39.4737 -39.4737h -236.8421 c -21.8007,-0.0000 -39.4737,17.6730 -39.4737 39.4737h 0.0000 c -0.0000,21.8007 17.6730,39.4737 39.4737 39.4737h 236.8421 c 21.8007,0.0000 39.4737,-17.6730 39.4737 -39.4737Z"/></g><g stroke-linecap="butt" font-family="courier" fill="rgb(0,0,0)" font-size="9.86842105263158px" stroke-miterlimit="10.0" stroke-width="1.264390845635287" fill-opacity="1.0" stroke-opacity="1.0" stroke-linejoin="miter" stroke="rgb(0,0,0)" font-weight="300"><text transform="matrix(1.0000,0.0000,0.0000,1.0000,947.3684,434.2105)" dominant-baseline="middle" text-anchor="middle" stroke="none">decision 3 | rendering order: 9 | max width: 4.0</text></g><g stroke-linecap="butt" fill="rgb(255,0,0)" stroke-miterlimit="10.0" stroke-width="0.0" fill-opacity="1.0" stroke-opacity="1.0" stroke-linejoin="miter" stroke="rgb(0,0,0)"><path d="M 953.6842,434.2105 c 0.0000,-3.4881 -2.8277,-6.3158 -6.3158 -6.3158c -3.4881,-0.0000 -6.3158,2.8277 -6.3158 6.3158c -0.0000,3.4881 2.8277,6.3158 6.3158 6.3158c 3.4881,0.0000 6.3158,-2.8277 6.3158 -6.3158Z"/></g><g stroke-linecap="butt" fill="rgb(0,0,0)" stroke-miterlimit="10.0" stroke-width="1.264390845635287" fill-opacity="0.0" stroke-opacity="1.0" stroke-linejoin="miter" stroke="rgb(0,0,0)"><path d="M 710.5263,1026.3158 h 0.0000 c 0.0000,-21.8007 -17.6730,-39.4737 -39.4737 -39.4737h -236.8421 c -21.8007,-0.0000 -39.4737,17.6730 -39.4737 39.4737h 0.0000 c -0.0000,21.8007 17.6730,39.4737 39.4737 39.4737h 236.8421 c 21.8007,0.0000 39.4737,-17.6730 39.4737 -39.4737Z"/></g><g stroke-linecap="butt" font-family="courier" fill="rgb(0,0,0)" font-size="9.86842105263158px" stroke-miterlimit="10.0" stroke-width="1.264390845635287" fill-opacity="1.0" stroke-opacity="1.0" stroke-linejoin="miter" stroke="rgb(0,0,0)" font-weight="300"><text transform="matrix(1.0000,0.0000,0.0000,1.0000,552.6316,1026.3158)" dominant-baseline="middle" text-anchor="middle" stroke="none">end 2 | rendering order: 8 | max width: 2.0</text></g><g stroke-linecap="butt" fill="rgb(255,0,0)" stroke-miterlimit="10.0" stroke-width="0.0" fill-opacity="1.0" stroke-opacity="1.0" stroke-linejoin="miter" stroke="rgb(0,0,0)"><path d="M 558.9474,1026.3158 c 0.0000,-3.4881 -2.8277,-6.3158 -6.3158 -6.3158c -3.4881,-0.0000 -6.3158,2.8277 -6.3158 6.3158c -0.0000,3.4881 2.8277,6.3158 6.3158 6.3158c 3.4881,0.0000 6.3158,-2.8277 6.3158 -6.3158Z"/></g><g stroke-linecap="butt" fill="rgb(0,0,0)" stroke-miterlimit="10.0" stroke-width="1.264390845635287" fill-opacity="0.0" stroke-opacity="1.0" stroke-linejoin="miter" stroke="rgb(0,0,0)"><path d="M 710.5263,828.9474 h 0.0000 c 0.0000,-21.8007 -17.6730,-39.4737 -39.4737 -39.4737h -236.8421 c -21.8007,-0.0000 -39.4737,17.6730 -39.4737 39.4737h 0.0000 c -0.0000,21.8007 17.6730,39.4737 39.4737 39.4737h 236.8421 c 21.8007,0.0000 39.4737,-17.6730 39.4737 -39.4737Z"/></g><g stroke-linecap="butt" font-family="courier" fill="rgb(0,0,0)" font-size="9.86842105263158px" stroke-miterlimit="10.0" stroke-width="1.264390845635287" fill-opacity="1.0" stroke-opacity="1.0" stroke-linejoin="miter" stroke="rgb(0,0,0)" font-weight="300"><text transform="matrix(1.0000,0.0000,0.0000,1.0000,552.6316,828.9474)" dominant-baseline="middle" text-anchor="middle" stroke="none">action 3 | rendering order: 7 | max width: 2.0</text></g><g stroke-linecap="butt" fill="rgb(255,0,0)" stroke-miterlimit="10.0" stroke-width="0.0" fill-opacity="1.0" stroke-opacity="1.0" stroke-linejoin="miter" stroke="rgb(0,0,0)"><path d="M 558.9474,828.9474 c 0.0000,-3.4881 -2.8277,-6.3158 -6.3158 -6.3158c -3.4881,-0.0000 -6.3158,2.8277 -6.3158 6.3158c -0.0000,3.4881 2.8277,6.3158 6.3158 6.3158c 3.4881,0.0000 6.3158,-2.8277 6.3158 -6.3158Z"/></g><g stroke-linecap="butt" fill="rgb(0,0,0)" stroke-miterlimit="10.0" stroke-width="1.264390845635287" fill-opacity="0.0" stroke-opacity="1.0" stroke-linejoin="miter" stroke="rgb(0,0,0)"><path d="M 315.7895,1026.3158 h 0.0000 c 0.0000,-21.8007 -17.6730,-39.4737 -39.4737 -39.4737h -236.8421 c -21.8007,-0.0000 -39.4737,17.6730 -39.4737 39.4737h 0.0000 c -0.0000,21.8007 17.6730,39.4737 39.4737 39.4737h 236.8421 c 21.8007,0.0000 39.4737,-17.6730 39.4737 -39.4737Z"/></g><g stroke-linecap="butt" font-family="courier" fill="rgb(0,0,0)" font-size="9.86842105263158px" stroke-miterlimit="10.0" stroke-width="1.264390845635287" fill-opacity="1.0" stroke-opacity="1.0" stroke-linejoin="miter" stroke="rgb(0,0,0)" font-weight="300"><text transform="matrix(1.0000,0.0000,0.0000,1.0000,157.8947,1026.3158)" dominant-baseline="middle" text-anchor="middle" stroke="none">end 1 | rendering order: 6 | max width: 0.0</text></g><g stroke-linecap="butt" fill="rgb(255,0,0)" stroke-miterlimit="10.0" stroke-width="0.0" fill-opacity="1.0" stroke-opacity="1.0" stroke-linejoin="miter" stroke="rgb(0,0,0)"><path d="M 164.2105,1026.3158 c 0.0000,-3.4881 -2.8277,-6.3158 -6.3158 -6.3158c -3.4881,-0.0000 -6.3158,2.8277 -6.3158 6.3158c -0.0000,3.4881 2.8277,6.3158 6.3158 6.3158c 3.4881,0.0000 6.3158,-2.8277 6.3158 -6.3158Z"/></g><g stroke-linecap="butt" fill="rgb(0,0,0)" stroke-miterlimit="10.0" stroke-width="1.264390845635287" fill-opacity="0.0" stroke-opacity="1.0" stroke-linejoin="miter" stroke="rgb(0,0,0)"><path d="M 315.7895,828.9474 h 0.0000 c 0.0000,-21.8007 -17.6730,-39.4737 -39.4737 -39.4737h -236.8421 c -21.8007,-0.0000 -39.4737,17.6730 -39.4737 39.4737h 0.0000 c -0.0000,21.8007 17.6730,39.4737 39.4737 39.4737h 236.8421 c 21.8007,0.0000 39.4737,-17.6730 39.4737 -39.4737Z"/></g><g stroke-linecap="butt" font-family="courier" fill="rgb(0,0,0)" font-size="9.86842105263158px" stroke-miterlimit="10.0" stroke-width="1.264390845635287" fill-opacity="1.0" stroke-opacity="1.0" stroke-linejoin="miter" stroke="rgb(0,0,0)" font-weight="300"><text transform="matrix(1.0000,0.0000,0.0000,1.0000,157.8947,828.9474)" dominant-baseline="middle" text-anchor="middle" stroke="none">action 2 | rendering order: 5 | max width: 0.0</text></g><g stroke-linecap="butt" fill="rgb(255,0,0)" stroke-miterlimit="10.0" stroke-width="0.0" fill-opacity="1.0" stroke-opacity="1.0" stroke-linejoin="miter" stroke="rgb(0,0,0)"><path d="M 164.2105,828.9474 c 0.0000,-3.4881 -2.8277,-6.3158 -6.3158 -6.3158c -3.4881,-0.0000 -6.3158,2.8277 -6.3158 6.3158c -0.0000,3.4881 2.8277,6.3158 6.3158 6.3158c 3.4881,0.0000 6.3158,-2.8277 6.3158 -6.3158Z"/></g><g stroke-linecap="butt" fill="rgb(0,0,0)" stroke-miterlimit="10.0" stroke-width="1.264390845635287" fill-opacity="0.0" stroke-opacity="1.0" stroke-linejoin="miter" stroke="rgb(0,0,0)"><path d="M 315.7895,631.5789 h 0.0000 c 0.0000,-21.8007 -17.6730,-39.4737 -39.4737 -39.4737h -236.8421 c -21.8007,-0.0000 -39.4737,17.6730 -39.4737 39.4737h 0.0000 c -0.0000,21.8007 17.6730,39.4737 39.4737 39.4737h 236.8421 c 21.8007,0.0000 39.4737,-17.6730 39.4737 -39.4737Z"/></g><g stroke-linecap="butt" font-family="courier" fill="rgb(0,0,0)" font-size="9.86842105263158px" stroke-miterlimit="10.0" stroke-width="1.264390845635287" fill-opacity="1.0" stroke-opacity="1.0" stroke-linejoin="miter" stroke="rgb(0,0,0)" font-weight="300"><text transform="matrix(1.0000,0.0000,0.0000,1.0000,157.8947,631.5789)" dominant-baseline="middle" text-anchor="middle" stroke="none">decision 2 | rendering order: 4 | max width: 0.0</text></g><g stroke-linecap="butt" fill="rgb(255,0,0)" stroke-miterlimit="10.0" stroke-width="0.0" fill-opacity="1.0" stroke-opacity="1.0" stroke-linejoin="miter" stroke="rgb(0,0,0)"><path d="M 164.2105,631.5789 c 0.0000,-3.4881 -2.8277,-6.3158 -6.3158 -6.3158c -3.4881,-0.0000 -6.3158,2.8277 -6.3158 6.3158c -0.0000,3.4881 2.8277,6.3158 6.3158 6.3158c 3.4881,0.0000 6.3158,-2.8277 6.3158 -6.3158Z"/></g><g stroke-linecap="butt" fill="rgb(0,0,0)" stroke-miterlimit="10.0" stroke-width="1.264390845635287" fill-opacity="0.0" stroke-opacity="1.0" stroke-linejoin="miter" stroke="rgb(0,0,0)"><path d="M 315.7895,434.2105 h 0.0000 c 0.0000,-21.8007 -17.6730,-39.4737 -39.4737 -39.4737h -236.8421 c -21.8007,-0.0000 -39.4737,17.6730 -39.4737 39.4737h 0.0000 c -0.0000,21.8007 17.6730,39.4737 39.4737 39.4737h 236.8421 c 21.8007,0.0000 39.4737,-17.6730 39.4737 -39.4737Z"/></g><g stroke-linecap="butt" font-family="courier" fill="rgb(0,0,0)" font-size="9.86842105263158px" stroke-miterlimit="10.0" stroke-width="1.264390845635287" fill-opacity="1.0" stroke-opacity="1.0" stroke-linejoin="miter" stroke="rgb(0,0,0)" font-weight="300"><text transform="matrix(1.0000,0.0000,0.0000,1.0000,157.8947,434.2105)" dominant-baseline="middle" text-anchor="middle" stroke="none">action 1 | rendering order: 3 | max width: 0.0</text></g><g stroke-linecap="butt" fill="rgb(255,0,0)" stroke-miterlimit="10.0" stroke-width="0.0" fill-opacity="1.0" stroke-opacity="1.0" stroke-linejoin="miter" stroke="rgb(0,0,0)"><path d="M 164.2105,434.2105 c 0.0000,-3.4881 -2.8277,-6.3158 -6.3158 -6.3158c -3.4881,-0.0000 -6.3158,2.8277 -6.3158 6.3158c -0.0000,3.4881 2.8277,6.3158 6.3158 6.3158c 3.4881,0.0000 6.3158,-2.8277 6.3158 -6.3158Z"/></g><g stroke-linecap="butt" fill="rgb(0,0,0)" stroke-miterlimit="10.0" stroke-width="1.264390845635287" fill-opacity="0.0" stroke-opacity="1.0" stroke-linejoin="miter" stroke="rgb(0,0,0)"><path d="M 315.7895,236.8421 h 0.0000 c 0.0000,-21.8007 -17.6730,-39.4737 -39.4737 -39.4737h -236.8421 c -21.8007,-0.0000 -39.4737,17.6730 -39.4737 39.4737h 0.0000 c -0.0000,21.8007 17.6730,39.4737 39.4737 39.4737h 236.8421 c 21.8007,0.0000 39.4737,-17.6730 39.4737 -39.4737Z"/></g><g stroke-linecap="butt" font-family="courier" fill="rgb(0,0,0)" font-size="9.86842105263158px" stroke-miterlimit="10.0" stroke-width="1.264390845635287" fill-opacity="1.0" stroke-opacity="1.0" stroke-linejoin="miter" stroke="rgb(0,0,0)" font-weight="300"><text transform="matrix(1.0000,0.0000,0.0000,1.0000,157.8947,236.8421)" dominant-baseline="middle" text-anchor="middle" stroke="none">decision 1 | rendering order: 2 | max width: 0.0</text></g><g stroke-linecap="butt" fill="rgb(255,0,0)" stroke-miterlimit="10.0" stroke-width="0.0" fill-opacity="1.0" stroke-opacity="1.0" stroke-linejoin="miter" stroke="rgb(0,0,0)"><path d="M 164.2105,236.8421 c 0.0000,-3.4881 -2.8277,-6.3158 -6.3158 -6.3158c -3.4881,-0.0000 -6.3158,2.8277 -6.3158 6.3158c -0.0000,3.4881 2.8277,6.3158 6.3158 6.3158c 3.4881,0.0000 6.3158,-2.8277 6.3158 -6.3158Z"/></g><g stroke-linecap="butt" fill="rgb(0,0,0)" stroke-miterlimit="10.0" stroke-width="1.264390845635287" fill-opacity="0.0" stroke-opacity="1.0" stroke-linejoin="miter" stroke="rgb(0,0,0)"><path d="M 315.7895,39.4737 h 0.0000 c 0.0000,-21.8007 -17.6730,-39.4737 -39.4737 -39.4737h -236.8421 c -21.8007,-0.0000 -39.4737,17.6730 -39.4737 39.4737h 0.0000 c -0.0000,21.8007 17.6730,39.4737 39.4737 39.4737h 236.8421 c 21.8007,0.0000 39.4737,-17.6730 39.4737 -39.4737Z"/></g><g stroke-linecap="butt" font-family="courier" fill="rgb(0,0,0)" font-size="9.86842105263158px" stroke-miterlimit="10.0" stroke-width="1.264390845635287" fill-opacity="1.0" stroke-opacity="1.0" stroke-linejoin="miter" stroke="rgb(0,0,0)" font-weight="300"><text transform="matrix(1.0000,0.0000,0.0000,1.0000,157.8947,39.4737)" dominant-baseline="middle" text-anchor="middle" stroke="none">start | rendering order: 1 | max width: 0.0</text></g><g stroke-linecap="butt" fill="rgb(255,0,0)" stroke-miterlimit="10.0" stroke-width="0.0" fill-opacity="1.0" stroke-opacity="1.0" stroke-linejoin="miter" stroke="rgb(0,0,0)"><path d="M 164.2105,39.4737 c 0.0000,-3.4881 -2.8277,-6.3158 -6.3158 -6.3158c -3.4881,-0.0000 -6.3158,2.8277 -6.3158 6.3158c -0.0000,3.4881 2.8277,6.3158 6.3158 6.3158c 3.4881,0.0000 6.3158,-2.8277 6.3158 -6.3158Z"/></g></svg>