<?xml version="1.0" encoding="UTF-8"?>
<!DOCTYPE svg PUBLIC "-//W3C//DTD SVG 1.1//EN"
    "http://www.w3.org/Graphics/SVG/1.1/DTD/svg11.dtd"><svg xmlns="http://www.w3.org/2000/svg" viewBox="0.0 0.0 400.0 385.7142857142857" height="385.7143" font-size="1" stroke-opacity="1" width="400.0000" xmlns:xlink="http://www.w3.org/1999/xlink" stroke="rgb(0,0,0)" version="1.1"><defs></defs><g stroke-linecap="butt" fill="rgb(0,0,0)" stroke-miterlimit="10.0" stroke-width="0.5" fill-opacity="0.0" stroke-opacity="1.0" stroke-linejoin="miter" stroke="rgb(0,0,0)"><path d="M 400.0000,228.5714 h 0.0000 c 0.0000,-7.8898 -6.3959,-14.2857 -14.2857 -14.2857h -85.7143 c -7.8898,-0.0000 -14.2857,6.3959 -14.2857 14.2857h 0.0000 c -0.0000,7.8898 6.3959,14.2857 14.2857 14.2857h 85.7143 c 7.8898,0.0000 14.2857,-6.3959 14.2857 -14.2857Z"/></g><g stroke-linecap="butt" fill="rgb(255,0,0)" stroke-miterlimit="10.0" stroke-width="0.0" fill-opacity="1.0" stroke-opacity="1.0" stroke-linejoin="miter" stroke="rgb(0,0,0)"><path d="M 345.1429,228.5714 c 0.0000,-1.2624 -1.0233,-2.2857 -2.2857 -2.2857c -1.2624,-0.0000 -2.2857,1.0233 -2.2857 2.2857c -0.0000,1.2624 1.0233,2.2857 2.2857 2.2857c 1.2624,0.0000 2.2857,-1.0233 2.2857 -2.2857Z"/></g><g stroke-linecap="butt" font-family="courier" fill="rgb(0,0,0)" font-size="7.142857142857143px" stroke-miterlimit="10.0" stroke-width="0.5" fill-opacity="1.0" stroke-opacity="1.0" stroke-linejoin="miter" stroke="rgb(0,0,0)" font-weight="100"><text transform="matrix(1.0000,0.0000,0.0000,1.0000,342.8571,228.5714)" dominant-baseline="middle" text-anchor="middle" stroke="none">&quot;x4.0y-3.0&quot;: end</text></g><g stroke-linecap="butt" fill="rgb(0,0,0)" stroke-miterlimit="10.0" stroke-width="0.5" fill-opacity="0.0" stroke-opacity="1.0" stroke-linejoin="miter" stroke="rgb(0,0,0)"><path d="M 150.0000,171.4286 l -7.1429,-14.2857 l 7.1429,-14.2857 h 100.0000 l 7.1429,14.2857 h 85.7143 v 57.1429 v -57.1429 h -85.7143 l -7.1429,14.2857 h -50.0000 v 42.8571 v -42.8571 h -50.0000 "/></g><g stroke-linecap="butt" fill="rgb(255,0,0)" stroke-miterlimit="10.0" stroke-width="0.0" fill-opacity="1.0" stroke-opacity="1.0" stroke-linejoin="miter" stroke="rgb(0,0,0)"><path d="M 204.0000,157.1429 c 0.0000,-2.2091 -1.7909,-4.0000 -4.0000 -4.0000c -2.2091,-0.0000 -4.0000,1.7909 -4.0000 4.0000c -0.0000,2.2091 1.7909,4.0000 4.0000 4.0000c 2.2091,0.0000 4.0000,-1.7909 4.0000 -4.0000Z"/></g><g stroke-linecap="butt" font-family="courier" fill="rgb(0,0,0)" font-size="7.142857142857143px" stroke-miterlimit="10.0" stroke-width="0.5" fill-opacity="1.0" stroke-opacity="1.0" stroke-linejoin="miter" stroke="rgb(0,0,0)" font-weight="300"><text transform="matrix(1.0000,0.0000,0.0000,1.0000,200.0000,157.1429)" dominant-baseline="middle" text-anchor="middle" stroke="none">&quot;x2.0y-2.0&quot;</text></g><g stroke-linecap="butt" fill="rgb(0,0,0)" stroke-miterlimit="10.0" stroke-width="0.5" fill-opacity="0.0" stroke-opacity="1.0" stroke-linejoin="miter" stroke="rgb(0,0,0)"><path d="M 257.1429,300.0000 h 0.0000 c 0.0000,-7.8898 -6.3959,-14.2857 -14.2857 -14.2857h -85.7143 c -7.8898,-0.0000 -14.2857,6.3959 -14.2857 14.2857h 0.0000 c -0.0000,7.8898 6.3959,14.2857 14.2857 14.2857h 85.7143 c 7.8898,0.0000 14.2857,-6.3959 14.2857 -14.2857Z"/></g><g stroke-linecap="butt" fill="rgb(255,0,0)" stroke-miterlimit="10.0" stroke-width="0.0" fill-opacity="1.0" stroke-opacity="1.0" stroke-linejoin="miter" stroke="rgb(0,0,0)"><path d="M 202.2857,300.0000 c 0.0000,-1.2624 -1.0233,-2.2857 -2.2857 -2.2857c -1.2624,-0.0000 -2.2857,1.0233 -2.2857 2.2857c -0.0000,1.2624 1.0233,2.2857 2.2857 2.2857c 1.2624,0.0000 2.2857,-1.0233 2.2857 -2.2857Z"/></g><g stroke-linecap="butt" font-family="courier" fill="rgb(0,0,0)" font-size="7.142857142857143px" stroke-miterlimit="10.0" stroke-width="0.5" fill-opacity="1.0" stroke-opacity="1.0" stroke-linejoin="miter" stroke="rgb(0,0,0)" font-weight="100"><text transform="matrix(1.0000,0.0000,0.0000,1.0000,200.0000,300.0000)" dominant-baseline="middle" text-anchor="middle" stroke="none">&quot;x2.0y-4.0&quot;: end</text></g><g stroke-linecap="butt" fill="rgb(0,0,0)" stroke-miterlimit="10.0" stroke-width="0.5" fill-opacity="0.0" stroke-opacity="1.0" stroke-linejoin="miter" stroke="rgb(0,0,0)"><path d="M 257.1429,242.8571 h -114.2857 v -28.5714 h 114.2857 v 28.5714 h -57.1429 v 42.8571 "/></g><g stroke-linecap="butt" fill="rgb(255,0,0)" stroke-miterlimit="10.0" stroke-width="0.0" fill-opacity="1.0" stroke-opacity="1.0" stroke-linejoin="miter" stroke="rgb(0,0,0)"><path d="M 202.2857,228.5714 c 0.0000,-1.2624 -1.0233,-2.2857 -2.2857 -2.2857c -1.2624,-0.0000 -2.2857,1.0233 -2.2857 2.2857c -0.0000,1.2624 1.0233,2.2857 2.2857 2.2857c 1.2624,0.0000 2.2857,-1.0233 2.2857 -2.2857Z"/></g><g stroke-linecap="butt" font-family="courier" fill="rgb(0,0,0)" font-size="7.142857142857143px" stroke-miterlimit="10.0" stroke-width="0.5" fill-opacity="1.0" stroke-opacity="1.0" stroke-linejoin="miter" stroke="rgb(0,0,0)" font-weight="300"><text transform="matrix(1.0000,0.0000,0.0000,1.0000,200.0000,228.5714)" dominant-baseline="middle" text-anchor="middle" stroke="none">&quot;x2.0y-3.0&quot;</text></g><g stroke-linecap="butt" fill="rgb(0,0,0)" stroke-miterlimit="10.0" stroke-width="0.5" fill-opacity="0.0" stroke-opacity="1.0" stroke-linejoin="miter" stroke="rgb(0,0,0)"><path d="M 7.1429,100.0000 l -7.1429,-14.2857 l 7.1429,-14.2857 h 100.0000 l 7.1429,14.2857 h 85.7143 v 57.1429 v -57.1429 h -85.7143 l -7.1429,14.2857 h -50.0000 v 42.8571 v -42.8571 h -50.0000 "/></g><g stroke-linecap="butt" fill="rgb(255,0,0)" stroke-miterlimit="10.0" stroke-width="0.0" fill-opacity="1.0" stroke-opacity="1.0" stroke-linejoin="miter" stroke="rgb(0,0,0)"><path d="M 61.1429,85.7143 c 0.0000,-2.2091 -1.7909,-4.0000 -4.0000 -4.0000c -2.2091,-0.0000 -4.0000,1.7909 -4.0000 4.0000c -0.0000,2.2091 1.7909,4.0000 4.0000 4.0000c 2.2091,0.0000 4.0000,-1.7909 4.0000 -4.0000Z"/></g><g stroke-linecap="butt" font-family="courier" fill="rgb(0,0,0)" font-size="7.142857142857143px" stroke-miterlimit="10.0" stroke-width="0.5" fill-opacity="1.0" stroke-opacity="1.0" stroke-linejoin="miter" stroke="rgb(0,0,0)" font-weight="300"><text transform="matrix(1.0000,0.0000,0.0000,1.0000,57.1429,85.7143)" dominant-baseline="middle" text-anchor="middle" stroke="none">&quot;x0.0y-1.0&quot;</text></g><g stroke-linecap="butt" fill="rgb(0,0,0)" stroke-miterlimit="10.0" stroke-width="0.5" fill-opacity="0.0" stroke-opacity="1.0" stroke-linejoin="miter" stroke="rgb(0,0,0)"><path d="M 114.2857,371.4286 h 0.0000 c 0.0000,-7.8898 -6.3959,-14.2857 -14.2857 -14.2857h -85.7143 c -7.8898,-0.0000 -14.2857,6.3959 -14.2857 14.2857h 0.0000 c -0.0000,7.8898 6.3959,14.2857 14.2857 14.2857h 85.7143 c 7.8898,0.0000 14.2857,-6.3959 14.2857 -14.2857Z"/></g><g stroke-linecap="butt" fill="rgb(255,0,0)" stroke-miterlimit="10.0" stroke-width="0.0" fill-opacity="1.0" stroke-opacity="1.0" stroke-linejoin="miter" stroke="rgb(0,0,0)"><path d="M 59.4286,371.4286 c 0.0000,-1.2624 -1.0233,-2.2857 -2.2857 -2.2857c -1.2624,-0.0000 -2.2857,1.0233 -2.2857 2.2857c -0.0000,1.2624 1.0233,2.2857 2.2857 2.2857c 1.2624,0.0000 2.2857,-1.0233 2.2857 -2.2857Z"/></g><g stroke-linecap="butt" font-family="courier" fill="rgb(0,0,0)" font-size="7.142857142857143px" stroke-miterlimit="10.0" stroke-width="0.5" fill-opacity="1.0" stroke-opacity="1.0" stroke-linejoin="miter" stroke="rgb(0,0,0)" font-weight="100"><text transform="matrix(1.0000,0.0000,0.0000,1.0000,57.1429,371.4286)" dominant-baseline="middle" text-anchor="middle" stroke="none">&quot;x0.0y-5.0&quot;: end</text></g><g stroke-linecap="butt" fill="rgb(0,0,0)" stroke-miterlimit="10.0" stroke-width="0.5" fill-opacity="0.0" stroke-opacity="1.0" stroke-linejoin="miter" stroke="rgb(0,0,0)"><path d="M 114.2857,314.2857 h -114.2857 v -28.5714 h 114.2857 v 28.5714 h -57.1429 v 42.8571 "/></g><g stroke-linecap="butt" fill="rgb(255,0,0)" stroke-miterlimit="10.0" stroke-width="0.0" fill-opacity="1.0" stroke-opacity="1.0" stroke-linejoin="miter" stroke="rgb(0,0,0)"><path d="M 59.4286,300.0000 c 0.0000,-1.2624 -1.0233,-2.2857 -2.2857 -2.2857c -1.2624,-0.0000 -2.2857,1.0233 -2.2857 2.2857c -0.0000,1.2624 1.0233,2.2857 2.2857 2.2857c 1.2624,0.0000 2.2857,-1.0233 2.2857 -2.2857Z"/></g><g stroke-linecap="butt" font-family="courier" fill="rgb(0,0,0)" font-size="7.142857142857143px" stroke-miterlimit="10.0" stroke-width="0.5" fill-opacity="1.0" stroke-opacity="1.0" stroke-linejoin="miter" stroke="rgb(0,0,0)" font-weight="300"><text transform="matrix(1.0000,0.0000,0.0000,1.0000,57.1429,300.0000)" dominant-baseline="middle" text-anchor="middle" stroke="none">&quot;x0.0y-4.0&quot;</text></g><g stroke-linecap="butt" fill="rgb(0,0,0)" stroke-miterlimit="10.0" stroke-width="0.5" fill-opacity="0.0" stroke-opacity="1.0" stroke-linejoin="miter" stroke="rgb(0,0,0)"><path d="M 114.2857,242.8571 h -114.2857 v -28.5714 h 114.2857 v 28.5714 h -57.1429 v 42.8571 "/></g><g stroke-linecap="butt" fill="rgb(255,0,0)" stroke-miterlimit="10.0" stroke-width="0.0" fill-opacity="1.0" stroke-opacity="1.0" stroke-linejoin="miter" stroke="rgb(0,0,0)"><path d="M 59.4286,228.5714 c 0.0000,-1.2624 -1.0233,-2.2857 -2.2857 -2.2857c -1.2624,-0.0000 -2.2857,1.0233 -2.2857 2.2857c -0.0000,1.2624 1.0233,2.2857 2.2857 2.2857c 1.2624,0.0000 2.2857,-1.0233 2.2857 -2.2857Z"/></g><g stroke-linecap="butt" font-family="courier" fill="rgb(0,0,0)" font-size="7.142857142857143px" stroke-miterlimit="10.0" stroke-width="0.5" fill-opacity="1.0" stroke-opacity="1.0" stroke-linejoin="miter" stroke="rgb(0,0,0)" font-weight="300"><text transform="matrix(1.0000,0.0000,0.0000,1.0000,57.1429,228.5714)" dominant-baseline="middle" text-anchor="middle" stroke="none">&quot;x0.0y-3.0&quot;</text></g><g stroke-linecap="butt" fill="rgb(0,0,0)" stroke-miterlimit="10.0" stroke-width="0.5" fill-opacity="0.0" stroke-opacity="1.0" stroke-linejoin="miter" stroke="rgb(0,0,0)"><path d="M 114.2857,171.4286 h -114.2857 v -28.5714 h 114.2857 v 28.5714 h -57.1429 v 42.8571 "/></g><g stroke-linecap="butt" fill="rgb(255,0,0)" stroke-miterlimit="10.0" stroke-width="0.0" fill-opacity="1.0" stroke-opacity="1.0" stroke-linejoin="miter" stroke="rgb(0,0,0)"><path d="M 59.4286,157.1429 c 0.0000,-1.2624 -1.0233,-2.2857 -2.2857 -2.2857c -1.2624,-0.0000 -2.2857,1.0233 -2.2857 2.2857c -0.0000,1.2624 1.0233,2.2857 2.2857 2.2857c 1.2624,0.0000 2.2857,-1.0233 2.2857 -2.2857Z"/></g><g stroke-linecap="butt" font-family="courier" fill="rgb(0,0,0)" font-size="7.142857142857143px" stroke-miterlimit="10.0" stroke-width="0.5" fill-opacity="1.0" stroke-opacity="1.0" stroke-linejoin="miter" stroke="rgb(0,0,0)" font-weight="300"><text transform="matrix(1.0000,0.0000,0.0000,1.0000,57.1429,157.1429)" dominant-baseline="middle" text-anchor="middle" stroke="none">&quot;x0.0y-2.0&quot;</text></g><g stroke-linecap="butt" fill="rgb(0,0,0)" stroke-miterlimit="10.0" stroke-width="0.5" fill-opacity="0.0" stroke-opacity="1.0" stroke-linejoin="miter" stroke="rgb(0,0,0)"><path d="M 114.2857,14.2857 h 0.0000 c 0.0000,-7.8898 -6.3959,-14.2857 -14.2857 -14.2857h -85.7143 c -7.8898,-0.0000 -14.2857,6.3959 -14.2857 14.2857h 0.0000 c -0.0000,7.8898 6.3959,14.2857 14.2857 14.2857h 85.7143 c 7.8898,0.0000 14.2857,-6.3959 14.2857 -14.2857Z"/></g><g stroke-linecap="butt" fill="rgb(255,0,0)" stroke-miterlimit="10.0" stroke-width="0.0" fill-opacity="1.0" stroke-opacity="1.0" stroke-linejoin="miter" stroke="rgb(0,0,0)"><path d="M 59.4286,14.2857 c 0.0000,-1.2624 -1.0233,-2.2857 -2.2857 -2.2857c -1.2624,-0.0000 -2.2857,1.0233 -2.2857 2.2857c -0.0000,1.2624 1.0233,2.2857 2.2857 2.2857c 1.2624,0.0000 2.2857,-1.0233 2.2857 -2.2857Z"/></g><g stroke-linecap="butt" font-family="courier" fill="rgb(0,0,0)" font-size="7.142857142857143px" stroke-miterlimit="10.0" stroke-width="0.5" fill-opacity="1.0" stroke-opacity="1.0" stroke-linejoin="miter" stroke="rgb(0,0,0)" font-weight="300"><text transform="matrix(1.0000,0.0000,0.0000,1.0000,57.1429,14.2857)" dominant-baseline="middle" text-anchor="middle" stroke="none">&quot;x0.0y0.0&quot;: start</text></g></svg>