<?xml version="1.0" encoding="UTF-8"?>
<!DOCTYPE svg PUBLIC "-//W3C//DTD SVG 1.1//EN"
    "http://www.w3.org/Graphics/SVG/1.1/DTD/svg11.dtd"><svg font-size="1" viewBox="0.0 0.0 1000.0 1000.0" stroke="rgb(0,0,0)" xmlns="http://www.w3.org/2000/svg" width="1000.0000" stroke-opacity="1" height="1000.0000" version="1.1" xmlns:xlink="http://www.w3.org/1999/xlink"><defs></defs><g stroke-linejoin="miter" fill-opacity="0.0" fill="rgb(0,0,0)" stroke="rgb(0,0,0)" stroke-linecap="butt" stroke-miterlimit="10.0" stroke-opacity="1.0" stroke-width="0.7745966692414834"><path d="M 200.0000,900.0000 h 200.0000 v 100.0000 h -200.0000 v -100.0000 "/></g><g stroke-linejoin="miter" fill-opacity="0.0" fill="rgb(0,0,0)" stroke="rgb(34,69,57)" stroke-linecap="butt" stroke-miterlimit="10.0" stroke-opacity="1.0" stroke-width="5.809475019311125"><path d="M 380.0000,950.0000 h 0.0000 c 0.0000,-13.8071 -11.1929,-25.0000 -25.0000 -25.0000h -110.0000 c -13.8071,-0.0000 -25.0000,11.1929 -25.0000 25.0000h 0.0000 c -0.0000,13.8071 11.1929,25.0000 25.0000 25.0000h 110.0000 c 13.8071,0.0000 25.0000,-11.1929 25.0000 -25.0000Z"/></g><g stroke-linejoin="miter" fill-opacity="0.0" fill="rgb(0,0,0)" stroke="rgb(0,0,0)" stroke-linecap="butt" stroke-miterlimit="10.0" stroke-opacity="1.0" stroke-width="0.7745966692414834"><path d="M 200.0000,200.0000 h 600.0000 v 700.0000 h -600.0000 v -700.0000 "/></g><g stroke-linejoin="miter" fill-opacity="0.0" fill="rgb(0,0,0)" stroke="rgb(0,0,0)" stroke-linecap="butt" stroke-miterlimit="10.0" stroke-opacity="1.0" stroke-width="0.7745966692414834"><path d="M 600.0000,600.0000 h 200.0000 v 100.0000 h -200.0000 v -100.0000 "/></g><g stroke-linejoin="miter" fill-opacity="0.0" fill="rgb(0,0,0)" stroke="rgb(34,69,57)" stroke-linecap="butt" stroke-miterlimit="10.0" stroke-opacity="1.0" stroke-width="5.809475019311125"><path d="M 620.0000,625.0000 h 160.0000 v 50.0000 h -160.0000 v -50.0000 "/></g><g stroke-linejoin="miter" fill-opacity="0.0" fill="rgb(0,0,0)" stroke="rgb(0,0,0)" stroke-linecap="butt" stroke-miterlimit="10.0" stroke-opacity="1.0" stroke-width="0.7745966692414834"><path d="M 600.0000,500.0000 h 200.0000 v 100.0000 h -200.0000 v -100.0000 "/></g><g stroke-linejoin="miter" fill-opacity="0.0" fill="rgb(0,0,0)" stroke="rgb(34,69,57)" stroke-linecap="butt" stroke-miterlimit="10.0" stroke-opacity="1.0" stroke-width="5.809475019311125"><path d="M 620.0000,525.0000 h 160.0000 v 50.0000 h -160.0000 v -50.0000 "/></g><g stroke-linejoin="miter" fill-opacity="0.0" fill="rgb(0,0,0)" stroke="rgb(0,0,0)" stroke-linecap="butt" stroke-miterlimit="10.0" stroke-opacity="1.0" stroke-width="0.7745966692414834"><path d="M 600.0000,400.0000 h 200.0000 v 100.0000 h -200.0000 v -100.0000 "/></g><g stroke-linejoin="miter" fill-opacity="0.0" fill="rgb(0,0,0)" stroke="rgb(34,69,57)" stroke-linecap="butt" stroke-miterlimit="10.0" stroke-opacity="1.0" stroke-width="5.809475019311125"><path d="M 620.0000,425.0000 h 160.0000 v 50.0000 h -160.0000 v -50.0000 "/></g><g stroke-linejoin="miter" fill-opacity="0.0" fill="rgb(0,0,0)" stroke="rgb(0,0,0)" stroke-linecap="butt" stroke-miterlimit="10.0" stroke-opacity="1.0" stroke-width="0.7745966692414834"><path d="M 600.0000,300.0000 h 200.0000 v 100.0000 h -200.0000 v -100.0000 "/></g><g stroke-linejoin="miter" fill-opacity="0.0" fill="rgb(0,0,0)" stroke="rgb(34,69,57)" stroke-linecap="butt" stroke-miterlimit="10.0" stroke-opacity="1.0" stroke-width="5.809475019311125"><path d="M 620.0000,325.0000 h 160.0000 v 50.0000 h -160.0000 v -50.0000 "/></g><g stroke-linejoin="miter" fill-opacity="0.0" fill="rgb(0,0,0)" stroke="rgb(0,0,0)" stroke-linecap="butt" stroke-miterlimit="10.0" stroke-opacity="1.0" stroke-width="0.7745966692414834"><path d="M 200.0000,800.0000 h 200.0000 v 100.0000 h -200.0000 v -100.0000 "/></g><g stroke-linejoin="miter" fill-opacity="0.0" fill="rgb(0,0,0)" stroke="rgb(34,69,57)" stroke-linecap="butt" stroke-miterlimit="10.0" stroke-opacity="1.0" stroke-width="5.809475019311125"><path d="M 220.0000,825.0000 h 160.0000 v 50.0000 h -160.0000 v -50.0000 "/></g><g stroke-linejoin="miter" fill-opacity="0.0" fill="rgb(0,0,0)" stroke="rgb(0,0,0)" stroke-linecap="butt" stroke-miterlimit="10.0" stroke-opacity="1.0" stroke-width="0.7745966692414834"><path d="M 200.0000,400.0000 h 400.0000 v 400.0000 h -400.0000 v -400.0000 "/></g><g stroke-linejoin="miter" fill-opacity="0.0" fill="rgb(0,0,0)" stroke="rgb(0,0,0)" stroke-linecap="butt" stroke-miterlimit="10.0" stroke-opacity="1.0" stroke-width="0.7745966692414834"><path d="M 400.0000,700.0000 h 200.0000 v 100.0000 h -200.0000 v -100.0000 "/></g><g stroke-linejoin="miter" fill-opacity="0.0" fill="rgb(0,0,0)" stroke="rgb(34,69,57)" stroke-linecap="butt" stroke-miterlimit="10.0" stroke-opacity="1.0" stroke-width="5.809475019311125"><path d="M 420.0000,725.0000 h 160.0000 v 50.0000 h -160.0000 v -50.0000 "/></g><g stroke-linejoin="miter" fill-opacity="0.0" fill="rgb(0,0,0)" stroke="rgb(0,0,0)" stroke-linecap="butt" stroke-miterlimit="10.0" stroke-opacity="1.0" stroke-width="0.7745966692414834"><path d="M 400.0000,600.0000 h 200.0000 v 100.0000 h -200.0000 v -100.0000 "/></g><g stroke-linejoin="miter" fill-opacity="0.0" fill="rgb(0,0,0)" stroke="rgb(34,69,57)" stroke-linecap="butt" stroke-miterlimit="10.0" stroke-opacity="1.0" stroke-width="5.809475019311125"><path d="M 420.0000,625.0000 h 160.0000 v 50.0000 h -160.0000 v -50.0000 "/></g><g stroke-linejoin="miter" fill-opacity="0.0" fill="rgb(0,0,0)" stroke="rgb(0,0,0)" stroke-linecap="butt" stroke-miterlimit="10.0" stroke-opacity="1.0" stroke-width="0.7745966692414834"><path d="M 400.0000,500.0000 h 200.0000 v 100.0000 h -200.0000 v -100.0000 "/></g><g stroke-linejoin="miter" fill-opacity="0.0" fill="rgb(0,0,0)" stroke="rgb(34,69,57)" stroke-linecap="butt" stroke-miterlimit="10.0" stroke-opacity="1.0" stroke-width="5.809475019311125"><path d="M 420.0000,525.0000 h 160.0000 v 50.0000 h -160.0000 v -50.0000 "/></g><g stroke-linejoin="miter" fill-opacity="0.0" fill="rgb(0,0,0)" stroke="rgb(0,0,0)" stroke-linecap="butt" stroke-miterlimit="10.0" stroke-opacity="1.0" stroke-width="0.7745966692414834"><path d="M 200.0000,600.0000 h 200.0000 v 100.0000 h -200.0000 v -100.0000 "/></g><g stroke-linejoin="miter" fill-opacity="0.0" fill="rgb(0,0,0)" stroke="rgb(34,69,57)" stroke-linecap="butt" stroke-miterlimit="10.0" stroke-opacity="1.0" stroke-width="5.809475019311125"><path d="M 220.0000,625.0000 h 160.0000 v 50.0000 h -160.0000 v -50.0000 "/></g><g stroke-linejoin="miter" fill-opacity="0.0" fill="rgb(0,0,0)" stroke="rgb(0,0,0)" stroke-linecap="butt" stroke-miterlimit="10.0" stroke-opacity="1.0" stroke-width="0.7745966692414834"><path d="M 200.0000,500.0000 h 200.0000 v 100.0000 h -200.0000 v -100.0000 "/></g><g stroke-linejoin="miter" fill-opacity="0.0" fill="rgb(0,0,0)" stroke="rgb(34,69,57)" stroke-linecap="butt" stroke-miterlimit="10.0" stroke-opacity="1.0" stroke-width="5.809475019311125"><path d="M 220.0000,525.0000 h 160.0000 v 50.0000 h -160.0000 v -50.0000 "/></g><g stroke-linejoin="miter" fill-opacity="0.0" fill="rgb(0,0,0)" stroke="rgb(0,0,0)" stroke-linecap="butt" stroke-miterlimit="10.0" stroke-opacity="1.0" stroke-width="0.7745966692414834"><path d="M 200.0000,400.0000 h 200.0000 v 100.0000 h -200.0000 v -100.0000 "/></g><g stroke-linejoin="miter" fill-opacity="0.0" fill="rgb(0,0,0)" stroke="rgb(34,69,57)" stroke-linecap="butt" stroke-miterlimit="10.0" stroke-opacity="1.0" stroke-width="5.809475019311125"><path d="M 230.0000,425.0000 h 140.0000 l 10.0000,25.0000 l -10.0000,25.0000 h -140.0000 l -10.0000,-25.0000 l 10.0000,-25.0000 Z"/></g><g stroke-linejoin="miter" fill-opacity="0.0" fill="rgb(0,0,0)" stroke="rgb(0,0,0)" stroke-linecap="butt" stroke-miterlimit="10.0" stroke-opacity="1.0" stroke-width="0.7745966692414834"><path d="M 200.0000,300.0000 h 200.0000 v 100.0000 h -200.0000 v -100.0000 "/></g><g stroke-linejoin="miter" fill-opacity="0.0" fill="rgb(0,0,0)" stroke="rgb(34,69,57)" stroke-linecap="butt" stroke-miterlimit="10.0" stroke-opacity="1.0" stroke-width="5.809475019311125"><path d="M 220.0000,325.0000 h 160.0000 v 50.0000 h -160.0000 v -50.0000 "/></g><g stroke-linejoin="miter" fill-opacity="0.0" fill="rgb(0,0,0)" stroke="rgb(0,0,0)" stroke-linecap="butt" stroke-miterlimit="10.0" stroke-opacity="1.0" stroke-width="0.7745966692414834"><path d="M 200.0000,200.0000 h 200.0000 v 100.0000 h -200.0000 v -100.0000 "/></g><g stroke-linejoin="miter" fill-opacity="0.0" fill="rgb(0,0,0)" stroke="rgb(34,69,57)" stroke-linecap="butt" stroke-miterlimit="10.0" stroke-opacity="1.0" stroke-width="5.809475019311125"><path d="M 230.0000,225.0000 h 140.0000 l 10.0000,25.0000 l -10.0000,25.0000 h -140.0000 l -10.0000,-25.0000 l 10.0000,-25.0000 Z"/></g><g stroke-linejoin="miter" fill-opacity="0.0" fill="rgb(0,0,0)" stroke="rgb(0,0,0)" stroke-linecap="butt" stroke-miterlimit="10.0" stroke-opacity="1.0" stroke-width="0.7745966692414834"><path d="M 200.0000,100.0000 h 200.0000 v 100.0000 h -200.0000 v -100.0000 "/></g><g stroke-linejoin="miter" fill-opacity="0.0" fill="rgb(0,0,0)" stroke="rgb(34,69,57)" stroke-linecap="butt" stroke-miterlimit="10.0" stroke-opacity="1.0" stroke-width="5.809475019311125"><path d="M 220.0000,125.0000 h 160.0000 v 50.0000 h -160.0000 v -50.0000 "/></g><g stroke-linejoin="miter" fill-opacity="0.0" fill="rgb(0,0,0)" stroke="rgb(0,0,0)" stroke-linecap="butt" stroke-miterlimit="10.0" stroke-opacity="1.0" stroke-width="0.7745966692414834"><path d="M 200.0000,0.0000 h 200.0000 v 100.0000 h -200.0000 v -100.0000 "/></g><g stroke-linejoin="miter" fill-opacity="0.0" fill="rgb(0,0,0)" stroke="rgb(34,69,57)" stroke-linecap="butt" stroke-miterlimit="10.0" stroke-opacity="1.0" stroke-width="5.809475019311125"><path d="M 380.0000,50.0000 h 0.0000 c 0.0000,-13.8071 -11.1929,-25.0000 -25.0000 -25.0000h -110.0000 c -13.8071,-0.0000 -25.0000,11.1929 -25.0000 25.0000h 0.0000 c -0.0000,13.8071 11.1929,25.0000 25.0000 25.0000h 110.0000 c 13.8071,0.0000 25.0000,-11.1929 25.0000 -25.0000Z"/></g></svg>