<?xml version="1.0" encoding="UTF-8"?>
<!DOCTYPE svg PUBLIC "-//W3C//DTD SVG 1.1//EN"
    "http://www.w3.org/Graphics/SVG/1.1/DTD/svg11.dtd"><svg font-size="1" viewBox="0.0 0.0 1000.0 1000.0" stroke="rgb(0,0,0)" xmlns="http://www.w3.org/2000/svg" width="1000.0000" stroke-opacity="1" height="1000.0000" version="1.1" xmlns:xlink="http://www.w3.org/1999/xlink"><defs></defs><g stroke-linejoin="miter" fill-opacity="0.0" fill="rgb(0,0,0)" stroke="rgb(0,0,0)" stroke-linecap="butt" stroke-miterlimit="10.0" stroke-opacity="1.0" stroke-width="0.5"><path d="M 423.0769,923.0769 h 76.9231 v 76.9231 h -76.9231 v -76.9231 "/></g><g stroke-linejoin="miter" fill-opacity="0.0" fill="rgb(0,0,0)" stroke="rgb(34,69,57)" stroke-linecap="butt" stroke-miterlimit="10.0" stroke-opacity="1.0" stroke-width="2.94174202707276"><path d="M 500.0000,961.5385 h 0.0000 c 0.0000,-10.6209 -8.6099,-19.2308 -19.2308 -19.2308h -38.4615 c -10.6209,-0.0000 -19.2308,8.6099 -19.2308 19.2308h 0.0000 c -0.0000,10.6209 8.6099,19.2308 19.2308 19.2308h 38.4615 c 10.6209,0.0000 19.2308,-8.6099 19.2308 -19.2308Z"/></g><g stroke-linejoin="miter" fill-opacity="0.0" fill="rgb(0,0,0)" stroke="rgb(0,0,0)" stroke-linecap="butt" stroke-miterlimit="10.0" stroke-opacity="1.0" stroke-width="0.5"><path d="M 423.0769,846.1538 h 76.9231 v 76.9231 h -76.9231 v -76.9231 "/></g><g stroke-linejoin="miter" fill-opacity="0.0" fill="rgb(0,0,0)" stroke="rgb(34,69,57)" stroke-linecap="butt" stroke-miterlimit="10.0" stroke-opacity="1.0" stroke-width="2.94174202707276"><path d="M 500.0000,884.6154 h 0.0000 c 0.0000,-10.6209 -8.6099,-19.2308 -19.2308 -19.2308h -38.4615 c -10.6209,-0.0000 -19.2308,8.6099 -19.2308 19.2308h 0.0000 c -0.0000,10.6209 8.6099,19.2308 19.2308 19.2308h 38.4615 c 10.6209,0.0000 19.2308,-8.6099 19.2308 -19.2308Z"/></g><g stroke-linejoin="miter" fill-opacity="0.0" fill="rgb(0,0,0)" stroke="rgb(0,0,0)" stroke-linecap="butt" stroke-miterlimit="10.0" stroke-opacity="1.0" stroke-width="0.5"><path d="M 423.0769,769.2308 h 76.9231 v 76.9231 h -76.9231 v -76.9231 "/></g><g stroke-linejoin="miter" fill-opacity="0.0" fill="rgb(0,0,0)" stroke="rgb(34,69,57)" stroke-linecap="butt" stroke-miterlimit="10.0" stroke-opacity="1.0" stroke-width="2.94174202707276"><path d="M 500.0000,807.6923 h 0.0000 c 0.0000,-10.6209 -8.6099,-19.2308 -19.2308 -19.2308h -38.4615 c -10.6209,-0.0000 -19.2308,8.6099 -19.2308 19.2308h 0.0000 c -0.0000,10.6209 8.6099,19.2308 19.2308 19.2308h 38.4615 c 10.6209,0.0000 19.2308,-8.6099 19.2308 -19.2308Z"/></g><g stroke-linejoin="miter" fill-opacity="0.0" fill="rgb(0,0,0)" stroke="rgb(0,0,0)" stroke-linecap="butt" stroke-miterlimit="10.0" stroke-opacity="1.0" stroke-width="0.5"><path d="M 423.0769,692.3077 h 76.9231 v 76.9231 h -76.9231 v -76.9231 "/></g><g stroke-linejoin="miter" fill-opacity="0.0" fill="rgb(0,0,0)" stroke="rgb(34,69,57)" stroke-linecap="butt" stroke-miterlimit="10.0" stroke-opacity="1.0" stroke-width="2.94174202707276"><path d="M 500.0000,730.7692 h 0.0000 c 0.0000,-10.6209 -8.6099,-19.2308 -19.2308 -19.2308h -38.4615 c -10.6209,-0.0000 -19.2308,8.6099 -19.2308 19.2308h 0.0000 c -0.0000,10.6209 8.6099,19.2308 19.2308 19.2308h 38.4615 c 10.6209,0.0000 19.2308,-8.6099 19.2308 -19.2308Z"/></g><g stroke-linejoin="miter" fill-opacity="0.0" fill="rgb(0,0,0)" stroke="rgb(0,0,0)" stroke-linecap="butt" stroke-miterlimit="10.0" stroke-opacity="1.0" stroke-width="0.5"><path d="M 423.0769,615.3846 h 76.9231 v 76.9231 h -76.9231 v -76.9231 "/></g><g stroke-linejoin="miter" fill-opacity="0.0" fill="rgb(0,0,0)" stroke="rgb(34,69,57)" stroke-linecap="butt" stroke-miterlimit="10.0" stroke-opacity="1.0" stroke-width="2.94174202707276"><path d="M 500.0000,653.8462 h 0.0000 c 0.0000,-10.6209 -8.6099,-19.2308 -19.2308 -19.2308h -38.4615 c -10.6209,-0.0000 -19.2308,8.6099 -19.2308 19.2308h 0.0000 c -0.0000,10.6209 8.6099,19.2308 19.2308 19.2308h 38.4615 c 10.6209,0.0000 19.2308,-8.6099 19.2308 -19.2308Z"/></g><g stroke-linejoin="miter" fill-opacity="0.0" fill="rgb(0,0,0)" stroke="rgb(0,0,0)" stroke-linecap="butt" stroke-miterlimit="10.0" stroke-opacity="1.0" stroke-width="0.5"><path d="M 423.0769,538.4615 h 76.9231 v 76.9231 h -76.9231 v -76.9231 "/></g><g stroke-linejoin="miter" fill-opacity="0.0" fill="rgb(0,0,0)" stroke="rgb(34,69,57)" stroke-linecap="butt" stroke-miterlimit="10.0" stroke-opacity="1.0" stroke-width="2.94174202707276"><path d="M 500.0000,576.9231 h 0.0000 c 0.0000,-10.6209 -8.6099,-19.2308 -19.2308 -19.2308h -38.4615 c -10.6209,-0.0000 -19.2308,8.6099 -19.2308 19.2308h 0.0000 c -0.0000,10.6209 8.6099,19.2308 19.2308 19.2308h 38.4615 c 10.6209,0.0000 19.2308,-8.6099 19.2308 -19.2308Z"/></g><g stroke-linejoin="miter" fill-opacity="0.0" fill="rgb(0,0,0)" stroke="rgb(0,0,0)" stroke-linecap="butt" stroke-miterlimit="10.0" stroke-opacity="1.0" stroke-width="0.5"><path d="M 423.0769,230.7692 h 153.8462 v 307.6923 h -153.8462 v -307.6923 "/></g><g stroke-linejoin="miter" fill-opacity="0.0" fill="rgb(0,0,0)" stroke="rgb(0,0,0)" stroke-linecap="butt" stroke-miterlimit="10.0" stroke-opacity="1.0" stroke-width="0.5"><path d="M 500.0000,307.6923 h 76.9231 v 76.9231 h -76.9231 v -76.9231 "/></g><g stroke-linejoin="miter" fill-opacity="0.0" fill="rgb(0,0,0)" stroke="rgb(0,0,0)" stroke-linecap="butt" stroke-miterlimit="10.0" stroke-opacity="1.0" stroke-width="0.5"><path d="M 423.0769,307.6923 h 76.9231 v 76.9231 h -76.9231 v -76.9231 "/></g><g stroke-linejoin="miter" fill-opacity="0.0" fill="rgb(0,0,0)" stroke="rgb(34,69,57)" stroke-linecap="butt" stroke-miterlimit="10.0" stroke-opacity="1.0" stroke-width="2.94174202707276"><path d="M 423.0769,326.9231 h 76.9231 v 38.4615 h -76.9231 v -38.4615 "/></g><g stroke-linejoin="miter" fill-opacity="0.0" fill="rgb(0,0,0)" stroke="rgb(0,0,0)" stroke-linecap="butt" stroke-miterlimit="10.0" stroke-opacity="1.0" stroke-width="0.5"><path d="M 423.0769,230.7692 h 76.9231 v 76.9231 h -76.9231 v -76.9231 "/></g><g stroke-linejoin="miter" fill-opacity="0.0" fill="rgb(0,0,0)" stroke="rgb(34,69,57)" stroke-linecap="butt" stroke-miterlimit="10.0" stroke-opacity="1.0" stroke-width="2.94174202707276"><path d="M 430.7692,250.0000 h 61.5385 l 7.6923,19.2308 l -7.6923,19.2308 h -61.5385 l -7.6923,-19.2308 l 7.6923,-19.2308 Z"/></g><g stroke-linejoin="miter" fill-opacity="0.0" fill="rgb(0,0,0)" stroke="rgb(0,0,0)" stroke-linecap="butt" stroke-miterlimit="10.0" stroke-opacity="1.0" stroke-width="0.5"><path d="M 423.0769,153.8462 h 76.9231 v 76.9231 h -76.9231 v -76.9231 "/></g><g stroke-linejoin="miter" fill-opacity="0.0" fill="rgb(0,0,0)" stroke="rgb(34,69,57)" stroke-linecap="butt" stroke-miterlimit="10.0" stroke-opacity="1.0" stroke-width="2.94174202707276"><path d="M 423.0769,173.0769 h 76.9231 v 38.4615 h -76.9231 v -38.4615 "/></g><g stroke-linejoin="miter" fill-opacity="0.0" fill="rgb(0,0,0)" stroke="rgb(0,0,0)" stroke-linecap="butt" stroke-miterlimit="10.0" stroke-opacity="1.0" stroke-width="0.5"><path d="M 423.0769,76.9231 h 76.9231 v 76.9231 h -76.9231 v -76.9231 "/></g><g stroke-linejoin="miter" fill-opacity="0.0" fill="rgb(0,0,0)" stroke="rgb(34,69,57)" stroke-linecap="butt" stroke-miterlimit="10.0" stroke-opacity="1.0" stroke-width="2.94174202707276"><path d="M 500.0000,115.3846 h 0.0000 c 0.0000,-10.6209 -8.6099,-19.2308 -19.2308 -19.2308h -38.4615 c -10.6209,-0.0000 -19.2308,8.6099 -19.2308 19.2308h 0.0000 c -0.0000,10.6209 8.6099,19.2308 19.2308 19.2308h 38.4615 c 10.6209,0.0000 19.2308,-8.6099 19.2308 -19.2308Z"/></g><g stroke-linejoin="miter" fill-opacity="0.0" fill="rgb(0,0,0)" stroke="rgb(0,0,0)" stroke-linecap="butt" stroke-miterlimit="10.0" stroke-opacity="1.0" stroke-width="0.5"><path d="M 423.0769,0.0000 h 76.9231 v 76.9231 h -76.9231 v -76.9231 "/></g><g stroke-linejoin="miter" fill-opacity="0.0" fill="rgb(0,0,0)" stroke="rgb(34,69,57)" stroke-linecap="butt" stroke-miterlimit="10.0" stroke-opacity="1.0" stroke-width="2.94174202707276"><path d="M 500.0000,38.4615 h 0.0000 c 0.0000,-10.6209 -8.6099,-19.2308 -19.2308 -19.2308h -38.4615 c -10.6209,-0.0000 -19.2308,8.6099 -19.2308 19.2308h 0.0000 c -0.0000,10.6209 8.6099,19.2308 19.2308 19.2308h 38.4615 c 10.6209,0.0000 19.2308,-8.6099 19.2308 -19.2308Z"/></g></svg>