<?xml version="1.0" encoding="UTF-8"?>
<!DOCTYPE svg PUBLIC "-//W3C//DTD SVG 1.1//EN"
    "http://www.w3.org/Graphics/SVG/1.1/DTD/svg11.dtd"><svg font-size="1" viewBox="0.0 0.0 1000.0 1000.0" stroke="rgb(0,0,0)" xmlns="http://www.w3.org/2000/svg" width="1000.0000" stroke-opacity="1" height="1000.0000" version="1.1" xmlns:xlink="http://www.w3.org/1999/xlink"><defs></defs><g stroke-linejoin="miter" fill-opacity="0.0" fill="rgb(0,0,0)" stroke="rgb(0,0,0)" stroke-linecap="butt" stroke-miterlimit="10.0" stroke-opacity="1.0" stroke-width="0.5773502691896258"><path d="M 333.3333,833.3333 h 333.3333 v 166.6667 h -333.3333 v -166.6667 "/></g><g stroke-linejoin="miter" fill-opacity="0.0" fill="rgb(0,0,0)" stroke="rgb(34,69,57)" stroke-linecap="butt" stroke-miterlimit="10.0" stroke-opacity="1.0" stroke-width="4.330127018922194"><path d="M 633.3333,916.6667 h 0.0000 c 0.0000,-23.0119 -18.6548,-41.6667 -41.6667 -41.6667h -183.3333 c -23.0119,-0.0000 -41.6667,18.6548 -41.6667 41.6667h 0.0000 c -0.0000,23.0119 18.6548,41.6667 41.6667 41.6667h 183.3333 c 23.0119,0.0000 41.6667,-18.6548 41.6667 -41.6667Z"/></g><g stroke-linejoin="miter" fill-opacity="0.0" fill="rgb(0,0,0)" stroke="rgb(0,0,0)" stroke-linecap="butt" stroke-miterlimit="10.0" stroke-opacity="1.0" stroke-width="0.5773502691896258"><path d="M 333.3333,666.6667 h 333.3333 v 166.6667 h -333.3333 v -166.6667 "/></g><g stroke-linejoin="miter" fill-opacity="0.0" fill="rgb(0,0,0)" stroke="rgb(34,69,57)" stroke-linecap="butt" stroke-miterlimit="10.0" stroke-opacity="1.0" stroke-width="4.330127018922194"><path d="M 366.6667,708.3333 h 266.6667 v 83.3333 h -266.6667 v -83.3333 "/></g><g stroke-linejoin="miter" fill-opacity="0.0" fill="rgb(0,0,0)" stroke="rgb(0,0,0)" stroke-linecap="butt" stroke-miterlimit="10.0" stroke-opacity="1.0" stroke-width="0.5773502691896258"><path d="M 333.3333,500.0000 h 333.3333 v 166.6667 h -333.3333 v -166.6667 "/></g><g stroke-linejoin="miter" fill-opacity="0.0" fill="rgb(0,0,0)" stroke="rgb(34,69,57)" stroke-linecap="butt" stroke-miterlimit="10.0" stroke-opacity="1.0" stroke-width="4.330127018922194"><path d="M 383.3333,541.6667 h 233.3333 l 16.6667,41.6667 l -16.6667,41.6667 h -233.3333 l -16.6667,-41.6667 l 16.6667,-41.6667 Z"/></g><g stroke-linejoin="miter" fill-opacity="0.0" fill="rgb(0,0,0)" stroke="rgb(0,0,0)" stroke-linecap="butt" stroke-miterlimit="10.0" stroke-opacity="1.0" stroke-width="0.5773502691896258"><path d="M 333.3333,333.3333 h 333.3333 v 166.6667 h -333.3333 v -166.6667 "/></g><g stroke-linejoin="miter" fill-opacity="0.0" fill="rgb(0,0,0)" stroke="rgb(34,69,57)" stroke-linecap="butt" stroke-miterlimit="10.0" stroke-opacity="1.0" stroke-width="4.330127018922194"><path d="M 366.6667,375.0000 h 266.6667 v 83.3333 h -266.6667 v -83.3333 "/></g><g stroke-linejoin="miter" fill-opacity="0.0" fill="rgb(0,0,0)" stroke="rgb(0,0,0)" stroke-linecap="butt" stroke-miterlimit="10.0" stroke-opacity="1.0" stroke-width="0.5773502691896258"><path d="M 333.3333,166.6667 h 333.3333 v 166.6667 h -333.3333 v -166.6667 "/></g><g stroke-linejoin="miter" fill-opacity="0.0" fill="rgb(0,0,0)" stroke="rgb(34,69,57)" stroke-linecap="butt" stroke-miterlimit="10.0" stroke-opacity="1.0" stroke-width="4.330127018922194"><path d="M 366.6667,208.3333 h 266.6667 v 83.3333 h -266.6667 v -83.3333 "/></g><g stroke-linejoin="miter" fill-opacity="0.0" fill="rgb(0,0,0)" stroke="rgb(0,0,0)" stroke-linecap="butt" stroke-miterlimit="10.0" stroke-opacity="1.0" stroke-width="0.5773502691896258"><path d="M 333.3333,0.0000 h 333.3333 v 166.6667 h -333.3333 v -166.6667 "/></g><g stroke-linejoin="miter" fill-opacity="0.0" fill="rgb(0,0,0)" stroke="rgb(34,69,57)" stroke-linecap="butt" stroke-miterlimit="10.0" stroke-opacity="1.0" stroke-width="4.330127018922194"><path d="M 633.3333,83.3333 h 0.0000 c 0.0000,-23.0119 -18.6548,-41.6667 -41.6667 -41.6667h -183.3333 c -23.0119,-0.0000 -41.6667,18.6548 -41.6667 41.6667h 0.0000 c -0.0000,23.0119 18.6548,41.6667 41.6667 41.6667h 183.3333 c 23.0119,0.0000 41.6667,-18.6548 41.6667 -41.6667Z"/></g></svg>