<?xml version="1.0" encoding="UTF-8"?>
<!DOCTYPE svg PUBLIC "-//W3C//DTD SVG 1.1//EN"
    "http://www.w3.org/Graphics/SVG/1.1/DTD/svg11.dtd"><svg font-size="1" viewBox="0.0 0.0 1000.0 1000.0" stroke="rgb(0,0,0)" xmlns="http://www.w3.org/2000/svg" width="1000.0000" stroke-opacity="1" height="1000.0000" version="1.1" xmlns:xlink="http://www.w3.org/1999/xlink"><defs></defs><g stroke-linejoin="miter" fill-opacity="0.0" fill="rgb(0,0,0)" stroke="rgb(34,69,57)" stroke-linecap="butt" stroke-miterlimit="10.0" stroke-opacity="1.0" stroke-width="0.9403246919632545"><path d="M 310.5263,973.6842 h 0.0000 c 0.0000,-14.5338 -11.7820,-26.3158 -26.3158 -26.3158h -200.0000 c -14.5338,-0.0000 -26.3158,11.7820 -26.3158 26.3158h 0.0000 c -0.0000,14.5338 11.7820,26.3158 26.3158 26.3158h 200.0000 c 14.5338,0.0000 26.3158,-11.7820 26.3158 -26.3158Z"/></g><g stroke-linejoin="miter" fill-opacity="0.0" fill="rgb(0,0,0)" stroke="rgb(34,69,57)" stroke-linecap="butt" stroke-miterlimit="10.0" stroke-opacity="1.0" stroke-width="0.9403246919632545"><path d="M 184.2105,894.7368 v 52.6316 "/></g><g stroke-linejoin="miter" fill-opacity="0.0" fill="rgb(0,0,0)" stroke="rgb(34,69,57)" stroke-linecap="butt" stroke-miterlimit="10.0" stroke-opacity="1.0" stroke-width="0.9403246919632545"><path d="M 57.8947,842.1053 h 252.6316 v 52.6316 h -252.6316 v -52.6316 "/></g><g stroke-linejoin="miter" fill-opacity="0.0" fill="rgb(0,0,0)" stroke="rgb(34,69,57)" stroke-linecap="butt" stroke-miterlimit="10.0" stroke-opacity="1.0" stroke-width="0.9403246919632545"><path d="M 689.4737,736.8421 h 252.6316 v 52.6316 h -252.6316 v -52.6316 "/></g><g stroke-linejoin="miter" fill-opacity="0.0" fill="rgb(0,0,0)" stroke="rgb(34,69,57)" stroke-linecap="butt" stroke-miterlimit="10.0" stroke-opacity="1.0" stroke-width="0.9403246919632545"><path d="M 689.4737,631.5789 h 252.6316 v 52.6316 h -252.6316 v -52.6316 "/></g><g stroke-linejoin="miter" fill-opacity="0.0" fill="rgb(0,0,0)" stroke="rgb(34,69,57)" stroke-linecap="butt" stroke-miterlimit="10.0" stroke-opacity="1.0" stroke-width="0.9403246919632545"><path d="M 373.6842,631.5789 h 252.6316 v 52.6316 h -252.6316 v -52.6316 "/></g><g stroke-linejoin="miter" fill-opacity="0.0" fill="rgb(0,0,0)" stroke="rgb(34,69,57)" stroke-linecap="butt" stroke-miterlimit="10.0" stroke-opacity="1.0" stroke-width="0.9403246919632545"><path d="M 384.2105,526.3158 h 231.5789 l 10.5263,26.3158 l -10.5263,26.3158 h -231.5789 l -10.5263,-26.3158 l 10.5263,-26.3158 Z"/></g><g stroke-linejoin="miter" fill-opacity="0.0" fill="rgb(0,0,0)" stroke="rgb(34,69,57)" stroke-linecap="butt" stroke-miterlimit="10.0" stroke-opacity="1.0" stroke-width="0.9403246919632545"><path d="M 373.6842,421.0526 h 252.6316 v 52.6316 h -252.6316 v -52.6316 "/></g><g stroke-linejoin="miter" fill-opacity="0.0" fill="rgb(0,0,0)" stroke="rgb(34,69,57)" stroke-linecap="butt" stroke-miterlimit="10.0" stroke-opacity="1.0" stroke-width="0.9403246919632545"><path d="M 373.6842,315.7895 h 252.6316 v 52.6316 h -252.6316 v -52.6316 "/></g><g stroke-linejoin="miter" fill-opacity="0.0" fill="rgb(0,0,0)" stroke="rgb(34,69,57)" stroke-linecap="butt" stroke-miterlimit="10.0" stroke-opacity="1.0" stroke-width="0.9403246919632545"><path d="M 57.8947,526.3158 h 252.6316 v 52.6316 h -252.6316 v -52.6316 "/></g><g stroke-linejoin="miter" fill-opacity="0.0" fill="rgb(0,0,0)" stroke="rgb(34,69,57)" stroke-linecap="butt" stroke-miterlimit="10.0" stroke-opacity="1.0" stroke-width="0.9403246919632545"><path d="M 57.8947,421.0526 h 252.6316 v 52.6316 h -252.6316 v -52.6316 "/></g><g stroke-linejoin="miter" fill-opacity="0.0" fill="rgb(0,0,0)" stroke="rgb(34,69,57)" stroke-linecap="butt" stroke-miterlimit="10.0" stroke-opacity="1.0" stroke-width="0.9403246919632545"><path d="M 57.8947,315.7895 h 252.6316 v 52.6316 h -252.6316 v -52.6316 "/></g><g stroke-linejoin="miter" fill-opacity="0.0" fill="rgb(0,0,0)" stroke="rgb(34,69,57)" stroke-linecap="butt" stroke-miterlimit="10.0" stroke-opacity="1.0" stroke-width="0.9403246919632545"><path d="M 68.4211,210.5263 h 231.5789 l 10.5263,26.3158 l -10.5263,26.3158 h -231.5789 l -10.5263,-26.3158 l 10.5263,-26.3158 Z"/></g><g stroke-linejoin="miter" fill-opacity="0.0" fill="rgb(0,0,0)" stroke="rgb(34,69,57)" stroke-linecap="butt" stroke-miterlimit="10.0" stroke-opacity="1.0" stroke-width="0.9403246919632545"><path d="M 57.8947,105.2632 h 252.6316 v 52.6316 h -252.6316 v -52.6316 "/></g><g stroke-linejoin="miter" fill-opacity="0.0" fill="rgb(0,0,0)" stroke="rgb(34,69,57)" stroke-linecap="butt" stroke-miterlimit="10.0" stroke-opacity="1.0" stroke-width="0.9403246919632545"><path d="M 184.2105,52.6316 v 52.6316 "/></g><g stroke-linejoin="miter" fill-opacity="0.0" fill="rgb(0,0,0)" stroke="rgb(34,69,57)" stroke-linecap="butt" stroke-miterlimit="10.0" stroke-opacity="1.0" stroke-width="0.9403246919632545"><path d="M 310.5263,26.3158 h 0.0000 c 0.0000,-14.5338 -11.7820,-26.3158 -26.3158 -26.3158h -200.0000 c -14.5338,-0.0000 -26.3158,11.7820 -26.3158 26.3158h 0.0000 c -0.0000,14.5338 11.7820,26.3158 26.3158 26.3158h 200.0000 c 14.5338,0.0000 26.3158,-11.7820 26.3158 -26.3158Z"/></g></svg>