<?xml version="1.0" encoding="UTF-8"?>
<!DOCTYPE svg PUBLIC "-//W3C//DTD SVG 1.1//EN"
    "http://www.w3.org/Graphics/SVG/1.1/DTD/svg11.dtd"><svg font-size="1" viewBox="0.0 0.0 1000.0 1000.0" stroke="rgb(0,0,0)" xmlns="http://www.w3.org/2000/svg" width="1000.0000" stroke-opacity="1" height="1000.0000" version="1.1" xmlns:xlink="http://www.w3.org/1999/xlink"><defs></defs><g stroke-linejoin="miter" fill-opacity="0.0" fill="rgb(0,0,0)" stroke="rgb(0,0,0)" stroke-linecap="butt" stroke-miterlimit="10.0" stroke-opacity="1.0" stroke-width="0.7071067811865476"><path d="M 250.0000,750.0000 h 500.0000 v 250.0000 h -500.0000 v -250.0000 "/></g><g stroke-linejoin="miter" fill-opacity="0.0" fill="rgb(0,0,0)" stroke="rgb(34,69,57)" stroke-linecap="butt" stroke-miterlimit="10.0" stroke-opacity="1.0" stroke-width="5.303300858899107"><path d="M 700.0000,875.0000 h 0.0000 c 0.0000,-34.5178 -27.9822,-62.5000 -62.5000 -62.5000h -275.0000 c -34.5178,-0.0000 -62.5000,27.9822 -62.5000 62.5000h 0.0000 c -0.0000,34.5178 27.9822,62.5000 62.5000 62.5000h 275.0000 c 34.5178,0.0000 62.5000,-27.9822 62.5000 -62.5000Z"/></g><g stroke-linejoin="miter" fill-opacity="0.0" fill="rgb(0,0,0)" stroke="rgb(0,0,0)" stroke-linecap="butt" stroke-miterlimit="10.0" stroke-opacity="1.0" stroke-width="0.7071067811865476"><path d="M 250.0000,500.0000 h 500.0000 v 250.0000 h -500.0000 v -250.0000 "/></g><g stroke-linejoin="miter" fill-opacity="0.0" fill="rgb(0,0,0)" stroke="rgb(34,69,57)" stroke-linecap="butt" stroke-miterlimit="10.0" stroke-opacity="1.0" stroke-width="5.303300858899107"><path d="M 300.0000,562.5000 h 400.0000 v 125.0000 h -400.0000 v -125.0000 "/></g><g stroke-linejoin="miter" fill-opacity="0.0" fill="rgb(0,0,0)" stroke="rgb(0,0,0)" stroke-linecap="butt" stroke-miterlimit="10.0" stroke-opacity="1.0" stroke-width="0.7071067811865476"><path d="M 250.0000,250.0000 h 500.0000 v 250.0000 h -500.0000 v -250.0000 "/></g><g stroke-linejoin="miter" fill-opacity="0.0" fill="rgb(0,0,0)" stroke="rgb(34,69,57)" stroke-linecap="butt" stroke-miterlimit="10.0" stroke-opacity="1.0" stroke-width="5.303300858899107"><path d="M 300.0000,312.5000 h 400.0000 v 125.0000 h -400.0000 v -125.0000 "/></g><g stroke-linejoin="miter" fill-opacity="0.0" fill="rgb(0,0,0)" stroke="rgb(0,0,0)" stroke-linecap="butt" stroke-miterlimit="10.0" stroke-opacity="1.0" stroke-width="0.7071067811865476"><path d="M 250.0000,0.0000 h 500.0000 v 250.0000 h -500.0000 v -250.0000 "/></g><g stroke-linejoin="miter" fill-opacity="0.0" fill="rgb(0,0,0)" stroke="rgb(34,69,57)" stroke-linecap="butt" stroke-miterlimit="10.0" stroke-opacity="1.0" stroke-width="5.303300858899107"><path d="M 700.0000,125.0000 h 0.0000 c 0.0000,-34.5178 -27.9822,-62.5000 -62.5000 -62.5000h -275.0000 c -34.5178,-0.0000 -62.5000,27.9822 -62.5000 62.5000h 0.0000 c -0.0000,34.5178 27.9822,62.5000 62.5000 62.5000h 275.0000 c 34.5178,0.0000 62.5000,-27.9822 62.5000 -62.5000Z"/></g></svg>