<?xml version="1.0" encoding="UTF-8"?>
<!DOCTYPE svg PUBLIC "-//W3C//DTD SVG 1.1//EN"
    "http://www.w3.org/Graphics/SVG/1.1/DTD/svg11.dtd"><svg font-size="1" viewBox="0.0 0.0 1000.0 1000.0" stroke="rgb(0,0,0)" xmlns="http://www.w3.org/2000/svg" width="1000.0000" stroke-opacity="1" height="1000.0000" version="1.1" xmlns:xlink="http://www.w3.org/1999/xlink"><defs></defs><g stroke-linejoin="miter" fill-opacity="0.0" fill="rgb(0,0,0)" stroke="rgb(0,0,0)" stroke-linecap="butt" stroke-miterlimit="10.0" stroke-opacity="1.0" stroke-width="0.7385489458759963"><path d="M 227.2727,909.0909 h 181.8182 v 90.9091 h -181.8182 v -90.9091 "/></g><g stroke-linejoin="miter" fill-opacity="0.0" fill="rgb(0,0,0)" stroke="rgb(34,69,57)" stroke-linecap="butt" stroke-miterlimit="10.0" stroke-opacity="1.0" stroke-width="5.539117094069972"><path d="M 390.9091,954.5455 h 0.0000 c 0.0000,-12.5519 -10.1753,-22.7273 -22.7273 -22.7273h -100.0000 c -12.5519,-0.0000 -22.7273,10.1753 -22.7273 22.7273h 0.0000 c -0.0000,12.5519 10.1753,22.7273 22.7273 22.7273h 100.0000 c 12.5519,0.0000 22.7273,-10.1753 22.7273 -22.7273Z"/></g><g stroke-linejoin="miter" fill-opacity="0.0" fill="rgb(0,0,0)" stroke="rgb(0,0,0)" stroke-linecap="butt" stroke-miterlimit="10.0" stroke-opacity="1.0" stroke-width="0.7385489458759963"><path d="M 227.2727,818.1818 h 181.8182 v 90.9091 h -181.8182 v -90.9091 "/></g><g stroke-linejoin="miter" fill-opacity="0.0" fill="rgb(0,0,0)" stroke="rgb(34,69,57)" stroke-linecap="butt" stroke-miterlimit="10.0" stroke-opacity="1.0" stroke-width="5.539117094069972"><path d="M 390.9091,863.6364 h 0.0000 c 0.0000,-12.5519 -10.1753,-22.7273 -22.7273 -22.7273h -100.0000 c -12.5519,-0.0000 -22.7273,10.1753 -22.7273 22.7273h 0.0000 c -0.0000,12.5519 10.1753,22.7273 22.7273 22.7273h 100.0000 c 12.5519,0.0000 22.7273,-10.1753 22.7273 -22.7273Z"/></g><g stroke-linejoin="miter" fill-opacity="0.0" fill="rgb(0,0,0)" stroke="rgb(0,0,0)" stroke-linecap="butt" stroke-miterlimit="10.0" stroke-opacity="1.0" stroke-width="0.7385489458759963"><path d="M 227.2727,181.8182 h 545.4545 v 636.3636 h -545.4545 v -636.3636 "/></g><g stroke-linejoin="miter" fill-opacity="0.0" fill="rgb(0,0,0)" stroke="rgb(0,0,0)" stroke-linecap="butt" stroke-miterlimit="10.0" stroke-opacity="1.0" stroke-width="0.7385489458759963"><path d="M 590.9091,545.4545 h 181.8182 v 90.9091 h -181.8182 v -90.9091 "/></g><g stroke-linejoin="miter" fill-opacity="0.0" fill="rgb(0,0,0)" stroke="rgb(34,69,57)" stroke-linecap="butt" stroke-miterlimit="10.0" stroke-opacity="1.0" stroke-width="5.539117094069972"><path d="M 609.0909,568.1818 h 145.4545 v 45.4545 h -145.4545 v -45.4545 "/></g><g stroke-linejoin="miter" fill-opacity="0.0" fill="rgb(0,0,0)" stroke="rgb(0,0,0)" stroke-linecap="butt" stroke-miterlimit="10.0" stroke-opacity="1.0" stroke-width="0.7385489458759963"><path d="M 590.9091,454.5455 h 181.8182 v 90.9091 h -181.8182 v -90.9091 "/></g><g stroke-linejoin="miter" fill-opacity="0.0" fill="rgb(0,0,0)" stroke="rgb(34,69,57)" stroke-linecap="butt" stroke-miterlimit="10.0" stroke-opacity="1.0" stroke-width="5.539117094069972"><path d="M 609.0909,477.2727 h 145.4545 v 45.4545 h -145.4545 v -45.4545 "/></g><g stroke-linejoin="miter" fill-opacity="0.0" fill="rgb(0,0,0)" stroke="rgb(0,0,0)" stroke-linecap="butt" stroke-miterlimit="10.0" stroke-opacity="1.0" stroke-width="0.7385489458759963"><path d="M 590.9091,363.6364 h 181.8182 v 90.9091 h -181.8182 v -90.9091 "/></g><g stroke-linejoin="miter" fill-opacity="0.0" fill="rgb(0,0,0)" stroke="rgb(34,69,57)" stroke-linecap="butt" stroke-miterlimit="10.0" stroke-opacity="1.0" stroke-width="5.539117094069972"><path d="M 609.0909,386.3636 h 145.4545 v 45.4545 h -145.4545 v -45.4545 "/></g><g stroke-linejoin="miter" fill-opacity="0.0" fill="rgb(0,0,0)" stroke="rgb(0,0,0)" stroke-linecap="butt" stroke-miterlimit="10.0" stroke-opacity="1.0" stroke-width="0.7385489458759963"><path d="M 590.9091,272.7273 h 181.8182 v 90.9091 h -181.8182 v -90.9091 "/></g><g stroke-linejoin="miter" fill-opacity="0.0" fill="rgb(0,0,0)" stroke="rgb(34,69,57)" stroke-linecap="butt" stroke-miterlimit="10.0" stroke-opacity="1.0" stroke-width="5.539117094069972"><path d="M 609.0909,295.4545 h 145.4545 v 45.4545 h -145.4545 v -45.4545 "/></g><g stroke-linejoin="miter" fill-opacity="0.0" fill="rgb(0,0,0)" stroke="rgb(0,0,0)" stroke-linecap="butt" stroke-miterlimit="10.0" stroke-opacity="1.0" stroke-width="0.7385489458759963"><path d="M 227.2727,727.2727 h 181.8182 v 90.9091 h -181.8182 v -90.9091 "/></g><g stroke-linejoin="miter" fill-opacity="0.0" fill="rgb(0,0,0)" stroke="rgb(34,69,57)" stroke-linecap="butt" stroke-miterlimit="10.0" stroke-opacity="1.0" stroke-width="5.539117094069972"><path d="M 245.4545,750.0000 h 145.4545 v 45.4545 h -145.4545 v -45.4545 "/></g><g stroke-linejoin="miter" fill-opacity="0.0" fill="rgb(0,0,0)" stroke="rgb(0,0,0)" stroke-linecap="butt" stroke-miterlimit="10.0" stroke-opacity="1.0" stroke-width="0.7385489458759963"><path d="M 227.2727,363.6364 h 363.6364 v 363.6364 h -363.6364 v -363.6364 "/></g><g stroke-linejoin="miter" fill-opacity="0.0" fill="rgb(0,0,0)" stroke="rgb(0,0,0)" stroke-linecap="butt" stroke-miterlimit="10.0" stroke-opacity="1.0" stroke-width="0.7385489458759963"><path d="M 409.0909,636.3636 h 181.8182 v 90.9091 h -181.8182 v -90.9091 "/></g><g stroke-linejoin="miter" fill-opacity="0.0" fill="rgb(0,0,0)" stroke="rgb(34,69,57)" stroke-linecap="butt" stroke-miterlimit="10.0" stroke-opacity="1.0" stroke-width="5.539117094069972"><path d="M 427.2727,659.0909 h 145.4545 v 45.4545 h -145.4545 v -45.4545 "/></g><g stroke-linejoin="miter" fill-opacity="0.0" fill="rgb(0,0,0)" stroke="rgb(0,0,0)" stroke-linecap="butt" stroke-miterlimit="10.0" stroke-opacity="1.0" stroke-width="0.7385489458759963"><path d="M 409.0909,545.4545 h 181.8182 v 90.9091 h -181.8182 v -90.9091 "/></g><g stroke-linejoin="miter" fill-opacity="0.0" fill="rgb(0,0,0)" stroke="rgb(34,69,57)" stroke-linecap="butt" stroke-miterlimit="10.0" stroke-opacity="1.0" stroke-width="5.539117094069972"><path d="M 427.2727,568.1818 h 145.4545 v 45.4545 h -145.4545 v -45.4545 "/></g><g stroke-linejoin="miter" fill-opacity="0.0" fill="rgb(0,0,0)" stroke="rgb(0,0,0)" stroke-linecap="butt" stroke-miterlimit="10.0" stroke-opacity="1.0" stroke-width="0.7385489458759963"><path d="M 409.0909,454.5455 h 181.8182 v 90.9091 h -181.8182 v -90.9091 "/></g><g stroke-linejoin="miter" fill-opacity="0.0" fill="rgb(0,0,0)" stroke="rgb(34,69,57)" stroke-linecap="butt" stroke-miterlimit="10.0" stroke-opacity="1.0" stroke-width="5.539117094069972"><path d="M 427.2727,477.2727 h 145.4545 v 45.4545 h -145.4545 v -45.4545 "/></g><g stroke-linejoin="miter" fill-opacity="0.0" fill="rgb(0,0,0)" stroke="rgb(0,0,0)" stroke-linecap="butt" stroke-miterlimit="10.0" stroke-opacity="1.0" stroke-width="0.7385489458759963"><path d="M 227.2727,545.4545 h 181.8182 v 90.9091 h -181.8182 v -90.9091 "/></g><g stroke-linejoin="miter" fill-opacity="0.0" fill="rgb(0,0,0)" stroke="rgb(34,69,57)" stroke-linecap="butt" stroke-miterlimit="10.0" stroke-opacity="1.0" stroke-width="5.539117094069972"><path d="M 245.4545,568.1818 h 145.4545 v 45.4545 h -145.4545 v -45.4545 "/></g><g stroke-linejoin="miter" fill-opacity="0.0" fill="rgb(0,0,0)" stroke="rgb(0,0,0)" stroke-linecap="butt" stroke-miterlimit="10.0" stroke-opacity="1.0" stroke-width="0.7385489458759963"><path d="M 227.2727,454.5455 h 181.8182 v 90.9091 h -181.8182 v -90.9091 "/></g><g stroke-linejoin="miter" fill-opacity="0.0" fill="rgb(0,0,0)" stroke="rgb(34,69,57)" stroke-linecap="butt" stroke-miterlimit="10.0" stroke-opacity="1.0" stroke-width="5.539117094069972"><path d="M 245.4545,477.2727 h 145.4545 v 45.4545 h -145.4545 v -45.4545 "/></g><g stroke-linejoin="miter" fill-opacity="0.0" fill="rgb(0,0,0)" stroke="rgb(0,0,0)" stroke-linecap="butt" stroke-miterlimit="10.0" stroke-opacity="1.0" stroke-width="0.7385489458759963"><path d="M 227.2727,363.6364 h 181.8182 v 90.9091 h -181.8182 v -90.9091 "/></g><g stroke-linejoin="miter" fill-opacity="0.0" fill="rgb(0,0,0)" stroke="rgb(34,69,57)" stroke-linecap="butt" stroke-miterlimit="10.0" stroke-opacity="1.0" stroke-width="5.539117094069972"><path d="M 254.5455,386.3636 h 127.2727 l 9.0909,22.7273 l -9.0909,22.7273 h -127.2727 l -9.0909,-22.7273 l 9.0909,-22.7273 Z"/></g><g stroke-linejoin="miter" fill-opacity="0.0" fill="rgb(0,0,0)" stroke="rgb(0,0,0)" stroke-linecap="butt" stroke-miterlimit="10.0" stroke-opacity="1.0" stroke-width="0.7385489458759963"><path d="M 227.2727,272.7273 h 181.8182 v 90.9091 h -181.8182 v -90.9091 "/></g><g stroke-linejoin="miter" fill-opacity="0.0" fill="rgb(0,0,0)" stroke="rgb(34,69,57)" stroke-linecap="butt" stroke-miterlimit="10.0" stroke-opacity="1.0" stroke-width="5.539117094069972"><path d="M 245.4545,295.4545 h 145.4545 v 45.4545 h -145.4545 v -45.4545 "/></g><g stroke-linejoin="miter" fill-opacity="0.0" fill="rgb(0,0,0)" stroke="rgb(0,0,0)" stroke-linecap="butt" stroke-miterlimit="10.0" stroke-opacity="1.0" stroke-width="0.7385489458759963"><path d="M 227.2727,181.8182 h 181.8182 v 90.9091 h -181.8182 v -90.9091 "/></g><g stroke-linejoin="miter" fill-opacity="0.0" fill="rgb(0,0,0)" stroke="rgb(34,69,57)" stroke-linecap="butt" stroke-miterlimit="10.0" stroke-opacity="1.0" stroke-width="5.539117094069972"><path d="M 254.5455,204.5455 h 127.2727 l 9.0909,22.7273 l -9.0909,22.7273 h -127.2727 l -9.0909,-22.7273 l 9.0909,-22.7273 Z"/></g><g stroke-linejoin="miter" fill-opacity="0.0" fill="rgb(0,0,0)" stroke="rgb(0,0,0)" stroke-linecap="butt" stroke-miterlimit="10.0" stroke-opacity="1.0" stroke-width="0.7385489458759963"><path d="M 227.2727,90.9091 h 181.8182 v 90.9091 h -181.8182 v -90.9091 "/></g><g stroke-linejoin="miter" fill-opacity="0.0" fill="rgb(0,0,0)" stroke="rgb(34,69,57)" stroke-linecap="butt" stroke-miterlimit="10.0" stroke-opacity="1.0" stroke-width="5.539117094069972"><path d="M 245.4545,113.6364 h 145.4545 v 45.4545 h -145.4545 v -45.4545 "/></g><g stroke-linejoin="miter" fill-opacity="0.0" fill="rgb(0,0,0)" stroke="rgb(0,0,0)" stroke-linecap="butt" stroke-miterlimit="10.0" stroke-opacity="1.0" stroke-width="0.7385489458759963"><path d="M 227.2727,0.0000 h 181.8182 v 90.9091 h -181.8182 v -90.9091 "/></g><g stroke-linejoin="miter" fill-opacity="0.0" fill="rgb(0,0,0)" stroke="rgb(34,69,57)" stroke-linecap="butt" stroke-miterlimit="10.0" stroke-opacity="1.0" stroke-width="5.539117094069972"><path d="M 390.9091,45.4545 h 0.0000 c 0.0000,-12.5519 -10.1753,-22.7273 -22.7273 -22.7273h -100.0000 c -12.5519,-0.0000 -22.7273,10.1753 -22.7273 22.7273h 0.0000 c -0.0000,12.5519 10.1753,22.7273 22.7273 22.7273h 100.0000 c 12.5519,0.0000 22.7273,-10.1753 22.7273 -22.7273Z"/></g></svg>