<?xml version="1.0" encoding="UTF-8"?>
<!DOCTYPE svg PUBLIC "-//W3C//DTD SVG 1.1//EN"
    "http://www.w3.org/Graphics/SVG/1.1/DTD/svg11.dtd"><svg font-size="1" viewBox="0.0 0.0 1000.0 1000.0" stroke="rgb(0,0,0)" xmlns="http://www.w3.org/2000/svg" width="1000.0000" stroke-opacity="1" height="1000.0000" version="1.1" xmlns:xlink="http://www.w3.org/1999/xlink"><defs></defs><g stroke-linejoin="miter" fill-opacity="0.0" fill="rgb(0,0,0)" stroke="rgb(34,69,57)" stroke-linecap="butt" stroke-miterlimit="10.0" stroke-opacity="1.0" stroke-width="0.5"><path d="M 500.0000,722.2222 h 0.0000 v 222.2222 "/></g><g stroke-linejoin="miter" fill-opacity="0.0" fill="rgb(0,0,0)" stroke="rgb(34,69,57)" stroke-linecap="butt" stroke-miterlimit="10.0" stroke-opacity="1.0" stroke-width="0.5"><path d="M 500.0000,500.0000 h 0.0000 v 444.4444 "/></g><g stroke-linejoin="miter" fill-opacity="0.0" fill="rgb(0,0,0)" stroke="rgb(34,69,57)" stroke-linecap="butt" stroke-miterlimit="10.0" stroke-opacity="1.0" stroke-width="0.5"><path d="M 500.0000,500.0000 h 0.0000 v 222.2222 "/></g><g stroke-linejoin="miter" fill-opacity="0.0" fill="rgb(0,0,0)" stroke="rgb(34,69,57)" stroke-linecap="butt" stroke-miterlimit="10.0" stroke-opacity="1.0" stroke-width="0.5"><path d="M 500.0000,277.7778 h 0.0000 v 222.2222 "/></g><g stroke-linejoin="miter" fill-opacity="0.0" fill="rgb(0,0,0)" stroke="rgb(34,69,57)" stroke-linecap="butt" stroke-miterlimit="10.0" stroke-opacity="1.0" stroke-width="0.5"><path d="M 500.0000,55.5556 h 0.0000 v 222.2222 "/></g><g stroke-linejoin="miter" fill-opacity="1.0" fill="rgb(69,173,127)" stroke="rgb(34,69,57)" stroke-linecap="butt" stroke-miterlimit="10.0" stroke-opacity="1.0" stroke-width="0.5"><path d="M 611.1111,944.4444 h 0.0000 c 0.0000,-30.6825 -24.8731,-55.5556 -55.5556 -55.5556h -111.1111 c -30.6825,-0.0000 -55.5556,24.8731 -55.5556 55.5556h 0.0000 c -0.0000,30.6825 24.8731,55.5556 55.5556 55.5556h 111.1111 c 30.6825,0.0000 55.5556,-24.8731 55.5556 -55.5556Z"/></g><g stroke-linejoin="miter" fill-opacity="1.0" font-size="16.666666666666668px" fill="rgb(34,69,57)" stroke="rgb(0,0,0)" font-weight="300" font-family="helvetica" stroke-linecap="butt" stroke-miterlimit="10.0" stroke-opacity="1.0" stroke-width="1.8856180831641267"><text transform="matrix(1.0000,0.0000,0.0000,1.0000,500.0000,944.4444)" stroke="none" dominant-baseline="middle" text-anchor="middle">The end</text></g><g stroke-linejoin="miter" fill-opacity="1.0" fill="rgb(69,173,127)" stroke="rgb(34,69,57)" stroke-linecap="butt" stroke-miterlimit="10.0" stroke-opacity="1.0" stroke-width="0.5"><path d="M 611.1111,777.7778 l -0.0000,-111.1111 h -222.2222 l -0.0000,111.1111 Z"/></g><g stroke-linejoin="miter" fill-opacity="1.0" font-size="16.666666666666668px" fill="rgb(34,69,57)" stroke="rgb(0,0,0)" font-weight="300" font-family="helvetica" stroke-linecap="butt" stroke-miterlimit="10.0" stroke-opacity="1.0" stroke-width="1.8856180831641267"><text transform="matrix(1.0000,0.0000,0.0000,1.0000,500.0000,722.2222)" stroke="none" dominant-baseline="middle" text-anchor="middle">perfuse the brain</text></g><g stroke-linejoin="miter" fill-opacity="1.0" fill="rgb(69,173,127)" stroke="rgb(34,69,57)" stroke-linecap="butt" stroke-miterlimit="10.0" stroke-opacity="1.0" stroke-width="0.5"><path d="M 411.1111,555.5556 l -22.2222,-55.5556 l 22.2222,-55.5556 h 177.7778 l 22.2222,55.5556 l -22.2222,55.5556 h -177.7778 Z"/></g><g stroke-linejoin="miter" fill-opacity="1.0" font-size="16.666666666666668px" fill="rgb(34,69,57)" stroke="rgb(0,0,0)" font-weight="300" font-family="helvetica" stroke-linecap="butt" stroke-miterlimit="10.0" stroke-opacity="1.0" stroke-width="1.8856180831641267"><text transform="matrix(1.0000,0.0000,0.0000,1.0000,500.0000,500.0000)" stroke="none" dominant-baseline="middle" text-anchor="middle">perfusion</text></g><g stroke-linejoin="miter" fill-opacity="1.0" fill="rgb(69,173,127)" stroke="rgb(34,69,57)" stroke-linecap="butt" stroke-miterlimit="10.0" stroke-opacity="1.0" stroke-width="0.5"><path d="M 388.8889,333.3333 v -111.1111 h 222.2222 v 111.1111 l -111.1111,22.2222 Z"/></g><g stroke-linejoin="miter" fill-opacity="1.0" font-size="16.666666666666668px" fill="rgb(34,69,57)" stroke="rgb(0,0,0)" font-weight="300" font-family="helvetica" stroke-linecap="butt" stroke-miterlimit="10.0" stroke-opacity="1.0" stroke-width="1.8856180831641267"><text transform="matrix(1.0000,0.0000,0.0000,1.0000,500.0000,277.7778)" stroke="none" dominant-baseline="middle" text-anchor="middle">Cryopreservation</text></g><g stroke-linejoin="miter" fill-opacity="1.0" fill="rgb(69,173,127)" stroke="rgb(34,69,57)" stroke-linecap="butt" stroke-miterlimit="10.0" stroke-opacity="1.0" stroke-width="0.5"><path d="M 611.1111,55.5556 h 0.0000 c 0.0000,-30.6825 -24.8731,-55.5556 -55.5556 -55.5556h -111.1111 c -30.6825,-0.0000 -55.5556,24.8731 -55.5556 55.5556h 0.0000 c -0.0000,30.6825 24.8731,55.5556 55.5556 55.5556h 111.1111 c 30.6825,0.0000 55.5556,-24.8731 55.5556 -55.5556Z"/></g><g stroke-linejoin="miter" fill-opacity="1.0" font-size="16.666666666666668px" fill="rgb(34,69,57)" stroke="rgb(0,0,0)" font-weight="300" font-family="helvetica" stroke-linecap="butt" stroke-miterlimit="10.0" stroke-opacity="1.0" stroke-width="1.8856180831641267"><text transform="matrix(1.0000,0.0000,0.0000,1.0000,500.0000,55.5556)" stroke="none" dominant-baseline="middle" text-anchor="middle">transport</text></g></svg>