<?xml version="1.0" encoding="UTF-8"?>
<!DOCTYPE svg PUBLIC "-//W3C//DTD SVG 1.1//EN"
    "http://www.w3.org/Graphics/SVG/1.1/DTD/svg11.dtd"><svg font-size="1" viewBox="0.0 0.0 1000.0 1000.0" stroke="rgb(0,0,0)" xmlns="http://www.w3.org/2000/svg" width="1000.0000" stroke-opacity="1" height="1000.0000" version="1.1" xmlns:xlink="http://www.w3.org/1999/xlink"><defs></defs><g stroke-linejoin="miter" fill-opacity="0.0" fill="rgb(0,0,0)" stroke="rgb(34,69,57)" stroke-linecap="butt" stroke-miterlimit="10.0" stroke-opacity="1.0" stroke-width="0.5"><path d="M 496.1538,807.6923 v 153.8462 "/></g><g stroke-linejoin="miter" fill-opacity="0.0" fill="rgb(0,0,0)" stroke="rgb(34,69,57)" stroke-linecap="butt" stroke-miterlimit="10.0" stroke-opacity="1.0" stroke-width="0.5"><path d="M 496.1538,653.8462 v 153.8462 "/></g><g stroke-linejoin="miter" fill-opacity="0.0" fill="rgb(0,0,0)" stroke="rgb(34,69,57)" stroke-linecap="butt" stroke-miterlimit="10.0" stroke-opacity="1.0" stroke-width="0.5"><path d="M 496.1538,500.0000 v 153.8462 "/></g><g stroke-linejoin="miter" fill-opacity="0.0" fill="rgb(0,0,0)" stroke="rgb(34,69,57)" stroke-linecap="butt" stroke-miterlimit="10.0" stroke-opacity="1.0" stroke-width="0.5"><path d="M 496.1538,346.1538 v 153.8462 "/></g><g stroke-linejoin="miter" fill-opacity="0.0" fill="rgb(0,0,0)" stroke="rgb(34,69,57)" stroke-linecap="butt" stroke-miterlimit="10.0" stroke-opacity="1.0" stroke-width="0.5"><path d="M 496.1538,192.3077 v 153.8462 "/></g><g stroke-linejoin="miter" fill-opacity="0.0" fill="rgb(0,0,0)" stroke="rgb(34,69,57)" stroke-linecap="butt" stroke-miterlimit="10.0" stroke-opacity="1.0" stroke-width="0.5"><path d="M 496.1538,38.4615 v 153.8462 "/></g><g stroke-linejoin="miter" fill-opacity="1.0" fill="rgb(69,173,127)" stroke="rgb(34,69,57)" stroke-linecap="butt" stroke-miterlimit="10.0" stroke-opacity="1.0" stroke-width="0.5"><path d="M 573.0769,961.5385 h 0.0000 c 0.0000,-21.2417 -17.2198,-38.4615 -38.4615 -38.4615h -76.9231 c -21.2417,-0.0000 -38.4615,17.2198 -38.4615 38.4615h 0.0000 c -0.0000,21.2417 17.2198,38.4615 38.4615 38.4615h 76.9231 c 21.2417,0.0000 38.4615,-17.2198 38.4615 -38.4615Z"/></g><g stroke-linejoin="miter" fill-opacity="1.0" font-size="11.538461538461538px" fill="rgb(34,69,57)" stroke="rgb(0,0,0)" font-weight="300" font-family="helvetica" stroke-linecap="butt" stroke-miterlimit="10.0" stroke-opacity="1.0" stroke-width="1.6076739049370006"><text transform="matrix(1.0000,0.0000,0.0000,1.0000,496.1538,961.5385)" stroke="none" dominant-baseline="middle" text-anchor="middle">end</text></g><g stroke-linejoin="miter" fill-opacity="1.0" fill="rgb(69,173,127)" stroke="rgb(34,69,57)" stroke-linecap="butt" stroke-miterlimit="10.0" stroke-opacity="1.0" stroke-width="0.5"><path d="M 511.5385,807.6923 c 0.0000,-8.4967 -6.8879,-15.3846 -15.3846 -15.3846c -8.4967,-0.0000 -15.3846,6.8879 -15.3846 15.3846c -0.0000,8.4967 6.8879,15.3846 15.3846 15.3846c 8.4967,0.0000 15.3846,-6.8879 15.3846 -15.3846Z"/></g><g stroke-linejoin="miter" fill-opacity="1.0" font-size="11.538461538461538px" fill="rgb(34,69,57)" stroke="rgb(0,0,0)" font-weight="300" font-family="helvetica" stroke-linecap="butt" stroke-miterlimit="10.0" stroke-opacity="1.0" stroke-width="1.6076739049370006"><text transform="matrix(1.0000,0.0000,0.0000,1.0000,496.1538,807.6923)" stroke="none" dominant-baseline="middle" text-anchor="middle">:new:</text></g><g stroke-linejoin="miter" fill-opacity="1.0" fill="rgb(69,173,127)" stroke="rgb(34,69,57)" stroke-linecap="butt" stroke-miterlimit="10.0" stroke-opacity="1.0" stroke-width="0.5"><path d="M 511.5385,653.8462 c 0.0000,-8.4967 -6.8879,-15.3846 -15.3846 -15.3846c -8.4967,-0.0000 -15.3846,6.8879 -15.3846 15.3846c -0.0000,8.4967 6.8879,15.3846 15.3846 15.3846c 8.4967,0.0000 15.3846,-6.8879 15.3846 -15.3846Z"/></g><g stroke-linejoin="miter" fill-opacity="1.0" font-size="11.538461538461538px" fill="rgb(34,69,57)" stroke="rgb(0,0,0)" font-weight="300" font-family="helvetica" stroke-linecap="butt" stroke-miterlimit="10.0" stroke-opacity="1.0" stroke-width="1.6076739049370006"><text transform="matrix(1.0000,0.0000,0.0000,1.0000,496.1538,653.8462)" stroke="none" dominant-baseline="middle" text-anchor="middle">:new:</text></g><g stroke-linejoin="miter" fill-opacity="1.0" fill="rgb(69,173,127)" stroke="rgb(34,69,57)" stroke-linecap="butt" stroke-miterlimit="10.0" stroke-opacity="1.0" stroke-width="0.5"><path d="M 573.0769,538.4615 l -0.0000,-76.9231 h -153.8462 l -0.0000,76.9231 Z"/></g><g stroke-linejoin="miter" fill-opacity="1.0" font-size="11.538461538461538px" fill="rgb(34,69,57)" stroke="rgb(0,0,0)" font-weight="300" font-family="helvetica" stroke-linecap="butt" stroke-miterlimit="10.0" stroke-opacity="1.0" stroke-width="1.6076739049370006"><text transform="matrix(1.0000,0.0000,0.0000,1.0000,496.1538,500.0000)" stroke="none" dominant-baseline="middle" text-anchor="middle">action 9</text></g><g stroke-linejoin="miter" fill-opacity="1.0" fill="rgb(69,173,127)" stroke="rgb(34,69,57)" stroke-linecap="butt" stroke-miterlimit="10.0" stroke-opacity="1.0" stroke-width="0.5"><path d="M 434.6154,384.6154 l -15.3846,-38.4615 l 15.3846,-38.4615 h 123.0769 l 15.3846,38.4615 l -15.3846,38.4615 h -123.0769 Z"/></g><g stroke-linejoin="miter" fill-opacity="1.0" font-size="11.538461538461538px" fill="rgb(34,69,57)" stroke="rgb(0,0,0)" font-weight="300" font-family="helvetica" stroke-linecap="butt" stroke-miterlimit="10.0" stroke-opacity="1.0" stroke-width="1.6076739049370006"><text transform="matrix(1.0000,0.0000,0.0000,1.0000,580.7692,334.6154)" stroke="none" dominant-baseline="middle" text-anchor="middle">no</text></g><g stroke-linejoin="miter" fill-opacity="1.0" font-size="11.538461538461538px" fill="rgb(34,69,57)" stroke="rgb(0,0,0)" font-weight="300" font-family="helvetica" stroke-linecap="butt" stroke-miterlimit="10.0" stroke-opacity="1.0" stroke-width="1.6076739049370006"><text transform="matrix(1.0000,0.0000,0.0000,1.0000,480.7692,400.0000)" stroke="none" dominant-baseline="middle" text-anchor="middle">yes</text></g><g stroke-linejoin="miter" fill-opacity="1.0" font-size="11.538461538461538px" fill="rgb(34,69,57)" stroke="rgb(0,0,0)" font-weight="300" font-family="helvetica" stroke-linecap="butt" stroke-miterlimit="10.0" stroke-opacity="1.0" stroke-width="1.6076739049370006"><text transform="matrix(1.0000,0.0000,0.0000,1.0000,496.1538,346.1538)" stroke="none" dominant-baseline="middle" text-anchor="middle">question 7</text></g><g stroke-linejoin="miter" fill-opacity="1.0" fill="rgb(69,173,127)" stroke="rgb(34,69,57)" stroke-linecap="butt" stroke-miterlimit="10.0" stroke-opacity="1.0" stroke-width="0.5"><path d="M 434.6154,230.7692 l -15.3846,-38.4615 l 15.3846,-38.4615 h 123.0769 l 15.3846,38.4615 l -15.3846,38.4615 h -123.0769 Z"/></g><g stroke-linejoin="miter" fill-opacity="1.0" font-size="11.538461538461538px" fill="rgb(34,69,57)" stroke="rgb(0,0,0)" font-weight="300" font-family="helvetica" stroke-linecap="butt" stroke-miterlimit="10.0" stroke-opacity="1.0" stroke-width="1.6076739049370006"><text transform="matrix(1.0000,0.0000,0.0000,1.0000,580.7692,180.7692)" stroke="none" dominant-baseline="middle" text-anchor="middle">no</text></g><g stroke-linejoin="miter" fill-opacity="1.0" font-size="11.538461538461538px" fill="rgb(34,69,57)" stroke="rgb(0,0,0)" font-weight="300" font-family="helvetica" stroke-linecap="butt" stroke-miterlimit="10.0" stroke-opacity="1.0" stroke-width="1.6076739049370006"><text transform="matrix(1.0000,0.0000,0.0000,1.0000,480.7692,246.1538)" stroke="none" dominant-baseline="middle" text-anchor="middle">yes</text></g><g stroke-linejoin="miter" fill-opacity="1.0" font-size="11.538461538461538px" fill="rgb(34,69,57)" stroke="rgb(0,0,0)" font-weight="300" font-family="helvetica" stroke-linecap="butt" stroke-miterlimit="10.0" stroke-opacity="1.0" stroke-width="1.6076739049370006"><text transform="matrix(1.0000,0.0000,0.0000,1.0000,496.1538,192.3077)" stroke="none" dominant-baseline="middle" text-anchor="middle">question 2</text></g><g stroke-linejoin="miter" fill-opacity="1.0" fill="rgb(69,173,127)" stroke="rgb(34,69,57)" stroke-linecap="butt" stroke-miterlimit="10.0" stroke-opacity="1.0" stroke-width="0.5"><path d="M 573.0769,38.4615 h 0.0000 c 0.0000,-21.2417 -17.2198,-38.4615 -38.4615 -38.4615h -76.9231 c -21.2417,-0.0000 -38.4615,17.2198 -38.4615 38.4615h 0.0000 c -0.0000,21.2417 17.2198,38.4615 38.4615 38.4615h 76.9231 c 21.2417,0.0000 38.4615,-17.2198 38.4615 -38.4615Z"/></g><g stroke-linejoin="miter" fill-opacity="1.0" font-size="11.538461538461538px" fill="rgb(34,69,57)" stroke="rgb(0,0,0)" font-weight="300" font-family="helvetica" stroke-linecap="butt" stroke-miterlimit="10.0" stroke-opacity="1.0" stroke-width="1.6076739049370006"><text transform="matrix(1.0000,0.0000,0.0000,1.0000,496.1538,38.4615)" stroke="none" dominant-baseline="middle" text-anchor="middle">title</text></g></svg>