<?xml version="1.0" encoding="UTF-8"?>
<!DOCTYPE svg PUBLIC "-//W3C//DTD SVG 1.1//EN"
    "http://www.w3.org/Graphics/SVG/1.1/DTD/svg11.dtd"><svg font-size="1" viewBox="0.0 0.0 1000.0 1000.0" stroke="rgb(0,0,0)" xmlns="http://www.w3.org/2000/svg" width="1000.0000" stroke-opacity="1" height="1000.0000" version="1.1" xmlns:xlink="http://www.w3.org/1999/xlink"><defs></defs><g stroke-linejoin="miter" fill-opacity="0.0" fill="rgb(0,0,0)" stroke="rgb(34,69,57)" stroke-linecap="butt" stroke-miterlimit="10.0" stroke-opacity="1.0" stroke-width="0.760116950066092"><path d="M 322.2222,722.2222 v 222.2222 "/></g><g stroke-linejoin="miter" fill-opacity="0.0" fill="rgb(0,0,0)" stroke="rgb(34,69,57)" stroke-linecap="butt" stroke-miterlimit="10.0" stroke-opacity="1.0" stroke-width="0.760116950066092"><path d="M 322.2222,500.0000 v 222.2222 "/></g><g stroke-linejoin="miter" fill-opacity="0.0" fill="rgb(0,0,0)" stroke="rgb(34,69,57)" stroke-linecap="butt" stroke-miterlimit="10.0" stroke-opacity="1.0" stroke-width="0.760116950066092"><path d="M 322.2222,277.7778 h 444.4444 v 555.5556 h -444.4444 v 111.1111 "/></g><g stroke-linejoin="miter" fill-opacity="0.0" fill="rgb(0,0,0)" stroke="rgb(34,69,57)" stroke-linecap="butt" stroke-miterlimit="10.0" stroke-opacity="1.0" stroke-width="0.760116950066092"><path d="M 322.2222,277.7778 v 222.2222 "/></g><g stroke-linejoin="miter" fill-opacity="0.0" fill="rgb(0,0,0)" stroke="rgb(34,69,57)" stroke-linecap="butt" stroke-miterlimit="10.0" stroke-opacity="1.0" stroke-width="0.760116950066092"><path d="M 322.2222,55.5556 v 222.2222 "/></g><g stroke-linejoin="miter" fill-opacity="1.0" fill="rgb(69,173,127)" stroke="rgb(34,69,57)" stroke-linecap="butt" stroke-miterlimit="10.0" stroke-opacity="1.0" stroke-width="0.760116950066092"><path d="M 788.8889,722.2222 c 0.0000,-12.2730 -9.9492,-22.2222 -22.2222 -22.2222c -12.2730,-0.0000 -22.2222,9.9492 -22.2222 22.2222c -0.0000,12.2730 9.9492,22.2222 22.2222 22.2222c 12.2730,0.0000 22.2222,-9.9492 22.2222 -22.2222Z"/></g><g stroke-linejoin="miter" fill-opacity="1.0" font-size="16.666666666666668px" fill="rgb(34,69,57)" stroke="rgb(0,0,0)" font-weight="300" font-family="helvetica" stroke-linecap="butt" stroke-miterlimit="10.0" stroke-opacity="1.0" stroke-width="3.040467800264368"><text transform="matrix(1.0000,0.0000,0.0000,1.0000,766.6667,722.2222)" stroke="none" dominant-baseline="middle" text-anchor="middle">:new:</text></g><g stroke-linejoin="miter" fill-opacity="1.0" fill="rgb(69,173,127)" stroke="rgb(34,69,57)" stroke-linecap="butt" stroke-miterlimit="10.0" stroke-opacity="1.0" stroke-width="0.760116950066092"><path d="M 788.8889,500.0000 c 0.0000,-12.2730 -9.9492,-22.2222 -22.2222 -22.2222c -12.2730,-0.0000 -22.2222,9.9492 -22.2222 22.2222c -0.0000,12.2730 9.9492,22.2222 22.2222 22.2222c 12.2730,0.0000 22.2222,-9.9492 22.2222 -22.2222Z"/></g><g stroke-linejoin="miter" fill-opacity="1.0" font-size="16.666666666666668px" fill="rgb(34,69,57)" stroke="rgb(0,0,0)" font-weight="300" font-family="helvetica" stroke-linecap="butt" stroke-miterlimit="10.0" stroke-opacity="1.0" stroke-width="3.040467800264368"><text transform="matrix(1.0000,0.0000,0.0000,1.0000,766.6667,500.0000)" stroke="none" dominant-baseline="middle" text-anchor="middle">:new:</text></g><g stroke-linejoin="miter" fill-opacity="1.0" fill="rgb(69,173,127)" stroke="rgb(34,69,57)" stroke-linecap="butt" stroke-miterlimit="10.0" stroke-opacity="1.0" stroke-width="0.760116950066092"><path d="M 433.3333,944.4444 h 0.0000 c 0.0000,-30.6825 -24.8731,-55.5556 -55.5556 -55.5556h -111.1111 c -30.6825,-0.0000 -55.5556,24.8731 -55.5556 55.5556h 0.0000 c -0.0000,30.6825 24.8731,55.5556 55.5556 55.5556h 111.1111 c 30.6825,0.0000 55.5556,-24.8731 55.5556 -55.5556Z"/></g><g stroke-linejoin="miter" fill-opacity="1.0" font-size="16.666666666666668px" fill="rgb(34,69,57)" stroke="rgb(0,0,0)" font-weight="300" font-family="helvetica" stroke-linecap="butt" stroke-miterlimit="10.0" stroke-opacity="1.0" stroke-width="3.040467800264368"><text transform="matrix(1.0000,0.0000,0.0000,1.0000,322.2222,944.4444)" stroke="none" dominant-baseline="middle" text-anchor="middle">end</text></g><g stroke-linejoin="miter" fill-opacity="1.0" fill="rgb(69,173,127)" stroke="rgb(34,69,57)" stroke-linecap="butt" stroke-miterlimit="10.0" stroke-opacity="1.0" stroke-width="0.760116950066092"><path d="M 433.3333,777.7778 l -0.0000,-111.1111 h -222.2222 l -0.0000,111.1111 Z"/></g><g stroke-linejoin="miter" fill-opacity="1.0" font-size="16.666666666666668px" fill="rgb(34,69,57)" stroke="rgb(0,0,0)" font-weight="300" font-family="helvetica" stroke-linecap="butt" stroke-miterlimit="10.0" stroke-opacity="1.0" stroke-width="3.040467800264368"><text transform="matrix(1.0000,0.0000,0.0000,1.0000,322.2222,722.2222)" stroke="none" dominant-baseline="middle" text-anchor="middle">action 2</text></g><g stroke-linejoin="miter" fill-opacity="1.0" fill="rgb(69,173,127)" stroke="rgb(34,69,57)" stroke-linecap="butt" stroke-miterlimit="10.0" stroke-opacity="1.0" stroke-width="0.760116950066092"><path d="M 433.3333,555.5556 l -0.0000,-111.1111 h -222.2222 l -0.0000,111.1111 Z"/></g><g stroke-linejoin="miter" fill-opacity="1.0" font-size="16.666666666666668px" fill="rgb(34,69,57)" stroke="rgb(0,0,0)" font-weight="300" font-family="helvetica" stroke-linecap="butt" stroke-miterlimit="10.0" stroke-opacity="1.0" stroke-width="3.040467800264368"><text transform="matrix(1.0000,0.0000,0.0000,1.0000,322.2222,500.0000)" stroke="none" dominant-baseline="middle" text-anchor="middle">action 1</text></g><g stroke-linejoin="miter" fill-opacity="1.0" fill="rgb(69,173,127)" stroke="rgb(34,69,57)" stroke-linecap="butt" stroke-miterlimit="10.0" stroke-opacity="1.0" stroke-width="0.760116950066092"><path d="M 233.3333,333.3333 l -22.2222,-55.5556 l 22.2222,-55.5556 h 177.7778 l 22.2222,55.5556 l -22.2222,55.5556 h -177.7778 Z"/></g><g stroke-linejoin="miter" fill-opacity="1.0" font-size="16.666666666666668px" fill="rgb(34,69,57)" stroke="rgb(0,0,0)" font-weight="300" font-family="helvetica" stroke-linecap="butt" stroke-miterlimit="10.0" stroke-opacity="1.0" stroke-width="3.040467800264368"><text transform="matrix(1.0000,0.0000,0.0000,1.0000,444.4444,261.1111)" stroke="none" dominant-baseline="middle" text-anchor="middle">no</text></g><g stroke-linejoin="miter" fill-opacity="1.0" font-size="16.666666666666668px" fill="rgb(34,69,57)" stroke="rgb(0,0,0)" font-weight="300" font-family="helvetica" stroke-linecap="butt" stroke-miterlimit="10.0" stroke-opacity="1.0" stroke-width="3.040467800264368"><text transform="matrix(1.0000,0.0000,0.0000,1.0000,300.0000,355.5556)" stroke="none" dominant-baseline="middle" text-anchor="middle">yes</text></g><g stroke-linejoin="miter" fill-opacity="1.0" font-size="16.666666666666668px" fill="rgb(34,69,57)" stroke="rgb(0,0,0)" font-weight="300" font-family="helvetica" stroke-linecap="butt" stroke-miterlimit="10.0" stroke-opacity="1.0" stroke-width="3.040467800264368"><text transform="matrix(1.0000,0.0000,0.0000,1.0000,322.2222,277.7778)" stroke="none" dominant-baseline="middle" text-anchor="middle">question</text></g><g stroke-linejoin="miter" fill-opacity="1.0" fill="rgb(69,173,127)" stroke="rgb(34,69,57)" stroke-linecap="butt" stroke-miterlimit="10.0" stroke-opacity="1.0" stroke-width="0.760116950066092"><path d="M 433.3333,55.5556 h 0.0000 c 0.0000,-30.6825 -24.8731,-55.5556 -55.5556 -55.5556h -111.1111 c -30.6825,-0.0000 -55.5556,24.8731 -55.5556 55.5556h 0.0000 c -0.0000,30.6825 24.8731,55.5556 55.5556 55.5556h 111.1111 c 30.6825,0.0000 55.5556,-24.8731 55.5556 -55.5556Z"/></g><g stroke-linejoin="miter" fill-opacity="1.0" font-size="16.666666666666668px" fill="rgb(34,69,57)" stroke="rgb(0,0,0)" font-weight="300" font-family="helvetica" stroke-linecap="butt" stroke-miterlimit="10.0" stroke-opacity="1.0" stroke-width="3.040467800264368"><text transform="matrix(1.0000,0.0000,0.0000,1.0000,322.2222,55.5556)" stroke="none" dominant-baseline="middle" text-anchor="middle">title</text></g></svg>